<?xml version="1.0" encoding="utf-8"?>
<!-- Generator: Adobe Illustrator 21.1.0, SVG Export Plug-In . SVG Version: 6.00 Build 0)  -->
<svg version="1.1" id="bac1" xmlns="http://www.w3.org/2000/svg" xmlns:xlink="http://www.w3.org/1999/xlink" x="0px" y="0px"
	 viewBox="0 0 1920 1080" enable-background="new 0 0 1920 1080" xml:space="preserve">
<g>
	<rect id="_x30_" x="2.7" fill="#CD5434" width="1924.1" height="886.5"/>
	<path id="_x31_" opacity="0.48" fill="#DD8950" enable-background="new    " d="M164.6,464.9c107.2-7.7,252.7-27.1,359.9-30.9
		c107.2-3.9,107.2,3.9,183.8,15.5s153.2,23.2,199.1,19.3c46-3.9,88.7-17,111.6-17c23,0,56.8-25.5,79.8-21.6s76.6,19.3,145.5,3.9
		c68.9-15.5,76.6,11.6,107.2,15.5s38.3,7.7,76.6,7.7c38.3,0,153.2-7.7,153.2-7.7l61.3,7.7l76.6,15.5l99.6,11.6L1917,534H146.2
		L164.6,464.9z"/>
	<path id="_x32_" opacity="0.65" fill="#DD8950" enable-background="new    " d="M962,502c19.4-3.9,123.6-32.9,160-34.8
		s94.5,3.9,126.1,9.7c31.5,5.8,87.3,13.5,109.1,13.5c21.8,0,72.7-9.7,84.8-11.6c12.1-1.9,36.4-5.8,43.6-3.9
		c7.3,1.9,60.6,5.8,60.6,5.8l21.8,9.7c0,0,24.2,3.9,36.4,0c12.1-3.9,46.1-5.8,65.4-5.8c19.4,0,72.7,1.9,72.7,1.9s72.7,15.5,80,15.5
		s36.4,30.9,36.4,30.9l-904.2,5.8L962,502z"/>
	<ellipse id="_x33_" fill="#471613" cx="1149.4" cy="170.7" rx="51.6" ry="48.1"/>
	<path id="_x34_" fill="#9B2E26" d="M1516.7,365.7c-0.6-1.6-1.1-3.1-1.7-4.7c-1.8-0.1-3.4-0.5-3.8-1.6c-0.5-1.5-1-3-1.4-4.5
		c-1.7-0.8-3.4-1.9-4.9-2.5c-3.5-1.4-10.5,2.8-14.9,6.9c0,0,0.9,16.5,1.8,22s-1.8,8.3-1.8,8.3l-7.9-1.4l-9.7,2.8c0,0,0,12.4,0,17.9
		s0.9,11,0.9,16.5s0.9,23.4,0.9,23.4h-18.4v-16.5l-0.9-13.8l0.9-28.9c0,0-7.9-6.9-10.5-6.9s-8.8-6.9-14-15.2l-2.6-26.2
		c0,0,0.9-19.3,0.9-24.8s-7.9,1.4-8.8-2.8c-0.9-4.1-3.5,2.8-7,4.1c-3.5,1.4-11.4,1.4-14,1.4s-13.2,0-13.2,0s-12.3-1.4-15.8-1.4
		s-3.5,1.4-6.1,5.5c-2.5,3.9,0.9,8.3,1.8,13.8s-0.9,8.3-0.9,8.3s-7.9-1.4-13.2-1.4l-0.9-13.8c0,0-8.8-4.1-11.4-4.1s-8.8,1.4-8.8,1.4
		s-8.8,4.1-10.5,8.3c-1.8,4.1,0,12.4,0.9,20.7c0.9,8.3,12.3,49.6,12.3,49.6h-7l-7.9-2.8c0,0,0,0-2.6,2.8s-3.5-6.9-4.4-11
		s1.8-15.2,0.9-17.9c-0.9-2.8-1.8-6.9-4.4-9.6c-2.6-2.8-6.1-2.8-10.5-2.8s-7,0-13.2,1.4l4.4,35.8c0,0-6.1-2.8-8.8,0
		c-2.6,2.8-5.3-1.4-8.8,4.1s-5.3-11-5.3-11l-6.1-30.3c0,0-7-8.3-9.7-9.6c-2.6-1.4-15.8-2.8-19.3,0s-10.5,0-10.5,0s-6.1,2.8-8.8,6.9
		c-2.6,4.1,0.9,11,1.8,20.7c0.9,9.6,3.5,19.3,3.5,24.8s2.6,33.1,2.6,40s-6.1-4.1-9.7-2.8c-3.5,1.4-7.9,0-10.5,0s-2.6-9.6-3.5-16.5
		s-0.9-20.7-0.9-20.7l-5.3-22c0,0-2.6-17.9-5.3-23.4s-8.8-4.1-8.8-4.1l-7-4.1c0,0-3.5-5.5-9.7,0c-6.1,5.5-3.5-5.5-7.9-4.1
		s-5.3-11-5.3-11s-0.9-6.9-5.3-13.8c0,0-5.3-1.4-8.8,0s-3.5,0-11.4,6.9c0,0,3.5,13.8,1.8,23.4c-1.8,9.6-4.4,6.9-4.4,6.9
		s-0.9-6.9-5.3-13.8c0,0-3.5,0-6.1,1.4s-7,2.8-7,2.8l-1.8-20.7c0,0-7-1.4-10.5-1.4s-8.8,2.8-13.2,1.4c-4.4-1.4-6.1,11-8.8,15.2
		c-2.6,4.1,9.7,13.8,9.7,13.8s0,0,0,6.9s-1.8,33.1-1.8,33.1s-6.1,1.4-9.7,5.5c-3.5,4.1-7-8.3-11.4-9.6c-4.4-1.4-10.5-5.5-13.2-6.9
		c-2.6-1.4-20.2,0-26.3,1.4s-3.5-9.6-4.4-16.5s-10.5-33.1-10.5-33.1l-8.8-13.8c0,0-13.2-2.8-21.9,1.4c-8.8,4.1-5.3,0-8.8,0
		s-4.4-1.4-7,4.1s0.9,15.2,0.9,20.7s-3.5,26.2-6.1,26.2s-14,0-14,0s-8.8-4.1-11.4-2.8c-2.6,1.4-9.7-6.9-15.8-2.8s0,0-3.5,2.8
		s-7.9,5.5-7.9,5.5v12.4c0,0,0,24.8-0.9,28.9s-9.7-2.8-12.3-4.1c-2.6-1.4-14-6.9-20.2-8.3c-6.1-1.4-15.8-9.6-15.8-9.6
		s-0.9-19.3-0.9-28.9s2.6-15.2,2.6-15.2l-0.9-30.3l-17.6,1.4c0,0-9.7-1.4-14.9-1.4c-5.3,0-8.8-1.4-14-2.8
		c-5.3-1.4-12.3,4.1-14.9,9.6c-2.6,5.5,7,4.1,7,4.1l15.8,11c0,0-17.6,20.7-21.1,26.2c0,0-5.3,2.8-9.7,9.6c-4.4,6.9,2.6,11,2.6,11
		s7.9,13.8,9.7,22c1.8,8.3-3.5,6.9-7.9,6.9s-9.7,5.5-9.7,5.5s-4.4,0-8.8-2.8c-4.4-2.8-5.3-2.8-5.3-2.8s-1.8-13.8,0.9-13.8
		c2.6,0,5.3-24.8,5.3-24.8s-6.1-11-8.8-15.2c-2.6-4.1-4.4-15.2-4.4-15.2s-8.8-9.6-11.4-11s-13.2-11-18.4-9.6c-5.3,1.4-3.5-9.6-7-6.9
		c-3.5,2.8-5.3-1.4-9.7-2.8l-7-5.5c0,0,0,15.2,2.6,26.2s1.8,24.8,1.8,31.7c0,6.9,0.9,28.9,0.9,28.9s0.9,9.6,0.9,17.9
		s0.9,9.6,2.6,15.2c1.8,5.5-9.7,6.9-12.3,6.9s-9.7,0-13.2,1.4s-11.4,0-17.6,1.4c-6.1,1.4-7-8.3-7-8.3l10.5-8.3c0,0,0,0-0.9-4.1
		l2.6-22l-4.4-4.1c0,0-14.9,0-22.8,0c-7.9,0-14.9-5.5-18.4-2.8c-3.5,2.8-9.7-9.6-9.7-9.6s-6.1-35.8-6.1-40c0-4.1,0.9-19.3,0.9-19.3
		l-5.3-6.9l-6.1,8.3c0,0,1.8,11,1.8,15.2c0,4.1,0,15.2,0,15.2l0.9,8.3v6.9l0.9,13.8c0,0-6.1,0-11.4,5.5c-5.3,5.5,0,0-1.8,5.5
		s0,6.9,0,6.9l12.3,2.8l3.5,15.2l-14.9,20.7c0,0-14-1.4-17.6-2.8c-3.5-1.4-21.9-1.4-25.5,2.8c-3.5,4.1-4.4-19.3-4.4-19.3
		s-3.5-15.2-4.4-23.4c-0.9-8.3-1.8-16.5,1.8-28.9c3.5-12.4-4.4-17.9-7.9-17.9s-6.1,2.8-6.1,2.8s-17.6-2.8-22.8-5.5
		c-5.3-2.8-9.7-5.5-14-6.9c-4.4-1.4-6.1-8.3-6.1-8.3l-4.4-9.6c0,0-4.4,8.3-7,6.9s0.9,15.2,2.6,22c1.8,6.9,0,20.7,0.9,33.1
		s0,13.8-0.9,22c-0.9,8.3-4.4,9.6-4.4,9.6s-5.3-4.1-11.4-6.9c0,0-10.5-1.4-13.2,1.4c-2.6,2.8-1.8-8.3-1.8-8.3l-0.9-22l-5.3-2.8
		c0,0-4.4,0-8.8,2.8s-6.1-8.3-8.8-6.9c-2.6,1.4-3.5-13.8-3.5-13.8l-5.3-8.3c0,0-3.5,5.5-3.5,12.4s1.8,24.8,3.5,37.2
		c1.8,12.4,3.5,37.2,3.5,42.7s-7-1.4-14,4.1s-10.5-2.8-14.9-1.4s0.9-11,4.4-9.6s9.7-5.5,9.7-5.5l0.9-12.4l-2.6-15.2
		c0,0-13.2,4.1-18.4,4.1h-21.1c-6.1,0,0,0,0-4.1s-3.5-15.2-3.5-15.2s-2.6-6.9-6.1-6.9s-6.1-2.8-6.1-2.8s-7.9,1.4-11.4,4.1
		c-3.5,2.8,0-26.2,0-26.2s0.9-33.1,0-37.2s-1.8-15.2-1.8-15.2v-8.3l0.9-12.4c0,0-5.3-2.8-9.7,0c-4.4,2.8-3.5-2.8-6.1,0
		s-0.9-8.3-0.9-8.3l-5.3-12.4c0,0-7.9,0-11.4,0s-7-1.4-7-1.4l-1.8-15.2l-13.6-8.3V535h1259.5C1517,479.3,1520.4,422.1,1516.7,365.7z
		"/>
	<path fill="#872215" d="M270,355.1l21.7,7.2l1.3,24.8c0,0-2,15.5,1.3,13.4s11.9-1,12.5,2.1c0.7,3.1,0,14.5,0.7,17.6
		s-2,20.7,1.3,17.6s16.5,1,16.5,1l-2-17.6l2-6.2l13.8,2.1c0,0,5.3,11.4,5.3,15.5s1.3,20.7,0.7,25.8c-0.7,5.2-1.3,23.8-1.3,23.8
		s16.5-1,19.1-1s4.6-11.4,4.6-11.4l-2-42.4c0,0,0-27.9,0-33.1s-1.3-20.7-1.3-20.7l20.4-10.3l7.2,4.1l5.9,10.3l4,24.8
		c0,0,6.6,5.2,8.6,3.1s5.9,3.1,5.9,8.3s0.7,34.1,0.7,37.2s-1.3,36.2-1.3,36.2s20.4,3.1,22.4,2.1s17.8-3.1,17.8-3.1l7.9,15.5
		l15.8,18.6l5.9,8.3l13.2-12.4l-4-40.3l19.8-4.1c0,0,13.8,4.1,13.2,7.2c-0.7,3.1-2,22.7-2,22.7h8.6l5.9-1l-0.7,34.1H270V355.1z"/>
	<path fill="#872215" d="M621,500.9c0-4.1-4-32-4-37.2s2.6-9.3,4.6-9.3s11.2,6.2,11.2,6.2s0.7-6.2,0.7-11.4c0-5.2-2-32-2-32l3.3-2.1
		H648l1.3-33.1v-11.4c0,0,11.9-2.1,15.1-1c3.3,1,6.6,2.1,7.2,14.5c0.7,12.4,0,58.9,0.7,64.1s-1.3,20.7,2,17.6s23,0,25,0
		s13.2-3.1,13.2-3.1l6.6-14.5l6.6,9.3l4.6,21.7c0,0,7.9,6.2,11.2,4.1s16.5-4.1,16.5-4.1l9.9,2.1c0,0,6.6-14.5,5.9-22.7
		c-0.7-8.3-7.9-21.7-7.2-24.8c0.7-3.1,50.7-2.1,50.7-2.1s17.8,10.3,16.5,14.5c-1.3,4.1-3.3,31-3.3,31l19.1,7.2l13.2-5.2l5.3-20.7
		h7.9h11.9V535H592l5.9-20.7c0,0,2,3.1,4,3.1s8.6,0,8.6,0L621,500.9z"/>
	<path id="_x35_" fill="#431514" d="M2.7,438.1c0,0,142.2,2.6,168.1,5.2s87.3,28.3,113.1,33.5s35.6,12.9,61.4,10.3
		c25.9-2.6,74.3,2.6,90.5,2.6s42,5.2,61.4,7.7c19.4,2.6,6.5,10.3,45.3,7.7s77.6-2.6,93.7-5.2s54.9-12.9,71.1-15.5
		c16.2-2.6,71.1,7.7,84,15.5c12.9,7.7,38.8,10.3,61.4,12.9c22.6,2.6,67.9,2.6,90.5,5.2s77.6-7.7,100.2-10.3
		c22.6-2.6,74.3-12.9,74.3-12.9s71.1-10.3,80.8-5.2c9.7,5.2,67.9-2.6,77.6,2.6s51.7,7.7,64.6,10.3s58.2,5.2,80.8,7.7
		c22.6,2.6,106.7,10.3,132.5,10.3c25.9,0,116.4-23.2,132.5-18c16.2,5.2,93.7-23.2,93.7-23.2l146.3-43.8V719
		c0,0-1403.7-30.9-1442.5,0S2.7,719,2.7,719V438.1z"/>
	<path fill="#9C3B28" d="M1929.2,441.1c-147.3,42.8-300.3,84-455.9,71.8c-85.1-6.7-168-29.3-253.6-30
		c-117.3-0.9-233.2,39.6-349.1,25.2c-41.2-5.1-80.9-17.1-122.4-20c-44.5-3.1-88.9,4.3-133.3,7.5c-70.5,5-141.4-0.9-211.8-6.7
		c-32.2-2.7-64.6-5.4-95.9-12.1c-30.7-6.6-59.9-16.9-90.4-24c-69.1-16.1-142.5-15-214.2-8.9v4.2c59.3,10.4,123.1-0.6,182.7,10.2
		c58.8,10.6,111.1,42.1,171.3,44c40.7,1.2,83-11.2,121.1,0.1c17.9,5.3,33.1,15.5,51.3,20.3c45.5,12.1,92.2-12,138.9-21.2
		c95-18.7,191.4,26,289.2,26.8c72.4,0.6,141.9-22.9,214.1-27.6c78.4-5.2,156,11.9,233.8,21c179.3,21,369.3-2.1,524.1-76.8
		L1929.2,441.1L1929.2,441.1z"/>
	<path fill="#9C3B28" d="M261.5,495c-19.1-7.8-40.2-12.4-61.6-13.6c4-3.9,9.8-6.6,16-7.5c-14.1-13.7-35.8-22.3-58.1-22.9
		c9.9,0.5,19.5,4.2,26.1,10.2c-23.3,0.3-46.1,10.6-58.2,26.5c13.9-3.2,28.9-3.1,42.7,0.1c-8.1,2.3-16,5.1-23.6,8.3
		c28.9,4.7,57.7,9.4,86.6,14.1c9.7,1.6,21,4.2,24.5,11.6c-56.3,4.3-112.7,8.6-169,12.9c-16.9,1.3-35.1,3-47.8,12
		c42.8-0.9,85.5-1.8,128.3-2.7c37.3-0.8,75.1-1.5,111.1,6.2c-6,0.5-11.9,1-17.9,1.5c39.5-6,80.3-6.4,120-1.3
		c-2.2,1.1-4.3,2.1-6.5,3.2c4.6-1.9,9.1-3.9,13.7-5.8c-39.3-9.6-81.4-11.8-121.9-6.4c12.2-6.5,24.4-12.9,36.7-19.4
		c-21.7,5.2-46.8,0.1-62.7-12.8C248.1,505.5,255.5,500.7,261.5,495z"/>
	<path fill="#9C3B28" d="M602.6,539.1c-8.2-5.9-12.4-15.2-10.9-23.9c0.6-3.2-2.7-8.2-5-5.6c2.8-1.8,5.5-3.6,8.3-5.5
		c-32.4,8.4-66.6,12.6-100.7,12.3c29.9,3.9,59.8,7.8,89.6,11.7c-40.4,5.9-80.1,15.4-118,28.1c32.3-8.5,68.8-6.1,98.9,6.5
		c-1,2.3-2.1,4.5-3.1,6.8c9.8,1.1,19.5,2.1,29.3,3.2c-4.2,6.1-13.7,8.2-22.3,9.7c-30.1,5-60.4,8.7-91,11.2c13.9,3.2,29.2,2,42-3.3
		c-43-0.4-86.1,5.7-126.4,17.9c66.3,4.2,132.7,8.4,199,12.6c30.7,1.9,61.4,3.9,92.2,2.9c-29.1,0.1-58.2,0.1-87.3,0.2
		c-13.3,0-29.2-1.1-35.7-10.3c4.4,1.2,8.1-3.9,6.1-7.3c-1.9-3.4-6.7-5-11.1-6.4c17.1-8,34.1-16,51.2-24c-9.8-1.7-15.2-12.2-9.7-18.8
		c-3.5-1.2-7-2.4-10.5-3.6c2.9-0.2,3.5-3.7,1.6-5.4s-5.1-2-8-2.1c-8.9-0.3-17.9,0.3-26.6,1.8C569.6,542.1,586.1,539.1,602.6,539.1z"
		/>
	<path fill="#9C3B28" d="M855.8,543.7c0,4.6-0.1,9.1-0.1,13.7c-48.4,4.6-96.8,9.9-144.9,16.1c4.2-1.3,8.4-2.7,12.7-4
		c-11.8,0.1-23.5,0.2-35.3,0.3c14.9-7.8,31.6-13.6,48.9-17c-8.1-3.9-17.9-5.4-27.2-4.1c5.1-4.6,9.9-9.5,14.4-14.5
		c-6.2-2.9-13.6-4.1-20.7-3.5c3.4-6.1-1-14.2-8.9-16.4c-1.1,5.2,1,10.7,5.6,14.5c-9.3,3.1-11.1,15-2.9,19.8
		c-9,3.8-17.9,7.6-26.9,11.4c66.7,13.9,138.9,10.5,203.2-9.5c-3.2-4.8-11.9-4.1-18.7-4.3c-6.9-0.2-15.2-5.7-10.8-9.9
		c7.1,1.9,9.9-7.2,8.5-13.1c-3.2,0-6.3,0-9.5,0c2.8,0.2,4.8-3,3-4.7c-20.8-3.4-43.6,2.4-58.2,14.8c14.1,0.1,28.2,0.1,42.3,0.2
		c-0.7,3.2-3.2,6.1-6.7,7.8c4.7,1.5,9.4,3.1,14.1,4.6C844,548,853.8,549,855.8,543.7z"/>
	<path fill="#9C3B28" d="M1307.2,539.8c-0.1,4.6-0.1,9.1-0.2,13.7c-104.3,4.6-208.4,9.9-312.1,16.1c9.1-1.3,18.2-2.7,27.3-4
		c-25.3,0.1-50.7,0.2-76,0.3c32.2-7.8,68-13.6,105.4-17c-17.3-3.9-38.5-5.4-58.5-4.1c11-4.6,21.4-9.5,31-14.5
		c-13.4-2.9-29.3-4.1-44.6-3.5c7.4-6.1-2.1-14.2-19.2-16.4c-2.3,5.2,2.3,10.7,12,14.5c-20.1,3.1-23.9,15-6.3,19.8
		c-19.3,3.8-38.6,7.6-57.8,11.4c143.7,13.9,299.1,10.5,437.5-9.5c-6.9-4.8-25.6-4.1-40.4-4.3s-32.8-5.7-23.3-9.9
		c15.3,1.9,21.2-7.2,18.2-13.1c-6.8,0-13.6,0-20.4,0c6.1,0.2,10.4-3,6.6-4.7c-44.9-3.4-94,2.4-125.3,14.8c30.3,0.1,60.7,0.1,91,0.2
		c-1.4,3.2-6.8,6.1-14.4,7.8c10.1,1.5,20.2,3.1,30.4,4.6C1281.8,544.1,1302.8,545.1,1307.2,539.8z"/>
	<path id="_x36_" fill="#9C3B28" d="M1929.2,561.6c-51.5-1.9-104.8-3.8-116.7-3.8c-24.2,0-126.1,3.9-140.6,3.9s-145.5,0-198.8,3.9
		s-97,0-140.6,0s-43.6-19.5-82.4-23.4s-101.8,31.2-126.1,31.2c-24.2,0-140.6,15.6-179.4,11.7c-38.8-3.9-106.7,11.7-160,19.5
		s-237.6-3.9-431.5,7.8c-137,8.3-278.9,1-350.3-4v476.5h1926.5V561.6H1929.2z"/>
	<path fill="#872215" d="M1929.2,1084.9v-8.7c-163.5-19.7-326.9-39.4-490.4-59.1c-70.2-8.5-140.4-16.9-210.5-25.4
		c-67.9-8.2-135.8-16.4-203.7-24.6c-93.9-11.3-187.8-22.6-281.7-34c-155.2-18.7-310.9-37.5-462.1-71.4
		c-91.6-20.5-182.9-46.8-277.4-52.4c54.5,0.7,109.2-6.1,160.9-20.1l-97.9-5.4c161.8-12.5,323.5-25,485.3-37.5
		c-123.5-3.1-247.1-6.2-370.6-9.4c-57.4-1.4-120.6-4.8-161.7-37.1c336.7-8.3,673.4-16.7,1010-25c122.3-3,244.7-6.1,367-9.1
		c-36.1,7-72.2,14.1-108.3,21.1c214,5.8,428.5-1.4,641.1-21.6V651c-147.5-3.5-295.3,0.5-442.1,12c24.3-2,48.6-4,72.9-6
		c-10.7-0.4-20.1-8.5-19.9-17.2c12-6.6,25.3-11.6,39.3-14.7c-8.9-1-17.4-4-24.3-8.6c124.5,8.3,250.1,6.7,374.2-4.7v-10.4
		c-163.3,0.2-326.6,3.4-489.7,9.8c14.3,7.2,28.6,14.5,43,21.7c-191.8,8.1-383.7,14.1-575.7,18c-38.6,0.8-77.2,1.5-115.8,2.2
		c-262.7,4.7-525.5,9.4-788.2,14.2v41.6c12.5,7.1,25.1,14.3,37.6,21.4c-10.1,8.5-23.4,14.4-37.6,16.9v3.9c5.4,2.7,10.8,5.4,16.1,8.1
		c3.1,10.7-4.4,18.8-16.1,24.6v81.9c33.1,14.1,64.4,31,93.2,50.3c14.7,9.9,29.3,27.8,16,38.8c-12.9-1.1-25.9-2.2-38.8-3.3
		c14.2,15.5,21.6,34.9,20.6,54.2c-17.9,2.8-33.5,13.7-39.4,27.6c17.1,6.6,30.1,19.6,34.6,34.4c-11.4-0.1-22.9-0.2-34.3-0.3
		c11.7,7.5,24.9,13.3,39,17.3H181c-19.3-16.5-41.2-31.1-65.1-43.2c17.2-0.9,34.4-0.9,51.6-0.1c36.5,13.5,72.4,27.9,107.7,43.3h326.4
		c-46.8-21.4-92.4-45.9-142.7-61c-86-25.9-187.1-25.4-257.9-72.5c68.5,6.4,136.8,14,204.9,22.8c-29-12.2-57.9-24.3-86.9-36.5
		c152.9,26.8,301.9,66.3,450.6,105.6c49.2,13,98.4,26,147.6,39l-16.5,2.6h1028.5V1084.9z"/>
	<path fill="#872215" d="M252.2,1053.4c-20.6-3.3-41.1-6.7-61.7-10C211.4,1045.4,232,1048.7,252.2,1053.4z"/>
	<path fill="#872215" d="M928.6,601.2c66-7.3,131.9-15.4,197.7-24.2c-23.2,9.2-46.4,18.5-69.7,27.8c100-17.4,204.5-18.6,305.1-3.4
		c-127.5,8.3-258.7-10.2-382.3,16c17.9-5.2,35.8-10.3,53.6-15.5c-76.9,1.9-153.8,3.8-230.8,5.6c43.5-5.8,87-11.6,130.6-17.4
		C928.5,592.5,926.7,597.3,928.6,601.2z"/>
	<path fill="#872215" d="M1929.2,727.4c-200.5,8.2-401.5,10.3-602.2,6.3c23.1,1.5,45.9,6.9,66.3,15.7
		c-190.2,5.2-380.7,10.5-569.4,29.9c5.4,1.3,10.8,2.5,16.3,3.6c58.9,0.9,117.7,4.6,176,11.1c-90.3,6.7-180.7,13.4-271,20.1
		c160.1,11.3,321.7,8.4,481-8.4c-28.7-8-59.6-10.8-89.8-8l70.2-6c-6.8-2.6-14.1-4.3-21.6-5.1c86.2,2.2,172.6,1.2,258.6-3.2
		c-18.7,4.2-37.4,8.3-56.1,12.5c35.5,0.3,71,0.7,106.5,1c-13.1,5.7-26.1,11.4-39.2,17.2c51.3-5.3,103.3-2,154.8,2.1
		c18.2,1.5,36.4,3,54.6,4.7c16.9,1.6,33.8,3.2,50.8,4.4c71.7,4.9,144.3,0.6,214.4-12.4v-85.5L1929.2,727.4L1929.2,727.4z"/>
	<path fill="#872215" d="M426.4,742.5c-6.1,9.5-3.8,22.1,5.4,29.8c-85.1-21.3-168.5-47-249.3-77c3.1-6.1,6.3-12.2,9.4-18.3
		c-25.2-6-50.9-10.4-77-13.1c4.2,8.1,8.3,16.2,12.5,24.3c-27.4,11.6-53.6,25-78.4,39.9c0.1-8.6,0.1-17.2,0.2-25.7
		C33.3,716.5,17.7,731,2.7,745.9v60.9c42.3,6,84.7,11.9,127,17.9c39.7,5.6,79.7,11.2,120,10c66.2-1.9,131.5-22.2,197.1-14.8
		c15.2,1.7,31.1,4.8,45.3,0.2c21-6.8,33.8-29.2,56.4-28c1.1,7.9,2.2,15.8,3.3,23.7c52.4,2.8,104.8,5.6,157.2,8.3
		c56.7,3-16.4,5.3,25.6-25.3C584.6,810.7,577.2,743.9,426.4,742.5z"/>
	<path fill="#6D140D" d="M1929.2,1071.2c-160.9-45.5-329.7-72.9-499.9-81c-50-2.4-100.2-3.1-150.2-0.5c-48,2.5-95.9,8.1-143.9,5.5
		c-63.1-3.3-123.7-20.4-185-33.1c-177.6-37-364.1-37.7-543-70.6c-111.9-20.6-219.9-53.7-332.6-71.2c-6.5-1-14.2-1.7-18.9,2.1
		c-3.2,2.6-1.8,7.5,1.2,9.5c-18.1-1.2-36.2-2.5-54.3-3.7l0,0c72.6,33.1,151,58,232.1,73.5c-45.6-11.9-89.4-28.2-130.2-48.4
		c20.8-8.8,43.3,7.5,64.4,16c27.7,11.2,60.4,8.8,91.5,9.6c46.6,1.1,92.3,9.9,137.3,19.6c89.7,19.4,178,42.9,268.4,60.1
		c75.1,14.3,151.5,24.2,228.1,31.7c16.8,1.6,33.6,3.1,50.4,4.7c90.3,8.1,180.5,16.2,270.8,24.4c49.2,4.4,98.6,8.9,146.3,19.5
		c27.8,6.2,54.9,14.5,83.1,19c19.8,3.2,40.1,4.4,60.2,5.7l142.3,8.9c74.3,4.7,148.6,9.3,222.9,12.6h58.8v-13.9L1929.2,1071.2
		L1929.2,1071.2z"/>
	<path fill="#6D140D" d="M1929.2,672.2v-7c-21.1-0.5-42.2,0.1-63.3,0.6c-186.4,4.6-373.1-1.3-558.5-17.7c-35.3-3.1-71,0.1-106.3,3.4
		c-86.4,7.9-172.8,15.8-259.1,23.7c17.8,8.3,39.1,11.7,59.5,9.5c-115.8,31.6-251.1-3.3-361.4,39.2c32.2,2.1,64.4-1.8,96.4-5.2
		c130.1-14,261.5-20,392.8-18.1c-15.4,3.4-30.8,6.8-46.2,10.3c-0.1,0.9-1.1,1.7-2.3,1.7c-75.7,0.6-151.3,9.6-223.9,26.7
		c221.3-34.2,449.2-22.6,674-35.8c-84.2-26.3-187.5,17.9-266.8-16.7C1485.3,673.2,1708.6,689.2,1929.2,672.2z"/>
	<path fill="#6D140D" d="M1929.2,777.1c-9.6-4-21.4-5.5-32.3-6.4c-70.8-5.7-143.5-1.7-211.8-17.5c-15.7-3.6-31-8.3-46.9-10.9
		c-20-3.3-40.6-3.4-61.1-3.4c-68.5-0.2-136.9-0.4-205.4-0.6c-9.7,0-21.2,0.8-25.8,7.5c8-1.6,17.2,2.4,19.9,8.6
		c-31.6,3.9-62.4,12.1-90.6,24.2c27.1,2,54.1,4,81.2,6c-3.6,4.1-8.7,7.3-14.5,9.2c25.3-5.2,51.7-7.1,77.8-5.7
		c-3.6,4.7-8.6,8.6-14.5,11.4c33.8-3.7,67.1-10.4,99.1-19.9l-13.7-2.2c55.1,2.5,110.2,5,165.3,7.5c-12.2,10.4-26.3,19.3-41.8,26.4
		c102.2-22.7,209.4-31.1,315.2-24.8L1929.2,777.1L1929.2,777.1z"/>
	<path fill="#BC574A" d="M1223.5,541.8c11.3-2.3,23-4.5,34.4-2.5c12.2,2.1,22.3,8.7,32.5,14.4c14.7,8.1,30.7,14.7,47.5,19.5
		c3.3,0.9,6.7,1.8,10.2,1.9c3.6,0.1,7.2-0.7,10.7-1.3c23.6-4.3,48.8-3.1,71.5,3.4c-19.1,3.2-38.1,6.4-57.2,9.7
		c-5.4,0.9-10.8,1.8-16.3,2.2c-16.4,1-32.6-3.2-48.2-7.4c-17.5-4.7-35-9.4-52.5-14c4.6-1,8.9-2.5,12.8-4.7
		c-14.9-7.1-33.3-9.5-50.2-6.4c-10.8,2-22.5,5.9-32.3,1.8C1194.2,548.5,1209.5,544.7,1223.5,541.8z"/>
	<path fill="#BC574A" d="M1752.2,765.7c-1.6,0.2-3.2,0.4-4.7,0.6c60.8,4,121.4,9.2,181.8,15.7v-3c-13.1,0-25.8-4.1-38.1-7.9
		c-75.1-23-155.7-34.4-236.1-33.4c-1.6-4.5-0.4-9.6,3-13.4c-102.7,5.4-205.5,10.8-308.2,16.2c69.2,6.4,139.1,7.5,208.6,3.4
		c17.8-1.1,35.6-2.5,53.4-1.1c35.8,2.7,69.9,16.6,104.7,21.6c9.3,0.5,18.7,1.1,28,1.7C1747.1,766.1,1749.6,765.9,1752.2,765.7z"/>
	<path fill="#9C3B28" d="M234.5,816.4c8-0.2,15.6-2.6,23.2-4.4c52.1-12.8,109-3.7,162.2-13.3c-12.4-11.3-25.7-22-39.9-31.9
		c11.9,4.7,25.3,7.1,38.6,6.9c-18.1-6.6-36.2-13.3-55.3-17.8c-17.6-4.1-35.8-6.3-53.4-10.3c-12.7-2.9-25.1-6.8-37.4-10.6
		c-30.2-9.5-60.5-18.9-90.7-28.4c-8.7,10-26.4,14.4-40.7,10.1c61.7,27.7,125.7,52,191.5,72.8c-23.1-1.2-46.3-1.5-69.4-0.9
		c-45.6-28.1-108.7-32.7-154.9-60.2c47.6,21,93.4,44.7,137,70.7c-20.1,3.4-40.7,5.4-61.3,5.9C201.4,806.9,216.9,816.9,234.5,816.4z"
		/>
	<path fill="#9C3B28" d="M419.2,755.9c-67-21-144.7-19.4-206-49.6c-15.3-7.5-30.5-19.1-29.7-33.4c83.8,16.1,167.4,32.9,250.7,50.5
		c19.4-13.3,49-6.3,72.8,1.1c86.7,27.2,100.8,64.3,227.7,74.3c-14.7,0.9-22,15.7-94.4,1.1c-28.8-5.8-145.2-56.1-174.9-57.3
		c5.2,7.6-4.2,17.2-14.9,18.7C439.8,762.8,429.2,759.1,419.2,755.9z"/>
	<path id="_x37_" fill="#0F1613" d="M1669.3,251.8c77.7-18.8,152.2-36.1,152.2-36.1l-10.4-21.3l-55.3,15.7c0.1-1.1,0-2.3-0.5-3.5
		l-1.5-3.8c-0.1-0.2-0.2-0.4-0.3-0.5c4.1-2.2,6.3-4.7,5.6-6.6c-1.3-3.3-10.6-3.8-20.9-1.2c-10.2,2.6-17.5,7.3-16.2,10.6
		c0.8,1.9,4.4,2.9,9.3,2.9c0.1,0.2,0.1,0.4,0.2,0.6l1.5,3.8c0.5,1.4,1.5,2.6,2.7,3.5L1665,236c-6-22.1-11.7-43-17-62.1
		c65.7-16.9,124.2-31.5,124.2-31.5l-9.7-21.3l-18.6,5.7c0.9-1.9,1.1-4,0.3-6.1l-1.5-3.8c-0.1-0.2-0.2-0.4-0.3-0.5
		c4.1-2.2,6.3-4.7,5.6-6.6c-1.3-3.3-10.6-3.8-20.9-1.2c-10.2,2.6-17.5,7.3-16.2,10.6c0.8,1.9,4.4,2.9,9.3,2.9
		c0.1,0.2,0.1,0.4,0.2,0.6l1.5,3.8c1,2.5,3.1,4.3,5.8,5.4l-25.4,7.8c0.5-1.6,0.5-3.3-0.2-5l-1.5-3.8c-0.1-0.2-0.2-0.4-0.3-0.5
		c4.1-2.2,6.3-4.7,5.6-6.6c-1.3-3.3-10.6-3.8-20.9-1.2c-10.2,2.6-17.5,7.3-16.2,10.6c0.8,1.9,4.4,2.9,9.3,2.9
		c0.1,0.2,0.1,0.4,0.2,0.6l1.5,3.8c0.8,2.1,2.5,3.7,4.6,4.8l-41.1,12.5c-17.2-61.6-29.1-101.5-31.2-102c-9.7-1.9-31.5,7.7-31.5,7.7
		s9.7,41.7,24.7,105.8l-49.3,15c0.1-1-0.1-2.1-0.5-3.2l-1.5-3.8c-0.1-0.2-0.2-0.4-0.3-0.5c4.1-2.2,6.3-4.7,5.6-6.6
		c-1.3-3.3-10.6-3.8-20.9-1.2c-10.2,2.6-17.5,7.3-16.2,10.6c0.8,1.9,4.4,2.9,9.3,2.9c0.1,0.2,0.1,0.4,0.2,0.6l1.5,3.8
		c0.6,1.4,1.5,2.6,2.8,3.6l-21.5,6.5c0-1-0.1-1.9-0.5-2.9l-1.5-3.8c-0.1-0.2-0.2-0.4-0.3-0.5c4.1-2.2,6.3-4.7,5.6-6.6
		c-1.3-3.3-10.6-3.8-20.9-1.2c-10.2,2.6-17.5,7.3-16.2,10.6c0.8,1.9,4.4,2.9,9.3,2.9c0.1,0.2,0.1,0.4,0.2,0.6l1.5,3.8
		c0.5,1.3,1.4,2.5,2.5,3.5l-30.2,9.2l4.8,11.6c7.8-4.4,72.3-21.9,139.8-39.5c4.6,19.6,9.6,41,15,63.6l-66.5,18.9
		c-0.1-0.5-0.2-1-0.5-1.5l-1.6-3.8c-0.1-0.2-0.2-0.4-0.3-0.5c4.4-2.2,6.8-4.7,6-6.6c-1.4-3.3-11.4-3.8-22.4-1.2
		c-11,2.6-18.8,7.3-17.4,10.6c0.8,1.9,4.7,2.9,10,2.9c0.1,0.2,0.1,0.4,0.2,0.6l1.6,3.8c0.4,0.9,0.9,1.7,1.6,2.4l-43.7,12.4l5.2,11.6
		c7.6-4,65.9-18.9,131.1-34.9c54.7,232.1,139.2,585.1,147.3,589.6c31.5,17.4,50.9-5.8,50.9-5.8S1732.6,485.9,1669.3,251.8z"/>
	<path fill="#0F1613" d="M890.6,1047.7c14,1.4,31.3,1.1,38.7-0.7c4.3-1,4.1-2.3,0.4-3.5c0.4-0.1,0.9-0.2,1.3-0.3l8.4-2
		c2.1-0.5,3.9-1,5.3-1.5l27.6,3.4c-3.6,0.5-7.1,1.2-10.2,1.9l-8.4,2c-0.4,0.1-0.8,0.2-1.2,0.3c-8.6,0-16.5,0.5-20.8,1.5
		c-7.4,1.7-1.9,4.3,12.4,5.7c14.3,1.4,31.9,1.1,39.2-0.7c4.3-1.1,3.9-2.4,0-3.6c0.4-0.1,0.8-0.2,1.3-0.3l8.3-2
		c2.3-0.6,4.1-1.1,5.5-1.7l65.7,8.1c-35.4,10.5-68.1,20.3-97,28.9h73.7c23.3-6.9,48.7-14.5,75.5-22.5l58.1,7.1
		c-5.3,0.6-10.6,1.6-14.9,2.8l-7.9,2.2c-0.4,0.1-0.7,0.2-1.1,0.3c-9.1,0-17.2,0.5-21.3,1.7c-7,1.9-0.1,4.8,15.6,6.4
		c15.8,1.6,34.2,1.2,41.1-0.8c4-1.2,3.1-2.7-1.6-4c0.4-0.1,0.8-0.2,1.2-0.3l7.8-2.3c3.5-1,5.7-2,6.8-2.9l37.3,4.6
		c-6.3,0.6-12.8,1.8-17.8,3.2l-7.8,2.3c-0.4,0.1-0.7,0.2-1.1,0.3c-9.2,0-17.4,0.6-21.4,1.7c-0.1,0-0.1,0-0.1,0h61.8l3.4-1
		c4.2-1.3,6.5-2.6,7.1-3.7l28,3.4l43.2-12.7c0,0-89.6-8.4-185.9-17.7c33.7-10.1,68.8-20.6,104.2-31.3l97,9.7c-3,0.5-5.8,1.1-8.2,1.8
		l-6.6,1.9c-0.3,0.1-0.6,0.2-0.9,0.3c-8.4,0-15.6,0.5-19,1.4c-5.8,1.6,1.6,4.1,16.5,5.4c15,1.3,31.9,1,37.5-0.6c3.3-1,2-2.2-2.8-3.4
		c0.3-0.1,0.7-0.2,1-0.3l6.5-1.9c1.9-0.6,3.4-1.2,4.3-1.7l79.9,8l37.1-10.7c0,0-109-8.4-218-17.1
		c284.4-85.8,549.9-167.2,549.9-167.2s-12.3-4-49.3-1c-9.7,0.8-276.9,80-557.5,163.6c-86.1-7-159.9-13.3-166.8-15l-22.8,4.9
		l53.6,5.3c-2,0.3-3.8,0.7-5.5,1l-7.4,1.7c-0.4,0.1-0.7,0.2-1,0.2c-8.5,0-15.9,0.4-19.8,1.3c-6.5,1.5,0,3.6,14.5,4.8
		c14.6,1.2,31.7,0.9,38.1-0.6c3.8-0.9,2.9-2-1.5-3c0.4-0.1,0.8-0.2,1.1-0.2l7.3-1.7c1-0.2,1.8-0.5,2.6-0.7l85.5,8.5
		c-35.9,10.7-71.3,21.2-105.2,31.4c-92.8-9.1-177.3-17.8-183.7-20l-25.8,5.7l37.5,4.6c-3.4,0.5-6.7,1.1-9.7,1.8l-8.5,1.9
		c-0.4,0.1-0.8,0.2-1.2,0.3c-8.5,0-16.3,0.5-20.7,1.5C871.6,1043.9,876.8,1046.4,890.6,1047.7z"/>
	<path fill="#0F1613" d="M1553.7,182.6c-8.3,3.5-11.4,11.2-13.2,18c-2.8,10.8-2.5,22.1-1.7,33.1c1.5,22.2,6.2,44.2,11.5,65.9
		c10.1,41,22.4,81.6,31.8,122.8c9.6,41.9,19.3,83.8,26.2,126c6.8,41.7,10.9,84,8.5,126c-1.8,30.6-10.3,65.8-48.5,80.2
		c-2.4,0.9-0.3,3.7,2,2.8c30.5-11.5,43.1-36.2,48-61.4c6.1-31.9,3.5-65.6,0.6-97.6c-3.8-41.1-11.7-81.9-20.6-122.5
		c-9-41.2-17.9-82.4-29.4-123.2c-9.1-32.6-18.8-65.2-23.8-98.3c-2-13.5-3.4-27.2-2.5-40.8c0.6-8.9,1.7-23.4,13.1-28.2
		C1558,184.4,1556,181.6,1553.7,182.6L1553.7,182.6z"/>
	<path fill="#0F1613" d="M1541.6,184.4c-11.6,13.5-14.8,29.2-15.3,45.3c-0.6,18.4-0.1,37.2,2,55.5c2.3,19.3,7,38.3,10.9,57.4
		c4.2,20.6,7.7,41.4,11.4,62c7.7,42.5,14.9,85.1,19.5,127.9c4.3,40.3,6,80.2-2,120.2c-9.1,45.9-29.1,90.2-57.3,130.8
		c-1.3,1.8,2.2,3.4,3.5,1.6c46.2-66.7,67.9-141.4,62.9-217.5c-2.7-41.4-8.7-82.7-15.7-123.8c-7-41.3-14.3-82.5-23-123.6
		c-5.1-24-7.3-47.5-8-71.8c-0.6-21.5-1.4-43.9,14.5-62.5C1546.6,184.4,1543.1,182.7,1541.6,184.4L1541.6,184.4z"/>
	<path fill="#0F1613" d="M1718.1,137.7c-8.5,5.6-6.7,20.8-6.9,28.5c-0.4,17.1-0.5,34,0.7,51c1.5,20.6,2.8,41.1,2.6,61.7
		c-0.1,20.7-2.1,41.2-4,61.8c-3.8,41.1,7.6,81.9,4.6,123.1c-3,40.7-14.6,80.6-19.9,121.1c-2.7,20.6-6.6,41.1-10.6,61.6
		c-3.8,18.9,1.4,36.7,3.8,55.4c0.3,2,4.3,2.1,4,0c-1.2-9.1-3.2-18.1-4.6-27.2c-1.7-11-0.6-21.5,1.6-32.4c4-19.9,7.5-39.8,10.1-59.9
		c5.3-40.5,16.8-80.4,19.8-121.1c3-41.2-8.4-82-4.5-123.2c1.9-20.6,3.6-41.1,3.8-61.7c0.1-20.6-1.3-41.1-2.8-61.7
		c-1.1-14.9-0.9-29.6-0.6-44.5c0.1-5.5,0.2-10.9,0.7-16.3c0.4-4.2,0.6-11.1,5.1-14C1723,138.7,1720.1,136.4,1718.1,137.7
		L1718.1,137.7z"/>
	<path fill="#0F1613" d="M1740.1,117c0,20.9,0,41.9,0.7,62.8c0.7,20.4,1.9,40.4-1,60.8c-2.8,20.2-8.1,40.1-12.7,60
		c-4.6,20.3-8.6,40.8-13.5,61.1c-9.9,40.8-24.4,80.8-33.5,121.6c-8.8,39.7-11.9,80-18.5,120c-1.6,9.6-3.4,19.2-5.6,28.7
		c-0.5,2,3.4,2.9,3.9,0.9c8.8-39.7,12.2-80,18.6-119.9c6.7-41.8,21-82.3,32-123.4c10.7-40,18.9-80.4,27.9-120.7
		c4.2-18.7,7.3-37.6,7.5-56.7c0.3-20.8-1.7-41.6-1.9-62.4c-0.1-10.9-0.1-21.8-0.1-32.7C1744.2,114.9,1740.1,114.9,1740.1,117
		L1740.1,117z"/>
</g>
</svg>
