<?xml version="1.0" encoding="utf-8"?>
<!-- Generator: Adobe Illustrator 21.1.0, SVG Export Plug-In . SVG Version: 6.00 Build 0)  -->
<svg version="1.1" id="bac2" xmlns="http://www.w3.org/2000/svg" xmlns:xlink="http://www.w3.org/1999/xlink" x="0px" y="0px"
	 viewBox="0 0 1920 1080" enable-background="new 0 0 1920 1080" xml:space="preserve">
<g>
	<rect id="_x30_" x="1.3" y="2.1" fill="#B14736" width="1918.7" height="1077.9"/>
	<path fill="#D57148" d="M1241,177.4c-9.9,26.1-155.1,13.3-152.3-5.3c1.5-10.2,29.3-10.1,37.6-12c38.8-8.8-16.5-19.9-32.1-19.8
		c-34.2,0.3-64.2-0.7-98.5-4.5c-43.6-4.9-87.7-12.2-131.9-9.3c-42.4,2.8-86.8,9.6-129.3,7.9c-37.2-1.5-77.6-13.4-113.9-20.3
		c-29.7-5.7-64.4,7.3-102.4,26.9c-6.8-1-13.8-2-21-2.9c-14-1.7-44.1-6.7-57.4-0.8c-16.5,7.3-2.4,3.5-6.6,10.3
		c-1.1,1.8,1.6,5.2-2,9.9c-1.5,1.9-14.9,7.9-18.1,8.9c-13.6,4.3-30.5,5.3-45,5.9c-31.5,1.4-63.2-1.1-94.6-1.7
		c-31.8-0.7-62.6,4.5-94.7,3.4c-24.7-0.8-51.3-8-76-5c-23.6,2.9-22.3,22.2,0.2,25.6c25.6,3.9,49.9-5.8,76.1,3.8
		c30.4,11,60.6,10.7,89.4-6c-1.2-1.5-2.5-4.7-3.8-6.1c15.9-6.1,98-4.6,63.5,20.1c15.7,8,42.1,3.6,60.6,4.9
		c-5.2,2.5-10.4,4.8-15.6,7.1c-164.4,71.1-322.1,123.9-234.5,50.4c86.4-72.5-60.8-20.5-137.5-56.6c0,102.8,0,381.3,0,381.3
		s193.5-32.3,335.8-32.3c43.2,0,171.1,71.8,214.2,71.8c151.9,0,428-63.8,556.5,1.2c233.9,118.3,812.1-16.7,812.1-16.7V212.2
		C1920,212.2,1279.4,75.6,1241,177.4z"/>
	<path fill="#D57148" d="M945.9,307.3c-29.7,0-51-2.6-61.7-2.5c-53.7,0.3-61-1.5-61-3.3s28.5-3.3,63.7-3.3c29.7,0,52.2,3.3,61.7,2.5
		c31.5-2.8,61,1.5,61,3.3C1009.5,305.8,981,307.3,945.9,307.3z"/>
	<path fill="#D57148" d="M1520.5,291.2c-56.3,0-98.9-6.3-116.9-4.7c-59.7,5.4-115.7-2.9-115.7-6.3c0-3.5,54-6.3,120.7-6.3
		c56.3,0,96.8,4.8,116.9,4.7c101.7-0.6,115.7,2.9,115.7,6.3C1641.2,288.4,1587.2,291.2,1520.5,291.2z"/>
	<path fill="#FEA757" d="M94.6,425.2c42.9,15.5,95.9-30.9,150.6-41c241.3-44.3,334.5-18.9,436.6-0.2c40.3,7.4,225.6-84.8,577.1,12
		c78.9,21.7,134.9,32.6,216.7,29.1c38.8-1.6,66-13.7,66-13.7c0,35,0,77.7,0,122.3c-59,0-125.7,57.2-174.5,31.8
		c-22.8-11.9-250.3,0.7-285,0.7c-164.9,0-236.2-5.1-341.4-23.1c-150.8-25.7-237,23.4-346.6,23.1C175.2,565.5,1.3,540.6,1.3,540.6
		s0-100.6,0-129.2C45.5,396.9,75.4,418.3,94.6,425.2z"/>
	<path id="_x31_" fill="#89130A" d="M31.8,1076.6c-4.6-9.3-10.6-15.5-16.9-20.7c-2.9-2.4-6.8-1.2-10.7,2.4v18.3L31.8,1076.6
		L31.8,1076.6z"/>
	<path fill="#89130A" d="M1920,1076.6v-18.3c-1.4,1.3-2.8,3-4.2,5c-2.5,3.6-7.8,8.1-13.7,13.3H1920z"/>
	<rect x="4.3" y="952.7" fill="#89130A" width="1915.7" height="123.9"/>
	<rect x="4.3" y="952.7" fill="#89130A" width="1915.7" height="123.9"/>
	<path fill="#7E1007" d="M659.7,1053.7c0.7,3.6,2.6,12.3,4,22.8h14.4c-8.4-29.6,7.3-76.6,7.3-76.6l-27.5,14
		C659.8,1017.8,655.5,1033.4,659.7,1053.7z"/>
	<path fill="#7E1007" d="M441.7,1076.6c10.9-38.9,25.5-68.3,25.5-68.3l-72.4-8.3c-0.1,8.6-3.1,51.7-1.3,76.6H441.7z"/>
	<path fill="#7E1007" d="M546.2,1076.6h53.3c-10.9-29.1-14.2-72.8-14.2-72.8l-36.7,2.5c-0.1,10-11.4,38.2-7.2,58.5
		C542,1067.1,543.8,1071.3,546.2,1076.6z"/>
	<path fill="#7E1007" d="M1036.8,1076.6c-15.6-40.2-6.6-73.2-5.2-79.1c-39.3,13.4-32.3,56.7-24.1,79.1H1036.8z"/>
	<path fill="#7E1007" d="M1721.6,1076.6h89.2c-0.3-31.6,11.8-70.4,16.3-74.9c-39.9-8.8-98.5-11.7-98.5-11.7
		C1736.4,997.3,1735.9,1036.1,1721.6,1076.6z"/>
	<path fill="#7E1007" d="M638.5,1076.6h17.1c-9.5-29-0.7-71.6-0.7-71.6l-12.8-1.9c-0.1,10-5,35.1-0.8,55.4
		C641.9,1061.5,640.7,1068.2,638.5,1076.6z"/>
	<path fill="#7E1007" d="M1434.3,1076.6h92.4c0.1-30.7,8.1-64.7,9.1-74.9c-39.9-8.8-110.7,0.5-110.7,0.5
		C1433.3,1009.8,1438.3,1044,1434.3,1076.6z"/>
	<path fill="#7E1007" d="M867,1053.9c0.2,7.7-0.7,15.4-2.2,22.7h20.4c9.6-48.9,3.6-111.8-18.8-82.4
		C877.7,1016.4,866.4,1029.9,867,1053.9z"/>
	<path fill="#7E1007" d="M1134.6,1076.6h8.8c7.4-12.2,15-29.1,10.7-34.9c-14-18.8-18.6-40.8-33.4-34.2
		C1139.4,1034.9,1137.4,1061.2,1134.6,1076.6z"/>
	<path fill="#911A0A" d="M513.2,1076.6h62.2c6.5-21.3,9-61.5,9-61.5l-95.6,10.4C498.2,1030.8,510.9,1053,513.2,1076.6z"/>
	<path fill="#971E0C" d="M646.9,1053.7c0.7,3.6,2.6,12.3,4.1,22.8h21.3c-10-27.8-6.2-60.1-6.2-60.1l-20.9-2.4
		C647.1,1017.8,642.7,1033.4,646.9,1053.7z"/>
	<path fill="#971E0C" d="M717,1076.6h74.2c17.5-44.4,52.8-72.4,52.8-72.4l-155.4,5.8C706.4,1021.5,714,1049.4,717,1076.6z"/>
	<path fill="#911A0A" d="M1136.9,1076.6h94.3c-5.7-23.7-8.7-61.1-3.3-72.4c2.1-4.3-101.8,0.6-96.6,8
		C1138.1,1021.7,1155.2,1041.7,1136.9,1076.6z"/>
	<path fill="#911A0A" d="M1111,1076.6c1.7-16.4,4.1-32.9,8-49.1c1.7-6.9,3.1-16.1,6.4-24c-5.5-1.7-37.9-0.9-63.5,1.5
		c5.7,24.1,16.3,47.2,18.8,71.6H1111z"/>
	<path fill="#951C0D" d="M1515,1076.6c-5.5-11.7-75.5-3.5-75.5-3.5c0.5,1,1.1,2.2,1.6,3.5H1515z"/>
	<path fill="#911A0A" d="M1365.5,1076.6c-5.8-20.8-2.9-45.1,16-74.1c2.6-4.1-90.7-0.2-92,8.1c-1.8,10.8-0.9,45.3-7.3,66H1365.5z"/>
	<path fill="#911A0A" d="M1247.8,1076.6h17.2c-0.9-17.8,2.1-46.6,6-64.1c-17.8-5.4-32.3-4.4-28.5,1.3
		C1253.5,1029.8,1252,1054.1,1247.8,1076.6z"/>
	<path fill="#951C0D" d="M1816.8,1062.9c-1.2,4.9-2.4,9.4-3.6,13.7H1920V1014c-17-1-64.3-1.6-100.1,17.1
		C1802.8,1040,1819.2,1053,1816.8,1062.9z"/>
	<path fill="#911A0A" d="M122.9,1076.6h35.9c8.4-20.4,6.2-29.7,10.6-39.7c4.7-10.6,3.7-31.8,3.7-31.8s-54.8-10.6-61.4-0.7
		c-6.6,9.9,1.9,32.2,6.6,45.3C119.9,1054.2,121.3,1064.8,122.9,1076.6z"/>
	<path fill="#951C0D" d="M44.5,1076.6c2.8-35.5,8.7-86.6-40.2-64.2v64.2H44.5z"/>
	<path fill="#9C260E" d="M1089.8,1076.6h12.5c0.4-25.8,2.2-60.2,4.4-68.5c2.3-9.2,14-13.1,19.8-21.4c-8.5,2-17.6,4.2-26.3,6.3
		c-7.5,1.8-26,2.6-29.9,8.8c6.7,5.6,16.2,13.3,18.8,20.6C1094.4,1037.4,1088.4,1055.7,1089.8,1076.6z"/>
	<path fill="#9C260E" d="M625.4,1076.6c1.8-11.2,0.9-21.4,4.3-32.4c6.5-21.3-1.2-62.3-1.2-62.3l-35.1,6.2c-1,1.9,13,42.5,20.2,88.4
		L625.4,1076.6L625.4,1076.6z"/>
	<path fill="#9C260E" d="M876.2,1066.6c0.3,3.4,0.1,6.8-0.3,10h152.2c-1.1-2.3-2.1-4.6-2.9-6.8c-7.5-22.3-3.2-52-3.2-52l-83.3-11.1
		l-63.3,1.9C883,1025.4,875.4,1056.5,876.2,1066.6z"/>
	<path fill="#9C260E" d="M1157.8,1076.6h51.7c-3.5-24.4,2.3-54.9,2.3-54.9l10.4-15.1l-69.2,16.6
		C1160.2,1039.4,1160.9,1065.9,1157.8,1076.6z"/>
	<path fill="#9C260E" d="M1517.2,1076.6c8.2-18.3,17.2-34.5,17.8-54.5c-15.6-18-110.8,1.5-110.8,1.5c0,19.4,7.5,37.3,16.1,53H1517.2
		z"/>
	<path fill="#9C260E" d="M1298.9,1076.6h41.5c-3.9-26.9-1.7-60.6-1.7-60.6l-35.5-1.1C1310.5,1031,1302,1065.2,1298.9,1076.6z"/>
	<path fill="#9C260E" d="M1726.2,1076.6H1845c-3.3-26.5-2.7-46.2-2.7-46.2l-108.7,0.7c1.4,16-1.3,21.9-3.8,31.8
		C1728.6,1067.8,1727.5,1072.3,1726.2,1076.6z"/>
	<path fill="#9C260E" d="M165.5,1007.8L135,987.4l-0.3,15.4c-5.1,20.2-8.6,47.9,7.2,66.3C145.9,1073.8,141.2,1034.4,165.5,1007.8z"
		/>
	<path fill="#9C260E" d="M63.5,1076.6H107c-0.7-4.9-1.3-9.7-1.7-14c-2.2-20.6-8.7-39.6-4.6-44.7c-4.8-5.6-31-12.1-31-12.1L63,1022
		C66.8,1034.3,66.3,1055.7,63.5,1076.6z"/>
	<path fill="#9C260E" d="M177.7,1076.6h93.6c-1.9-4.6-3.2-9-3.7-13.1c-2.2-20.6-2.4-47.5-2.4-47.5l-33.2-9.4l-48.3,9.1
		c6.8,9.1-6.2,32.8-5.5,42.8C178.8,1065,178.5,1071,177.7,1076.6z"/>
	<path fill="#9C260E" d="M344.6,1076.6H371c1.3-23,14.4-66.3,14.4-66.3l-34.2-3.6l-20.3,3.9c3.3,9.1,13.4,42.7,13.7,52.6
		C344.9,1067.8,344.8,1072.2,344.6,1076.6z"/>
	<path fill="#9C260E" d="M399.2,1076.6H442c6.1-21.1,3.6-49.1,3.6-49.1l-52.6-8.9c-1.2,2.2-4.2,15.3-0.2,24.7
		C394.5,1047.5,397.5,1061.1,399.2,1076.6z"/>
	<path fill="#9C260E" d="M567.7,1076.6c3.8-21.5,9.5-43.1,10.5-62.3c-10.4,2.3-67.2-8-71.8-7.5c17,23.8,25.7,47.8,29.1,69.7
		L567.7,1076.6L567.7,1076.6z"/>
	<path fill="#9C260E" d="M317,1076.6c-0.6-6.9-1.5-13.4-1.5-15.6c0-10-1.6-26.1-10.4-26.8c-7.9-0.6-11.9,22.1-4,42.3L317,1076.6
		L317,1076.6z"/>
	<path fill="#A42912" d="M1173.6,1076.6h24.7c0.9-19.6,5.5-40,6.5-59.8c-12.1,2.6-34.8,4-46.7,1.8
		C1174.2,1043.6,1175,1059.6,1173.6,1076.6z"/>
	<path fill="#A42912" d="M1023.5,1076.6c-4.6-18.2-4.8-37.4-3.9-55.7c-12.1,2.6-14.6,1.3-26.6-1c15.1,23.3,18.4,39.9,19.1,56.7
		H1023.5z"/>
	<path fill="#A42912" d="M1734.7,1076.6h79.8c-1.9-12.3-2.1-25.3-1.4-39.2c-24.1,5.2-64.6-12-73.4-13.7
		C1740.8,1032.7,1739.5,1057.8,1734.7,1076.6z"/>
	<path fill="#A42912" d="M1320.7,1076.6h9.5c-0.1-19.4,3.7-39.6,4.7-59.8c-12.1,2.6-12,0.6-23.9-1.7
		C1310.6,1024.6,1322.4,1043.8,1320.7,1076.6z"/>
	<path fill="#A42912" d="M1506.1,1076.6c4.9-16.4,9.1-33.1,9.9-49.9c-12.1,2.6-62.4,7.5-74.3,5.2c-0.4,13.2,11,28.5,18.6,44.6h45.8
		V1076.6z"/>
	<path fill="#A42912" d="M913.1,1076.6h48.2c-1.2-18.3,3.1-37.9,3.9-55.7c-10.4,2.3-69.5-2.3-67-1.8
		C907,1033.4,912.1,1055.4,913.1,1076.6z"/>
	<path fill="#A42912" d="M267,1076.6c-2.7-17.7-2.5-37.8-0.9-60.6c-3.3-4.4-13.3-1.2-13.3-1.2c-2.6,28.1-6.1,48.1-10.1,61.8H267z"/>
	<path fill="#A42912" d="M184,1058.6c1.2,5.3,1.3,11.5,0.6,18h17.3c-0.2-1-0.4-1.9-0.4-2.6c-0.5-24.5,23.8-42.8,13.4-66.7
		c-12.3,1.7-32.2,2.1-28.2,10.1C204.6,1034,179.3,1038.5,184,1058.6z"/>
	<path fill="#A42912" d="M362.4,1076.6c1-30.9,6.8-51.2,11.3-70.7c-5.7-0.4-11.1-2.1-16.4-3.6H342c11,11.5,16.2,43.8,16.2,74.2
		L362.4,1076.6L362.4,1076.6z"/>
	<path fill="#A42912" d="M74.8,1076.6h16.1c0.2-18.1,2.4-37.6,3.8-57.8H71.3C73.9,1029.6,74.9,1052.6,74.8,1076.6z"/>
	<path fill="#A42912" d="M775.2,1076.6c13.5-31.1,34.5-52.9,35.8-79.1c-10.4,2.3-113.2,3.7-110.7,4.1c11.8,10.6,26.1,43.7,33.5,74.9
		L775.2,1076.6L775.2,1076.6z"/>
	<path fill="#A42912" d="M545.4,1076.6H561c5.2-30.8,14.7-52.3,16-78.4c-10.4,2.3-41.2,3.7-45.8,4.3
		C541.5,1011.7,545.9,1043.6,545.4,1076.6z"/>
	<path fill="#A42912" d="M413.4,1076.6h19.5c3.7-20.4,3.9-33.5,7.7-49.7c-5.7-0.4-11.1-2.1-16.4-3.6h-15.3
		C412.3,1037.6,413.7,1056.9,413.4,1076.6z"/>
	<path fill="#911A0A" d="M1685,1076.6c25.5-36.2,51.9-71,31.5-90.3c-3.7-3.5-134.5-2-139.5,5.4c-6.1,9-18.6,46.7-11,84.9H1685z"/>
	<path fill="#AB311B" d="M1184.3,1075.7c0,0.3,0.1,0.6,0.1,0.9h3.5c-0.2-18.5,2.5-37.7,12-53.7c-12.1,2.6-20.2,3.5-32.1,1.3
		C1184.7,1034.4,1181.2,1057.2,1184.3,1075.7z"/>
	<path fill="#AB311B" d="M745,1060.6c0.1,3.7,0.1,9.4,0,16h8.5c3.8-23.9,11.1-46.8,23.4-67.5c-12.1,2.6-45.5-6.8-57.5-9.1
		C736.4,1010.2,744.2,1039.3,745,1060.6z"/>
	<path fill="#AB311B" d="M1017.8,1076.6h3.5c-5.1-22.3-4.5-44.9,0-60.1c-3.5,0.8-8.8,0.5-14.8-0.3c2.1,8.9,7.2,18.7,8.1,27.8
		C1015.2,1050,1016.4,1062.6,1017.8,1076.6z"/>
	<path fill="#AB311B" d="M926,1073c0,1.1,0.1,2.3,0.2,3.5h16.1c0-18.9,5.6-38.4,15.6-55.1c-12.1,2.6-45.5-6.8-57.5-9.1
		C917.4,1022.7,925.2,1051.7,926,1073z"/>
	<path fill="#AB311B" d="M1755.2,1076.6h34.8c0.2-14.2,2.4-28.6,5.3-42.3c-11.3-2.5-37.2-4.8-45.2-7.4c1.9,14.1,5.7,28,5.4,42.1
		C1755.6,1071.5,1755.4,1074.1,1755.2,1076.6z"/>
	<path fill="#AB311B" d="M1324,1062.3c0.1,4,0.1,8.9-0.1,14.3h3c-1.5-24.8,0.6-51.4,11.4-69.5c-12.1,2.6-20.2,3.5-32.1,1.3
		C1323.1,1018.6,1323.2,1040.9,1324,1062.3z"/>
	<path fill="#AB311B" d="M1489.2,1076.6c-0.1-15.7,0.7-32,6.5-49.8c-12.1,2.6-16.6-1.5-28.6-3.8c-0.4,12.5,1.1,36.3,6.7,53.6H1489.2
		z"/>
	<path fill="#AB311B" d="M420.7,1076.6h7.2c2.3-18.1,3.1-34,8.4-50.4H416c2.3,9.5,2.9,19.5,3.8,28.2
		C420.6,1062,420.8,1069.4,420.7,1076.6z"/>
	<path fill="#AB311B" d="M187.3,1076.6h6.2c-0.2-1.1-0.4-2.2-0.5-3.3c-2.9-19.4,10.8-46.9,8-57.2l-10.8,1.1
		c15,13.6-4.4,29.7-3.5,38.4C187.5,1062.9,187.6,1069.9,187.3,1076.6z"/>
	<path fill="#AB311B" d="M260.9,1076.6h9c-5-26.6-0.4-52-4-61l-3.5,0.4C264.1,1040.1,263.3,1060.1,260.9,1076.6z"/>
	<path fill="#AB311B" d="M84.8,1076.6c0.9-25.2,3.9-48.8,6.3-56l-12.4,1.1c0.5,6.7,1.9,29.9,2.7,54.9H84.8z"/>
	<path fill="#AB311B" d="M624.5,1009.6c0.5-3.1,0.8-6.7,0.9-10.4h-18.5c4.2,19.6,8.7,43.5,11.3,67.3
		C626.4,1043.8,621.6,1028,624.5,1009.6z"/>
	<path fill="#AB311B" d="M550.7,1076.6h4.8c3-21.4,7.5-42.5,12.9-59.1H548c2.3,9.5,3.5,19.5,3.8,28.2
		C551.9,1051.4,551.4,1063.3,550.7,1076.6z"/>
	<path fill="#AB311B" d="M654.4,1053.7c0.4,3.5,4,12.3,7.3,22.8h4.4c-12.2-35.4-2.2-60.1-2.2-60.1l-10.3-2.4
		C654.5,1017.8,652.4,1033.4,654.4,1053.7z"/>
	<path fill="#7E1007" d="M1278.4,1076.6c1.3-3.1,2.4-7.1,3-11.4c1.3-10.5-0.4-30.3-4.4-30.6c-4-0.3-6.3,18.9-7.6,29.4
		c-0.6,4.8-1,9.2-0.8,12.6H1278.4z"/>
	<path fill="#7E1007" d="M1377.1,1076.6h20.6c-0.1-0.6-0.2-1.3-0.2-1.9c-1.1-26.6,2.4-50.1-4.3-49c-6.6,1.1-20.1,36.4-16.4,49.7
		C1376.8,1075.8,1377,1076.2,1377.1,1076.6z"/>
	<path fill="#7E1007" d="M1234.8,1076.6h9c0-3.6-1.3-8-4.5-12.3c-14-18.8,10.8-35-4.6-41c-6-2.3-3.6,31.4-2.1,41.8
		C1233.2,1069.4,1233.9,1073.4,1234.8,1076.6z"/>
	<path fill="#7E1007" d="M848.1,1076.6c7.6-20.8,6.7-45.5-5.1-40.9c-6.5,2.5-21.4,21.6-32.2,40.9H848.1z"/>
	<path fill="#7E1007" d="M1068.4,1076.6c-1.2-7.1-2.5-14.5-2.5-20.2c0-15.6-6.4-28.3-14.4-28.3c-7.9,0-14.4,12.7-14.4,28.3
		c0,5.7,3,13.1,7.2,20.2H1068.4z"/>
	<path fill="#911A0A" d="M1004.1,1076.6c1.1-15-10.2-38.6-16.4-38.6c-6.6,0-12,12-12,26.8c0,3.5,0,7.5,0.2,11.8L1004.1,1076.6
		L1004.1,1076.6z"/>
	<path fill="#911A0A" d="M235.8,1076.6c3.3-19,4.7-48.9-10.4-36.1c-10.6,8.9-19.9,21.6-16.8,36.1H235.8z"/>
	<path fill="#911A0A" d="M285.3,1063.5c-0.8,2.3,0.3,7.2,2.4,13.1h40c0.8-14-0.4-28.7-4.9-39.2c-11.2-26.1-17.5-21.7-32.3-25.7
		C274.6,1007.3,288.5,1054.2,285.3,1063.5z"/>
	<path fill="#7E1007" d="M458.4,1076.6H500c-6-31.4-35.9-47.2-33.8-25.9C466.9,1057.7,463.2,1067,458.4,1076.6z"/>
	<path fill="#89130A" d="M1591.2,1076.6h42.8c1.2-4.5,1.8-9.3,1.8-14.3c0-26.8-19.3-48.1-31.4-48.1c-12,0,2.7,25.7-11.2,57.3
		C1592.5,1073.2,1591.8,1074.9,1591.2,1076.6z"/>
	<path fill="#7E1007" d="M1610,1069.7c-0.8,2.3-1.5,4.6-2.1,6.9h17.1c0.7-1.7,1.1-3.2,1.3-4.4c0.8-8-6.4-45.9-16-44
		C1606.4,1029,1612.6,1061.9,1610,1069.7z"/>
	<path fill="#9C260E" d="M1642.7,1076.6h22.8c17.5-27.3,37.2-50.1,42.5-79.8c-7.3-24.5-77.7-0.8-77.7-0.8
		C1647.6,1024.8,1648.4,1052.5,1642.7,1076.6z"/>
	<path fill="#972A24" d="M1897.6,906.3c-6.6,0-12.5-2.2-16.6-5.7c-24.9,1.5-54.2,4.2-59.4,4.9c-8.7,1.2-36.4,1.8-70.9-2.4
		c-39.1-4.8-91.5,2-97.6,1.8c-7.4-0.2-124.3-17.4-191.1-4.9c-4.2,0.8-3.8,4.3-8.5,4.9c-10.6,1.5-10.7-5.2-64.2-0.8
		c-4.1,0.3,3.6-3.3-1.8-4.1c-3.8-0.5-14.3-1-20,0c-4.3,0.8-22.8,4.1-28,3c-37.2-7.7-99.2-6.5-211,4.6c-15.4,1.5,2.3-5.4-10.3-7.7
		c-80.5-14.4-72.8,0-134.1-4c-13-0.8-20.6,3.5-22,4.3c-23.9,13.2-71.6-1.2-125,1.2c-8.6,0.4-6.8-5.5-39.2-5.2
		c-24.6,0.2-44.3-0.2-67,4c-20.1,3.7-19.7-1.2-45.7,0.6c-16.2,1.2-39.2,3.7-46.6-0.9c-3.4-2.1-27.2-2.4-37.3,0
		c-3,0.7-26.2,4.1-34.4,4.6c-25.2,1.6-79.4,3.6-90.3-0.9c-7.4-3.1-61.8-16.5-92.4-7.1c-8.8,2.7,4.2,4.9-5.5,7.4
		c-38.9,9.8-141.2-3-247,3.4c-30.5,1.8-34.2-7.2-55.1-6c-4.4,0.3-8.6,0.4-12.7,0.6c-3.9,2.7-9.1,4.3-14.8,4.3H4.3v19.6
		c0,0,0,4.8,0,12.2c0,21.2,0,63.9,0,78.3c59,0,67.6,14,95.6,1.8c2.8-1.2,5.6-7.5,8.7-9c18.8-8.9,29.2,3.6,63.9-2.5
		c4-0.7,8.9,7.6,12.2,9.8c9.5,6.1,33.9-6.5,79.8,0c6.7,1-10.5-10.1-4.5-13c5.8-2.8,29.2-4.3,65.9,5.8c41.6,11.5,77.3-4.7,82.8-4.3
		c6.8,0.4-22.3,13.3-13.8,16.6c12.7,4.9,65.3,14.4,48.1,2.2c-18.9-13.5,101.3,22.7,140.8-7.2c2.5-1.9-3.2-10.1,0-11.7
		c7.1-3.5,17.4,12.4,57.6,1.9c3.1-0.8,2,7.9,7.9,9.8c4.2,1.3,14.1,2.5,17.6,0c2.6-1.8,13.7-9.8,19.9-7.3c44.4,18.3,96.9,15.5,178-11
		c11.2-3.7,6.2,12.9,20.8,18.3c92.6,34.3,63.9,0,123.7,9.5c12.7,2,12.7-8.4,12.8-10.2c0.8-31.4,64.7,2.9,107.8-2.9
		c6.9-0.9,14.4,13.1,42.3,12.4c21.2-0.6,39.2,0.4,52.7-9.5c12-8.8,19.2,2.9,39.1-1.5c12.5-2.7,28.7-8.8,42.3,2.2
		c6.1,5,27.6,5.8,32.7,0c1.5-1.7,16.8-9.7,23.1-11c19.7-3.7,64.2-8.5,80.6,2.2c11.2,7.3-19.9,14.4-18.4,16.1
		c12.1,13.6,97.8,23.2,110.2,0.7c3.6-6.5-11.2-11.7-6.4-17.5c19.2-23.4,128.5,7.2,211.5-8c23.9-4.4-12.7,29.2-4.8,33.6
		c52.7,29.2,122.1-16.1,185.2-16.1c0-6.6,0-55.2,0-78.3c0-7.4,0-12.2,0-12.2v-19.6L1897.6,906.3L1897.6,906.3z"/>
	<path fill="#C1472A" d="M445.5,1025.8c7.9,8.9-38.7,0.3-50.6-4.3c-1.6-0.6-1.9-1.6-1.2-2.9c0.3,0.3,0.6,0.5,1.2,0.7
		C404.9,1022.8,439.5,1028.7,445.5,1025.8z"/>
	<path fill="#C1472A" d="M583.8,1014.8c-38.7,26.1-155.5-4.5-141.6,5.8c11.5-2.3,107.3,21.9,141.6-4.2c0.6-0.5,0.7-1.4,0.6-2.5
		C584.3,1014.3,584.1,1014.6,583.8,1014.8z"/>
	<path fill="#C1472A" d="M409.7,1005.2c0.2-0.4-0.1-0.6-1-0.7c-5.5-0.3-41.2,14-82.8,3.8c-14.3-3.5-26.6-5.4-36.6-6.3
		c10,1,22.2,3.2,36.6,7.1c41.6,11.5,77.3-4.7,82.8-4.3C409.3,1004.9,409.6,1005,409.7,1005.2z"/>
	<path fill="#C1472A" d="M264.5,1014.8c-45.9-5.8-70.3,5.4-79.8,0c-3.3-1.9-8.2-9.3-12.2-8.7c-34.7,5.4-45.1-5.7-63.9,2.2
		c-3.1,1.3-5.8,6.9-8.7,8c-28,10.9-36.7-1.6-95.6-1.6v1.6c59,0,67.6,14,95.6,1.8c2.8-1.2,5.6-7.5,8.7-9c18.8-8.9,29.2,3.6,63.9-2.5
		c4-0.7,8.9,7.6,12.2,9.8c9.5,6.1,33.9-6.5,79.8,0c1.9,0.3,1.9-0.4,1-1.6C265.3,1014.9,265,1014.9,264.5,1014.8z"/>
	<path fill="#C1472A" d="M686.7,1008.4c-6.2-2.3-17.4,4.8-19.9,6.4c-3.5,2.2-13.4,1.1-17.6,0c-5.9-1.6-4.8-9.4-7.9-8.7
		c-38.4,8.9-49.5-3.5-56.6-2c0,0.1,0.1,0.1,0.1,0.2c7.1-1.6,18.3,12.2,56.5,2.3c3.1-0.8,2,7.9,7.9,9.8c4.2,1.3,14.1,2.5,17.6,0
		c2.6-1.8,13.7-9.8,19.9-7.3c42.1,17.3,91.6,15.7,165.7-7.1C778.3,1022.3,728.8,1023.8,686.7,1008.4z"/>
	<path fill="#C1472A" d="M1734.8,1029.1c-0.4-0.2-0.6-0.4-0.8-0.7c-0.6,1.9-0.5,3.4,0.8,4.1c52.7,29.2,122.1-16.1,185.2-16.1v-1.6
		C1856.9,1014.8,1787.5,1055.1,1734.8,1029.1z"/>
	<path fill="#C1472A" d="M1534.5,1022c-11.9,19.3-92.3,12-108.7,0.6c-1.1,0.5-1.7,0.9-1.5,1.2c12.1,13.6,97.8,23.2,110.2,0.7
		c0.6-1.2,0.7-2.3,0.4-3.3C1534.7,1021.4,1534.6,1021.7,1534.5,1022z"/>
	<path fill="#C1472A" d="M1338.9,1014.8c-5.2,5.1-26.6,4.4-32.7,0c-13.6-9.7-29.8-4.4-42.3-1.9c-20,3.9-27.1-6.5-39.1,1.3
		c-13.5,8.8-31.5,7.9-52.7,8.4c-27.9,0.6-35.4-11.9-42.3-11c-43.1,5.2-107-25.3-107.8,2.6c0,1.6-0.1,10.9-12.8,9.1
		c-59.9-8.4-31.1,22-123.7-8.4c-8.4-2.8-10.3-8.8-12.5-12.8c2.2,4.5,4.2,11.3,12.5,14.4c92.6,34.3,63.9,0,123.7,9.5
		c12.7,2,12.7-8.4,12.8-10.2c0.8-31.4,64.7,2.9,107.8-2.9c6.9-0.9,14.4,13.1,42.3,12.4c21.2-0.6,39.2,0.4,52.7-9.5
		c12-8.8,19.2,2.9,39.1-1.5c12.5-2.7,28.7-8.8,42.3,2.2c6.1,5,27.6,5.8,32.7,0c1.5-1.7,16.8-9.7,23.1-11c6.5-1.2,15.6-2.5,25.5-3.4
		c-9.9,0.8-19,1.9-25.5,3C1355.7,1006.2,1340.4,1013.3,1338.9,1014.8z"/>
	<path fill="#972A24" d="M1920,925.9c-35.5,2.4-70.5,4.6-102-4.8c-36.9-11-142.8-14.7-115.5-8.6c27.3,6.1-11.2,12.3-43.3,9.8
		c-32.1-2.5-48.1-9.8-69-14.7s-20.9,9.8-43.3,6.1c-22.5-3.7-35.3-13.5-78.6,3.7c-43.3,17.2,22.5-7.4-49.7-7.4s-160.4,6.1-136.4,12.3
		c24.1,6.1-104.3-1.2-73.8-8.6c30.5-7.4-44.9-8.6-85,4.9s62.6,22.1,3.2,19.6s12.8-27-43.3-30.6c-56.1-3.7-141.2-8.6-104.3,3.7
		s6.4,20.8-22.5,17.2c-28.9-3.7,22.5-20.8-16-17.2c-38.5,3.7-64.2-7.4-96.2-1.2c-32.1,6.1,22.5,6.1,25.7,15.9
		c3.2,9.8-24.1,9.8-59.4,3.7c-35.3-6.1,38.5-17.2-4.8-20.8c-43.3-3.7-128.3-2.5-86.6,3.7c41.7,6.1,0,20.8-19.2,14.7
		s19.2-8.6-6.4-14.7c-25.7-6.1-77,2.5-134.7,4.9c-57.7,2.5-223-11-173.2,2.5c49.7,13.5,11.2,8.6-52.9,3.7
		c-64.2-4.9-141.2,1.2-123.5,6.1s-83.4,0-51.3-7.4s-16-9.8-49.7-3.7c-22.7,4.1-67.2,9.3-103.6,7.1V990c32.9,5.5,68,6,78-1.6
		c14.4-11-8.6,2.8,44.6-1.1c53.2-3.8,34,25.6,80.5,13.3s8-46.6,121.9-33.1s89.8,35.5,170,31.9c80.2-3.7,88.2-19.6,56.1-22.1
		c-32.1-2.5,105.9-11,83.4-1.2s-6.4,6.1,49.7,13.5c56.1,7.4,194.1-2.5,163.6-14.7c-30.5-12.3,28.9-11,43.3-4.9
		c14.4,6.1,22.5,12.3,0,20.8c-22.5,8.6-14.4,20.8,11.2,19.6c25.7-1.2,16,12.3,33.7,7.4c17.6-4.9,97.9-14.7,59.4-19.6
		c-38.5-4.9-4.8-22.1,44.9-9.8s150.8,20.8,128.3,9.8s49.7-12.3,75.4-6.1c25.7,6.1-19.2,15.9,6.4,14.7c25.7-1.2,112.3-7.4,93-14.7
		c-19.2-7.4,146-9.8,121.9-2.5c-24.1,7.4-6.4,14.7,22.5,14.7s27.3-7.4,16-14.7s59.4-18.4,121.9-13.5c62.6,4.9,3.2,14.7,33.7,15.9
		s141.2-7.4,109.1-18.4s109.1,3.7,49.7,9.8s-89.8,41.7-43.3,41.7s110.7-27,75.4-29.4s-11.2-31.9,35.3-14.7c10.4,3.8,20.7,3,29.9-0.6
		v-54.5L1920,925.9L1920,925.9z"/>
	<path fill="#741D28" d="M1920,942.3c-33.8,2.2-91-5.5-112.9-7.7c-25.5-2.6,2,5.3-28.6,2.1s-56.1-9.5-47.9-3.2s-24.5,10.5-39.8,4.7
		s-33.7,0.5-55.1,1.1c-21.4,0.5-28.6-1.1-19.4-6.3c9.2-5.3-35.7-1.6-64.3-1.6c-28.6,0,34.7,7.9,8.2,8.4s-46.9,2.1-32.6-5.3
		c14.3-7.4-73.4,6.3-95.9,6.8c-22.4,0.5,9.2-8.9-23.5-11c-32.6-2.1-95.9,1.6-77.5,6.3s-45.9,3.7-74.5,2.6
		c-28.6-1.1-56.4-10.9-50-1.6c8.8,12.7-30.6,5.3-33.7,2.6c-3.1-2.6,54.1-11.6,10.2-10.5s-47.9,5.8-31.6,8.4
		c16.3,2.6,9.2,5.8-31.6,10.5c-40.8,4.7-40.8-6.8-26.5-11.6c14.3-4.7-35.7-4.7-59.2-6.3s-5.1,6.3-20.4,4.2
		c-15.3-2.1-23.5,5.3-35.7,8.4c-12.2,3.2-68.3,7.4-38.8,2.1c29.6-5.3-17.3-9.5-41.8-10.5c-24.5-1.1,26.5,7.9-30.6,11
		c-57.1,3.2-53-4.2-79.6-8.4c-26.5-4.2-16.3,3.7-42.8,4.2s36.7-7.9,45.9-13.1c9.2-5.3-64.3-2.6-49,2.6c15.3,5.3-21.4,7.4-49,8.4
		c-27.5,1.1-9.2-6.3-25.5-4.7s-15.3-0.5-28.6-4.7s-103,4.2-104,6.8s-31.6,2.6-18.4-2.1c13.3-4.7-39.8-3.7-80.6-3.7s8.2,6.3-13.3,7.4
		c-21.4,1.1-30.6,1.1-39.8,3.2c-9.2,2.1-7.1,4.2-27.5-1.1s-68.3-2.6-40.8-1.6c27.5,1.1-77.5,8.9-70.4,2.1c7.1-6.8-49,1.6-73.4,1.6
		c-24.5,0-62.2,4.2-53,1.6c9.2-2.6,1-6.3-31.6-7.4c-32.6-1.1-66.3,3.7-52,4.7c12.1,0.9-9.4,2.5-29.2,2.7v22.2
		c9.4,0.3,19,0.1,26.2-1.3c19.4-3.7,18.4,2.1,24.5,5.8s31.6-2.6,33.7-5.8c2-3.2,34.7-8.4,24.5-2.6c-10.2,5.8,38.8,7.4,78.5,8.9
		c39.8,1.6,5.1-8.4,20.4-14.7s9.2,10.5,13.3,8.4s27.5-4.2,27.5-4.2s0,0-10.2-4.2s67.3-8.9,39.8-3.7c-27.5,5.3,67.3,2.1,93.8,10.5
		s23.5-4.7,17.3-6.3c-6.1-1.6-19.4-7.4,22.4-9.5s11.2,10.5-8.2,13.7S492.5,975.5,521,975c28.6-0.5,1-7.9-11.2-13.1
		c-12.2-5.3,57.1-4.7,35.7,1.6c-21.4,6.3,72.4-5.3,57.1-5.3c-15.3,0,19.4-7.4,78.5-6.8c59.2,0.5-11.2,6.3-28.6,13.1
		c-17.3,6.8,23.5,7.9,49,10s0-6.3,9.2-7.9c9.2-1.6,52,2.1,25.5,7.4c-26.5,5.3,47.9,0,71.4-3.2s31.6-8.9,2-15.2s55.1,0.5,92.8,1.1
		c6.1,0.1,13.7,0.1,19.1,2.7c6.9,3.3,3.9,5.7,3.7,10.6c-0.2,9.1,46,4.9,28.9,19.5c-5.4,4.6-14.2,4.1-21.5,4
		c-6.2,0-20.5-0.7-24.4,4.3c-4.2,5.5,10.3,5.7,14.2,5.9c12.7,0.6,25.5,0.8,38.2,1.3c4.6,0.2,22.9,2,24.8-3.3
		c1.7-4.5-10.2-7-13.9-8.1c-5.6-1.7-11.3-3.1-8.6-8.5c2.6-5.2,10.8-9.5,16.4-13c6.7-4.1,16.8-4.6,25.1-5c20.4-1.1,23.5,7.4,35.7,3.7
		s-18.4-10,54.1,3.7c72.4,13.7,73.4,4.2,39.8-4.2c-33.7-8.4,76.5,2.6,118.3,5.3c41.8,2.6,35.7,0,20.4,7.9
		c-15.3,7.9,30.6,0.5,58.1-1.1s-5.1-3.2-4.1-7.9s31.6-2.1,54.1-1.6c22.4,0.5,45.9,0,24.5-6.3s56.1-2.6,39.8-0.5
		c-16.3,2.1,37.7,13.7,61.2,6.8c23.5-6.8,45.9-5.8,29.6-9.5s33.7-4.7,25.5,0s59.2,1.1,69.4-4.2c10.2-5.3,11.2,4.7,37.7,6.3
		s20.4,3.7,10.2,8.9c-10.2,5.3,29.6,2.6,28.6-1.6c-1-4.2,13.3-3.7,41.8-2.1c28.6,1.6,10.2-5.3-3.1-10.5c-13.3-5.3,39.8-1.6,65.3,1.6
		c25.5,3.2,44.9,5.3,40.8,2.1s6.1-5.3,28.6-1.1c12.5,2.3,28.1,2.9,39.5,2.9v-23.4L1920,942.3L1920,942.3z"/>
	<circle id="_x32_" fill="#EE491F" cx="477.3" cy="389.2" r="274.5"/>
	<path fill="#E6460C" d="M294.1,184.7C238,235,202.7,307.9,202.7,389.2s35.3,154.2,91.4,204.5c56.3,11.1,118.2,17.3,183.2,17.3
		s126.8-6.2,183.2-17.3c56.1-50.3,91.4-123.2,91.4-204.5S716.5,235,660.5,184.7c-56.3-11.1-118.2-17.3-183.2-17.3
		S350.5,173.6,294.1,184.7z"/>
	<path fill="#E95427" d="M640.9,512.2c-72.1-15.7-111.3-28.9-163.6-8.1c-81.4,32.4-141.2,23.7-125.7-12
		c12.4-28.4-126.3,1.2-128.7,0.3c15.9,39,40.4,73.5,71.2,101.1c-10.4-51.4,113.1,54.3,255.6-16.9c44.2-22.1,54.4,28.1,110.8,16.9
		c30.8-27.6,55.3-62.2,71.2-101.1C729.2,493.4,692.1,523.3,640.9,512.2z"/>
	<path fill="#E95427" d="M538,556.6c-33.2,0-60-11.6-60-25.8c0-14.3,26.9-25.8,60-25.8s60,11.6,60,25.8S571.1,556.6,538,556.6z"/>
	<path fill="#CF0B00" d="M748.3,345.5c-82.9-24.7-119,22.7-210.9-3.5c-106.7-30.4-170.2,15.6-331.2,3.5c-2.3,14.2-3.5,28.8-3.5,43.7
		c0,14.9,1.2,29.5,3.5,43.7c115.4,31.4,185.5-19.8,271,3.1c110.7,29.6,212.6,18.3,271-3.1c2.3-14.2,3.5-28.8,3.5-43.7
		C751.8,374.3,750.6,359.7,748.3,345.5z"/>
	<path fill="#CF0B00" d="M422,388.2c-33.9,0-61.4-9.3-61.4-20.8s27.5-20.8,61.4-20.8s61.4,9.3,61.4,20.8
		C483.3,378.9,455.9,388.2,422,388.2z"/>
	<path fill="#DD3B03" d="M660.5,184.7c-74-26.4-225.5-37.3-185.3,13.7c15.7,19.9-75.7-30-181-13.7c-30.8,27.6-55.3,62.2-71.2,101.1
		c2.4-0.9,4.8-1.8,7.3-2.7c76-5.8,79.1-38.1,142.5-18c88.3,27.9,122.7-48,267,16.7c51.1,22.9,89.4,3.1,91.8,4
		C715.8,246.9,691.3,212.4,660.5,184.7z"/>
	<path fill="#DD3B03" d="M415.9,258.8c-20.6,0-37.2-6.6-37.2-14.8s16.7-14.8,37.2-14.8c20.6,0,37.2,6.6,37.2,14.8
		S436.5,258.8,415.9,258.8z"/>
	<path fill="#DD3B03" d="M529.3,203.8c-20.6,0-37.2-6.6-37.2-14.8c0-8.1,16.7-14.8,37.2-14.8c20.6,0,37.2,6.6,37.2,14.8
		S549.8,203.8,529.3,203.8z"/>
	<path fill="#E93D27" d="M222.9,492.5c15.9,39,40.4,73.5,71.2,101.1c56.3,11.1,66.5-39,110.8-16.9c142.4,71.2,265.9-34.5,255.6,16.9
		c30.8-27.6,55.3-62.2,71.2-101.1c-2.4,0.9-141.1-28.7-128.7-0.3c15.6,35.6-44.3,44.4-125.7,12c-52.4-20.9-91.6-7.6-163.6,8.1
		C262.5,523.3,225.4,493.4,222.9,492.5z"/>
	<path fill="#E93D27" d="M356.6,530.7c0-14.3,26.9-25.8,60-25.8c33.2,0,60,11.6,60,25.8c0,14.3-26.9,25.8-60,25.8
		C383.4,556.6,356.6,545,356.6,530.7z"/>
	<path fill="#CF3000" d="M202.8,400.9c0,9.5,1.2,18.8,3.5,27.9c58.4,13.7,160.3,20.9,271,2c85.6-14.6,155.7,18.1,271-2
		c2.3-9.1,3.5-18.4,3.5-27.9s-1.2-18.8-3.5-27.9c-161,7.7-224.5-21.7-331.2-2.2c-91.9,16.7-128-13.5-210.9,2.2
		C204,382.1,202.8,391.4,202.8,400.9z"/>
	<path fill="#CF3000" d="M471.3,387.1c0-7.3,27.5-13.3,61.4-13.3s61.4,5.9,61.4,13.3c0,7.3-27.5,13.3-61.4,13.3
		C498.7,400.3,471.3,394.4,471.3,387.1z"/>
	<path fill="#CF0B00" d="M222.9,285.8c2.4-0.9,40.8,19,91.8-4c144.4-65.1,178.7,11.3,267-16.8c63.4-20.2,66.6,12.4,142.5,18.2
		c2.5,0.9,4.9,1.8,7.3,2.7c-15.9-39.2-40.4-74-71.2-101.8c-105.4-16.5-196.7,33.8-181,13.8c40.2-51.3-111.3-40.3-185.3-13.8
		C263.3,211.8,238.8,246.6,222.9,285.8z"/>
	<path fill="#CF0B00" d="M501.4,243.7c0-8.2,16.7-14.9,37.2-14.9c20.6,0,37.2,6.6,37.2,14.9c0,8.2-16.7,14.9-37.2,14.9
		S501.4,251.9,501.4,243.7z"/>
	<path fill="#CF0B00" d="M388.1,188.3c0-8.2,16.7-14.9,37.2-14.9c20.6,0,37.2,6.6,37.2,14.9c0,8.2-16.7,14.9-37.2,14.9
		C404.8,203.2,388.1,196.5,388.1,188.3z"/>
	
		<ellipse id="_x33_" transform="matrix(0.7071 -0.7071 0.7071 0.7071 156.7532 722.2355)" fill="#F70F0F" cx="950.2" cy="171.9" rx="103" ry="103"/>
	<path fill="#CA0600" d="M881.4,95.1c-21,18.9-34.3,46.2-34.3,76.7s13.2,57.9,34.3,76.7c21.1,4.2,44.4,6.5,68.7,6.5
		c24.4,0,47.6-2.3,68.7-6.5c21-18.9,34.3-46.2,34.3-76.7s-13.2-57.9-34.3-76.7c-21.1-4.2-44.4-6.5-68.7-6.5
		C925.8,88.7,902.6,91,881.4,95.1z"/>
	<path fill="#EF4100" d="M1011.6,218c-27-5.9-41.8-10.9-61.4-3c-30.5,12.2-53,8.9-47.1-4.5c4.7-10.7-47.4,0.5-48.3,0.1
		c6,14.6,15.1,27.6,26.7,38c-3.9-19.3,42.5,20.4,95.9-6.3c16.6-8.3,20.4,10.5,41.6,6.3c11.6-10.4,20.8-23.3,26.7-38
		C1044.7,211,1030.8,222.2,1011.6,218z"/>
	<path fill="#EF4100" d="M972.9,234.7c-12.4,0-22.5-4.3-22.5-9.7s10.1-9.7,22.5-9.7s22.5,4.3,22.5,9.7
		C995.5,230.3,985.4,234.7,972.9,234.7z"/>
	<path fill="#960000" d="M1051.9,155.5c-31.1-9.3-44.6,8.5-79.1-1.3c-40.1-11.4-63.9,5.8-124.3,1.3c-0.9,5.3-1.3,10.8-1.3,16.4
		c0,5.6,0.5,11.1,1.3,16.4c43.3,11.8,69.6-7.4,101.7,1.2c41.6,11.1,79.8,6.9,101.7-1.2c0.9-5.3,1.3-10.8,1.3-16.4
		C1053.2,166.3,1052.7,160.8,1051.9,155.5z"/>
	<path fill="#960000" d="M929.4,171.5c-12.7,0-23-3.5-23-7.8s10.3-7.8,23-7.8s23,3.5,23,7.8S942.1,171.5,929.4,171.5z"/>
	<path fill="#FB6836" d="M1018.9,95.1c-27.8-9.9-84.6-14-69.5,5.1c5.9,7.5-28.4-11.3-67.9-5.1c-11.6,10.4-20.8,23.3-26.7,38
		c0.9-0.3,1.8-0.7,2.7-1c28.5-2.2,29.7-14.3,53.5-6.8c33.1,10.5,46-18,100.2,6.3c19.2,8.6,33.5,1.2,34.5,1.5
		C1039.7,118.5,1030.5,105.5,1018.9,95.1z"/>
	<path fill="#FB6836" d="M927.1,122.9c-7.7,0-14-2.5-14-5.5c0-3.1,6.3-5.5,14-5.5s14,2.5,14,5.5
		C941.1,120.5,934.8,122.9,927.1,122.9z"/>
	<path fill="#FB6836" d="M969.7,102.3c-7.7,0-14-2.5-14-5.5c0-3.1,6.3-5.5,14-5.5s14,2.5,14,5.5C983.6,99.8,977.4,102.3,969.7,102.3
		z"/>
	<polygon id="_x34_" fill="#330000" points="1382,684.8 1398.6,734 1478.7,656.8 	"/>
	<polygon fill="#330000" points="1531.2,718.2 1506.5,736.8 1487.3,687.1 	"/>
	<polygon fill="#330807" points="1390.3,688 1398.6,734 1354.9,678.6 	"/>
	<polygon fill="#330000" points="1485.3,679.1 1480.8,749 1409.7,659.9 	"/>
	<polygon fill="#541A15" points="1466.9,703.9 1480.8,749 1499.4,707.5 	"/>
	<polygon fill="#541A15" points="1489.8,706.4 1542.9,640.6 1499,708.1 	"/>
	<polygon fill="#490503" points="1471.3,711.1 1451.8,659.4 1527.3,660.5 1499.9,707.5 	"/>
	<polygon fill="#330000" points="1565,685.6 1612.9,638.7 1560.2,663.6 1531.2,718.2 	"/>
	<polygon fill="#541A15" points="1563.1,666.2 1541,661.8 1527.3,660.5 1499,708.1 1531.2,718.2 	"/>
	<polygon fill="#330000" points="1278.1,575.6 1324.6,602.5 1310.8,637.7 	"/>
	<polygon fill="#330000" points="1402.8,657.6 1454.8,710.2 1429.7,749.2 	"/>
	<polygon fill="#490503" points="1354.9,678.6 1371.3,648.9 1390.7,688.7 	"/>
	<polygon fill="#400F0C" points="1423.2,706.9 1371.3,648.9 1390.7,688.7 	"/>
	<polygon fill="#5B0000" points="1350.6,595.8 1305,635.1 1354.9,678.6 	"/>
	<polygon fill="#330000" points="1349.3,634.1 1399,628.9 1354.9,678.6 	"/>
	<polygon fill="#5B0000" points="1411.9,670.4 1371.3,648.9 1429.7,749.2 	"/>
	<polygon fill="#5B0000" points="1430.3,692 1411.9,670.4 1409.5,596.8 1445.6,598.3 	"/>
	<polygon fill="#5B0000" points="1527.3,660.5 1481,673.9 1483.3,577.1 1544.3,579.7 	"/>
	<polygon fill="#490503" points="1563.1,666.2 1527.3,660.6 1519.1,582.8 1550,586.2 	"/>
	<path fill="#64231B" d="M1636.2,595.5c-3.7,7.7-25.6,15.5-25.6,15.5l18.7-114.4l30.8,3.4C1660.1,500,1656,553.6,1636.2,595.5z"/>
	<polygon fill="#490503" points="1278.1,575.6 1320.7,607.2 1292.4,510.4 1261.9,513.3 	"/>
	<path fill="#6D0500" d="M1501.2,601.5c0,0-6.8,49.6-20.2,72.4c-35.5,13.5-50.7,18.1-50.7,18.1s9.5-75.6,0.1-90.1
		C1463.8,602.5,1501.2,601.5,1501.2,601.5z"/>
	<polygon fill="#490503" points="1349.3,634.1 1378.5,637.2 1362.9,559 1314.8,554.9 	"/>
	<path fill="#6D0500" d="M1645.3,549.1c0,0-4.7,38.9-32.3,89.6c-17.9,15.5-49.8,27.4-49.8,27.4s-11.8-68-17.8-87.7
		C1541.8,566.7,1645.3,549.1,1645.3,549.1z"/>
	<path fill="#6D0500" d="M1273.9,540.4c0,0,24.3,69.9,31.1,94.7c12.6,4.7,27.2-15,33.3-5.7c2.9,2.3,11.1,4.7,11.1,4.7
		s-23.6-62.1-29.8-86.5C1288.4,530.5,1273.9,540.4,1273.9,540.4z"/>
	<path fill="#6D0500" d="M1340.9,581.5c0,0,21.9,53.3,30.4,67.5c20,16.6,40.6,21.5,40.6,21.5s5.8-80.3,11.8-85.8
		C1429.8,579.1,1340.9,581.5,1340.9,581.5z"/>
	<polygon fill="#490503" points="1430.7,688.3 1411.9,670.4 1458.5,774.4 	"/>
	<polygon fill="#5B0000" points="1430.7,688.3 1481,673.9 1458.5,774.4 	"/>
	<path fill="#6D0500" d="M1261.2,508.2c0.5,5.4,1.8,10.1,4.3,13.1c2.7,3.3,5.6,2.5,7.7,7.1c1.7,3.9-1.4,9.9,1.4,13.5
		c3.8,4.9,15.7,4.2,21.6,7.5c7.8,4.3,14.5,11.2,22.1,15.4c9.1,5,17.6,0.4,27.4,1.9c1.1,8.2-8.9,6.6-4.8,14.8
		c2.4,4.8,11.1,7.3,15.4,9.6c5.3,2.9,10.5,7,16.3,8.7c29.7,8.6,59.9,13.2,91.6,13.2c10,0,32-1.2,37-11.4c2-4.2-1.9-7.8,2-10.9
		c1.7-1.4,13.7-0.7,16.3-0.3c10.3,1.6,20.5,6.1,31.3,7.4c14.8,1.8,24.8-7.6,37.9-11.7c13.7-4.3,24-7.1,35.8-16.1
		c6.7-5.1,17.9-12.3,20.8-20.9c-2.8-0.2-2.8-1.4-4.7-2c6.7,2.3,19.9-41.2,19.6-47.5c-0.7-15.6-9.4-25.7-21.9-32.9
		c-5.6-3.2-4.6-3.7-9.2-8.9c-9.3-10.6-19.2-17.5-32-22.4c-12.3-4.7-28.3-7.6-38.8-16c0.8-0.6,1.3-1.4,1.3-2.4
		c-8.2-0.7-14.9-5.6-23.1-6.7c-8.9-1.2-17.2,2.6-26,1.3c-9.2-1.4-18.4-6.4-27.3-9.4c-26.5-9-49.7-2.8-73.3,7.9
		c-14.2,6.5-27.2,2.9-42,5.3c-11,1.7-20.1,8.8-30.2,12.5c-10.6,3.9-20,8.5-29.9,14c-9.3,5.2-14.2,8.6-19.9,17.4
		c-5.5,8.6-17.5,9.8-22.7,17.9C1260.5,484.8,1260.4,499.5,1261.2,508.2z"/>
	<path fill="#F73414" d="M1641.7,549.3c0.5,0.3,1,0.7,1.8,1c-3.1,6.3-12.3,7.4-18.1,11.7c-1.1,0.8-2.1,1.6-3,2.3
		c-10.7,8.2-18.7,15.7-30.8,19.5l-3.1,1c-4.5,1.4-8.6,3.4-12.6,5.3c-6.9,3.3-12.8,2.5-20.7,2.5c-1.2,0-2.3-0.1-3.5-0.2
		c-5.7-0.7-11.9,1.7-17.3,0.2c-4.8-1.4-9.7-2.8-14.6-3.6c-1.6-0.2-13-2.2-16.7-2.2c-5.7,0-7.2,0.6-7.9,1.2c-2.8,2.3-2.5,4.9-2.1,7.1
		c0.2,1.5,0.4,2.9-0.3,4.3c-4.7,9.9-21.5,12.3-28.6,12.3c-30.9,0-38.9-2.5-69.5-11.4c-3.8-1.1-7.4-3.4-10.9-5.6
		c-1.7-1.1-25.2-3.9-26.9-4.8c-1.2-0.6-2.6-1.3-4.2-2c-4-1.8-9.1-4-10.5-6.9c-1.6-3.3,5.8-6.4,7.8-8.1c1.8-1.6,4.3-3.8,3.7-8.4
		l-0.2-1.2l-1.2-0.2c-1.4-0.2-2.9-0.3-4.5-0.3c-2.4,0-11.1,2.4-13.3,2.6c-2.1,0.2-4.2,0.4-6.2,0.4l0,0c-3.7,0-6.6-0.7-9.4-2.2
		c-3.7-2-7.2-4.7-10.8-7.5c-3.6-2.8-7.3-5.7-11.4-7.9c-2.7-1.5-6.4-2.2-10-2.9c-4.6-0.9-9.3-1.8-11.2-4.1c-1.2-1.5-1-3.9-0.7-6.3
		c0.2-2.3,1.1-6.9,0.1-9c-1.4-3.2-3.3-4.3-5-5.2c-1.1-0.6-2-1.1-2.9-2.3c-2.1-2.5-4-4.6-4.5-10.1c-0.9-10.2-0.4-23.5,3.9-30.1
		c2.4-3.7,10.6-4.9,14.8-7.2c4.5-2.5,9.2-5.1,12.2-9.7c5.6-8.7,6.2-12.9,15.1-17.9c11.1-6.1,20.2-10.4,29.7-13.9
		c4-1.5,10-0.8,13.8-2.7c5.9-3,11.9-6.1,18.5-7.2c5.4-0.9,10.7-0.9,15.7-1c9-0.1,15.3-2.8,24.6-7c18.5-8.4,29.1-9,43.2-9
		c8.6,0,16.9,1.4,25.3,4.3c3,1,6,2.2,9.1,3.5c6,2.5,12.2,5.1,18.5,6c1.3,0.2,2.7,0.3,4.2,0.3c3.2,0,6.3-0.5,9.4-0.9
		c3-0.4,9.9-4,12.9-4c1.2,0,2.4,0.1,3.5,0.2c3.7,0.5,7.1,1.8,10.7,3.2c3.2,1.3,6.5,2.5,10.1,3.2l-9.6,1.6l1.6,1.3
		c7.8,6.2,26.2,8.8,36.2,11.9c4,1.2,7.8,2.4,11.3,3.7c12.5,4.8,18.6,12.5,27.7,23c1.4,1.6,2.2,2.7,2.9,3.6c1.8,2.3,2.6,3.4,6.7,5.7
		c13.6,7.8,24.2,17.2,24.8,30.7c0.1,2.7-2.8,14.1-6.8,25.5c-6,16.9-11.3,22-11.3,22c6.7,2.2,20-41.3,19.7-47.6
		c-0.7-15.6-9.4-25.8-22-33c-5.7-3.2-4.6-3.7-9.2-8.9c-9.3-10.6-19.2-17.6-32.1-22.4c-12.3-4.7-28.3-7.6-38.9-16
		c0.8-0.6,1.3-1.4,1.3-2.4c-8.2-0.7-14.9-5.6-23.1-6.7c-8.9-1.2-17.2,2.6-26,1.3c-9.2-1.4-18.5-6.5-27.3-9.5
		c-26.6-9-49.8-2.8-73.5,7.9c-14.3,6.5-27.2,2.9-42.1,5.3c-11,1.7-20.1,8.9-30.3,12.6c-10.7,3.9-20,8.5-29.9,14
		c-9.3,5.2-14.3,8.7-19.9,17.5c-5.5,8.6-17.6,9.8-22.7,17.9c-4.8,7.5-4.9,22.3-4.1,31.1c0.5,5.4,1.8,10.2,4.3,13.2
		c2.7,3.3,5.7,2.5,7.7,7.1c1.7,4-1.6,8.2,2.3,15.8c0.4,0.8,11.8,34.8,12.7,35.3c0.9,0.5-9.3-34.7-8.1-34.3c5.2,1.6,12.2,2,16.3,4.3
		c7.8,4.3,17.4,16.6,28.7,18.4c6.4,21,22.4,65.9,24.8,66.2c-9.1-22.5-23.6-65.3-21.9-65.4c4.8-0.3,12.8-2.7,18-1.9
		c1.1,8.2-8.9,6.6-4.8,14.8c0.5,1,10.5,27.4,20.8,47.4c0.6,1.1-13.7-36.8-14-38.1c-1.2-4.6,6.2-1,8.7,0.3c5.3,2.9,10.6,7.1,16.4,8.7
		c13.8,4,27.8,7.1,41.9,9.3c-0.7,8.1-3.6,60.9-2.4,61.1c5.1-50.4,6.1-60.1,7-59.9c4.1,0.6,8.5,1,12.9,1.4
		c4.2,11.4-1.2,76.9-1.1,76.4c7.1-39.5,3.8-76.2,4.4-76.2c9.7,0.7,19.8,1,29.2,1c8.4,0,25.4-0.9,33.5-7.2c1.5-1.2-8.6,49.1-8,47.4
		c12.6-42.2,12.3-54.8,12.1-56.3c-0.3-2.3-0.8-4.3,1.5-6.2c1.7-1.4,13.8-0.7,16.3-0.3c9.5,1.5,19.6,5.3,29.5,7
		c0.9,0.2,13.2,68.9,14.1,69c0.6,0.1-12.4-68.5-11.7-68.4c13.8,0.8,25-7.9,37.6-11.9c13.8-4.3,24.1-7.1,35.9-16.1
		c5.3-4,13.3-9.3,17.9-15.6c0.5-0.7-9.2,38.3-8.9,37.5c12.7-33.5,11.4-41.8,11.8-42.9c-2.9-0.2-2.8-1.4-4.7-2
		C1641,547.2,1641.3,549.1,1641.7,549.3z"/>
	<polygon fill="#D1270B" points="1430.7,688.3 1481,673.9 1433.5,690.5 1458.5,774.4 	"/>
	<path fill="#D1270B" d="M1291.1,591.2c5.6,17,11.1,34,13.8,43.9c12.6,4.7,27.2-15,33.3-5.7c2.9,2.3,11.1,4.7,11.1,4.7
		s-8.9-3.4-10.2-4.8c-3.2-3.2-5.4-5.5-11.3-2.4c-10.7,5.7-20,6.3-21.1,6C1301.8,616.6,1291,590.6,1291.1,591.2z"/>
	<path fill="#9E5B49" d="M1612.9,638.7c-17.9,15.5-49.8,27.4-49.8,27.4s-1.8-1.8-0.4-2.3C1588.8,654.5,1612.9,638.7,1612.9,638.7z"
		/>
	<path fill="#D1270B" d="M1366.8,640.5c1.7,3.4,3.2,6.4,4.5,8.4c20,16.6,40.6,21.5,40.6,21.5s-31.3-16.3-39.8-22.9
		C1372.2,647.5,1366.4,639.7,1366.8,640.5z"/>
	<path fill="#D1270B" d="M1356.1,435.4c-4.3,0.5-9.2-2.3-13.3-0.7c-2.6,1-5.8,6.5-8.6,6.3c3.8,0.4,7.8,2,11.4,3
		c2.8,0.8,6.7,1.7,9.1,3.4c1,0.7,2,2.7,2.3,2.9c1.6,1,2,0.8,4.3,1.3c3.2,0.7,6.4,1.2,9.2,2.8c-5.3,4.6,10.2,8,8.8,12.5
		c-1.3,4.2-25.4,6.5-30.1,7.9c3.5,3,6.1,4.6,10.6,5.9c4.3,1.2,9.3,4.9,12.6,7.7c-6.3,0.7-12.7-1.2-19-0.7c2.1,0.8,4.6,1.6,6.2,3
		c-3.7,0.4-8.4-2.5-11.9-3.7c-5.1-1.7-10.4-2.7-15.6-4.2c-9-2.5-18-6.8-27.5-6.6c1.4,1.9-0.4,5,0.8,6.7c1.3,1.9,4.3,1.4,6.2,2.8
		c-2.7,0-13.7-1.6-14.8,2c1.1,0.7,2.2,1.5,3.2,2.3c-1.1,0.4-2.5,0-3.5,0.6c2.1,0.4,3.4,1.5,1.8,2.9c-1.9,1.7-5.7,2.7-8,3.5
		c-4.2,1.4-9,2.9-12.8,5.1c1.2,1.2,3,2,4.2,3.2c-1.7,0.9-3.5,1.6-5.1,2.5c2.7,1.1,4.8,2.3,5.7,5.2c0.7,2.2,1.9,1.5,3.2,3.3
		c1.4,2.1-1.2,3.8-2.5,5.2c-2,2.2-3.8,4.7-5.5,7.2c4.5-1.8,7.4-5.8,10.9-9c1.3-1.2,2.6-1.7,2-3.5c-0.8-2.3-3.9-4-5.4-5.9
		c-2.1-2.5,0.2-3.8,2.9-4c-1.6-2.9-5.5-3.8-0.1-5.1c4.2-1,8-2.3,12.2-3c0.1-1.2-0.4-2.2,0.7-3c1.1-0.7,3.3,0.2,4.4,0.3
		c2.3,0.4,4.2,0.9,6.4,1.9c-0.5,0.9-1.3,1.5-1.6,2.5c6.7,2.8,10.5,10.3,16.3,14.4c-2.1-6.8-7.2-12.6-9-19.3c3-1.2-0.9-6.4-1-6.4
		c3-0.8,5.4-1.2,4.6-5.1c4.9-0.2,9.5,2.9,13.9,4.5c4.2,1.5,9,2.1,12.8,4.4c3.1,1.8,5.4,6.1,9.2,6.5c4,0.5,6.2-2.8,10.5-1
		c4.6,1.9,6.7,5.2,6.9-2.6c2.1,0,4.3,0,6.2-0.6c0-0.5,0.1-1.2,0.1-1.7c3.7-0.7,6.3-1.3,9.5-2.7c-3.5-2-7.4-4.3-10.1-7.3
		c-2-2.2-4.5-3.8-6.7-6c6.8,0,6.3-5.7,13.5-5c6.1,0.6,8.7,6.1,13.3,9.5c-0.5-2.1-0.6-4.6-1.5-6.6c-0.5-1.2-3.2-3.3-3.1-4.6
		c0.6-4.3,6.8,1.2,8.7,2.1c3.5,1.6,8.1,0.7,11.3,2.6c3,1.7,4.4,5.7,7.3,7.9c-2.2,1.3-6,1.3-8.6,1.4c0.5,3,4.1,5.2,6.1,7.5
		c2.2,2.5,2.3,4.3,3,7c1.1,4.3,2.4,5.8,6,9.1c2.5,2.2,5.5,4,7.8,6.5c-5.8,4.9-17.1,1.2-22.8,6.3c1.2,0.6,1.6,1.6,2.5,2.3
		c-4.5-0.4-6.7,3.2-10.2,3.8c-4.5,0.7-11.7-4.2-15.2-7c-6.7-5.5-15.9-8.2-25.5-7.6c1.1,4,4.7,0.6,7.2,0.8c2.8,0.2,5.2,2.6,8.1,3.2
		c-1.9,0.4-4,0.9-5.7,2c3.7,1.8,9.6,6.1,6.2,10c-1.3,1.5-4.1,2-5.8,3.2c-1.8,1.3-3.3,2.9-5.5,3.7c0.1,2.1,3.1,3.3,4,5.2
		c-3.1,2-7.5,2.7-11,3.8c-4.4,1.3-8.8,2.7-13.1,3.7c0.6,1.7,3.2,3.4,4.6,4.7c-2.2,1.3-5.1,1.7-7.3,2.9c3.7,0.3,7-1.6,10.6-1.9
		c-0.7-1.7-2.5-3.1-3.1-4.8c3.4-1.1,6.8-1.5,10.3-2.2s4.3,1.3,6.9,3.5c3.5-3.9,7.9,0.6,10.1,3.2c3.2,3.6,6.5,7.7,9.2,11.7
		c-1.4,1.7-4,1.8-5.5,3.2c2.1,2.3,4.7,4.5,5.2,7.7c0.2,1.4,0,2.4,0.5,3.7c0.4,1.2,1,2.2,1.4,3.4c-2.3,1.2-5.2,1.7-7.6,2.8
		c-1.8,0.8-6.1,1.1-7.2,2.5c3.6,0.3,7.4,0.6,11.1,0c2.5-0.4,5-1.1,7.6-1.1c-0.4-1-1.1-1.8-1.7-2.7c1.7-0.1,3.4-0.2,5.1-0.3
		c-2.3-1.9-5.4-4-6.1-7.1c-0.4-1.5,0-3.3-0.3-4.9c-0.3-1.7-1-3.3-1.1-4.9c2.7-0.4,2.1-2.4,4.5,0.1c1.4,1.5,2.6,3.2,4.1,4.5
		c-1.1-3.5-4-9.1-7.3-10.4c-2.4-0.9-2.6-1.7-4.2-4c-1.5-2.2-3-4.4-4.8-6.6c-1-1.3-4.1-3.6-1.5-5c-0.6-0.9-1.6-1.5-2.6-1.9
		c-0.4-0.2-2.6-0.7-2.8-0.9c-1.3-1.4-0.8-5.3-0.2-6.8c1-2.5,3.2-4.7,5.8-5.6c4.4-1.5,6.1,0,5.8-6.1c4.6,0.2,9.9,4.3,14,6.2
		c3.2,1.5,10.6,2.9,12.3,6.3c0.8,1.5-0.2,4.4,0.1,6.2c0.5,3.4,0.8,2.9,3.2,5.4c3.6,3.8,6.4,8.3,10.1,12.2
		c-2.1-4.7-8.6-10.1-8.2-15.3c1.5-0.3,2.8-0.5,4.4-0.6c-2-4-5.1-7-3.7-11.5c0.6-2.1,3-9.2,4.6-10.3c1.7-1.3,4.6-0.1,6.5-0.6
		c2-0.5,2.9-1.9,4.7-2.7c4.8-2.3,7-0.2,11.7,0.5c5,0.8,8.4-2.9,13.5-1.8c-7.2-5.1-17.2-4.4-23.2-11.8c-4.1-5-6.8-11.4-10.4-16.7
		c1.5-0.7,5.6-2.4,5.9-3.7c0.3-1.2-2.4-4.7-2.7-5.9c5-1.4,9.4-0.1,13.8,1.7c4.6,1.9,9.3,1.7,13.8,3.2c0.6-1.6,0.6-3.2-0.3-4.4
		c4.5,0.2,9-1.5,13.7-1.3c-5.8-6.5,7.4-10.5,13.2-11.6c9.7-1.8,19.5-3.1,29.3-4.6c-1.1,1.1-1.9,3-2.5,4.1c3.6,0.6,6.6-1,10-1.6
		c3.6-0.6,6.5,0,10.1,0.6c7,1,10.9,3.6,16.9,6.8c-3.7-0.1-7.7,0.5-11.4,0.7c1.1,1.9,3,2.9,4.9,3.6c-9.5,1.1,0.8,6.6,3.3,10
		c-4.6,1.1-6.7,3.2-7.4,7.8c-0.9,5.9,1.1,6.6-6.3,6.8c-13.5,0.3-27.3,1.7-40.8,1.6c1.4,1.5,3.7,2.3,5.6,3.5
		c-5,4.3,13.5,10.9,11.2,16c-2.7,0.2-5.8,0.8-8.2,1.8c2.8,1.1,4.6,3.2,6.2,5.6c-7.2,2.5-15.6,1.4-23.2,3.1c-6.8,1.6-17.6,1-23.4,4.3
		c1.9,0.6,3.8,1.2,5.7,1.8c-3.9,5.3-0.2,14.4-0.6,20.5c-3.8-0.7-8-1.3-9.9,2.7c4.1,2.5,14.2,2.4,19,2.6c-1.1-1.8-3.5-4.6-3.5-6.8
		c0-2,2.2-3,2.4-5c0.4-3.8-4.2-9.2-0.5-12.7c2.7-2.5,10.9-0.9,14.4-1.4c4.5-0.6,9.2-2.1,13.7-3.1c-0.9,1.4-1.1,3.2-1.4,4.6
		c4.2,0.8,1.6,5.5,3.5,8c0-3.7,0-4.8,1.5-8.1c0.4-0.8,2.4-5.6,2.5-5.8c2.9-3.7,9.6-1.8,14.6-0.5c-1.1-5.6-6-9.4-6.2-15.8
		c1.1,0.3,3-0.1,4.1,0.4c-1.6-4-5.8-7.1-7.3-11c7,0,14.1,0.9,20.5,2.5c-0.3-0.7-0.1-2.3-0.4-3c5.1-0.7,9.5,4.1,14.7,3.6
		c0.3-4.6,0.4-9.2,1.1-13.7c1-6.2,2.4-5.4,8.4-4.9c-0.5-2.3,0.3-3.9,2.7-3.7c-1-4.6-6.4-7.9-8.9-12c6.3-0.9,15.3,1.2,21.6,2.2
		c8,1.3,10.6,4,16.3,9.4c-1.6-0.6-5.4-1.4-6.8,0.2c-2.2,2.6,0.8,4.6,1.7,7.1c1.9,5.2,0.4,10.8,1.3,16.2c0.4,2.1,2.7,3.8,2.4,5.9
		c-0.2,1.2-1.6,1.9-1.7,3.1c-0.1,1.3,1.1,1.6,1.4,2.6c0.7,2.7-3.8,3.2-5.7,4.1c-2.3,1.1-5.1,1.9-7.1,3.6c1,1.3,4.1,4.1,4.1,5.9
		c-0.1,2-5,2.8-6.6,4c0.7,0.6,1.6,1,1.9,1.9c-4.6,0.9-8.8,3.7-13,5.5c-5.1,2.1-10.8,3.9-15.4,7c2.4,0.6,5.7,1.2,7.7,2.9
		c-1.9,1.1-4.2,1.6-5.8,3c-1.2,1.1-1.9,2.9-3.2,3.7c2.7,0,5.7-1.7,8.4-2.1c1.7-0.3,3.5-0.6,5.2-0.6c-1.6-0.7-3.9-0.9-5.5-1.8
		c1.4-0.6,3.3-1.3,4.4-2.2c-1.1-1.4-3.4-1.9-4.6-3.1c5.8-1.2,11.1-4.1,16.7-5.9c2.3-0.7,4.9-2.7,7.1-1.6c1.8,0.9,3.2,2.9,4.8,4.1
		c1,0.7,2.1,1.3,3.1,2.2c-1.4,1.4-3.4,1.7-4.8,2.9c5,1.2,9.8,4.4,14.2,7.1c2.2,1.3,3.2,2,1.8,4.4c-1.2,2.2-2.9,3.9-3.6,6.4
		c1.4-2,2.8-0.2,4,0.8c1.5,1.2,3,1.9,4.6,2.8c-1.2-1.2-3.5-5.5-5.4-5.2c0.3-1.3,1.6-4,2.9-4.7c1.2-0.7,3.4-0.3,4.8-0.3
		c-0.1-2.2-6.6-4.9-8.4-6.1c-2.7-1.9-6.2-4.2-8.3-6.7c2.3-1.7,5.5-0.7,7.7,0.4c-2.3-1.5-15.6-9.9-13-12.8c-0.9-0.7-1.8-1.1-2.3-2.1
		c1.5-0.1,3.1,0,4.6-0.1c-1.1-2.5-2.3-4.7-2.5-7.5c2.7-0.7,3.4-2,5.6-3.3c3.3-1.8,4.1-0.8,7.2,0.9c-0.6-1.3-6.1-7.8-2.1-8.2
		c0.2-0.9-2.6-4.2,0.4-3.6c0.4-2-1.2-3.8-1.7-5.7c-0.5-1.8-0.3-3.8-0.7-5.6c-0.3-1.2-1.9-10.6-1.8-10.6c1.7,0.5,3.8,1.1,5.7,0.9
		c-1.2-2.1-2.5-3.8-2.5-6.2c8.8-1.1,15.8,4.9,22.9,8.9c-0.4,0.2-0.9,0.4-1.3,0.6c1.2,2.1,5.1,3.8,7.2,4.9c2.9,1.6,6.9,3,9.2,5.5
		c-0.6,1.1-2.5,1.8-3.4,2.6c-1.2,0.9-2.8,1.7-3.7,2.7c1.6,0.4,3.2,0.7,4.8,1.1c-0.3,1-0.8,1.7-0.2,2.6c1.1,1.8,4.4,3.3,6,4.4
		c1.4,1,3.8,2,4.9,3.4c1.2,1.5-0.5,2.6-1.7,3.6c-1.5,1.2-2.9,2.6-4.4,3.8c4.2,1.7,7.9,4.5,11.4,7.3c-1.9-2.1-4.2-3.9-6.2-6
		c-1.2-1.2-1.2-1.9-0.1-3.2c0.7-0.8,1.6-2.3,2.4-3c1.1-0.9,2.3-0.3,3.3,0.5c-1.6-2-3.5-3.9-5.3-5.7c-1.1-1.1-2.1-2.3-3.3-3.4
		c-1-0.9-2.2-1.5-3.1-2.4c-0.9-0.9-1.1-1.7,0.5-1.7c-0.6-0.8-2.6-1.7-2.3-3c0.3-1.2,2.6-1.4,2.8-2.9c1.5-0.1,3.4,1,4.9,1.3
		c-2.3-1.3-4.3-3.5-6.3-5.1c-2.1-1.7-4.6-3.1-6.7-4.7c-3.5-2.7-7.2-5.6-11.1-7.7c-2.1-1.2-3.8-2.6-5.7-4.1c-1.3-1.1-3-1.3-4.3-2.4
		c-3.3-2.6-5.4-6.7-8.5-9.6c-1.9-1.8-4.1-3.2-6.5-4.3c-5.5-2.5-10.2-1.7-16.1-2.1c-7.1-0.5-7.2-4.2-12.3-7.5
		c-4-2.6-14.5-2.8-16.5-7.3c1.1,0,2-0.6,3-0.7c0.1-1.6,0.9-2.9,0.7-4.6c2-0.9,4.1-1.3,6.2-1.8c-0.2-9.3-3.4-9.2-13.1-8.9
		c-11.3,0.3-22.5,0.3-33.6,2.7c-21.2,4.6-42,6-63.7,7.1c-13.8,0.7-29.1-1.2-42-6.8c-6.6-2.9-11.1-8.6-17.3-12
		C1373,429.8,1365,434.4,1356.1,435.4z"/>
	<path fill="#F73414" d="M1471.5,564.1c-3.9-0.1-9.4-0.4-12.8-1.4c0.7-0.5,1.6-0.7,2.9-0.7c1.2,0,2.5,0.2,3.9,0.5l1.9,0.3l0.1-2
		c0.1-2.3-0.2-4.8-0.6-7.4c-0.7-4.5-1.3-9.2,0.8-12.2l1.5-2c0,0-2.9-0.9-3.1-1c2.8-0.6,6.1-0.9,9.3-1.2c3.3-0.3,6.4-0.6,9.1-1.2
		c3.2-0.7,6.7-1,10.1-1.2c4.4-0.3,9-0.6,13.3-2l2.1-0.7l-1.2-1.9c-0.8-1.3-1.9-2.8-3.4-4.1c1.4-0.3,2.7-0.5,4.1-0.6l1.1-0.1l0.4-1
		c1.7-3.7-2.6-7-6.7-10.1c-1.7-1.3-5.3-4-5.2-5c0,0,0-0.1,0.2-0.3l1.8-1.5c0,0-2.3-1.5-2.4-1.6c6-0.1,12-0.5,17.9-0.8
		c5.5-0.3,11.2-0.6,16.8-0.8c6-0.1,7.5-0.7,7.8-5.3c0-0.8,0.1-1.8,0.3-3c0.6-3.8,2.1-5.4,6-6.3l2.7-0.6l-1.7-2.2
		c-0.8-1-2-2.1-3.3-3.2c-1.1-0.9-3-2.5-3.5-3.4c0.3-0.1,1-0.4,2.3-0.5l0.4-3.4c-0.4-0.2-0.9-0.4-1.3-0.6c2.2-0.2,4.4-0.4,6.5-0.4
		h0.6l0.9-3.3l-2.3-1.3c-4.9-2.7-8.8-4.8-15.1-5.7l-1.5-0.2c-2-0.3-3.9-0.6-5.9-0.6c-1.1,0-2.2,0.1-3.3,0.3
		c-1.2,0.2-2.3,0.5-3.4,0.8c-1.2,0.3-2.3,0.6-3.4,0.8c0.3-0.4,0.5-0.8,0.8-1.1l3.6-3.8l-5.2,0.8c-3.8,0.6-7.6,1.2-11.4,1.8
		c-5.9,0.9-12,1.8-17.9,2.9c-2.3,0.4-13.8,2.8-15.8,8.5c-0.3,0.8-0.4,1.9-0.1,3.1c-1.5,0.1-2.9,0.4-4.3,0.6c-2,0.3-3.8,0.6-5.7,0.6
		l-4.3-0.2l2.2,3c0.3,0.4,0.4,0.7,0.4,1.1c-1.5-0.4-3.1-0.6-4.6-0.9c-2.5-0.4-4.9-0.8-7.2-1.7c-3.1-1.3-6.5-2.5-10.2-2.5
		c-1.6,0-3.2,0.2-4.7,0.7l-1.6,0.5l0.4,1.7c0.2,0.7,0.6,1.5,1.3,2.7c0.4,0.6,1,1.7,1.3,2.3c-0.8,0.7-3.3,1.8-4.1,2.2l-2.6,1.2
		l1.1,1.7c1.4,2.1,2.7,4.4,4,6.8c1.9,3.4,3.9,7,6.4,10.1c3.8,4.7,9,6.4,14,8c1.5,0.5,2.9,0.9,4.3,1.4c-0.4,0.1-0.9,0.3-1.3,0.4
		c-1.5,0.5-3,1-4.5,1c-0.4,0-0.7,0-1.1-0.1c-1.3-0.2-2.3-0.5-3.3-0.8c-1.5-0.4-2.9-0.8-4.5-0.8s-3.2,0.4-4.9,1.2
		c-0.8,0.4-1.5,0.9-2.1,1.4c-0.8,0.6-1.4,1-2.2,1.2c-0.2,0.1-0.5,0.1-0.8,0.1c-0.4,0-0.8,0-1.3-0.1c-0.5,0-1.1-0.1-1.6-0.1
		c-0.9,0-2.2,0.1-3.4,0.9c-2.2,1.6-4.6,9-5.3,11.3c-1.3,4.2,0.6,7.3,2.4,10.3c0.1,0.1,0.1,0.2,0.2,0.3c-0.6,0.1-1.3,0.2-1.9,0.4
		l-1.3,0.3l-0.1,1.3c0,0.3,0,0.6,0,0.8l-0.1-0.1c-1.1-1-1.1-1-1.4-3.1c-0.1-0.5,0-1.3,0.1-2.1c0.2-1.5,0.4-3.2-0.3-4.6
		c-1.6-3.1-6-4.6-9.9-5.9c-1.3-0.4-2.4-0.8-3.3-1.2c-0.6-0.3-1.3-0.7-2-1c1.1,0.3,2.2,0.5,3.2,0.5c0.4,0,0.8,0,1.2-0.1
		c1.8-0.3,3.2-1.1,4.6-2c1.6-1,2.9-1.8,4.7-1.8c0.2,0,0.3,0,0.5,0l6.2,0.5l-5.1-3.7c-0.2-0.2-0.4-0.4-0.7-0.7
		c2.4-1.2,5.5-1.4,8.8-1.6c4.4-0.3,9-0.7,12.3-3.5l1.4-1.2l-1.2-1.4c-1.4-1.6-3.1-2.9-4.8-4.1c-1.1-0.8-2.1-1.6-3.1-2.5
		c-3.5-3.1-4.5-4.4-5.4-8.2l-0.3-1.2c-0.5-2.1-1-4-3.1-6.5c-0.6-0.7-1.4-1.4-2.2-2.2c-0.9-0.8-1.8-1.7-2.5-2.5
		c2.3-0.1,4.8-0.4,6.7-1.6l2.3-1.3l-2.1-1.6c-1.1-0.9-2.1-2.1-3-3.4c-1.2-1.7-2.5-3.5-4.5-4.6c-2-1.2-4.3-1.4-6.6-1.6
		c-1.8-0.2-3.5-0.4-4.9-1c-0.4-0.2-0.9-0.6-1.6-1c-2.4-1.6-4.4-2.9-6.3-2.9c-1.8,0-3,1.2-3.3,3.1c-0.2,1.6,1,3.1,2.2,4.3
		c0.4,0.4,0.9,1,1,1.2c0.1,0.3,0.2,0.6,0.3,0.9l-0.1-0.1c-2.7-2.8-5.6-5.7-10.3-6.2c-0.5,0-0.9-0.1-1.3-0.1c-3.6,0-5.4,1.5-7,2.9
		c-1.5,1.2-2.7,2.2-5.3,2.2h-4.2l2.9,3c1.1,1.1,2.2,2,3.3,2.9c1.2,1,2.4,1.9,3.3,3c2.1,2.3,4.7,4.1,7.4,5.8
		c-1.7,0.5-3.5,0.9-5.7,1.3l-1.5,0.3v1.5c0,0.1,0,0.2,0,0.2c-1.2,0.2-2.5,0.2-3.8,0.2h-2.5v1.7c0,1.7-0.2,2.6-0.3,3.1
		c-0.4-0.2-0.9-0.5-1.4-0.7c-0.8-0.4-1.7-0.9-2.8-1.4c-1.1-0.4-2.1-0.7-3.2-0.7c-1.6,0-2.9,0.5-4.1,0.9c-1,0.4-2,0.7-3.1,0.7
		c-0.2,0-0.4,0-0.6,0c-1.8-0.2-3.3-1.7-5-3.3c-1.1-1.1-2.2-2.2-3.6-3c-2.6-1.6-5.7-2.4-8.6-3.2c-1.5-0.4-3.1-0.8-4.5-1.4
		c-1.2-0.5-2.5-1-3.8-1.6c-3.3-1.5-6.6-3-10.3-3h-0.6l-2.1,0.1l0.4,2c0.4,1.8,0.2,2.1-2.4,2.7l-3.7-2.8c-1.1-0.8-2.4-1.1-3.5-1.4
		c-1-0.2-1.9-0.5-2.3-0.9c-0.2-0.3-0.1-1.3,0-2c0.1-0.6,0.1-1.3,0.1-1.9c5.8,0.3,11.5,2.2,17.1,4.1c2.5,0.8,5.1,1.7,7.6,2.4
		c2,0.5,4,1,6,1.5c3.2,0.8,6.4,1.6,9.6,2.6c1,0.3,2.1,0.8,3.3,1.3c2.7,1.2,5.7,2.5,8.5,2.5c0.3,0,0.6,0,0.9,0l4.1-0.4l-2.7-2.3
		c0.4,0,0.7,0.1,1.1,0.1c2.3,0.2,4.7,0.5,7.1,0.5c1.1,0,2.1-0.1,3.2-0.2l4.1-0.5l-3.2-2.7c-2.8-2.4-8.3-6.6-13.3-8
		c-2.9-0.8-4.9-1.8-7-3.3c1.2-0.2,2.6-0.4,4-0.7c15.5-2.5,22.6-4.2,23.7-7.7c1-3.3-2.5-5.6-5.7-7.6c-1.4-0.9-4.1-2.6-4.2-3.4
		c0,0,0.1-0.2,0.5-0.6l1.9-1.6l-2.2-1.2c-2.5-1.5-5.2-2-7.9-2.6c-0.6-0.1-1.2-0.3-1.8-0.4c-0.7-0.2-1.3-0.3-1.8-0.4
		c-0.8-0.1-1.2-0.2-1.8-0.6c-0.1-0.1-0.2-0.3-0.3-0.4c-0.5-0.8-1.3-2-2.2-2.6c-2.4-1.7-6-2.6-8.8-3.4l-0.8-0.2c-1-0.3-2.1-0.6-3.1-1
		c-1.2-0.4-2.4-0.8-3.6-1.1c0.5-0.4,0.9-0.9,1.4-1.4c1-1,2.1-2.2,2.8-2.4c0.7-0.3,1.4-0.4,2.3-0.4c1.3,0,2.8,0.3,4.3,0.6
		c1.6,0.3,3.3,0.7,5,0.7c0.4,0,0.8,0,1.3-0.1c2.7-0.3,5.3-0.9,7.8-1.5c3.2-0.8,6.3-1.5,9.3-1.5c2.7,0,5.1,0.6,7.3,1.8
		c2.6,1.4,4.9,3.3,7.4,5.3c3,2.5,6.2,5,10,6.7c13.4,5.9,27.7,7.1,37.3,7.1c1.8,0,3.7,0,5.4-0.1c19.2-0.9,41.6-2.3,64-7.1
		c10.1-2.2,20.1-2.4,30.7-2.6l2.6-0.1c1.6,0,2.8-0.1,3.8-0.1c5.4,0,7.1,0.2,7.4,5.8c-1.7,0.4-3.3,0.8-5.1,1.5l-1.2,0.5l0.2,1.3
		c0.1,0.7-0.1,1.3-0.3,2.1c-0.1,0.3-0.1,0.6-0.2,0.9c-0.1,0-0.3,0.1-0.4,0.1c-0.4,0.1-0.7,0.3-1,0.3h-2.7l1.1,2.5
		c1.6,3.5,6.4,4.8,11,6c2.4,0.6,4.9,1.2,6.2,2.1c1.6,1,2.7,2.1,3.7,3.2c2.1,2.2,4.1,4.2,9.4,4.6c1.6,0.1,3.1,0.1,4.6,0.1
		c3.9,0,7.2,0.1,10.9,1.8c5.4,2.5,8.6,6.5,12,10.7c0.9,1.2,1.9,2.3,2.9,3.5c-2.7-0.9-5.5-1.6-8.5-1.6c-0.7,0-1.3,0-2,0.1l-1.6,0.2
		v1.6c0,1.6,0.5,2.9,1.1,4.1c-0.7-0.2-1.3-0.4-2-0.6l-2.1-0.7v0.4c-0.3-0.9-0.9-1.6-1.3-2.3c-1.2-1.9-1.2-2.2-0.7-2.8
		c0.1-0.1,0.6-0.3,1.6-0.3c1.2,0,2.5,0.3,3.3,0.6l1.8-2.9l-0.6-0.5c-5.5-5.1-8.5-8-16.7-9.3c-1.3-0.2-2.6-0.4-4.1-0.7
		c-4.6-0.8-9.8-1.8-14.4-1.8c-1.3,0-2.5,0.1-3.6,0.2l-2.6,0.4l1.3,2.3c1.1,1.8,2.7,3.5,4.2,5c1.5,1.6,3,3.1,3.9,4.7
		c-0.6,0.3-1,0.6-1.3,1c-0.4,0.4-0.7,1.1-0.9,2.1c-1-0.1-1.8-0.2-2.5-0.2c-4,0-5.1,2.4-5.8,6.7c-0.6,3.6-0.8,7.3-1,10.8l-0.1,1.4
		c-1.6-0.2-3.2-0.9-4.9-1.7c-2.2-1-4.5-2-7-2c-0.4,0-0.9,0-1.3,0.1l-2.2,0.3l0.8,2.1v0.1c-5.9-1.3-12.2-2-18.3-2h-2.6l0.6,2.4
		c0.8,2.2,2.4,4.1,3.9,5.9c0.7,0.8,1.3,1.6,1.9,2.4c-0.2,0-0.4,0-0.5-0.1l-2.3-0.7l0.1,2.4c0.1,4,1.9,7.2,3.5,9.9
		c0.6,1.1,1.3,2.2,1.8,3.3c-2.1-0.5-4.3-0.9-6.4-0.9c-3.1,0-5.4,1-6.9,2.9c-0.2,0.2-0.2,0.2-1.3,2.9c-0.6,1.3-1.2,2.8-1.4,3.2
		c-0.1,0.2-0.2,0.4-0.3,0.6c-0.3-0.3-0.7-0.7-1.1-0.9c0.2-0.9,0.4-1.8,0.9-2.5l2.3-3.6l-4.2,0.9c-1.6,0.3-3.2,0.8-4.8,1.2
		c-2.9,0.7-5.9,1.5-8.7,1.9c-0.5,0.1-1,0.1-1.6,0.1c-0.8,0-1.7,0-2.7-0.1c-1.1,0-2.2-0.1-3.4-0.1c-2.8,0-5.9,0.2-7.7,1.9
		c-3.2,3-1.9,7-0.9,9.9c0.5,1.5,1,2.9,0.9,3.9c0,0.5-0.4,0.9-0.9,1.6c-0.7,0.9-1.5,2-1.6,3.6
		C1469.6,560.8,1470.5,562.6,1471.5,564.1z"/>
	<path fill="#F73414" d="M1374.6,535.4c0.2-0.2,0.4-0.4,0.6-0.6c0.5-0.5,1-1.1,1.6-1.5c0.4-0.3,1.1-0.6,1.8-0.9
		c-1,1.1-1.8,2.4-2.4,3.8C1375.9,536.1,1374.9,535.6,1374.6,535.4z"/>
	<path fill="#F73414" d="M1383.3,529.4c0.9-1.3,1.3-2.8,1-4.3c-0.5-2.6-2.9-4.8-5-6.2c0.7-0.2,1.4-0.3,2-0.5v-1.8
		c3.2,1.2,6.2,2.9,8.7,5c0.5,0.4,1.6,1.3,3.2,2.4c-1.2-0.4-2.5-0.7-3.7-0.8l-1.9-0.1l0.1,1.9c0.1,3.2,0.1,3.2-1.7,3.6
		C1385.2,528.9,1384.3,529,1383.3,529.4z"/>
	<path fill="#F73414" d="M1315.2,496c-1.9-1.6-3.8-2.9-5.6-4c-2.9-1.9-5.2-3.1-7.8-4.3c1.1-0.1,2.3-0.2,3.8-0.2
		c1.3,0,2.6,0.1,3.8,0.1c0.8,0,1.6,0.1,2.2,0.1h3l-0.7,0.2l0.4,1.7c0.2,1.2,0.9,2.2,1.5,3c0.2,0.4,0.6,0.9,0.7,1.2
		c-0.1,0-1.9,0.8-1.9,0.8L1315.2,496z"/>
	<path fill="#840C00" d="M1348.2,449.2c3.8,2.6,4.4,5.6,9.2,7.2c2.8,1,10.2,2.7,8.2,7.1c-1.2,2.7-11.4,5.5-14.3,6.6
		c-3.9,1.5-12.2,1.8-5.9,7.2c-9.1,0.5-15.7-2.5-24-5.7c-6.6-2.5-15.4-5-20.6,1.3c-7.5,9.1-13,21.5-26.4,22.7
		c-8.5,0.7-8-5.6-3.8-11.2c4.2-5.5,10.3-7.6,16.2-10.7c6.1-3.3,11.7-7.7,17-12.2c3.9-3.3,5.9-7.8,10.5-10.1
		C1323.8,446.8,1338.8,442.8,1348.2,449.2z"/>
	<path fill="#840C00" d="M1366,504c-8.5-1.8-16.6-5.5-24.9-8.1c-3.9-1.2-8-4.2-12.3-3.2c-10.1,2.2-1.6,14.1,1.1,18.8
		c1.6,2.9,4.7,5.8,5.8,8.8c2.3,6.1-5,3.8-8.6,2.2c-6.3-2.8-22.8-17.8-29.4-9.4c-3.6,4.6,5.3,10.7,8.2,13.6c-3.8,0.9-14,0.8-15.2,5.4
		c-2.1,7.8,15,17.7,20.3,19.9c6.4,2.6,22.2,6.3,28,0.4c3.5-3.5-1.3-8.1,2.8-10.8c2.8-1.9,8.6-1.1,11.9-1.9
		c9.9-2.6,19.6-8.9,12.6-19.4c-1.9-2.8-6.3-5.7-4.1-9.5c1.4-2.3,5.6-2.7,8-3c5.4-0.7,10.6-0.8,15.6,1.3c5.1,2.1,9.2,6.2,15.2,5.6
		c4.2-0.4,13.3-1.9,15.9-5.6c4.4-6.3-4.5-17.1-10.2-19.3c-7.8-3.1-11.1,4.5-15.8,8.8c-4.6,4.2-9.2,6.4-15.4,6.4
		C1372.1,505,1369,504.7,1366,504z"/>
	<path fill="#840C00" d="M1480.1,488.1c0.4,3.2-48.9-2.3-35.5,12.1c5.6,6,15.1,6.5,22.5,8.3c5.2,1.3,9.6,4.4,14.8,5.6
		c5.7,1.4,10.7,0.8,6.3-5.3c-2.5-3.4-9.5-7.5-3.8-10.9c3.7-2.2,10.2-0.3,14.3-0.1c5.5,0.3,11.1-0.3,16.7-0.5
		c10.1-0.3,30.1-3.2,15.8-15.9c5.2,0.3,6.2-3.4,2.4-6.5c-3.7-3-10.1-3-14.7-3.5c-6.4-0.7-19.1-2-18,7.6
		C1492.3,479.9,1478.3,474,1480.1,488.1z"/>
	<path fill="#840C00" d="M1458.1,567.6c-7.1-1.7-17.6-12.7-4.8-11.6c13.3,1.2-0.1-9.9,0.4-16c0.8-8.6,15.3-8.7,21.4-12.4
		c-8.6-5.1-19.4-2.3-28.9-2.3c-5,0-11.7-1.6-15.2,3c-3.3,4.3-1.2,9.6,3.3,11.9c-12.1,2.2,2.5,14.2,1.5,20c-0.7,4-5.7,4.2-9.1,3.5
		c-5.4-1.1-7-4.9-9.3-9.4c-3.2-6.3-7.4-12.7-14.4-15.3c-5.5-2.1-10.5-0.5-8,6c1.9,5,5.6,8.4,9.5,11.9c2.5,2.2,8.6,6.2,7.9,10
		c-9.1,3.8,8.6,10.2-0.4,14.9c-3.7,1.9-8.9,3.2-4.8,7.9c4,4.7,12.8,6.3,18.5,7.6c13.2,3,25.5,3.7,38.9,1.5
		c4.7-0.8,11.5-0.7,15.6-3.3c4.2-2.7,2.4-5.6,0.5-9.3c-2.8-5.6-0.3-3.7,2.2-7.7C1486.8,572.1,1461.4,568.4,1458.1,567.6z"/>
	<path fill="#840C00" d="M1636.9,473.3c-9-8.1-19-15.8-29.7-21.7c-4.1-2.3-8.4-3.2-12.4-5.7c-4-2.4-8.6-6.4-13.6-6.5
		c0.3,6.2-1.6,9.8-7.8,11.5c-3.5,1-14.8,0.2-16.4,4.5c-3.4,9.2,27.9,14,32.9,16.4c6,2.9,10.1,8.2,15.3,12.2c5,3.8,13.5,3.1,17.2,7.9
		c1.6,2.1,1.7,5.1,3.3,7.3c3.9,5.6,11.5,6.3,12.4,13.8c0.6,4.7,1.3,14.8,8.7,9.2c4.5-3.4,8.3-13.7,8.5-19.2
		C1656,491.5,1644.9,480.5,1636.9,473.3z"/>
	<path fill="#840C00" d="M1600.5,515.7c0.8,5.4-0.2,10.2-2.2,15.3c-1.6,4.1-4.6,8.8-4.1,13.4c0.7,6.3,6.9,9.1,9.2,14.2
		c1,2.3,1.5,6.9,4.4,7.5c3.8,0.8,5.7-4.8,8.3-6.5c5.6-3.6,16.6-2,19.1-10c1.9-6.2-7.3-7.8-10.2-11.4c-2.8-3.5,0.2-6.1-1.1-9.8
		c-1.6-4.5-7.9-4.1-10.9-7.1c-3.1-3.1-0.1-24.3-11.4-17c-3.9,2.5-1.8,7.5-1.2,11.1C1600.5,515.5,1600.5,515.6,1600.5,515.7z"/>
	<path fill="#840C00" d="M1564.4,495.9c-8,3.3-6.5,15.3-13.8,19.6c-6.4,3.8-16.1,0.3-19.7,8.2c-3.6,8-1.6,14.2-9.9,19.9
		c-6.8,4.7-14.5,6.6-22.6,7.4c-7.2,0.8-19.7,2.2-14.2,12.4c4.9,9.1,15,13.7,24.6,15.7c5.6,1.2,11.3,1.8,17.1,2.5
		c8.5,0.9,16.9,2.1,25.4,3.1s20.8,3,28.4-2c10.2-6.6-1.3-22.6-11.5-18.6c-7.8,3.1-26.9,11.1-32.7,0c-5.8-11.1,13-19.6,19.2-25.1
		c8.2-7.4,21.2-7.7,27.7-17.3c4.5-6.6-2-12.6-5.1-18.1C1574.3,498.8,1571.2,493.1,1564.4,495.9z"/>
	<path fill="#510000" d="M1619.5,491.9c-30.1-20.6-41.9-40.1-43.1-58.5c-50.2-21.7-231.3,4.2-231.3,4.2c7.7,9.4,41.9,17.7,51.9,21.2
		c17.7,21.8,70.7,38.5,106.2,39.1c36.6,0.6,46.6,4,55.5,9.9C1579.5,521.7,1630.5,499.5,1619.5,491.9z"/>
	<path fill="#A81400" d="M1358.8,419.2c50-31.6,82.5-92.4,83.6-101.9c1.1-9.6,38.8-26.5,46.2-12.7c7.4,13.8,13.2,79.5,79.4,116.2
		c17.7,11.3,12.4,36.3-40.2,30.5c-51.3,45.7-132.7,22.7-135-2.8C1329.5,444.3,1336.6,433.3,1358.8,419.2z"/>
	<path fill="#840C00" d="M1344.6,438.6c4.6,4.5,18.8,7.9,48.1,9.9c22.7-24.9,60-105.7,66.1-121.9
		C1460.5,322.3,1394.5,448.9,1344.6,438.6z"/>
	<path fill="#840C00" d="M1512.6,388.9c-18.8-25.7-32.8-57.4-36.4-89.5c-1.4,0.1-2.9,0.2-4.4,0.4c-1.3,5.1-3,10-4.4,14
		c-1,16.2,13.4,115.5-16.9,163.4c25.3,1.2,54.3-5.5,77.3-26c32.5,3.6,46.9-4.6,49-14C1547.7,424.3,1529,411.4,1512.6,388.9z"/>
	<path fill="#750B00" d="M1537.6,443c-10.4-8-18.5-18.4-26-29.1c-8-11.6-15.2-23.5-20.6-36.6c-1.5-3.6-3.1-7.1-4.6-10.6
		c1.3,7.9,3.3,15.6,6.3,22.9c4.7,11.3,10.5,22.1,14.2,33.9c4.4,14.2,2.2,29.3-2.6,43.3c8.2-3.9,16.1-9,23.4-15.5
		c11.2,1.2,20.3,1.1,27.4-0.1C1549,449.3,1542.9,447.1,1537.6,443z"/>
	<path fill="#750B00" d="M1491.6,312.6c-8.4-12.3-43,4.4-45.6,13.4c-2.4,8.3-6.9,16-11.8,23.1c-1.9,2.8-3.9,5.6-5.8,8.4
		c-2.2,3.1-9.1,0.3-10.5,3.9c-1.9,4.8,5.5,14.3,9.9,10.7c1.5-1.2,2.6-3,4.6-3.4c1.5-0.3,3.1,0.6,4.7,0.1c4.2-1.2,3.1-6.6,6.5-9.2
		c1-0.7,0.3,6.5,0.3,8.4c-0.1,4.7,4.9,11.9,10.6,9.6c6.3-2.6,7.6-11.5,6.3-15.9c-0.7-2.5-3-7.7-1.2-10.1c1.9-2.5,6-0.5,7.9,0.7
		c3.2,2,5.5,5.1,7.3,8.3c3.7,6.8,0.2,5.1,0.2,12.8c0,4.4-0.8,12.2-1.4,16.6c-1.5,10.7-4.5,23.4,0.5,33.6c3.8,7.8,15.9,14.5,22.1,6.7
		c7-8.9,7.6-20.3,4.2-30.2c-3-8.7-8.6-16.6-10.7-25.7c-1-4.3-2.5-11.2-0.7-15.8c1.1-2.8,3.7,1.7,4.7,3.6s5.2,6.4,7.7,6.5
		c3.5,0.1,0.2-5.4,4.2-4.7c1.9,0.4,2.3,3.5,4.3,3.5c1.3-0.1,2.2-0.5,2.7-1.2C1500.3,344.9,1495.3,324.5,1491.6,312.6z"/>
	<path fill="#E2200C" d="M1443.7,352c1.9,0.2,1.1,10.9,1.1,12.8c-0.1,4.7,4.2,11.4,9.9,9.1c6.3-2.6,3.8-12.9,2.5-17.4
		c-0.7-2.5-3-7.7-1.2-10.1c1.9-2.5,6-0.5,7.9,0.7c3.2,2,5.5,5.1,7.3,8.3c3.7,6.8,3.8,11.6,3.7,19.2c0,4.4-0.5,8.8-1.1,13.2
		c-1.5,10.7-3.8,22.9,1.2,33.1c3.8,7.8,14.2,14.3,20.4,6.5c7-8.9,4.7-22.7,1.3-32.5c-3-8.7-8.6-16.6-10.7-25.7
		c-1-4.3-2.1-13.6,0.9-17.4c2.5-3.1,4.5,3.8,5.4,5.7c1,1.9,2.9,5.9,5.3,6c3.5,0.1,0.2-5.4,4.2-4.7c1.9,0.4,2.3,3.5,4.3,3.5
		c5.4-0.3,2.8-7.1,1.9-8.7c-0.8-1.6-2.3-3-3.2-4.6c-6.7-11.4-9.8-21.6-13.8-34.1c-0.7-2.3-1.5-4.6-2.6-6.7
		c-7.4-13.8-43.6,3.4-46.2,12.7c-2.4,8.3-6.9,16-11.8,23.1c-1.9,2.8-3.9,5.6-5.8,8.4c-2.2,3.1-5.3,3.1-6.7,6.7
		c-1.9,4.8,1.7,11.5,6.1,7.9c1.5-1.2,2.6-3,4.6-3.4c1.5-0.3,3.1,0.6,4.7,0.1c4.2-1.2,4.5-8.1,7.9-10.6
		C1442.3,352.4,1443.1,352,1443.7,352z"/>
	<path fill="#F73414" d="M1443.7,348.4c3.5,0,1.1,10.9,1.1,12.8c-0.1,4.7,4.2,11.4,9.9,9.1c6.3-2.6,2.2-13.1,1-17.5
		c-0.7-2.5-2.3-7.5-0.5-9.8c1.9-2.5,6.9-0.6,8.8,0.6c3.2,2,5.5,5.1,7.3,8.3c3.7,6.8,4.8,14.1,4.8,21.7c0,4.4-0.5,8.8-1.1,13.2
		c-1.5,10.7-3.8,22.9,1.2,33.1c3.8,7.8,13.2,11.8,19.3,4c7-8.9,4.7-22.7,1.3-32.5c-3-8.7-8.6-16.6-10.7-25.7
		c-1-4.3-2.1-13.6,0.9-17.4c2.5-3.1,4.5,3.8,5.4,5.7c1,1.9,2.9,5.9,5.3,6c3.5,0.1,0.2-5.4,4.2-4.7c1.9,0.4,2.6,2.3,4.3,3.5
		c2.4,1.6,3.9-0.9,2.1-4.6c-0.8-1.6-2.5-3.7-3.5-5.2c-6.7-11.4-9.7-25-13.7-37.5c-0.7-2.3-1.5-4.6-2.6-6.7
		c-7.4-13.8-43.6,3.4-46.2,12.7c-2.4,8.3-6.9,16-11.8,23.1c-1.9,2.8-3.9,5.6-5.8,8.4c-2.2,3.1-5,5.8-6.4,9.4
		c-1.9,4.8,1.4,8.8,5.8,5.2c1.5-1.2,2.6-3,4.6-3.4c1.5-0.3,3.1,0.6,4.7,0.1c4.2-1.2,4.5-8.1,7.9-10.6
		C1442.3,348.7,1443.1,348.4,1443.7,348.4z"/>
	<path fill="#FF3D1D" d="M1471.4,317.6c2.8-0.3,5.6-0.2,8.8,0c2.1,0.2,4.8,0.5,6.5-1c4.7-4.2,4.9-10.5-0.1-14.4
		c-5.7-4.5-13.2-3.6-19.6-1.6c-7.8,2.4-17,6.2-22.7,12.4c-3.5,3.8-1.5,9,4.4,7.7c4-0.9,7.3,3,11.1,0.7
		C1463.8,319.2,1467.5,318,1471.4,317.6z"/>
	<path fill="#D1270B" d="M1480.7,304.9c0-5-22.5-2.2-32.3,10.5C1445.9,318.7,1480.7,315.7,1480.7,304.9z"/>
	<path fill="#A81400" d="M1479.5,305c-0.1,0.2-0.3,0.3-0.3,0.4c-0.4,0.5-0.4,1.2-0.8,1.8c-0.3,0.3-0.9,0.9-1.3,1.1
		c-1.2,0.4-0.8-0.9-1.4-1.2c-0.7-0.3-0.9,1.6-1,2c-0.2,0.7-0.8,1.3-1.6,1.5c-0.7,0.2-1.5-0.1-2.2-0.1s-1.4,0.1-2.1,0.2
		c-0.3,0.1-0.6,0.1-0.8,0.3c-0.2,0.2-0.1,0.8-0.3,1c-0.4,0.3-1.1-0.1-1.6,0c-0.3,0.1-0.3,0.3-0.7,0.2c-0.4-0.1-0.6-0.8-0.8-1.1
		c-0.3-0.6-0.9-2.2-1.2-1c-0.3,1.1,0,2.3-0.2,3.4c-0.2,0.9-0.4,0.6-1.1,0.6c-0.8,0-0.8,0.4-1.2-0.4c-0.2-0.4-0.6-1.4-1.1-0.5
		c-0.4,0.7,0.5,1.8-0.4,2.4c-0.4,0.3-1.4,0.3-1.9,0.3s-1.2,0-1.7-0.2c-0.6-0.3-0.6-0.8-0.7-1.4c-0.3,0-0.3,0.1-0.5,0.2
		c0,0,0,0.2-0.1,0.3c-0.6,1.2-0.6,2.1,0.9,2c1.3-0.2,2.6-0.5,3.9-0.6c2.4-0.2,4.9-0.8,7.2-1.4c2.3-0.6,4.7-1.3,6.9-2.3
		c1-0.4,1.9-0.9,2.8-1.5c1.6-0.9,3.1-2.2,3.9-3.9c0.2-0.5,0.9-2.1,0.2-2.5C1480.1,304.3,1479.8,304.6,1479.5,305z"/>
	<path fill="#FF5039" d="M1497.9,400.9c0.6,4.4,0.1,9-3.1,11.5c-5.6,4.2-11.4-7.9-12.5-11.5c-2-6.4-2.3-14.5-1-21.1
		c0.8-3.9,3.8-9.2,7.2-3.8c3.2,5.3,5.7,12.1,7.8,18C1496.9,395.9,1497.6,398.4,1497.9,400.9z"/>
	<path fill="#FF5039" d="M1453.8,353.1c-0.7-1.8-1.5-3.5-2.5-2.7c-1.3,1-0.9,4.2-1,5.7c-0.1,2.6-1.4,4.9-1.4,7.5
		c-0.1,4.1,4,6.6,6.1,2.2c1.4-3,1-6.5-0.2-9.4C1454.6,355.8,1454.3,354.4,1453.8,353.1z"/>
	<polygon id="_x35_" fill="#FFCFAB" points="851.1,79.9 852.5,92.9 865.6,94.4 852.5,95.8 851.1,108.8 849.6,95.8 836.6,94.4 
		849.6,92.9 	"/>
	<polygon fill="#FFCFAB" points="1055.5,260.5 1056.9,273.5 1069.9,275 1056.9,276.4 1055.5,289.5 1054,276.4 1041,275 1054,273.5 	
		"/>
	<polygon fill="#FFCFAB" points="1181,49.4 1182.4,62.4 1195.4,63.9 1182.4,65.3 1181,78.3 1179.5,65.3 1166.5,63.9 1179.5,62.4 	
		"/>
	<polygon fill="#FFCFAB" points="1778.8,102.8 1780.7,133.8 1811.8,135.8 1780.7,137.7 1778.8,168.8 1776.8,137.7 1745.8,135.8 
		1776.8,133.8 	"/>
	<polygon fill="#FFCFAB" points="1475.9,178.5 1477,196.7 1495.1,197.8 1477,199 1475.9,217.1 1474.7,199 1456.6,197.8 
		1474.7,196.7 	"/>
	<polygon fill="#FFCFAB" points="700.7,151.7 701.9,169.9 720,171 701.9,172.1 700.7,190.3 699.6,172.1 681.5,171 699.6,169.9 	"/>
	<polygon fill="#FFCFAB" points="1362.3,118.1 1364.3,149.1 1395.3,151.1 1364.3,153 1362.3,184.1 1360.4,153 1329.3,151.1 
		1360.4,149.1 	"/>
	<polygon fill="#FFCFAB" points="1446.4,248 1447.6,268.1 1467.8,269.4 1447.6,270.7 1446.4,290.8 1445.1,270.7 1425,269.4 
		1445.1,268.1 	"/>
	<polygon fill="#FFCFAB" points="168.4,446.1 167.8,441.1 162.8,440.6 167.8,440 168.4,435 168.9,440 173.9,440.6 168.9,441.1 	"/>
	<polygon fill="#FFCFAB" points="1670.6,307.6 1669.2,294.6 1656.2,293.2 1669.2,291.7 1670.6,278.7 1672.1,291.7 1685.1,293.2 
		1672.1,294.6 	"/>
	<polygon fill="#FFCFAB" points="176.6,116.9 175.2,103.8 162.1,102.4 175.2,101 176.6,87.9 178,101 191.1,102.4 178,103.8 	"/>
	<polygon fill="#FFCFAB" points="50,221.9 48.6,208.9 35.6,207.5 48.6,206 50,193 51.5,206 64.5,207.5 51.5,208.9 	"/>
	<polygon fill="#FFCFAB" points="729.7,316.1 727.7,285 696.7,283.1 727.7,281.1 729.7,250.1 731.6,281.1 762.7,283.1 731.6,285 	
		"/>
	<polygon fill="#FFCFAB" points="74.8,385.1 73.7,367 55.5,365.8 73.7,364.7 74.8,346.6 75.9,364.7 94.1,365.8 75.9,367 	"/>
	<polygon fill="#FFCFAB" points="1076.2,389.7 1075.1,371.5 1056.9,370.4 1075.1,369.3 1076.2,351.1 1077.4,369.3 1095.5,370.4 
		1077.4,371.5 	"/>
	<polygon fill="#FFCFAB" points="141.1,338.3 139.2,307.3 108.2,305.4 139.2,303.4 141.1,272.4 143.1,303.4 174.1,305.4 
		143.1,307.3 	"/>
	<polygon fill="#FFCFAB" points="1414.7,393.5 1413.5,373.4 1393.3,372.1 1413.5,370.8 1414.7,350.7 1416,370.8 1436.1,372.1 
		1416,373.4 	"/>
</g>
</svg>
