<?xml version="1.0" encoding="utf-8"?>
<!-- Generator: Adobe Illustrator 24.0.2, SVG Export Plug-In . SVG Version: 6.00 Build 0)  -->
<svg version="1.1" id="bac2" xmlns="http://www.w3.org/2000/svg" xmlns:xlink="http://www.w3.org/1999/xlink" x="0px" y="0px"
	 viewBox="0 0 1920 1080" enable-background="new 0 0 1920 1080" xml:space="preserve">
<rect id="_x30_" fill="#E6CEE8" width="1927.4" height="1087.8"/>
<polygon id="_x31_" fill="#E9DAED" points="352.1,402.5 1202.8,420.7 1927.4,143 1927.4,724.4 113.9,757.1 1294.9,645 "/>
<polygon fill="#E9DAED" points="0,766.7 0,51.6 905.1,220.4 1813.5,97.7 1060.4,482.8 "/>
<polygon id="_x32_" fill="#FFE1F7" points="0,47.6 719.8,51.7 1079.3,80.7 1590.4,66.5 1043.2,113.8 646.3,80.7 0,98.6 "/>
<polygon fill="#E8C8E2" points="1927.4,511.4 1589.2,538 1362.6,535 1623.7,568.6 1927.4,565.2 "/>
<polygon fill="#DBB6D4" points="0,619.8 248.2,659.9 500.3,682.8 750,694.1 505,709.3 229.4,711.8 0,666.2 "/>
<polygon fill="#FFE1F7" points="1927.4,189.6 1526.6,222.3 1037.1,206.3 267.7,218.5 1077.5,230.6 1589.3,241.6 1927.4,252.2 "/>
<polygon fill="#DBB6D4" points="1927.4,603.2 1927.4,638 930.3,636.3 "/>
<polygon fill="#E8C8E2" points="0,417.9 0,463.5 493.9,494.8 "/>
<ellipse id="_x33__1_" fill="#FFFFFF" cx="975.3" cy="765.3" rx="236.4" ry="178.8"/>
<path fill="#FFFFFF" d="M1243.9,119.9c5.7,0,5.7,6.7,0,6.7C1238.2,126.6,1238.2,119.9,1243.9,119.9z"/>
<path fill="#FFFFFF" d="M129.6,303.8c3.4,0,3.4,4,0,4C126.2,307.9,126.2,303.8,129.6,303.8z"/>
<path fill="#FFFFFF" d="M1618.2,105.8c5.7,0,5.7,6.7,0,6.7S1612.5,105.8,1618.2,105.8z"/>
<path fill="#FFFFFF" d="M1051.4,393.5c4.4,0,4.4,5.1,0,5.1S1047,393.5,1051.4,393.5z"/>
<path fill="#FFFFFF" d="M1194.9,378.2c4.6,0,4.6,5.4,0,5.4S1190.3,378.2,1194.9,378.2z"/>
<path fill="#FFFFFF" d="M921.3,210.6c3.6,0,3.6,4.2,0,4.2S917.8,210.6,921.3,210.6z"/>
<path fill="#FFFFFF" d="M633.3,40.2c5.5,0,5.5,6.5,0,6.5S627.8,40.2,633.3,40.2z"/>
<path fill="#FFFFFF" d="M848.5,115.7c4.6,0,4.6,5.4,0,5.4S843.9,115.7,848.5,115.7z"/>
<path fill="#FFFFFF" d="M1296.8,486.8c6,0,6,7,0,7S1290.8,486.8,1296.8,486.8z"/>
<path fill="#FFFFFF" d="M353.5,457.5c6.2,0,6.2,7.3,0,7.3S347.3,457.5,353.5,457.5z"/>
<path fill="#FFFFFF" d="M322,242.9c4.8,0,4.8,5.6,0,5.6C317.1,248.5,317.1,242.9,322,242.9z"/>
<path fill="#FFFFFF" d="M590.2,393.6c5.3,0,5.3,6.2,0,6.2C584.9,399.8,584.9,393.6,590.2,393.6z"/>
<path fill="#FFFFFF" d="M946.4,330.9c6.7,0,6.7,7.8,0,7.8C939.8,338.7,939.8,330.9,946.4,330.9z"/>
<path fill="#FFFFFF" d="M1449.6,118.1c5,0,5,5.8,0,5.8S1444.7,118.1,1449.6,118.1z"/>
<path fill="#FFFFFF" d="M125.5,106.4c4.4,0,4.4,5.2,0,5.2C121.1,111.6,121.1,106.4,125.5,106.4z"/>
<path fill="#FFFFFF" d="M1623.2,517.5c4.7,0,4.7,5.5,0,5.5S1618.6,517.5,1623.2,517.5z"/>
<path fill="#FFFFFF" d="M842.2,284.5c3.4,0,3.4,4,0,4C838.7,288.5,838.7,284.5,842.2,284.5z"/>
<path fill="#FFFFFF" d="M1292.3,195c5.7,0,5.7,6.7,0,6.7C1286.6,201.7,1286.6,195,1292.3,195z"/>
<path fill="#FFFFFF" d="M1801.4,461.4c5.1,0,5.1,5.9,0,5.9C1796.4,467.4,1796.4,461.4,1801.4,461.4z"/>
<path fill="#FFFFFF" d="M1473.6,366.1c5.4,0,5.4,6.3,0,6.3C1468.3,372.4,1468.3,366.1,1473.6,366.1z"/>
<path fill="#FFFFFF" d="M1773.6,286.9c5.4,0,5.4,6.3,0,6.3S1768.3,286.9,1773.6,286.9z"/>
<path fill="#FFFFFF" d="M552.7,496c6.8,0,6.8,8,0,8S545.9,496,552.7,496z"/>
<path fill="#FFFFFF" d="M441.4,315c4.5,0,4.5,5.2,0,5.2C437,320.2,437,315,441.4,315z"/>
<path id="_x34__1_" opacity="0.42" fill="#FFFFFF" enable-background="new    " d="M1580.8,91.7c0,0-1275.6,142.7-1276.7,142.8
	c-10.3,1.2-15.6,1.8-16.3-1.3c-0.8-3.3,4.9-2.9,15.9-4.3C304.8,228.8,1580.8,91.7,1580.8,91.7z"/>
<rect id="_x35__1_" y="744.6" fill="#8992BF" width="1927.4" height="343.2"/>
<polygon fill="#9DA7CE" points="1381.5,784.6 1301,814 1552.1,858.7 1395,926.8 1612.8,954.5 1551.2,1042.5 1612.8,1088.1 
	16.9,1088.1 85.1,1049.6 534.5,1007.3 214.9,930.5 369.2,879.1 573.8,859 447,845.8 618.1,814.3 517.4,768.7 740.6,744.6 
	1210.1,744.6 "/>
<polygon fill="#AAB5D1" points="1476,1013.7 1110.4,914.7 1457.7,865.3 1159.8,843.2 1233.9,767.3 740.6,744.6 634.5,789.2 
	697.3,826.9 483,862.1 427,895.5 590.2,934.9 169.5,1023.6 "/>
<polygon fill="#B4BFD6" points="1298.1,771.8 739.9,771.8 992.2,821.6 764.1,863.1 1044.1,879.1 833.1,914.6 1200.9,964.5 1024,914 
	1247.5,882.2 1029.7,852.7 1171.9,823.4 995.7,796.2 "/>
<polygon fill="#B4BFD6" points="1220,767.3 1082.3,756.1 740.6,744.6 701.2,776 997.2,827.9 587.9,828 777.9,887.8 297.1,979.6 
	874.5,972.8 485.6,959.4 818.1,891.1 670.6,836.8 1061.2,831.9 797.8,775.1 "/>
<polygon fill="#B4BFD6" points="1364.4,785 1044.1,789.1 1296.5,827.1 1121.1,852.3 1426.2,890.7 1297,901.5 1485.5,891.1 
	1167.1,851.2 1323.4,826.3 1104.2,792.7 "/>
<path id="_x36_" fill="#424C72" d="M1735.7,922.7L1713.8,613l0,0v-14.4l0,0c0,0,0.1-1.5-0.8-2.4c-0.8-0.7-3.3-0.7-3.3-0.7h-14.9
	v-21.9h29.8c0,0,4.4,0,2.7-1.3l-76.9-57.8l-2-78.5c0.5,0,1-0.3,1-0.8s-0.4-0.8-1-0.8s-1,0.3-1,0.8c0,0.4,0.4,0.7,1,0.8l-2.4,78.5
	c-0.2,0.1-77.4,57.8-77.4,57.8c-1.7,1.3,2.7,1.3,2.7,1.3h29.7v21.9h-14.9c0,0-2.2,0-3.1,0.8c-1,0.8-1,2.3-1,2.3V613l-21.9,309.7
	l-32.9,7.1l-32.9,30.3l154.8,42l152.7-42l-32.9-30.3L1735.7,922.7z"/>
<rect x="1585.2" y="598" fill="#E9DAED" width="15.6" height="15"/>
<rect x="1604.9" y="573.6" fill="#E9DAED" width="18.2" height="39.4"/>
<rect x="1627.2" y="573.6" fill="#E9DAED" width="18.6" height="39.4"/>
<rect x="1649.9" y="573.6" fill="#E9DAED" width="18.6" height="39.4"/>
<rect x="1672.6" y="573.6" fill="#E9DAED" width="18.2" height="39.4"/>
<rect x="1694.8" y="598" fill="#E9DAED" width="15.6" height="15"/>
<g>
	<polygon fill="#5C6A96" points="1724.7,766.8 1575.4,704.3 1579.8,641.2 1720,700.1 	"/>
</g>
<g>
	<polygon fill="#5C6A96" points="1732.9,882.5 1567.1,820.6 1572.1,750.4 1727.6,808.1 	"/>
</g>
<polygon id="_x37_" fill="#414567" points="1316.9,964.3 1389.4,963.3 1451.6,977 1511.7,940.3 1649.9,981.8 1815.5,929.8 
	1927.4,952.4 1927.4,1087.8 1016.6,1087.8 1162,1008.8 1242.4,1008.8 "/>
<polygon fill="#545C77" points="1016.6,1087.8 1162,1008.8 1242.4,1008.8 1173.7,1051.7 1150.9,1045 "/>
<polygon fill="#545C77" points="1316.9,964.3 1389.4,963.3 1338.2,1023.6 1346,977.4 1242.4,1008.8 "/>
<polygon fill="#545C77" points="1511.7,940.3 1551.3,952.7 1462.9,1010.1 1393.9,1015.1 1494.1,973 1451.6,977 "/>
<polygon fill="#545C77" points="1815.5,929.8 1854.9,979 1927.4,990.4 1927.4,952.4 "/>
<polygon fill="#545C77" points="1152.2,1087.8 1310,1008.8 1289.8,1040.6 1332.4,1039.3 1389.4,1030.6 1277,1087.8 1240.9,1087.8 
	1264.8,1069.2 1208.3,1087.8 "/>
<polygon fill="#545C77" points="1403.4,1060.4 1561.2,987.3 1547.6,1042.9 1626.4,1008.8 1581.6,1060.7 1512.2,1087.8 
	1338.2,1087.8 "/>
<polygon fill="#545C77" points="1801.5,963.3 1871.5,1037.6 1881.4,1015.1 1927.4,1037.6 1927.4,1087.8 1584.6,1087.8 
	1669.3,1025.6 1732.9,1037.6 1745.8,1066.1 1767.2,979 1782.6,998.2 "/>
</svg>
