<?xml version="1.0" encoding="utf-8"?>
<!-- Generator: Adobe Illustrator 24.0.2, SVG Export Plug-In . SVG Version: 6.00 Build 0)  -->
<svg version="1.1" id="bac1" xmlns="http://www.w3.org/2000/svg" xmlns:xlink="http://www.w3.org/1999/xlink" x="0px" y="0px"
	 viewBox="0 0 1920 1080" enable-background="new 0 0 1920 1080" xml:space="preserve">
<rect id="_x30_" fill="#FFEDD2" width="1920" height="1080"/>
<polygon id="_x31_" fill="#F7BD7E" points="0,424.8 149.5,485.6 246,448.7 321.2,509.8 411.8,497.3 555.6,541.9 676.7,559 
	707.2,550.9 734.6,559 838.9,559.2 1097.1,559.2 1149.8,542.2 1196.2,550.3 1292.6,524.8 1412.3,540.5 1624.2,441.1 1769.2,500.4 
	1920,424.8 1920,1080 0,1080 "/>
<polygon id="_x32_" fill="#D39C71" points="1146.4,582.9 1154.4,590.9 1138.3,590.9 "/>
<polygon fill="#D39C71" points="805.8,589.8 812.7,596.7 798.9,596.7 "/>
<polygon id="_x33_" fill="#D39C71" points="1303.3,609.8 1313.2,619.7 1293.4,619.7 "/>
<polygon fill="#D39C71" points="1537.2,623.7 1549,635.5 1525.3,635.5 "/>
<polygon fill="#D39C71" points="653.3,612.2 664.4,623.3 642.2,623.3 "/>
<polygon fill="#D39C71" points="961.4,633 978.7,650.3 944,650.3 "/>
<polygon fill="#D39C71" points="435.5,626.9 447.5,638.9 423.5,638.9 "/>
<polygon id="_x34_" fill="#D39C71" points="346.6,668.8 362.4,684.7 330.8,684.7 "/>
<polygon fill="#D39C71" points="1453.9,663.7 1476.6,686.3 1431.2,686.3 "/>
<polygon fill="#D39C71" points="630.6,710.7 653.3,733.4 607.9,733.4 "/>
<polygon id="_x35_" fill="#D39C71" points="1138.4,752.4 1168.7,782.7 1108.1,782.7 "/>
<polygon fill="#D39C71" points="823.9,773.5 854.2,803.8 793.6,803.8 "/>
<path id="_x36__2_" fill="#FCCEA7" d="M0,487.2c40.7,6.3,71.5,35.4,71.5,70.4c0,1,0,1.9-0.1,2.9C117,580.8,148,620.3,148,665.7
	c0,3.7-0.2,7.4-0.6,11c36.3,12.1,61.9,41.4,61.9,75.4c0,0.1,0,0.2,0,0.3c45.8,7.4,80.4,40.3,80.4,79.9c0,6-0.8,11.7-2.3,17.3
	c4.2-0.3,8.5-0.4,12.8-0.4c35.8,0,68.8,9.5,95.5,25.7c1.8,0,3.7-0.1,5.5-0.1c70,0,128.5,40.1,143.1,93.6c4.8-0.4,9.7-0.5,14.7-0.5
	c37.2,0,71.3,11.2,97.4,29.6c16.5-9.9,36.9-15.7,59-15.7c34.6,0,65.1,14.4,83,36.2c22.6-11.3,49.2-17.8,77.6-17.8
	c39.8,0,75.9,12.7,102.6,33.4c19.2-7.4,40.6-11.5,63.2-11.5c7.4,0,14.7,0.4,21.8,1.3c30.9-38.8,84.4-64.3,145.2-64.3
	c47.5,0,90.6,15.6,121.9,40.9c19.3-6.1,40.1-9.3,62-9.3c2.2,0,4.3,0,6.4,0.1c13.8-31.5,50.6-54.2,94-54.2
	c28.9,0,54.9,10.1,73.1,26.1c12.5-5.8,25.9-10.4,40.1-13.5c4.3-54,49.8-99,111-114.2c2.3-38.9,27.4-72.9,64.5-93.5
	c-1.4-7.3-2.2-14.6-2.2-22.1c0-34.3,15.3-65.7,40.6-90c-3-10-4.7-20.4-4.7-31.1c0-55.8,43.6-103.1,104.4-120.8V1080l0,0H0V487.2z"/>
<path id="_x37_" fill="#F9D6BB" d="M0,547.1c39.7,15.7,69,45.3,77.6,80.4c22.5,14.3,36.8,36,36.8,60.4c0,5.4-0.7,10.7-2.1,15.8
	c24.2,10.6,44.6,25.8,59.1,44.2c2.2-0.1,4.4-0.1,6.7-0.1c64.2,0,120.8,25.2,154.7,63.5c53.5,0.6,100.1,23.6,125,57.6
	c24.7-14.1,55.1-22.5,88.1-22.5c61.7,0,114.7,29.3,137.4,71c6.8-1.1,13.9-1.8,21.1-1.8c32.5,0,61.5,12.2,79.7,31
	c27-21.2,64.5-34.4,105.8-34.4c52,0,97.7,20.7,124.4,52.2c27-20.7,64-33.6,104.8-33.6c31.5,0,60.7,7.7,84.8,20.6
	c30.8-37.3,84.6-62.1,145.7-62.1c9.9,0,19.7,0.6,29.2,1.9c30.3-36.4,82.9-60.5,142.6-60.5c1.9,0,3.9,0,5.8,0.1
	c28.5-22.7,68.1-36.7,112-36.7c12.7,0,25.1,1.2,37,3.4c15.1-50.8,73.4-88.7,143.1-88.7c0.9,0,1.8,0,2.8,0
	c15-37.9,51.3-68.6,97.9-83.6V1080l0,0H0V547.1z"/>
<path id="_x38_" fill="#F9E2D2" d="M1920,778.8c-80.3,4.2-146.9,32.1-172.6,69.9c-4.6-0.2-9.3-0.3-14.1-0.3
	c-44,0-83.6,9.8-110.9,25.3c-18.1-12.8-47.6-21.1-80.8-21.1c-55.1,0-99.8,22.9-99.8,51.1c0,1,0.1,2,0.2,2.9
	c-23-7.4-50.2-11.7-79.4-11.7c-27.5,0-53.3,3.8-75.4,10.4c-17.8-8.6-41.8-13.9-68.2-13.9c-32.1,0-60.7,7.8-79,19.9h-4.8
	c-22.3-6.8-48.3-10.7-76.1-10.7c-27.8,0-53.8,3.9-76.1,10.7h-21.3c-27.4-17.2-69-28.2-115.7-28.2c-4,0-8,0.1-11.9,0.2
	c-30.5-13.7-70.4-22-114.2-22c-42,0-80.5,7.7-110.5,20.4c-18.2-12.4-47.1-20.4-79.7-20.4c-42.6,0-79,13.7-93.3,33
	c-16.8-2.9-34.7-4.4-53.3-4.4c-4.2,0-8.4,0.1-12.5,0.2c-26.7-24.8-78.3-41.6-137.5-41.6c-27.3,0-52.9,3.6-75.3,9.9
	C130.5,827.2,70.5,804.9,0,803v277h1920V778.8z"/>
<path id="_x39_" fill="#FCF1E8" d="M128,897.2c25.4-7.8,56.1-12.4,89.4-12.4c79.7,0,145.5,26.4,155.6,60.6c3.4-0.1,6.9-0.1,10.4-0.1
	c21.1,0,41.3,1.7,59.9,4.8c17.5-12.8,49.1-21.3,85.2-21.3c36.3,0,68,8.6,85.5,21.5c27.2-7.9,59.6-12.5,94.5-12.5
	c26.9,0,52.3,2.7,75,7.6c19-4,40.3-6.1,62.7-6.1c46.7,0,88.4,9.6,115.7,24.5h21.3c22.3-5.9,48.3-9.3,76.1-9.3s53.8,3.4,76.1,9.3h4.8
	c18.2-10.5,46.8-17.2,79-17.2c28.4,0,54,5.3,72.2,13.8c26.5-10.7,61.8-17.3,100.4-17.3c33.9,0,65.3,5,90.3,13.6
	c11.9-18.6,50.3-32.2,95.9-32.2c17.2,0,33.3,1.9,47.4,5.3c12.8-6,28.1-10.9,45.2-14.4c11.1-45.6,97.9-81.2,203.5-81.2
	c15.8,0,31.2,0.8,46,2.3v243.8l0,0H0V869.7C50.9,870.8,96.3,881.2,128,897.2z"/>
</svg>
