<?xml version="1.0" encoding="utf-8"?>
<!-- Generator: Adobe Illustrator 21.1.0, SVG Export Plug-In . SVG Version: 6.00 Build 0)  -->
<svg version="1.1" id="bac1" xmlns="http://www.w3.org/2000/svg" xmlns:xlink="http://www.w3.org/1999/xlink" x="0px" y="0px"
	 viewBox="0 0 1920 1080" enable-background="new 0 0 1920 1080" xml:space="preserve">
<g>
	<rect id="_x30_" fill="#FFE783" width="1920" height="262.6"/>
	<path fill="#9EC6E8" d="M1920,243.6C1287.4,212,643,227.2,0,234.4v69.9c131,4.2,559.3-0.2,649.2,1.1c136.7,2,227.9-0.5,367.6,1
		l7.7,0.1c105.4,1.1,233.9-3.3,343.5-4.7c198.5-2.7,356.2-10.6,552,1.2V243.6z"/>
	<path id="_x31_" fill="#CDA58A" d="M-13.4,268c52.4,3.8,106.9,9.9,130,17.8c37.9,12.9,207.9,26.3,250.4,11.7
		c69.7-9.5,115.9-23.8,188.6-18.4c36.3-3.6,67.8,35.7,154.8,24.3c77.3-10.1,40.2-24.3,139.5-16.6c29.7,2.2,146.6-15.9,158.8,24.1
		c-15.3,0.4-53.1,47.1-115.7,58.8c-221.2,41.2-382.9,20.6-606.2,5.6c-113.2-7.6-190.8-14.8-297.7-12.6l-2.6-94.7L-13.4,268z"/>
	<path fill="#7E9477" d="M740.4,331.3L753,324c-9.4-3.2-20-9.3-25.4-3.3c-1.8,2-4.2-0.8-4.8-0.7c-1.7,4.3-2.6,0.6-9.4,1.8
		c-3.6,0.6-4.2-3.4-8.1,1.6c-2.7,3.5-3.3-4.1-7.6,0.7c-2.1,2.4-1.9-2.5-7.2-1c-4.6,1.3,0-3-4.7,2.2c-2.3,2.6-3.4-6.9-8.6,0.9
		c-1.6,2.4-1.6-4.2-5.6,0.4c-4,4.7-0.8-3.5-6.8,2.1c-4.9,4.5-5.7-3.6-8.6,1.8c-0.9,1.7-6.7,1.7-9.1,2.7c0,0.2-4.9,5.8-4.8,6.5
		c0.1,0,17.4,3,19.8,3.1c8.3,0.3,28.3,16.2,36.3,14c12.8-0.1,33-24.2,40.8-25.6C739.9,330.9,739.8,331.1,740.4,331.3z"/>
	<path fill="#7BAF7F" d="M1365.8,306.9c-31.5-2-63.7-4.1-89.7-4.5c-59-1-106.3-2.9-168.2-2.6c-63.4,0.3-127.2-0.4-191,2.4l-4,0.2
		c-77.9,3.5-188.5,12.3-269.9,16.8c-90.3,5-149.1,10.9-237.6,18.5l-3.6,0.3c-42.5,3.7-100.6,11.9-144.5,13.6
		c-42.7,1.7-83.8,7.2-128.9,6.7c-4.7-0.1-94.1,3.3-128.4,4.6v41.6c51.4-4.1,121-9.5,135-9.8c50.6-1,100.2-2.4,150.6,0.8
		c49.4,3.2,136,1.2,194.6,2.1l8.7,0.1c102.1,1.6,218.1,0.6,320.4,2c112.1,1.6,195.7,4.8,305.2,13.3c64.1,5,122,10.2,186.9,13.9
		c21.5,1.2,42.9,2.6,64.4,4.1L1365.8,306.9L1365.8,306.9z"/>
	<path fill="#839590" d="M903.1,305.7l-0.3-3.5c-6.6,0.9-12.9,1.8-19.1,2.7l-0.1,0.3c-9.1,10.3,0.3,7.5-10.8,6.9
		c-1.3-0.1-0.8,2.7-1.6,4c-1.5,0.4-3.8-0.5-5.2-0.2c-0.7,1.6-0.8,0.8-1.7,2.5c-3.1,0.2-3.5-1.6-5.1,1.7c-20.6,1.6-5.2,5.8-11.2,6.1
		c-1.9,0.1-2.1-0.2-3.3-1.1c-13.2,5.9,7.5,11.6-10.4,13.8c-3.2,0.4-2.8,3.3-3.9,5.2c-12.5,3.1,2,4.5-9.5,5.9
		c-2.5,0.3,0.7,1.3-4.6,2.8c-1.5,4.3-3.2,4.7-3.4,6.6c-10.8,2.3,2.6,4.8-10.4,8.1c-7.6,1.9-2,6-12.2,12.7c-5,3.3,3.2,4.6-7.2,11.9
		c0,0-3.7,10,9.2,8.5c8.4-1,18.5-18.3,26.2-27.8c11.1-13.7-1-4,16.1-17.2c17.8-13.7,22.9-15.3,41.3-28.9c10.9-8.1,15.5-10.6,26-20.5
		C902.6,305.5,902.1,305.8,903.1,305.7z"/>
	<path fill="#C5CC72" d="M2199.2,261.7c-134.7,0.3-270-0.3-405.5,6.1l-9.6,0.5c-189.3,9-457.7,32-655.3,43.6
		c-17.5,1-34.5,2.1-51.1,3.1c-50.8,13.6-111.7,20.9-151.5,33.6C731.8,411,716.8,443.9,594.8,515.7c49.4-0.1,96.9-0.1,138.6,0.6
		l21.1,0.3c247.9,4,529.7,1.5,777.9,5.2c73.8,1.1,142.5,2.5,208.7,4.5c18.8-9,38.4-19.5,58-35.1l6.4-5.1
		c29.1-23.3,253.8-141.3,299.9-159.6l5.6-2.2C2118.7,321.3,2161.6,290.2,2199.2,261.7z"/>
	<path fill="#F4BEBE" d="M1951.3,430.3c-56.9,2.9-134.5-2.3-194.3-11.8c-138.3-21.6-416.6-22.6-606-26.7c-1.5,0-76.8-1.9-76.8-1.9
		c1.5-0.6,1-0.4,4.8-0.6c18-0.9,41.3-9.7,94.5-4.8c52.1,4.8,52.8,13.3,90,5.8c7.5-1.6,10.6-1.2,14.6-1.5l11.3-0.9
		c50-3.7,54.2-12.8,140.6-5.8c82,6.8,86.7,2.7,140.4-2c79.4-7.8,159.8,10.1,225.1,13.1c63.4,2.9,53.8-6.3,89.3-3.8
		c25,1.8,47.3,2.8,67.1,3.4L1951.3,430.3z"/>
	<path id="_x32_" fill="#A9DD5F" d="M1365.8,426.5c-98.5-20.1-476-40-582.2-40.9c-135.2-1.1-326.9-5.1-460.2-4.6
		c-81.8,0.3-229,3.4-319.4,3.4c-1.5,0-2.8,0-3.9,0v247.3c47.9-3.2,193.8-16.8,221.4-18.4c120-6.7,235.1-11.5,354.5-17.3
		c81.6-4,205.2-13.7,288.6-20.1c108.5-8.4,207.4-16.6,317.6-25.7l12.5-1c17.9-1.5,124.2-5,171.2-6.6L1365.8,426.5L1365.8,426.5z"/>
	<path fill="#B28566" d="M744.5,388.1l3.9-0.7c16.8,41,50.2,16.9,81.7,53.5c7.2,8.4,12.9,28.5,32.5,44.7
		c0.5,0.4,93.3,55.9,94.9,56.4c0.2,0.3-15.8,3.8-16.5,4.4c-4.4-1.4-40.7-31.7-53.9-38c-19.8-9.4-32.5-18.3-46.5-33.6l-1.1-1.2
		c-10.1-16.7-3.2-14.1-19.3-33.2l-1.3-1.5c-10.7-12.7-43.3-11.8-65.1-33.8c-7.2-7.2-5.7-9.4-8.2-16.9
		C743.7,387.6,744.7,388.1,744.5,388.1z"/>
	<path fill="#80A270" d="M1920,426.5c-138.4-20-669.2-38.6-818.5-40.9c-47.5-0.7-99.7-1.8-154.3-2.8c46.4,9.8,90,20.5,118.6,27.7
		c98.5,24.8,108.1,23.7,189.4,56.8c246.9,100.6,108.7,108,392.1,83.7l14.6-0.9l17.6-1c25.1-1.5,174.7-5,240.6-6.6L1920,426.5
		L1920,426.5z"/>
	<path fill="#C8827C" d="M1258.5,377.9c-4.4-15.8-12.9-8.2-22.7-12.1c-6-2.5-9.8-2.4-13.6,2.8c-4.9,6.7,0.7,4.8-5.5,9.9
		c-8.5,7.2-0.3,18.2,4.4,22.1C1230.5,408.4,1266.4,406,1258.5,377.9z"/>
	<path fill="#585E00" d="M1237.7,420.1l-3.3-0.3c-0.3-4.1,0-6.2,0.1-11c0.1-2,0.4-4.1,0.4-6.2c-2.6,0.1-4.2-3-6.8-4
		c-1.9-0.7-7.9-1.2-8.4-2.2c0.3-0.2,3.8,0.8,4,0.8c-0.7-0.1-2.7-1.7-2.9-1.9c2.2,1.1,4.5,2.3,6.9,2.6c0,0,0.6,0.1,0.8,0.2
		c0.1-0.1-1.7-1.9-2-2.1c-0.7-0.5-2.6-3-3-3.8c-0.1-0.1-0.2-0.3-0.1-0.5c0.8-0.2,2.4,2.7,2.6,2.7c-0.1-0.4-0.1-2.9,0.2-3.2
		c0.7-0.1,0.1,3,0.5,3.8c0.4,0.3,2.2,2.6,2.8,2.8c0,0,2,2,3,2.5l0.3,0.1c0.4,0.2,1.4,0.8,1.9,0.8c0.3-0.9-0.1-1.2-0.9-2.2
		c-0.6-0.7-0.9-1.6-2-1.7c-1-0.1-2.7-0.3-2-0.5c0.9,0,1.9,0.1,2.5,0.1c0,0-2-2.2-2.2-2.5c-0.3-0.2-0.3-0.4-0.3-0.6
		c0.7,0.1,2.4,2.5,3.1,3.1c0.2,0.2,2.1,2.6,2.3,2.7c-0.4-1.2,0.4-2.4-0.5-4.6v-0.1c-0.4-1.1-0.4-1.7-1.1-2.7
		c-0.2-0.3-2.5-2.1-3.1-2.2c-2.6-0.6-6.2-2.8-7.9-4.2c-0.7-0.5-3-3.1-1.7-2.3c1.9,1.2,1.5,1.8,3.6,3.1c1.5,1,3,1.9,5.1,2.3
		c0.1,0,0.3,0.1,0.4,0.1l-6.4-8.2c0-0.1-0.2-0.6,0-0.6c0.1,0,0.6,0.7,0.9,1c0.9,1,1.6,2.6,2.8,3.7c0.1,0.1,0.3,0.4,0.4,0.5
		c0.2-0.3-0.2-2.2-0.4-2.7c-0.4-0.7-0.7-1.5-1.2-2.3c0-0.1-1-1.4-0.4-1.4c0.4,0.1,1.8,2.8,2.1,3.3c0.4,0.7,0.6,0.9,0.8,1.7
		c0.1,0.4,0.2,2.5,0.3,2.6l2.7,2.8l1.9,1.5c0-0.1,0-0.1,0-0.2l-1.5-7c-0.5-0.4-1.8-2.1-2.3-2.6l-0.1-0.1c-0.8-0.9-2-5-1.4-6.3
		c0.1,0,1.4,3.5,1.4,4.3c0.1,0.7,1.8,3,1.9,2.9c0-1-0.3-1.3-0.3-2.2c0.1-1.1-0.3-5,0.2-6.7c0.7,0,0.7,6,0.7,6.6
		c0,0.5,0.6,3.1,0.8,3.7c0.1,0.3,0.3,1.6,0.5,1.7l0.8-3.7l0.3-7.7c0-0.3,0-1,0.3-1.2c0.5,1.6,0.5,2.3,0.4,4c0,0.2,0,0.6,0,0.9
		c0.2-0.3,0.4-0.4,0.6-0.9c0.4-0.6,0.6-1.7,0.6-2.3c0-0.2,0.1-1.4,0.4-1.5c0.4,1.1,0.3,1,0.2,2c-0.1,1.9-0.1,1.7-0.9,3.1
		c-0.1,0.2-0.4,0.6-0.5,0.8c-0.7,2.3-0.9,5.7-1.4,8.1c-0.1,0.6,0.1,1,0.1,1.5l2.1,7.6c0.1,0.2,0.1,0.1,0.2,0.2
		c0.4-0.1,1.1-5.1,1.7-6.1c0.5-0.9,0.8-2.6,1.1-3.7c0.7-2,0.3-2.8,0.5-4.7c0.2-1.7,0-4.3,0.6-5.8c0.2-0.6,0-0.5,0.4-1.3
		c0,0-0.2,4-0.1,4.6c0,0.4,0.3,3,0.2,3.2c0,0.2,0,0.4,0,0.5c0.5-0.6,1.7-4.2,2.5-5.5c0.1-0.2,0.3-0.5,0.5-0.7
		c0.3,0.4-1.3,6.8-1.7,7.7c-0.4,0.9-1.2,2.7-1.8,3.5c0.1,0,2.1-1.3,2.4-1.7l0.1-0.1c1-1.7,2.5-3.3,2.8-5.1c0-0.3,0.4-1.1,0.7-1.2
		c0.3,2.2-1.5,5.2-3.1,7c-0.6,0.7-2.9,2.4-3,3.1c-0.1,0.6-1.3,3.1-1.5,4.4c-0.1,0.5-0.3,1-0.3,1.6c0.5-0.5,0.3-0.7,1.3-1.4
		c0.7-0.5,1.5-1.4,2.4-2.1c1-0.8,1.6-1.2,1.7-2.2c0.2-1.5-0.1-1.7,1-3.1c-0.1,0.5-0.7,3-0.5,3.4c0-0.5,3.4-2.8,3.7-2.9
		c0.4,0.3-3,2.8-3.5,3.4c-0.1,0.2-1,1.1-1,1.2c1.1-0.3,5.2-3.2,5.5-3.2c-0.2,1.1-4.8,3.4-6.4,4.1c-1.5,0.7-1.7,1.2-2.7,2.2
		c-0.2,0.3-1.5,1.5-1.8,1.7c-0.2,0.7-0.3,2-0.1,2.6c1.2,0.1,5.4-2.7,6.1-3.4c1.2-1.1,2.6-1.9,3.9-3.1c0.6-0.6,2.9-6.4,3.3-5.7
		c0.1,0.2-1.7,4.5-2,5l-0.1,0.1c0.2-0.3,0.7-0.4,1.2-1.1c0.1-0.2,2.3-1.8,2.9-1.8c0.1,0.5-4.3,3.7-5,4.5c-0.2,0.3-0.8,0.7-0.9,1
		c0,0,2.9-0.9,3.4-1c1.7-0.3,2.3-1,3.2-1.8c0.4-0.4,1.6-2.5,2-2.5c0,1.5-1.1,1.9-1.4,2.8c0.6-0.1,2.4-1.7,3.3-1.5
		c0,0.6-4.6,2.9-5.9,3.3c-2,1.1-4,1.4-6,2.4c-0.6,0.3-3.3,1.7-3.5,2.2c0.5,0.1,8.8-2.3,8.7-1.9c-0.3,0.6-6.2,1.5-4.7,1.9
		c0.2,0,0.8,0.2,0.8,0.4c-1.1,0.2-2.6-0.3-3.9,0c-2.1,0.6-2.3,0.2-4.3,1.4c-0.8,0.5-1.3,0.8-2,1.2L1237.7,420.1z"/>
	<path fill="#BAA395" d="M1201.1,373.4c-4.1-14.6-12-7.6-21-11.3c-5.6-2.3-9.1-2.2-12.6,2.6c-4.5,6.2,0.6,4.4-5.1,9.2
		c-7.9,6.6-0.3,16.9,4.1,20.5C1175.2,401.6,1208.4,399.4,1201.1,373.4z"/>
	<path fill="#684729" d="M1181.8,412.4l-3-0.3c-0.3-3.8,0-5.8,0.1-10.2c0.1-1.9,0.4-3.8,0.4-5.7c-2.4,0.1-3.9-2.8-6.3-3.7
		c-1.8-0.7-7.3-1.1-7.8-2c0.3-0.2,3.5,0.7,3.7,0.7c-0.7-0.1-2.5-1.6-2.7-1.7c2,1,4.2,2.2,6.4,2.5c0,0,0.6,0.1,0.7,0.2
		c0.1-0.1-1.6-1.7-1.8-1.9c-0.6-0.5-2.4-2.8-2.8-3.5c-0.1-0.1-0.2-0.3-0.1-0.4c0.8-0.2,2.2,2.5,2.4,2.5c-0.1-0.4-0.1-2.6,0.2-3
		c0.7-0.1,0.1,2.8,0.5,3.5c0.3,0.3,2,2.4,2.6,2.6c0,0,1.9,1.9,2.8,2.4l0.2,0.1c0.3,0.2,1.3,0.7,1.8,0.7c0.3-0.8-0.1-1.2-0.8-2
		c-0.6-0.6-0.9-1.5-1.8-1.6s-2.5-0.3-1.9-0.5c0.8,0,1.7,0.1,2.3,0.1c0,0-1.9-2-2.1-2.3c-0.2-0.2-0.3-0.3-0.3-0.6
		c0.7,0.1,2.3,2.4,2.9,2.9c0.2,0.2,2,2.4,2.2,2.5c-0.3-1.1,0.3-2.3-0.5-4.3v-0.1c-0.4-1-0.4-1.5-1.1-2.5c-0.2-0.3-2.4-1.9-2.9-2.1
		c-2.4-0.6-5.8-2.6-7.4-3.9c-0.6-0.5-2.8-2.9-1.6-2.1c1.7,1.1,1.4,1.7,3.3,2.9c1.4,0.9,2.8,1.7,4.7,2.1c0.1,0,0.3,0.1,0.4,0.1
		l-5.9-7.6c0-0.1-0.2-0.6,0-0.6c0.1,0,0.6,0.6,0.8,0.9c0.8,1,1.5,2.4,2.6,3.4c0.1,0.1,0.3,0.4,0.3,0.4c0.2-0.3-0.1-2.1-0.4-2.5
		c-0.4-0.6-0.6-1.4-1.1-2.1c0-0.1-0.9-1.3-0.4-1.3c0.4,0.1,1.7,2.6,1.9,3c0.3,0.6,0.6,0.9,0.7,1.5c0.1,0.3,0.2,2.4,0.2,2.4l2.5,2.6
		l1.8,1.4c0-0.1,0-0.1,0-0.2l-1.4-6.5c-0.5-0.4-1.7-2-2.2-2.4l-0.1-0.1c-0.8-0.8-1.8-4.7-1.3-5.8c0.1,0,1.3,3.2,1.3,4
		c0.1,0.6,1.7,2.7,1.8,2.7c0-0.9-0.3-1.2-0.2-2.1c0-1-0.3-4.6,0.2-6.2c0.6,0,0.6,5.6,0.6,6.1s0.5,2.9,0.7,3.4
		c0.1,0.3,0.3,1.5,0.5,1.6l0.7-3.5l0.3-7.2c0-0.3,0-0.9,0.3-1.1c0.5,1.5,0.4,2.2,0.4,3.7c0,0.2,0,0.6,0,0.8c0.2-0.2,0.3-0.4,0.6-0.8
		c0.3-0.6,0.5-1.6,0.6-2.2c0-0.2,0.1-1.3,0.3-1.4c0.4,1,0.2,0.9,0.2,1.8c-0.1,1.8-0.1,1.6-0.8,2.8c-0.1,0.2-0.4,0.6-0.5,0.7
		c-0.7,2.1-0.9,5.3-1.2,7.6c-0.1,0.5,0,0.9,0,1.4l2,7c0.1,0.1,0,0.1,0.2,0.2c0.4-0.1,1-4.7,1.6-5.6c0.4-0.8,0.7-2.4,1.1-3.4
		c0.6-1.9,0.3-2.6,0.5-4.3c0.2-1.6,0-4,0.5-5.4c0.2-0.5,0-0.5,0.4-1.2c0,0-0.2,3.7-0.1,4.3c0,0.3,0.2,2.7,0.2,3c0,0.2,0,0.3,0,0.5
		c0.5-0.6,1.6-3.9,2.3-5.1c0.1-0.2,0.3-0.5,0.5-0.7c0.2,0.4-1.2,6.3-1.6,7.1c-0.4,0.8-1.1,2.5-1.7,3.2c0.1,0,1.9-1.2,2.2-1.6
		l0.1-0.1c0.9-1.6,2.3-3.1,2.6-4.7c0-0.2,0.4-1,0.6-1.1c0.3,2-1.4,4.8-2.9,6.5c-0.6,0.7-2.7,2.2-2.8,2.9c-0.1,0.6-1.2,2.9-1.4,4.1
		c-0.1,0.5-0.3,1-0.3,1.5c0.5-0.5,0.3-0.6,1.2-1.3c0.7-0.5,1.4-1.3,2.3-1.9c0.9-0.7,1.4-1.1,1.5-2c0.2-1.3-0.1-1.6,0.9-2.8
		c-0.1,0.5-0.6,2.8-0.4,3.1c0-0.5,3.2-2.6,3.4-2.7c0.4,0.3-2.8,2.5-3.3,3.2c-0.1,0.2-0.9,1.1-0.9,1.1c1-0.3,4.9-2.9,5.1-3
		c-0.2,1-4.4,3.1-5.9,3.8c-1.4,0.6-1.6,1.1-2.5,2.1c-0.2,0.3-1.4,1.4-1.7,1.6c-0.2,0.6-0.3,1.8-0.1,2.4c1.1,0.1,5-2.5,5.7-3.1
		c1.1-1,2.4-1.7,3.6-2.9c0.6-0.6,2.7-5.9,3.1-5.2c0.1,0.2-1.6,4.2-1.9,4.6l-0.1,0.1c0.2-0.3,0.7-0.4,1.1-1c0.1-0.2,2.1-1.7,2.7-1.7
		c0.1,0.5-4,3.4-4.7,4.2c-0.2,0.2-0.7,0.7-0.8,0.9c0,0,2.7-0.9,3.2-1c1.6-0.3,2.1-0.9,2.9-1.7c0.4-0.3,1.4-2.4,1.9-2.3
		c0,1.4-1,1.7-1.3,2.6c0.6-0.1,2.2-1.6,3-1.4c0,0.6-4.3,2.7-5.5,3c-1.8,1-3.7,1.3-5.5,2.2c-0.6,0.3-3.1,1.6-3.2,2
		c0.5,0.1,8.2-2.1,8-1.7c-0.2,0.5-5.7,1.4-4.4,1.7c0.2,0,0.8,0.2,0.8,0.3c-1,0.2-2.4-0.3-3.6,0c-1.9,0.5-2.1,0.2-4,1.3
		c-0.7,0.4-1.2,0.7-1.8,1.1L1181.8,412.4z"/>
	<rect x="991.4" y="371.4" fill="#EEECCF" width="73.9" height="39.3"/>
	<polygon fill="#9E524D" points="973.3,338.2 990.8,371.5 1068.9,371.2 1037.6,339 	"/>
	<polygon fill="#743C36" points="975.6,343.3 973.6,338.5 953.9,361.4 958.5,363.7 	"/>
	<polygon fill="#D5C7B6" points="991.3,372 991.6,410.4 958.3,410.6 958.3,363.8 975.6,343.3 	"/>
	<rect x="1046.7" y="380.9" fill="#745941" width="3" height="6"/>
	<rect x="1041.8" y="380.9" fill="#745941" width="3" height="6"/>
	<rect x="1046.7" y="389.2" fill="#745941" width="3" height="6"/>
	<rect x="1041.8" y="389.2" fill="#745941" width="3" height="6"/>
	<rect x="1014.8" y="381" fill="#745941" width="3.1" height="6"/>
	<rect x="1009.9" y="381" fill="#745941" width="3" height="6"/>
	<rect x="1014.8" y="389.3" fill="#745941" width="3.1" height="6"/>
	<rect x="1009.9" y="389.3" fill="#745941" width="3" height="6"/>
	<rect x="973.8" y="373.6" fill="#745941" width="4.3" height="7.7"/>
	<rect x="967" y="373.6" fill="#745941" width="4.3" height="7.7"/>
	<rect x="973.8" y="384.2" fill="#745941" width="4.3" height="7.7"/>
	<rect x="967.7" y="384.2" fill="#745941" width="3.6" height="7.7"/>
	<rect x="1023.9" y="333.8" fill="#000006" width="5.3" height="14.6"/>
	<rect x="1022.8" y="333.8" fill="#9E524D" width="7.5" height="3.2"/>
	<polygon fill="#9E524D" points="777.9,344.5 730.4,344.3 716,364.8 765.9,365.5 	"/>
	<polygon fill="#EEECCF" points="719.4,364.3 764.9,364.8 764.9,391 719.4,391 	"/>
	<polygon fill="#743C36" points="774.7,351.1 777.6,344 793,360.4 787.9,362.4 	"/>
	<polygon fill="#D5C7B6" points="765.4,366.3 764.9,391.7 787.4,386.6 787.4,362.1 774.7,350.9 	"/>
	<rect x="736.8" y="372.6" fill="#745941" width="2.4" height="3.7"/>
	<rect x="740.7" y="372.6" fill="#745941" width="2.4" height="3.7"/>
	<rect x="736.8" y="377.8" fill="#745941" width="2.4" height="3.7"/>
	<rect x="740.7" y="377.8" fill="#745941" width="2.4" height="3.7"/>
	<polygon fill="#745941" points="773.5,369.2 775.9,368.7 775.9,372.4 773.5,373.1 	"/>
	<polygon fill="#745941" points="777.4,368.2 779.8,367.5 779.8,371.4 777.4,372.1 	"/>
	<polygon fill="#745941" points="773.5,374.6 775.9,373.9 775.9,377.8 773.5,378.5 	"/>
	<polygon fill="#745941" points="777.4,373.6 779.8,372.9 779.8,376.8 777.4,377.5 	"/>
	<rect x="733.4" y="339.1" fill="#000006" width="4.8" height="13.4"/>
	<rect x="732.4" y="339.1" fill="#9E524D" width="6.8" height="3"/>
	<path id="_x33_" fill="#63806E" d="M1373.8,507.8c-3.3-3-4.5-3.7-9.2-5.5c-4,2.6-4.8,12.1-9.3-1c-1-0.3-21.5,5.4-28.1,5.1
		c-1.3-0.1-14,2.9-15.6,3.8c0.5-2.4-6.6-11.7-17.2-2.6c-7.9,6.8-16.9-5.2-27.6,1c-7.6,4.4-1.6-4-18.7-1.1c-16.6,2.8-3.9-7.3-15.3,3
		c-2,1.8-16.4-5.8-30.4-3.1c-4.2,0.8-5.9,2-13.4,3.6c-2,0.4-6.3,2.1-9.1,1.1c-0.6-2.6-0.5-3-3-4.1c-2.5,1.6-3.4,5.6-6.2,4.6
		c-2.7-11.9-2.4,3.2-11.6-2.7c-0.9-0.6-1.7-1-2.8-0.6c-3.4,14.8-6.6-5.7-13.8,5.7c-4.1,6.5-8.1-4.4-16.6,1.1c-4.7,1-5.9-2.7-6.7-6.2
		c-2.7-1.3-9.2,6.2-28.1,1.2c-22.8-5.9-12.5,2.5-25.4-0.1c-4.8-1-18.7,1.8-24.1,6.4c-12.8,10.9-3.4,2.8-13.8,1.1
		c-6.3-1.1-3.9,9.2-17.3,4.3c-4.4-1.6-5.7,4.4-10.3,7.5c-3.1-1.2-6.3-5.9-8-5.9c-7.2,10-6.7-3.9-14.5,2.3c-3.6,2.9-5.8-0.3-7-0.7
		c-5.8,3.8-11.1,1.5-10.9,5.3l0.1,1.3c0.1,2.8,4,10.4,4,17.8c22.8,0,41-4.3,60.9-4.1h4.2c18.8,0.2,53.3-1.8,71.9-3.9l1.7-0.2
		c25.6-3,48-6,76.6-5.8c30.5,0.3,72.7-5.4,106.6-6.3c26.7-0.8,59.6-4.5,86.8-6.5c0.4,0,0.7,0,1.1-0.1L1373.8,507.8L1373.8,507.8z"/>
	<path fill="#D8758A" d="M1592.7,411.8c-11.4-41-33.5-21.2-58.8-31.4c-15.7-6.4-25.4-6.1-35.2,7.3c-12.6,17.3,1.8,12.3-14.2,25.7
		c-22.1,18.6-0.7,47.2,11.4,57.3C1520.1,490.9,1613.1,484.7,1592.7,411.8z"/>
	<path fill="#684729" d="M1538.8,521.2l-8.5-0.7c-0.7-10.7-0.1-16.1,0.4-28.5c0.1-5.3,1-10.7,1-15.9c-6.7,0.3-10.8-7.8-17.6-10.2
		c-5-1.9-20.3-3.1-21.8-5.6c0.9-0.4,9.8,2,10.4,1.9c-1.9-0.3-7-4.4-7.6-4.8c5.7,2.8,11.8,6.1,17.8,6.9c0.1,0,1.6,0.3,2,0.4
		c0.3-0.4-4.5-4.8-5.1-5.4c-1.8-1.3-6.6-7.9-7.9-9.8c-0.4-0.3-0.4-0.9-0.3-1.3c2.2-0.4,6.1,7,6.6,7c-0.3-1-0.3-7.5,0.6-8.3
		c1.9-0.3,0.3,7.9,1.3,9.8c1,0.7,5.7,6.6,7.3,7.5c0,0,5.3,5.3,7.8,6.6l0.7,0.4c0.9,0.6,3.7,2,4.8,2c0.9-2.2-0.1-3.2-2.3-5.6
		c-1.6-1.8-2.3-4.2-5.1-4.4c-2.5-0.1-7.2-0.9-5.3-1.3c2.2,0,4.8,0.3,6.4,0.3c0,0-5.3-5.7-5.9-6.4c-0.7-0.6-0.9-0.9-0.9-1.6
		c1.9,0.1,6.3,6.6,8,8.2c0.6,0.6,5.6,6.7,6,6.9c-1-3.1,0.9-6.3-1.3-12l-0.1-0.3c-1.2-2.8-1.2-4.4-2.9-7c-0.4-0.7-6.6-5.4-8.2-5.7
		c-6.7-1.6-16.2-7.3-20.6-10.8c-1.8-1.3-7.8-8.2-4.5-6c4.8,3.2,3.9,4.7,9.4,8c3.9,2.5,7.8,4.8,13.2,6c0.1,0,0.9,0.3,1,0.3
		l-16.5-21.4c0-0.3-0.6-1.6-0.1-1.6c0.1,0,1.6,1.8,2.2,2.5c2.3,2.8,4.1,6.7,7.3,9.5c0.3,0.3,0.9,1.2,1,1.2c0.6-0.9-0.4-5.9-1.2-7
		c-1-1.8-1.8-3.9-3.1-5.9c-0.1-0.1-2.6-3.8-1-3.5c1,0.1,4.7,7.3,5.3,8.5c0.9,1.8,1.5,2.5,2,4.4c0.3,0.9,0.4,6.6,0.7,6.9l6.9,7.3
		l5,3.9c0-0.1,0-0.3,0-0.4l-3.9-18.1c-1.3-1-4.7-5.6-6-6.9l-0.1-0.1c-2.2-2.3-5.1-13-3.8-16.2c0.1-0.1,3.5,9.1,3.7,11.1
		c0.1,1.8,4.7,7.8,5,7.5c0-2.5-0.7-3.2-0.6-5.7c0.1-2.9-0.9-13,0.6-17.4c1.8-0.1,1.8,15.7,1.8,17.1c0,1.3,1.5,8,2,9.7
		c0.3,0.7,0.9,4.1,1.3,4.5l2-9.7l0.9-20c0-0.7,0.1-2.5,0.9-3.1c1.3,4.2,1.2,6,1.2,10.2c0,0.6,0.1,1.6,0.1,2.2c0.4-0.7,1-1,1.6-2.2
		c0.9-1.6,1.5-4.4,1.6-6.1c0-0.4,0.3-3.8,1-3.9c1,2.8,0.6,2.6,0.4,5.1c-0.3,5-0.4,4.5-2.3,7.9c-0.3,0.6-1.2,1.6-1.3,2
		c-1.9,5.9-2.5,14.9-3.5,21.2c-0.3,1.5,0.1,2.5,0.1,3.8l5.6,19.6c0.3,0.4,0.1,0.3,0.4,0.4c1-0.1,2.9-13.2,4.4-15.8
		c1.2-2.2,2-6.7,2.9-9.5c1.8-5.3,0.9-7.3,1.3-12.1c0.4-4.4,0-11.1,1.5-15.1c0.6-1.5,0-1.3,1-3.4c0,0-0.4,10.4-0.3,12
		c0.1,0.9,0.7,7.6,0.6,8.3c0,0.4,0,0.9,0,1.3c1.3-1.8,4.4-11,6.3-14.5c0.3-0.6,0.7-1.3,1.3-1.9c0.7,1.2-3.4,17.6-4.5,19.9
		c-1,2.3-3.1,6.9-4.8,9.1c0.1-0.1,5.4-3.4,6.1-4.5l0.1-0.3c2.6-4.4,6.6-8.6,7.3-13.2c0.1-0.7,1-2.9,1.8-3.1c0.7,5.7-3.8,13.3-8,18.3
		c-1.6,1.9-7.5,6.3-7.8,8.2c-0.1,1.6-3.4,8.2-3.9,11.6c-0.1,1.3-0.9,2.8-0.9,4.1c1.5-1.3,0.9-1.8,3.4-3.7c1.9-1.3,3.9-3.5,6.3-5.3
		c2.6-2,4.1-3.2,4.4-5.7c0.4-3.8-0.1-4.4,2.6-7.9c-0.3,1.3-1.8,7.8-1.2,8.8c-0.1-1.5,8.8-7.3,9.5-7.6c1.2,0.7-7.9,7.2-9.2,8.9
		c-0.3,0.4-2.6,2.9-2.6,3.1c2.8-0.9,13.6-8.2,14.3-8.3c-0.6,2.9-12.3,8.8-16.5,10.8c-3.8,1.8-4.5,3.1-6.9,5.7
		c-0.6,0.7-3.9,3.9-4.7,4.4c-0.4,1.8-0.9,5.1-0.3,6.9c3.1,0.1,14-7,15.9-8.8c3.1-2.8,6.9-4.8,10.1-8c1.6-1.6,7.5-16.5,8.6-14.8
		c0.3,0.4-4.4,11.8-5.3,12.9l-0.1,0.1c0.6-0.7,1.8-1,3.1-2.8c0.3-0.4,6-4.7,7.5-4.7c0.1,1.3-11.3,9.5-13,11.6
		c-0.6,0.7-2,1.9-2.3,2.6c0,0,7.6-2.5,8.9-2.6c4.4-0.9,5.9-2.6,8.2-4.7c1-0.9,4.1-6.6,5.3-6.6c0,3.8-2.8,4.8-3.7,7.2
		c1.6-0.1,6.1-4.5,8.5-3.9c0,1.6-12,7.6-15.4,8.5c-5.1,2.8-10.4,3.7-15.5,6.1c-1.8,0.9-8.6,4.5-8.9,5.7c1.3,0.3,23-6,22.4-4.8
		c-0.7,1.5-15.9,3.9-12.3,4.8c0.6,0.1,2.2,0.4,2,0.9c-2.8,0.6-6.7-0.7-10.1,0.1c-5.4,1.5-6,0.4-11.3,3.7c-2,1.2-3.2,1.9-5.1,3.1
		L1538.8,521.2z"/>
	<path fill="#6FB256" d="M1920,516.8c-265.3-5.6-744.7,10.5-919.3,23.2c-49.1,3.6-838.8,74.8-877.2,71.9
		c-43.9-3.3-82.8,3.3-123.5,10.8v51.6c119.1,2.9,240.2,10.5,355.2,13.3c168.6,4.1,361.6-0.7,530.4-3.8c133.4-2.4,357.4,0.3,488.9,9
		c90.8,6,186.9,5.1,283.1,10.9c43.5,2.6,102.5,2.7,154,4.9l4.6,0.2c29.6,1.3,68.9,2.6,103.8,2.6V516.8z"/>
	<path fill="#F4F5F6" d="M1168.8,476.8l-2.3-7.8c7,1.9,9.6,8.5,10.3,15.2c0.9,8.4,4.3,19.1,4,27.7c-0.1,3.9,1.5,4.7-0.2,9.5
		c0,0.1,0.1,0.5-0.2,0.6c-0.3-0.4-1.2-2.6-1.6-2.4c-0.1,0.6-0.4,2.4-0.9,2.7c-0.8-0.5-1.4-3-1.4-0.1c0-0.4,0.1-2-0.1-2.3
		c-0.1,0.2-0.6,1.9-0.6,1.9s-0.2-1.7-0.2-1.8c-0.2,0.4-0.3,1.7-0.5,1.8c0-0.2,0-1.3,0-1.5c0,0.2-0.2,2.1-0.3,2.2
		c0,0-0.2-11.2-0.4-13.4c-0.5-5.4-3.1-14.9-2.9-19.3C1171.5,483.9,1171.2,481.8,1168.8,476.8z"/>
	<path fill="#F4F5F6" d="M1170.8,491.7c0,3.2-0.9,7.9-0.9,12.7c0,5.5,0,8.4-0.6,13.9c-0.5,4.8-1.1,12-3.7,16
		c-2.8,4.2-2.9,10.2-7.3,7.5c-0.2-0.2,4.1-11.6,4.5-13.5c1.1-5.4,1.5-3.9,0.7-10c-0.8-6.6-4.1-10.8-5-18.4c-0.3-2.2-0.6-2.3-0.6-4.8
		c0,4.6-1.8,0.2-1.4,4.7c0.5,6.1,1.8,8.7,1.8,16.5c0,5-1.7,12.5-3.4,17.1c-0.7,2-1.9,7.9-4.7,3.6c-0.7-1.2,3.3-15.2,3.4-19.3
		c0.1-2.5-5.4-13.5-5.4-17.7c-0.2,0-9.5,1.4-11,1.6c-5.2,0.6-17.6,1.2-22.6,0.4c-0.1,0-5.7-0.5-5.8-0.5c0,6.8-2.1,14.6-2.9,21.3
		c-0.5,4.4-0.1,6.3-1.1,11.3c-0.6,2.7-0.6,7.1-2.3,9.5l-0.4,1.4c-1.6,0-2.8,0.4-4.9,0.4c0.7-2.1,1.9-2.2,2.5-5.7
		c1.1-6.4,1.9-11,1.1-17.8c-0.1-1-1.6-13.2-1.6-13.2c0.8,5.2-1.3,16.1-2.8,21.4c-1,3.6-2.3,10.1-4.4,12.8c-0.2,0.2-0.1,0.2-0.2,0.4
		c-0.9,0.3-3.3,0.2-4.5,0.2c1.6-0.4,6.5-17.9,6.3-21.1c-0.2-5.3,0.6-10,0-15.5c-0.4-3.1-1.4-10.8-1.4-13.5
		c-0.3,0.1-4.1,8.8-6.3,11.5c-2,2.4-2.4,4.4-5.9,7.8c-2.7,2.6-7.3,14.2-7.6,18.1c-0.2,1.8-1.6,5.3-2,6.9c-3.1,0.5-2.5,0.6-5.6-0.2
		c0-5.7-0.8-10.4,0-16.7c0.2-1.9,0.9-5.5-0.9-6.5c-3.1-3.7,0.3-3.2,3.6-3.2c-0.1-0.5-5.1-2.1-3-3.6c1.4-1,4.7,1.5,5-1.1
		c0.5-3.7,7.4-18.4,9.5-22.2l0.3-0.5c1-1.1,2.9-7.1,5.8-11.1c2-2.8,7.9-6.6,11.1-7c8.5-1.1,20.7,0,29.9,0c7.7,0,18.3-1.5,25-0.7
		c4.7,0.6,5.1-0.7,10,1.7C1172.8,472,1170.2,478.7,1170.8,491.7z"/>
	<path fill="#000006" d="M1162.5,540.8c-0.9,1.7-2.3,2.5-4.2,1c0,0,0.4-1.4,0.6-2.1C1159.9,540,1161.2,540.7,1162.5,540.8
		L1162.5,540.8z"/>
	<path fill="#000006" d="M1154,536.1c-0.8,2.1-1.9,3.9-3.8,0.9c-0.2-0.2-0.1-1,0.1-2.1C1151.7,535.2,1153,535.6,1154,536.1
		L1154,536.1z"/>
	<path fill="#000006" d="M1103.3,541.9c-0.2,0.6-0.5,1.1-0.8,1.5l-0.4,1.4c-1.6,0-2.8,0.4-4.9,0.4c0.5-1.6,1.4-2.1,2-3.7
		C1100.8,541.7,1102.1,541.9,1103.3,541.9L1103.3,541.9z"/>
	<path fill="#000006" d="M1093.1,540.8c-0.3,0.7-0.7,1.4-1.1,1.9c-0.2,0.2-0.1,0.2-0.2,0.4c-0.9,0.3-3.3,0.2-4.5,0.2
		c0.4-0.1,1-1.2,1.6-2.8C1090.3,540.5,1091.7,540.6,1093.1,540.8z"/>
	<path fill="#B1B4B9" d="M1168.9,469.9c0.8,1.7,1.6,3.2,2.3,4.1c2.1,3,3.9,8.9,5.2,15.3c1.6,7.6,2.4,15.6,2,19.9
		c-0.2,2-0.3,7.3-0.1,12.2c0.2-0.6,0.3-1.4,0.4-1.8c0.1-0.1,0.3,0.1,0.5,0.4c-0.1-4.5,0-8.9,0.1-10.7c0.4-4.3-0.5-12.5-2-20.1
		c-1.3-6.5-3.2-12.6-5.4-15.7c-0.4-0.6-0.9-1.5-1.5-2.6C1170,470.5,1169.4,470.2,1168.9,469.9L1168.9,469.9z"/>
	<path fill="#B1B4B9" d="M1173.1,502.2c-0.5-2.6-1-5.3-1.4-7.7c-0.1-0.7-0.2-1.4-0.3-2.1c-0.1-1-0.1-1.9-0.1-2.6
		c0-1.3,0.1-2.3,0-3.3c0.7,3.3,1.2,6.6,1.5,10.3C1173,497.7,1173,499.6,1173.1,502.2L1173.1,502.2z"/>
	<path fill="#B1B4B9" d="M1171.1,483.7c-0.3-2.2-1-4-2.4-6.9l-1.9-6.5c1.1,1.6,2.4,3.6,4,5.9c0.7,1,3.5,6.6,5.1,17.4
		c0.9,6,1.5,13.7,1.1,23.1v0.4c-0.1,1.5,0,3,0.2,4.6c-0.5-0.8-0.9-1.7-0.9,0.5c0-0.4,0.1-2-0.1-2.3c-0.1,0.2-0.6,1.9-0.6,1.9
		s-0.2-1.7-0.2-1.8c0,0,0,0.1-0.1,0.1c-0.5-4.4-0.9-8.5-0.9-10c0-3-0.1-5.2-0.2-7.5c-0.1-1.9-0.2-3.8-0.2-6.5
		C1173.9,491.9,1172.6,487.5,1171.1,483.7L1171.1,483.7z"/>
	<path fill="#B1B4B9" d="M1168.6,474.7c0.5,0.7,1,1.4,1.5,2.2c0.6,0.9,3.4,6.4,5,16.9c0.9,6,1.5,13.6,1.1,22.9v0.4
		c0,0.3,0,0.6,0,0.9c-0.4-3.6-0.7-6.6-0.7-7.8c0-3-0.1-5.2-0.2-7.5c-0.1-1.9-0.2-3.9-0.2-6.5c-0.1-6.4-2.8-12.6-4.7-17.3
		C1169.6,477.3,1169,475.9,1168.6,474.7z"/>
	<path fill="#B1B4B9" d="M1085.1,472.3c0.2,1.3,0.5,2.6,0.8,4c1,4.6,2.1,9.5,1.8,13.3c-0.9-1.3-1.6-5.7-2.2-10.1
		c-0.3-2.2-0.7-4.4-1.1-6.3c-0.3,0.4-0.5,0.8-0.7,1.2c0.3,1.6,0.6,3.4,0.8,5.2c0.8,5.3,1.6,10.7,3.4,11.3c0.3-0.3,0.5-0.6,0.7-0.8
		c0.5-4-0.7-9.3-1.7-14.1c-0.4-1.7-0.7-3.2-1-4.7C1085.6,471.7,1085.4,472,1085.1,472.3L1085.1,472.3z"/>
	<path fill="#B1B4B9" d="M1081.5,478.8c0.2-0.5,0.5-1.1,0.8-1.6c0.4,2.7,0.9,5.7,1.4,8.6c0.5,2.7,1,5.4,1.4,8
		c-0.3,0.4-0.5,0.8-0.8,1.2c-0.3-2.8-0.9-5.9-1.5-9C1082.3,483.5,1081.9,481.1,1081.5,478.8L1081.5,478.8z"/>
	<path fill="#B1B4B9" d="M1067.2,507.3c0.4,0.1,0.9,0.1,1.2,0.1l0.1,1l0.2,0.7c0.2,0.8,0.6,1.9,1,3.4v0.1v0.1v0.6
		c0,0.6,0.1,1.3,0.2,2c0.1,0.9,0.3,1.9,0.3,3.2c-0.3,0.4-0.7,0.9-0.9,0.9c-0.2,0.9-0.5,1-0.9,0.7c-0.2-2.1-0.4-4.9-0.7-7.7l-0.3-3.8
		C1067.4,508,1067.3,507.6,1067.2,507.3L1067.2,507.3z"/>
	<path fill="#B1B4B9" d="M1068.9,507.2c0.3,2.6,0.8,5.9,1.6,8.1c0.2,0.6,0.5,1.2,0.7,1.6c0.2-0.4,0.3-0.8,0.5-1.1
		c-0.1-0.2-0.2-0.5-0.3-0.8c-0.9-2.7-1.5-7.1-1.8-9.8c-0.1,0.4-0.2,0.7-0.2,1C1069.3,506.6,1069.1,507,1068.9,507.2L1068.9,507.2z"
		/>
	<path fill="#B1B4B9" d="M1069.7,505c0.8,2.2,1.6,4.1,2.2,5.1c0.2,0.2,0.3,1.6,0.5,3.1c0,0.5,0.1,1,0.1,1.4c0.3-0.3,0.6-0.6,0.9-0.9
		v-0.6c-0.1-1.6-0.4-3.2-0.6-3.6c-0.7-1.1-1.8-3.6-2.6-6.2C1069.9,503.9,1069.8,504.5,1069.7,505L1069.7,505z"/>
	<path fill="#B1B4B9" d="M1071,501.1c0.2-0.5,0.4-1,0.6-1.5c0.4,1.4,0.7,3.1,1.1,4.7c0.6,3.1,1.2,6.1,2,6.9c-0.1-1-0.3-2.8-0.7-5
		c-0.4-2.8-0.9-6.3-1.2-9.3c0.3-0.6,0.5-1.2,0.8-1.8c0.3,3.4,0.9,7.6,1.4,11c0.2,1.6,0.4,2.9,0.6,3.9c-0.3,0.4-0.5,1-0.8,1.7
		l-0.2,0.5c-1.3-0.8-2-4.2-2.7-7.7C1071.5,503.3,1071.2,502.2,1071,501.1L1071,501.1z"/>
	<path fill="#B1B4B9" d="M1075.2,491.4c0.3,0.7,0.4,1.6,0.5,2.6c0.2,1.8,0.2,4,0.2,6.2c0,2.9,0,5.9,0.4,8.1l0.1,0.4
		c0.3-0.4,0.6-0.7,0.8-1c-0.4-2-0.3-4.8-0.3-7.5c0-2.2,0-4.4-0.2-6.3c-0.1-1.5-0.4-2.8-0.9-3.7L1075.2,491.4L1075.2,491.4z"/>
	<path fill="#B1B4B9" d="M1076.8,488c0.4-0.7,0.7-1.4,1-2c-0.1,1.7,0,3.9,1,7.5c0.2,0.6,0.3,5.7,0.2,10.1c-0.5,0.8-0.8,1.4-0.8,1.5
		c-0.1,0.3-0.2,0.6-0.3,0.9c0.3-4.7,0.2-11.6,0-12.3C1077.2,491.4,1076.9,489.5,1076.8,488L1076.8,488z"/>
	<path fill="#B1B4B9" d="M1078.8,484.1c0.7,2.5,1.1,6.1,1.4,9.3c0.2,2.5,0.5,4.9,0.9,6.6c0.2-0.4,0.5-0.8,0.7-1.2
		c-0.1-0.6-0.2-1.3-0.3-2.1c0.1,0.7,0.2,1.4,0.3,2.1c0.3-0.4,0.5-0.9,0.8-1.3c-0.3-2.3-0.9-5-1.4-7.8c-0.5-2.5-1-5.1-1.4-7.4
		c-0.2,0.5-0.5,0.8-0.6,1l-0.3,0.5L1078.8,484.1L1078.8,484.1z"/>
	<path fill="#B1B4B9" d="M1080.6,480.9c0.2-0.5,0.4-1,0.7-1.5c0.8,3.7,1.3,9.1,1.5,10.8v0.5l0,0c0.1,1,0.7,2.9,1.3,4.6
		c-0.2,0.3-0.4,0.7-0.7,1c-0.7-2-1.5-4.3-1.6-5.5l0,0v-0.5C1081.6,488.7,1081.2,484.4,1080.6,480.9L1080.6,480.9z"/>
	<path fill="#B1B4B9" d="M1069.2,516.8l0.1,1.5C1069.3,517.8,1069.3,517.3,1069.2,516.8z"/>
	<path fill="#B1B4B9" d="M1157.8,496.5c-5.5,2.4-5.6,2.5-7.6,2.9c-0.7,0.1-1.5,0.3-2.9,0.6c0.5-0.1,0.8-0.1,0.8-0.1
		c0,0.3,0,0.6,0.1,0.9c1-0.2,1.6-0.4,2.2-0.5c1.8-0.4,2.1-0.5,6.1-2.2C1156.7,496.8,1157.6,498.2,1157.8,496.5L1157.8,496.5z"/>
	<path fill="#B1B4B9" d="M1158.1,497.5l0.2-0.1l-0.3-0.7C1158,496.9,1158,497.2,1158.1,497.5z"/>
	<path id="_x34_" fill="#559358" d="M1920,705.6c-102.9-7.5-357.6-32.7-387-40.7c-13.5-3.7-135.6-14.6-187.2-28.6
		c-157.1-9.3-240.9-26.5-418.6-26.5c-116.2,0-193-5.6-314.3,0.2c-161.7,7.7-430.9,4.2-612.8,1.9v555.4
		c66.4-4.9,140.9-13.4,159.4-13.1l18,0.3c173,3.1,411.6-27.8,601.1-34.7c328.8-12.1,660.2-16.5,989-5.5l19.3,0.6
		c1.1,0,67,0.5,133.2,1.1V705.6H1920z"/>
	<path fill="#A75F5B" d="M300.8,511.1c16.3-58.3,47.7-30.1,83.8-44.9c22.3-9.1,36.3-8.8,50.2,10.4c17.9,24.6-2.5,17.6,20.2,36.8
		c31.4,26.5,1.1,67.3-16.2,81.7C404.3,623.9,271.8,614.8,300.8,511.1z"/>
	<path fill="#525900" d="M377.7,667l12.1-1.1c1-15.2,0.1-22.9-0.6-40.6c-0.3-7.6-1.5-15.2-1.5-22.8c9.5,0.5,15.5-11.1,25-14.7
		c7.1-2.7,29-4.4,31.1-8c-1.2-0.6-14,2.8-14.8,2.8c2.7-0.4,10-6.2,10.8-6.8c-8.1,4-16.8,8.7-25.4,9.8c-0.2,0-2.3,0.4-3,0.7
		c-0.5-0.5,6.4-7,7.4-7.7c2.6-1.9,9.5-11.2,11.2-13.9c0.6-0.3,0.7-1.3,0.4-1.8c-3.1-0.7-8.8,9.9-9.5,10.1c0.5-1.6,0.5-10.6-0.8-11.9
		c-2.7-0.5-0.4,11.2-2,14c-1.4,1.1-8.1,9.5-10.4,10.5c-0.1,0-7.5,7.4-11,9.4l-1,0.5c-1.3,0.7-5.3,3-7,3c-1.3-3.2,0.3-4.6,3.4-8
		c2.3-2.6,3.4-6,7.4-6.3c3.5-0.3,10.1-1.2,7.5-1.9c-3.2-0.1-6.9,0.5-9.2,0.5c0-0.1,7.5-8.1,8.3-9.1c0.9-0.8,1.2-1.3,1.2-2.3
		c-2.7,0.3-9,9.4-11.5,11.6c-0.9,0.8-7.9,9.7-8.6,9.9c1.4-4.3-1.3-9,1.9-17.1l0.1-0.3c1.6-3.9,1.6-6.2,4.2-9.9
		c0.7-1,9.4-7.7,11.6-8.2c9.5-2.2,23-10.3,29.4-15.5c2.4-2,11-11.6,6.4-8.6c-6.9,4.5-5.6,6.6-13.3,11.5c-5.7,3.6-11.1,6.9-18.8,8.5
		c-0.2,0.1-1.3,0.4-1.4,0.4l23.5-30.5c0-0.4,0.9-2.4,0.1-2.3c-0.3,0.1-2.2,2.5-3.2,3.6c-3.4,3.9-5.9,9.5-10.5,13.6
		c-0.4,0.3-1.2,1.6-1.4,1.7c-0.8-1.2,0.6-8.3,1.6-10c1.6-2.6,2.6-5.6,4.4-8.4c0.2-0.3,3.7-5.4,1.4-5c-1.5,0.3-6.7,10.4-7.6,12.1
		c-1.3,2.6-2.2,3.5-2.9,6.2c-0.3,1.3-0.6,9.4-0.9,9.7l-9.9,10.4l-7.2,5.7c0-0.2,0-0.4,0-0.6l5.6-25.9c2-1.4,6.7-7.8,8.6-9.8l0.2-0.2
		c3.1-3.3,7.3-18.6,5.3-23.2c-0.3-0.1-5,12.9-5.3,15.8c-0.2,2.4-6.8,10.9-7.1,10.7c0-3.6,1.1-4.7,0.9-8.2
		c-0.2-4.1,1.2-18.5-0.8-24.7c-2.4-0.1-2.5,22.2-2.5,24.3c0,1.9-2.1,11.4-2.8,13.7c-0.3,1-1.3,5.9-1.8,6.4l-2.9-13.8l-1.2-28.6
		c0-1-0.1-3.5-1.2-4.3c-1.9,6-1.8,8.6-1.6,14.6c0,0.8-0.1,2.3-0.1,3.2c-0.6-1-1.4-1.5-2.4-3.2c-1.3-2.2-2.1-6.3-2.3-8.7
		c-0.1-0.7-0.4-5.3-1.4-5.5c-1.5,3.9-0.9,3.6-0.7,7.3c0.5,7.2,0.6,6.4,3.3,11.3c0.5,0.8,1.7,2.2,1.9,2.9c2.7,8.3,3.5,21.2,5,30.1
		c0.3,2.1-0.2,3.6-0.2,5.5l-7.9,27.9c-0.5,0.6-0.2,0.4-0.7,0.7c-1.5-0.3-4.2-18.8-6.2-22.5c-1.8-3.2-2.9-9.6-4.2-13.6
		c-2.6-7.5-1.2-10.5-2-17.3c-0.7-6.3,0-15.8-2-21.4c-0.8-2.2,0.1-1.8-1.4-4.7c0,0,0.7,14.7,0.4,17.2c-0.1,1.4-1,10.9-0.9,11.8
		c0,0.6,0,1.3-0.1,2c-2-2.4-6.3-15.6-9.1-20.5c-0.4-0.8-1-2-1.8-2.6c-1,1.6,4.9,25,6.4,28.3s4.4,9.9,6.8,12.9
		c-0.2-0.2-7.7-4.7-8.8-6.4l-0.2-0.4c-3.8-6.3-9.4-12.3-10.3-18.8c-0.1-1-1.5-4.1-2.5-4.5c-1.1,8.1,5.5,19.1,11.4,26
		c2.3,2.7,10.6,8.9,11,11.6c0.3,2.3,4.8,11.6,5.5,16.4c0.3,2,1.2,3.9,1.2,5.9c-2-1.8-1.2-2.5-4.8-5.1c-2.6-1.9-5.6-5-9-7.6
		c-3.8-2.9-5.8-4.6-6.2-8.1c-0.6-5.4,0.3-6.3-3.7-11.3c0.5,1.8,2.6,11.1,1.7,12.5c0.2-2-12.6-10.5-13.5-10.7
		c-1.6,1,11.2,10.2,13.1,12.7c0.5,0.7,3.8,4.3,3.7,4.4c-3.9-1.2-19.4-11.8-20.4-12c0.8,4.1,17.6,12.5,23.5,15.3
		c5.4,2.6,6.4,4.3,9.9,8.2c0.9,1,5.5,5.7,6.6,6.2c0.7,2.4,1.2,7.3,0.3,9.8c-4.5,0.2-20-10-22.7-12.5c-4.3-4-9.7-6.9-14.3-11.4
		c-2.4-2.3-10.6-23.6-12.4-20.9c-0.4,0.6,6.2,16.8,7.4,18.3l0.2,0.3c-0.8-1.1-2.6-1.5-4.3-4c-0.5-0.7-8.5-6.7-10.7-6.7
		c-0.3,2,16.1,13.6,18.6,16.6c0.8,0.9,2.9,2.7,3.3,3.7c0,0-10.8-3.4-12.6-3.8c-6.2-1.2-8.4-3.7-11.7-6.7c-1.4-1.3-5.8-9.4-7.4-9.3
		c0,5.5,4,6.9,5.2,10.2c-2.3-0.3-8.8-6.4-12.1-5.6c0,2.2,17.2,10.8,22,12.2c7.3,3.9,14.7,5.1,22.1,8.7c2.4,1.2,12.2,6.4,12.8,8.2
		c-1.8,0.3-32.7-8.5-32-6.9c1,2.1,22.8,5.7,17.5,6.9c-0.8,0.2-3.1,0.7-3,1.3c4,0.9,9.6-1.1,14.3,0.1c7.7,2.1,8.5,0.7,16,5.2
		c2.8,1.7,4.6,2.8,7.3,4.5L377.7,667z"/>
	<path fill="#34693A" d="M1714.4,732c-6.7-7.3-14.7-15.5-16-15.7c-1.7-0.5-4.3-0.5-6,0c-2.5,7.8-6.5,14.4-12.5,21.5
		c0-10.2-17.1-23.7-17.1-28.3c0,4.1-14.4,29.2-17,40.4c-0.8,3.4-7.9,9.7-7.9,13.5c0-16.2-6.9-33-19.8-47.4c-0.5-0.5-5.1-7.4-5.1-7.7
		c1.1,6.9-24.9,23.6-24.9,41c0-5.9-12.2-21-12.2-21c8.1,0.6,31,4.8-0.4-4.1c-0.5-0.1-11.7-5.1-11.3-5c3.2,1.1,9.1,2.3,12.9,1.8
		c0,0-22.8-12-25.2-14.3c-2.5-2.4-7.1-6.2-9.7-8.4c-3.6,2.6-28.3,16.8-28.7,17.5c4.2,0.7,20.4-0.7,21.9,0.8c-2.1,1.5-2.3,0.5-4,2.6
		c-2.9,3.7-9.2,10.6-11.8,14.7c-2.1,3.5-4.7,6.6-4.7,10.1c0-12.5-0.7-23.6-23.9-31.7c-1.5-0.5-0.6-1.6-2.5-1.7c3,1.9,4.5,3.1,10.7,2
		c-0.3-0.6-1.1-0.2-2.3-1.7c-9.6-11.7-24.7-18.2-30.2-27.1c-0.5,0.1-32.1,26.3-32.7,27.7c-7.8-1.9-24.9-24.7-25.7-29
		c-0.8,8-16.5,38.5-23.5,44.7c-0.4-0.1-45.7-62.6-62.1-50.6c-8.2,6-23.4,30.9-22.5,41.3c0,0.4-1.5,4.1-1.8,4.3
		c-8.1-3.3-28.7-26.4-34-32.7c0.5,2.4-48.1,24.2-50.9,28.5c-1.7-0.3-28.5-36.5-28.7-38.3c-19.4,5.7-38,47.5-49.3,47.4
		c-14.9-8.8-32.4-26.7-42.2-37.5c0,0.9-22.3,29.1-25.6,32c-2.1-0.9-1.7-0.8-2.4-1.9c-1.9-0.3-59.2-38.9-74-42.6
		c-7.2-1.8-27.2,26.9-27,27.5c-1.1-0.6-32-33-34.4-35.8c-2.7,4.4-41.9,44.7-45.3,45.3c-0.4,0.1-31.5-31-40.8-36.8
		c-0.3-0.2-2.6-3.4-3.5-4.1c0.6,2.6-33.2,19.9-33.3,20.1c-2.7,0.3-2.4,0.1-4.5,1c0.9,0.3,29.2,0.8,30.8,3.3
		c-8.4,2.5-39.7,20-41.9,20.2c0-3.5-16.6-18-23.3-20.6c0.3-1.6-0.8-1-1.6-2.5c3.4,0,5.2,1.3,9.3,1.9c3.9,0.6,7.2,1.2,11.5,1.9
		c-1.9-1.4-34.9-13.9-36.4-14.2c0.8,4-24.9,39.1-30.5,39.4c0-0.2-0.4-0.8-1-1.6V948h994.8V732H1714.4z"/>
	<path fill="#003E00" d="M1239.1,1083.2l12.6-280.5l-1.6-3.3c-1.9-4-31.6-36.6-34.4-37.2c-2.2-0.7-5.8-0.7-8.2,0
		c-3.4,10.8-8.8,19.9-17,29.8c0-14.1-23.2-32.7-23.2-39.2c0,5.7-19.5,40.5-23,55.9c-1.1,4.6-10.7,13.4-10.7,18.6
		c0-22.5-9.4-45.7-26.9-65.6c-0.6-0.7-7-10.2-6.9-10.7c1.5,9.5-33.7,32.6-33.7,56.7c0-7.7-36.6-76.9-52.4-68.4
		c-26.7,19.9-46.7,37-46.7,61.2c0-17.4-1-32.6-32.3-43.9c-2-0.7-0.8-2.2-3.4-2.4c29.9,19.1-29.3-36.6-29.6-37.1
		c-0.6,0.2-43.5,36.4-44.3,38.3c-10.6-2.6-33.7-34.1-34.8-40.1c-33.5,16.1-31.9,52.5-23.3,58.2c-0.3-0.1-93-84.2-100.8-57.4
		c-2.7,9.5-23.7,33.8-22.3,48.2c0,0.5-2.1,5.6-2.5,6c-10.9-4.6-39-36.6-46-45.2c0.6,3.4-65.1,33.6-69,39.4
		c-2.4-0.5-26.4-52-26.8-54.5c-9.6,9.5,4,3.8-19.7,21.2c-11,8.1-27.7,31.9-49.8,39.8c-2.9,1-5.1,6.1-9.6,6.1
		c-20.2-12.1-44-37-57.2-51.9c0,1.3-30.3,40.2-34.7,44.3c-2.8-1.2-2.3-1-3.2-2.6c-2.6-0.4-80.2-53.8-100.2-58.9
		c-9.7-2.5-36.9,37.3-36.6,38.1c-1.5-0.9-43.3-45.6-46.6-49.6c-3.7,6.1-56.8,61.9-61.4,62.6c-0.3,0.1-9.1-8.8-19.9-19.3v343.1
		h1146.1V1083.2z"/>
	<path fill="#592A1E" d="M1115.7,666.8l10.1,3.7c0-13.5-0.2-42.5,1-54.5c-4.1,0-8.7-4.2-10.1,1.7
		C1113.9,629.4,1115.7,653.5,1115.7,666.8z"/>
	<path fill="#592A1E" d="M1191.1,624.7c0,0-7.7,0.2-8.7,0.2c-0.1,0.5,1.9,8.1,1.9,10.8c-0.1,3.4-0.2,5.7,0,9.6v0.3
		c0.1,1.6-2.5,10.7-2.5,14.2c0,2.3-0.2,4.8-0.2,7c4.5,0,8.4,2.4,10.3,2.5c-1.5-5.3,0-16.2,0-22.3c0-7,1.4-14.5-0.4-21.3
		C1191.5,625.3,1191.2,624.7,1191.1,624.7z"/>
	<path fill="#592A1E" d="M1187.7,628.3l2.7-2.6c-7.6,0-29.6-3.4-38.1-4.6c-5.2-0.7-15.9-1-20.8-2.2c-0.1,0-7.9-0.8-8.4-0.8
		c0,0.2,0.4,2.1,0.4,2.3c0,0,18,2,19.2,2c3,0,31.2,4.8,38.1,5.1C1181.3,627.5,1187.6,628.3,1187.7,628.3z"/>
	<path fill="#592A1E" d="M1187.1,638.4l-0.2-4.8c-8.4,0-22.9-2.9-31.8-3c-3,0-10.2-1.7-15.6-1.6c-1.5,0-12.2-1.7-14.5-2.1
		c-0.2,0.7-0.8,1.3-0.9,2.1c5.2,0.9,15.2,3.4,19.4,3.5c0.3,0,30.9,4.4,31.6,4.6C1176.6,637.5,1186.5,638,1187.1,638.4z"/>
	<path fill="#592A1E" d="M1187.7,647.6l-0.6-3.9c-4.6,0-18.5-1.5-23.4-2.1h-0.4c-5.7-0.6-9-1.7-15.2-2.1c-5.3-0.3-18.8-2.1-23.8-3.7
		c-0.5-0.1-2-0.4-2.5-0.4c0,4.3,0.7,2.1,5.8,3.8c3.9,1.4,21.2,3.7,26.2,4.1c7.8,0.6,16.8,2,24,2.5c1.6,0.1,9.8,2.2,10.4,2.1
		C1188,647.7,1188.1,647.8,1187.7,647.6z"/>
	<path fill="#592A1E" d="M1186.4,658.5l-2.1-4.8c-7.2,0-14-1.1-21.1-1.6c-6.7-0.5-13.6-2-21.3-2.6c-7.3-0.6-14.5-2.2-20.8-2.8
		c-0.1,0.6-0.2,3.2-0.4,3.6c9.4,1.3,23.1,3.6,31.9,3.9c8.2,0.3,18.7,3.2,26.2,3C1181.3,657.6,1184.4,658.4,1186.4,658.5z"/>
	<path fill="#592A1E" d="M1189.3,666.1l2.7,3.7c-3.6-1-21.3-3.1-25.5-3.3c-2.4-0.1-33.7-4.4-36.5-5.1c-0.8-0.2-9.8-2.3-9.8-2.3
		c0-0.8,0-1.5,0-2.3c0,0,19.9,3.7,21.9,4.1c6.6,1.2,22.6,2.4,27.6,3.8c3.5,1,16.9,0.9,19.8,1.8
		C1189.5,666.2,1189.6,666.3,1189.3,666.1z"/>
	<path fill="#592A1E" d="M1120.3,616.5l5.7-1.5c1-0.5,5.4-6.6,5.7-7.9c-2.7-0.6-7.8,0-10.6-1c-2.8-0.3-3.9-0.3-6.6-1.1
		c0,1.3,5.4,10.7,5.4,11.3c0.3,0.1,0.5,0.7,0.7,0.7C1120.6,616.7,1120.5,616.7,1120.3,616.5z"/>
	<path id="_x35_" fill="#005544" d="M1812.4,1110.5c10.2-63.3,22.8-147.5,16.1-175.7c-19.3-81.8,13.6-173.1-29.5-318.5l-2.3-7.6
		c-2.7-9.2-7.2-29.5-12.4-54.3c-10.4-49.6-19.2-106.8-28-141.3c-4.8-18.9-9.5-31.2-10.1-13.5c-1.4,39.1-5.1,98.5-11.8,162.8
		c-12.9,123.5-33.7,265.1-48.4,316.4c-16,55.9-24.4,103-36.2,162.2c-4.9,24.9-10.2,46.4-15.7,69.6L1812.4,1110.5L1812.4,1110.5z"/>
	<path fill="#004C3E" d="M127.4,1086.1c-0.4-30.5-0.7-55.4-0.7-60.4c0-61.5-4.5-121.5-3.5-184.1c0.5-32.5-10.8-237.2-12.9-260.6
		c-3.2-37.9-12.8-342.7-35.2-307.3c-1,1.5,0-3.6,0-5.1C53.5,572.4,39.3,607.7,1.9,845.3c-0.5,3.1-1,6.2-1.4,9.2V1086L127.4,1086.1
		L127.4,1086.1z"/>
	<path fill="#2D6E55" d="M1166.3,1081.4c4.8-112.5-28.6-301.5-49.6-335.3c0,5.3-20.1,53-23.2,78.4l-0.3,2.8
		c-4.6,38.9-12.2,63.8-24.6,101.8c-14.9,45.9-29.3,106.5-9.4,152.4L1166.3,1081.4L1166.3,1081.4z"/>
	<path fill="#41725E" d="M948.2,1081.4c-1.3-95.7-3.9-189.5-35.1-287.8c-17.9-56.3-19.2-71.5-44.8-127.6c-6-13-25.6-94.2-28.3-117.4
		c-2.8-23.9-14.7-41.1-16.1-4.6c-1.5,39.9-3.7,116.2-4,125.1c-1.5,40.5-5.5,60-13.4,98.7c-12.2,59.5-13.6,113.8-5.4,173.9
		c5.3,38.8,4,99.2,5,139.6L948.2,1081.4L948.2,1081.4z"/>
	<path fill="#003540" d="M1068.3,1081.4c-2.7-14.9-5.6-30.1-8.9-47.7c-7.8-41.5-10.1-84.5-12.6-123.7l-0.2-3.5
		c-2.6-39.1-19.9-106.3-23.9-146.4c-1.3-13.2-7.7-67.1-13.2-93.7c-5.5-26.7-5.6-54.1-16.3-8.8c-8.3,34.7-17,74.1-17.4,75.5l-0.7,2.2
		c-9,26.1-8.4,48.7-14.8,77.4c-3.2,14.1-4.5,32.4-9,52c-10,43.8-17.5,83.3-24.5,127.6c-4.7,29.8-5.9,59.8-1.5,89.2h143V1081.4z"/>
	<path id="_x36_" fill="#85AF43" d="M492.1,1082.9c1.8-46,4.6-93.5,0.8-138l-0.3-3.6c-2.8-33.1,0.8-84.1-6.5-114.7
		c-4.8-20.2-5.3-37.2-11.4-62.7c-8.6-35.7-17-72-19.6-108.6c-0.4-6-3.5-61.6-3.8-62.7c-11.1-2.3-75.2,174.8-79.9,196
		c-4.1,18.5-14.1,17.3-19.7,51.5c-5.1,30.8-9,32.6-11.4,68.7c-3.2,47.5-1.8,53.5-11.5,104l-0.5,2.8c-3.3,17.3-5.1,41.4-6,67.4
		L492.1,1082.9L492.1,1082.9z"/>
	<path fill="#0E6157" d="M1912.4,1115.6c2.6-20.3,5.1-41.6,4.7-61c-0.5-25,4.9-70.6,4.9-103.5c0-39.7-1.6-68.5-0.1-108.7l0.1-2.8
		c1.2-31.5,5.7-31.7,9.6-74.2c15.5-169.6-27.9-488.7-40-509.7c-3.1-14.2-7.6,71.5-9.4,124.9c-1.9,57.3-3.3,103.7-6.1,160.5l-0.3,6.3
		c-1.4,29-26.1,102.5-25.5,144.3c1.1,77.9-9.9,151.7-21,232.4l-0.5,3.6c-5.9,43.3-12.9,76.2-19.1,122.1l-0.8,5.9
		c-1.1,8.3-5.5,34.3-11.5,59.8L1912.4,1115.6L1912.4,1115.6z"/>
	<path d="M1274.6,1081.4c17.4-140.7,26.5-312.3,0.9-442.3c-0.7,6.6-1.1,12.8-1,18.4c1.1,77.9-9.6,151.7-20.3,232.4l-0.5,3.6
		c-5.7,43.3-12.5,76.2-18.5,122.1l-0.8,5.9c-1.1,8.3-5.4,34.3-11.1,59.8L1274.6,1081.4L1274.6,1081.4z"/>
	<path fill="#41725E" d="M296.8,1078.8c-1.3-95.7-3.9-189.5-35.1-287.8c-17.9-56.3-19.2-71.5-44.8-127.6c-6-13-25.6-94.2-28.3-117.4
		c-2.8-23.9-14.7-41.1-16.1-4.6c-1.5,39.9-3.7,116.2-4,125.1c-1.5,40.5-5.5,60-13.4,98.7c-12.2,59.5-13.6,113.8-5.4,173.9
		c5.3,38.8,4,99.2,5,139.6L296.8,1078.8L296.8,1078.8z"/>
	<path fill="#41725E" d="M1456.3,1079.1c-1.3-95.7-3.9-189.5-35.1-287.8c-17.9-56.3-19.2-71.5-44.8-127.6
		c-6-13-25.6-94.2-28.3-117.4c-2.8-23.9-14.7-41.1-16.1-4.6c-1.5,39.9-3.7,116.2-4,125.1c-1.5,40.5-5.5,60-13.4,98.7
		c-12.2,59.5-13.6,113.8-5.4,173.9c5.3,38.8,4,99.2,5,139.6L1456.3,1079.1L1456.3,1079.1z"/>
	<path fill="#003540" d="M1499.8,1085.4c-2-9.2-4.1-18.7-6.5-29.5c-6.7-29.9-8.6-60.9-10.8-89.1l-0.2-2.5
		c-2.2-28.2-17-76.6-20.5-105.5c-1.1-9.5-6.6-48.4-11.3-67.5c-4.7-19.2-4.8-39-14-6.4c-7.1,25-14.5,53.4-14.9,54.4l-0.6,1.6
		c-7.7,18.8-7.2,35.1-12.7,55.8c-2.7,10.2-3.8,23.4-7.7,37.4c-8.6,31.6-15,60-21,92c-3.7,19.8-4.8,39.8-2.1,59.4h122.3V1085.4z"/>
	<path id="_x37_" fill="#EDEDED" d="M706.5,741.1c0-0.6,0.5-1.1,1.1-1.1s1.1,0.5,1,1.2c-0.9,40.5-1.5,91.7-2,143.5
		c-0.7,69.5-1.5,140-3.2,186.8l-0.1,2.5c-0.1,1.7-0.1,4.3,0,7.5h-2.2c0-3.2,0-5.8,0-7.6l0.1-2.5c1.7-46.8,2.5-117.3,3.2-186.7
		C705,832.8,705.5,781.5,706.5,741.1L706.5,741.1z"/>
	<path fill="#EDEDED" d="M674.6,784.5c-0.2-0.6,0.1-1.2,0.7-1.4c0.6-0.2,1.2,0.1,1.4,0.7c2.3,7.4,4.6,14.8,7.2,22.2
		c2.5,7.3,5.4,14.5,8.7,21.5c0.4,0.9,2,3.6,3.9,6.8c3.4,5.9,8,13.8,9.5,17.6c0.3,0.2,0.6,0.6,0.6,1v1l0,0v0.1c-0.1,0.6-0.7,1-1.3,1
		c-0.5-0.1-0.9-0.6-0.9-1.1l0,0v-0.4c-0.3-1.8-5.8-11.3-9.8-18.1c-2-3.3-3.5-6-4-7c-3.3-7.1-6.2-14.3-8.8-21.7
		C679.2,799.4,676.9,791.9,674.6,784.5L674.6,784.5z"/>
	<path fill="#EDEDED" d="M741.2,834.4c0-0.6,0.5-1.1,1.1-1.2c0.6,0,1.1,0.5,1.1,1.1c0.1,2.2-6.9,25.1-13.9,46.3
		c-5.6,17.2-11.3,33.3-13.3,36.4c-0.7,1.2-3.5,8.1-6,14.5c-2.4,6.3-4.7,12-5.7,11.9c-0.6,0-1.1-0.5-1-1.1c0-0.6,0.5-1.1,1.1-1.1
		c0.5,0.1,1.4-5,3.6-10.5c2.5-6.5,5.3-13.6,6.2-14.9c1.9-3,7.5-18.9,13.1-35.9C734.4,859,741.3,836.4,741.2,834.4L741.2,834.4z"/>
	<path fill="#EDEDED" d="M768.6,876.4c0.4-0.4,1.1-0.3,1.5,0.1c0.4,0.5,0.4,1.2-0.1,1.6l-7.6,6.7c0,0.1-0.1,0.1-0.2,0.1
		c-2.4,1.5-4.4,3.2-6.4,5.1c-4.2,3.8-8.6,7.8-17.7,10.2c-4,1.1-7.9,2.6-11.7,4.1c-2.3,0.9-4.5,1.7-6.8,2.6c-0.6,0.2-1.2-0.1-1.4-0.7
		c-0.2-0.6,0.1-1.2,0.7-1.4c2.1-0.7,4.4-1.7,6.7-2.6c3.9-1.5,7.9-3.1,12-4.2c8.6-2.2,12.8-6.1,16.8-9.7c2.1-1.9,4.1-3.7,6.6-5.3
		L768.6,876.4z"/>
	<path fill="#EDEDED" d="M705.3,1008.9c0.3,0.5,0.2,1.2-0.3,1.5c-0.5,0.4-1.1,0.2-1.5-0.3c-0.4-0.6-1.3-3.1-2.6-6.6
		c-2.5-7.2-6.6-18.4-9.9-23.8l-0.7-1.1c-2.9-4.6-5.7-8.7-8.5-12.8c-5.1-7.4-10-14.6-14.8-24c-4-7.8-6.5-16.7-9.2-25.8
		c-2.6-8.9-5.2-17.9-9.3-26.3c-2.4-5-4.4-10.3-5.8-15.6c-1.5-5.4-2.4-10.8-2.9-16.2c0-0.2-0.1-0.3-0.1-0.4c-0.1-0.3-0.3-0.7-0.3-1.4
		c0-0.6,0.5-1.1,1.1-1.1s1.1,0.5,1.1,1.1c0,0.3,0,0.4,0.1,0.5c0.1,0.3,0.3,0.6,0.3,1.2c0.4,5.3,1.4,10.6,2.8,15.8
		c1.4,5.2,3.3,10.3,5.7,15.3c4.1,8.6,6.8,17.7,9.4,26.6c2.6,9,5.1,17.8,9,25.4c4.6,9.2,9.5,16.3,14.6,23.7c2.8,4.1,5.6,8.2,8.5,12.8
		l0.7,1.1c3.5,5.6,7.5,16.9,10.1,24.2C704.2,1006.1,705,1008.5,705.3,1008.9L705.3,1008.9z"/>
	<path fill="#EDEDED" d="M666.8,935.9c0.4,0.4,0.5,1.1,0.1,1.6c-0.4,0.4-1.1,0.5-1.6,0.1c-5-4.6-7.9-6.4-10.4-8.2
		c-3.9-2.6-7.1-4.7-15.8-14.5l-0.6-0.6c-2.4-2.8-6.7-9.4-11.1-16.3c-5.2-8.1-10.5-16.4-12.9-18.2c-0.5-0.4-0.6-1.1-0.2-1.6
		c0.3-0.5,1-0.6,1.5-0.2c2.6,2,8.1,10.5,13.3,18.8c4.3,6.7,8.6,13.3,10.9,16l0.6,0.6c8.6,9.5,11.6,11.6,15.4,14.1
		C658.7,929.3,661.6,931.3,666.8,935.9L666.8,935.9z"/>
	<path fill="#EDEDED" d="M711.5,710.9l0.8-2.4c0.2-0.6,0.8-0.8,1.2-0.6c0.2,0.1,0.4,0.3,0.5,0.6c1.8,4.1,2.7,11,2.3,17.5
		c-0.3,5.8-1.6,11.4-4.3,14.4l0,0l0,0v0.1c-0.1,0.5-0.4,0.8-0.7,0.9c-3.4,0.9-6.3,0.6-8.5-0.5c-1.8-0.9-3.2-2.4-4.1-4.3
		c-0.9-1.8-1.2-4-1.1-6.3C698.5,723.9,705.7,715.1,711.5,710.9L711.5,710.9z"/>
	<path fill="#EDEDED" d="M712.1,740.4C712.1,740.3,712.1,740.2,712.1,740.4L712.1,740.4L712.1,740.4L712.1,740.4L712.1,740.4z"/>
	<path fill="#EDEDED" d="M690.6,752.9c1.3,0.8,2.6,1.5,3.8,2.2c6.9,4,9,5.2,9.8,13.9c0,0.6-0.4,1.2-1,1.3c-0.1,0-0.2,0-0.3,0l0,0
		c-0.6-0.1-1.2-0.2-1.8-0.4c-3.2-0.9-6.6-2.8-9.1-5.3c-2.5-2.7-4.1-6.1-3.3-10.1c0.1-0.3,0.1-0.6,0.2-1c0.2-0.6,0.8-0.9,1.4-0.7
		C690.3,752.7,690.5,752.8,690.6,752.9L690.6,752.9z"/>
	<path fill="#EDEDED" d="M705.5,808.1l1.9-1.5c-1.4-6.4,5.1-14.6,9.4-20.1c0.5-0.6,0.9-1.1,1.3-1.7c0.7-0.8,1.4-1.7,2.1-2.6v-0.1
		l0.5-0.6c0.4-0.4,1-0.5,1.5-0.1c0.1,0.2,0.2,0.3,0.3,0.5l0,0c0.8,2.4,1.7,9.3,1.3,15.3c-0.3,4.1-1.2,7.8-3.3,9.6
		c-3.4,2.9-6.7,2.9-9.7,2.9c-1.6-0.1-3.1-0.1-4.4,0.4c-0.6,0.1-1.2-0.1-1.4-0.7C704.9,808.9,705.1,808.3,705.5,808.1L705.5,808.1z"
		/>
	<path fill="#EDEDED" d="M684.5,798.6c1.4-1.9,1.5-2.8,1.6-3.6c0.1-1.7,0.3-3.1,5.6-7.7c2-1.7,2.5-1.8,4.6-2.5
		c0.4-0.1,0.8-0.2,1.3-0.4c0.6-0.1,1.2,0.1,1.3,0.8c0,0.1,0.1,0.2,0,0.4v1c0,2.2,0,4.4-0.2,6.3c-0.7,5.6-3.2,9.6-12.5,8.4
		c-0.4,0-0.8-0.3-1.2-0.6c-0.2-0.1-0.4-0.3-0.5-0.5c-0.2-0.3-0.3-0.7-0.3-1.1l0,0l0,0C684.3,799,684.4,798.8,684.5,798.6
		L684.5,798.6z"/>
	<path fill="#EDEDED" d="M676.1,785c0,0.4-0.4,0.7-0.8,0.6c-0.4,0-0.7-0.3-0.7-0.8c0.2-3.4-0.4-6.1-2.1-8.1c-1.7-2-4.6-3.5-8.8-4.5
		c-0.4-0.1-0.8-0.2-1.3-0.3c-2.2-0.5-5-1.2-7-2.3c0.5,2,1.5,5.3,3.1,8.1c1.2,2.3,2.7,4.3,4.4,4.9c0.7,0.2,2.4,0.6,4.3,0.9
		c2.7,0.5,8.3,1.1,8.8,1.7c0.3,0.3,0.3,0.7,0,1s-0.8,0.2-1,0s-5.5-0.8-8-1.3c-2-0.3-3.8-0.7-4.6-1c-2-0.7-3.8-3-5.2-5.5
		c-2.3-4.3-3.6-9.6-3.5-10.6l0,0c0-0.2,0.1-0.4,0.3-0.5c0.3-0.2,0.8-0.2,1,0.1c1.2,1.6,5.1,2.5,7.7,3.1c0.5,0.1,1,0.2,1.4,0.3
		c4.5,1.1,7.6,2.7,9.5,5C675.7,778.2,676.5,781.2,676.1,785L676.1,785z"/>
	<path fill="#EDEDED" d="M678,826.1l2.5-2.9c-0.2-2.8-3.9-4-7.9-4.2c-2.4-0.1-5,0.2-7.1,0.9c-2,0.6-3.6,1.5-4.2,2.5
		c-0.7,1.1,0,2.6,2.8,4.5s5.9,1,8.8,0.1C674.5,826.6,676.2,826.1,678,826.1L678,826.1z"/>
	<path fill="#EDEDED" d="M682.4,824.5l-3.1,3.5c-0.2,0.3-0.6,0.4-0.9,0.4c-1.5-0.1-3.2,0.4-4.9,0.9c-3.4,1-6.9,2-10.6-0.4
		c-4.2-2.8-4.8-5.4-3.5-7.6c0.9-1.5,3-2.7,5.5-3.4c2.3-0.7,5.2-1.1,7.8-1c5.4,0.2,10.2,2.3,10.1,6.8
		C682.7,824,682.6,824.3,682.4,824.5L682.4,824.5z"/>
	<path fill="#EDEDED" d="M731.7,876c-0.2,0.6-0.8,0.9-1.4,0.7c-0.6-0.2-0.8-0.9-0.7-1.5c0.3-0.7,0.5-1.5,0.6-2.2
		c0.7-3.1,0.1-5.6-1.2-7.6c-1.4-2.1-3.7-3.6-6.5-4.7c-0.8-0.3-1.6-0.5-2.4-0.7c0.2,0.9,0.4,1.8,0.6,2.6c1.2,4.9,1.4,5.5,6.3,11.2
		c0.3,0.3,0.5,0.5,0.7,0.7c0.5,0.5,0.8,0.7,0.9,1.5c0.1,0.6-0.3,1.2-0.9,1.3c-0.6,0.1-1.2-0.3-1.3-0.9c0-0.1-0.1-0.1-0.2-0.3
		c-0.2-0.1-0.4-0.4-0.8-0.8c-5.4-6.2-5.5-6.8-6.8-12.2c-0.3-1.2-0.6-2.5-1.2-4.4l0,0c0-0.1,0-0.2,0-0.3c0-0.6,0.5-1.1,1.1-1.1
		c0.7,0,1,0.1,1.2,0.3c1.2,0.3,2.4,0.6,3.5,1c3.3,1.3,6,3.1,7.6,5.6c1.7,2.5,2.3,5.7,1.5,9.4C732.2,874.3,732,875.1,731.7,876
		L731.7,876z"/>
	<path fill="#EDEDED" d="M739.7,853.9c-0.2,0.6-0.8,0.9-1.4,0.7c-0.6-0.3-0.8-0.9-0.6-1.5c1.7-4.6,1.8-4.8,4.9-8.4l0.3-0.4
		c0-0.1,0.1-0.1,0.2-0.1c1.9-1.5,3.7-2.4,5.5-2.9c1.8-0.4,3.8-0.4,6.1,0c0.6,0.1,1,0.6,0.9,1.3c0,0.2-0.1,0.3-0.2,0.5
		c-1.6,2.5-2.5,4.6-3.2,6.4c-2,4.9-3,7.5-14.8,9.2c-0.2,0.5-0.8,0.8-1.3,0.6c-0.6-0.1-0.9-0.8-0.8-1.4v-0.2c0.2-1,0.2-1.1,1.6-1.3
		c10.8-1.5,11.6-3.6,13.3-7.8c0.6-1.4,1.3-3.2,2.5-5.2c-1.3-0.1-2.4,0-3.6,0.2c-1.5,0.4-3,1.2-4.6,2.4l-0.2,0.2
		C741.4,849.6,741.3,849.7,739.7,853.9L739.7,853.9z"/>
	<path fill="#EDEDED" d="M743.1,844.3c0.4-0.3,0.9-0.3,1.3,0"/>
	<path fill="#EDEDED" d="M733.2,897c0.7-0.7,1.4-1.3,2.1-1.9c3.6-3.4,6.7-6.2,7.5-10.5c-1.1,0.9-2.4,1.6-3.8,2.4
		C735.2,889.1,731.1,891.4,733.2,897L733.2,897z"/>
	<path fill="#EDEDED" d="M736.8,896.7c-1,0.9-2.1,1.9-3.2,3l0,0c-0.1,0.1-0.1,0.1-0.2,0.2c-0.6,0.3-1.2,0-1.5-0.5
		c-4.4-8.5,1-11.6,6.1-14.4c2.2-1.3,4.3-2.4,5.1-4l0,0c0.1-0.3,0.5-0.6,0.9-0.6c0.6,0,1.1,0.4,1.1,1
		C745.6,888.6,741.6,892.2,736.8,896.7L736.8,896.7z"/>
	<path fill="#EDEDED" d="M750.6,895.2c-0.4,0.5-1.1,0.5-1.5,0.1c-0.5-0.4-0.5-1.1-0.1-1.5c0.3-0.3,0.6-0.6,0.9-0.9
		c2-1.4,5.1-2.2,8.4-1.9c3.2,0.2,6.7,1.5,9.3,3.8c0.7,0.6,1.3,1.3,1.8,2c0.7,0.9,1.4,1.9,2,2.9c0.7,1.1,1.2,2.1,1.7,3.3
		c0.2,0.5-0.1,1.2-0.6,1.5c-0.2,0-0.5,0.1-0.7,0l0,0c-3-0.7-5.1-0.9-6.9-1.1c-4.7-0.5-6.9-0.7-13.4-7c-0.4-0.4-0.5-1.1,0-1.6
		c0.4-0.4,1.1-0.4,1.6,0c6,5.8,8,6,12.1,6.4c1.4,0.1,3,0.3,5,0.7c-0.2-0.3-0.4-0.6-0.6-0.9c-0.6-0.9-1.3-1.9-1.9-2.9
		c-0.5-0.6-1-1.2-1.5-1.6c-2.3-2-5.2-3.1-8-3.3s-5.4,0.3-6.9,1.5C751,894.8,750.8,895,750.6,895.2L750.6,895.2z"/>
	<path fill="#EDEDED" d="M704.9,899.3c-0.2,0.6-0.8,0.9-1.4,0.7c-0.6-0.2-0.8-0.9-0.7-1.5c0-0.1,0.1-0.2,0.1-0.4h-0.1l0,0
		c-0.1,0-0.2,0-0.4,0.1l0,0c0,0-0.1,0-0.2,0c-0.1,0-0.3,0-0.5,0c-22.2-0.5-22.1-11.7-22-18.1c0-1.5,0-2.7-0.2-3s-0.3-0.7-0.2-1.1
		c0.2-0.6,0.8-0.9,1.4-0.7l1.3,0.4l0,0c2.1,0.6,4.4,1.4,6.7,2.2C698.2,881.6,708.9,887.6,704.9,899.3L704.9,899.3z"/>
	<path fill="#EDEDED" d="M653.6,888.5c-0.4-1-0.6-1.9-0.7-2.8c-0.2-2.4,0.7-4.6,2.2-6.6c1.5-1.8,3.6-3.4,6.1-4.5
		c2.1-0.9,4.4-1.5,6.8-1.7l0,0l0,0l0,0l0.2-0.1c0.5-0.3,1.2-0.2,1.5,0.2c0.1,0.2,0.2,0.4,0.2,0.7v0.8c0,2.5,0,4.6-0.2,6.4
		c-0.7,6.5-3.6,9.6-15.3,8.3C654,889.1,653.7,888.9,653.6,888.5L653.6,888.5z"/>
	<path fill="#EDEDED" d="M645.2,890.3l-1.3-4.6c-0.4-1.2-2.5-2.3-5.2-3.2c-3.1-1-6.7-1.7-9.1-2c2.5,4.6,8,8,12.1,9.2
		c1,0.3,2,0.5,2.7,0.5C644.7,890.4,645,890.4,645.2,890.3L645.2,890.3z"/>
	<path fill="#EDEDED" d="M642.1,855.6l0.2-0.7c0-2.3,0.5-3.8,0.9-5.4c0.6-2,1.3-4.4,1.5-9.2c0-1.4-2-3.5-4.6-5.5
		c-3.7-3-8.5-5.6-10.7-6.5c-1.2,3.1-1.9,7.6-1.3,11.8c0.6,3.5,2,6.8,4.7,8.9c1,0.7,2.2,1.5,3.4,2.2
		C638.6,852.5,640.8,853.9,642.1,855.6L642.1,855.6z"/>
	<path fill="#EDEDED" d="M644.5,855.4l-1.2,3.5c-0.1,0.4-0.5,0.8-0.9,0.8c-0.6,0.1-1.1-0.4-1.2-1c-0.2-2.1-3.1-3.9-6-5.6
		c-1.2-0.8-2.5-1.6-3.6-2.4c-3.3-2.5-4.9-6.3-5.5-10.4c-0.8-5,0.1-10.4,1.8-13.9c0.2-0.5,0.7-0.7,1.2-0.6c1.7,0.3,7.9,3.6,12.4,7.1
		c3.1,2.5,5.5,5.1,5.5,7.4c-0.1,5.2-0.9,7.7-1.6,9.8c-0.4,1.5-0.8,2.9-0.8,5l0,0C644.6,855.2,644.6,855.3,644.5,855.4L644.5,855.4z"
		/>
	<path fill="#EDEDED" d="M592.9,856.5c5.6,0.9,10,1.8,13.7,3.8c3.8,1.9,6.9,4.7,9.9,9.1c0,0.1,0,0.1,0.1,0.1
		c0.4,0.9,0.7,2.8,0.9,4.8c0.2,2.7,0.1,5.7-0.1,6.5c-0.1,0.4-0.6,0.7-1,0.7l0,0c-5.1,0-10.3-2.3-14.6-5.7
		c-4.9-3.8-8.8-8.9-10.2-13.5l-0.3-0.9c-0.3-1.1-0.6-2.4-0.4-3.3V858c0.1-0.3,0.2-0.6,0.3-0.9c0.2-0.3,0.6-0.6,0.9-0.8l0,0
		C592.2,856.5,592.5,856.5,592.9,856.5L592.9,856.5L592.9,856.5z"/>
	<path fill="#EDEDED" d="M626.8,901.7l1.6-0.6c0.5-0.2,0.9,0.1,1,0.8c0.1,0.2,0.1,0.4,0,0.7l0,0c-1.5,5.7-1.8,6.2-2.5,7.6v0.1
		c-0.4,0.7-0.8,1.7-1.7,4.1c-0.1,0.3-0.4,0.5-0.7,0.6c-6.3,1.4-10.8,0.6-14.4-0.1c-2-0.3-3.7-0.6-5.2-0.5c-0.5,0-0.9-0.4-0.9-1
		c-0.1-0.2,0-0.4,0.1-0.6c0.7-1.9,3.9-4.6,7.5-6.8c3.7-2.2,7.9-4,10.3-4.1l0,0c0.8,0,1.3-0.2,1.8-0.2
		C624.5,901.3,625,901.2,626.8,901.7L626.8,901.7z"/>
	<path fill="#EDEDED" d="M636.3,914.8c0.5,0,0.8,0,1.1,0c0.1,0,0.2,0,0.3,0l0,0c0.2,0,0.3,0,0.6,0l0.3,0.1c0.4,0.1,0.7,0.3,0.8,0.6
		l0,0c0.5,1,1.1,2,1.7,3c2.6,4,5.2,7.9-2,14.4c-0.4,0.4-2.3,1.7-4.1,3c-2,1.4-4.1,2.8-4.4,2.8c-0.6,0.1-1.1-0.2-1.2-0.7l0,0
		c-1.8-5.1-2.5-8.8-1.7-12.2c0.8-3.5,3.3-6.6,7.8-10.5C635.9,914.9,636.1,914.8,636.3,914.8L636.3,914.8z"/>
	<path fill="#EDEDED" d="M702.9,948.1l0.8-0.6c-0.8-2-0.1-3,0.4-4c0.8-1.2,1.3-2.1-12.5-11.4c-0.1-0.1-0.3-0.2-0.6-0.4l0,0l0,0
		c-0.7-0.5-1.8-1.3-2.6-1.8c-0.1,0.3-0.2,0.6-0.3,0.9c-1,3.3-0.3,6.3,1.5,8.9c1.9,2.7,4.9,4.8,8.3,6.5
		C699.5,946.9,701.2,947.5,702.9,948.1L702.9,948.1z"/>
	<path fill="#EDEDED" d="M705.7,948.8l-1.9,1.4c-0.3,0.2-0.7,0.3-1,0.2c-2-0.6-3.9-1.4-5.7-2.2c-3.7-1.8-7.1-4.3-9.1-7.2
		c-2.2-3.1-3.1-6.7-1.9-10.9c0.2-0.7,0.5-1.5,0.8-2.2c0.2-0.4,0.7-0.7,1.2-0.6c0.7,0.1,3,1.7,4.2,2.6l0,0l0.6,0.4
		c15.5,10.5,14.4,12.2,13.1,14.5c-0.4,0.6-0.8,1.2,0,2.6C706.2,947.8,706.1,948.4,705.7,948.8L705.7,948.8z"/>
	<path fill="#EDEDED" d="M706,973.5c0.6-1.2,0.8-1.8,1-2.2v-0.1c0.2-0.5,0.4-0.8,0.5-1.1c0.2-0.3,0.4-0.5,0.7-1c0,0,0.1,0,0.1-0.1
		c0.1-0.1,0.3-0.4,0.7-0.9c0.1-0.1,0.2-0.2,0.3-0.2l0,0c0.6-0.4,0.9-0.6,1.1-0.8c0.5-0.4,0.8-0.6,2-1c1.4-0.5,3.7-0.5,6.2-0.5
		c2.1,0,4.4,0,6-0.3c0.6-0.1,1.1,0.3,1.3,0.9c0,0.1,0,0.3,0,0.4l0,0c-0.2,1-0.4,1.8-0.7,2.7c-1.1,3.2-2.9,5.3-5.4,6.4
		c-2.4,1.2-5.3,1.3-8.7,0.6c-1.4-0.3-2.9-0.7-4.4-1.3C706.1,974.9,705.7,974.2,706,973.5C706,973.6,706,973.6,706,973.5L706,973.5z"
		/>
	<path fill="#EDEDED" d="M684.9,964.8c-0.1,0.6-0.8,1-1.3,0.8c-0.6-0.1-0.9-0.8-0.8-1.3l0.8-3.2c0.5-1.9,0.8-2.3,1.9-3.6
		c0.3-0.3,0.6-0.8,1-1.4c0.1-0.1,0.2-0.2,0.3-0.3l0,0c0.2-0.1,0.5-0.3,0.8-0.5c1.4-1.1,3.1-2.2,5.3-1.6c0.4,0.1,0.7,0.5,0.8,1l0,0
		c0.5,4,0.8,7.3-0.5,9.8c-1.3,2.6-4.1,4.1-9.7,4.1c-0.6,0-1.1-0.5-1.1-1.2c0-0.6,0.5-1.1,1.1-1.1c4.6,0,6.8-1,7.8-2.9
		c0.9-1.7,0.8-4.5,0.4-7.6c-1,0-1.9,0.7-2.8,1.4c-0.2,0.1-0.4,0.3-0.6,0.4c-0.4,0.5-0.7,0.9-1,1.3c-0.8,1-1.1,1.4-1.5,2.8
		L684.9,964.8z"/>
	<path fill="#EDEDED" d="M675.1,957.5l-2.4-4.3c-1.7-3.1-8-4-13-3.4c-1.4,0.1-2.7,0.4-3.7,0.8c-1,0.3-1.7,0.7-2.2,1.1
		c-0.2,0.2-0.3,0.4-0.2,0.6c2.7,5.8,5.7,8.2,9.2,8.6C666.2,961.2,670.3,959.7,675.1,957.5L675.1,957.5z"/>
	<path fill="#EDEDED" d="M674.5,952.1l3,5.3c0.1,0,0.1,0.1,0.1,0.1c0.2,0.5,0,1.2-0.5,1.5c-5.6,2.7-10.3,4.5-14.5,4.1
		c-4.3-0.5-7.9-3.2-10.9-9.8c-0.6-1.2-0.3-2.3,0.7-3.2c0.7-0.7,1.7-1.3,3-1.6c1.2-0.4,2.6-0.7,4.1-0.9
		C665.1,946.9,672.3,948.1,674.5,952.1L674.5,952.1z"/>
	<path id="_x38_" fill="#502600" d="M1632.6,1092.7c-3.4-22.5-13.8-46.9-14.3-65.9c-0.3-12.8-0.1-34.7-3.4-48.5
		c-1.8-7.4-30.3-38.7-30.2-72.5c0-11.9-6-27-4.5-43.8c1-2.9,5.3,0.1,12.8,43c1.3,7.5,3.7,38.2,17.6,38.2
		c7.2-19.1-0.3-13.9,14.9-31.7c8.3-9.8,12.6-28.5,15.4-50.4c0.9-7,1.6-22.4,2.3-27.4c0.5-3.7,0.1,2.3,0.5,1.3
		c2.8-6.7,5.1,27.4,3.7,32.6c-4.2,15.4-13.6,60.3-25.8,72.9c-19.2,19.9,1.4,28.3,6.5,51.3c0.2,1.1-0.1,2.3-0.1,3.4
		c5.9,0.4,43.2-44.5,46.6-52.5c8.9-20.9,19.2-42.1,23.6-63.7c0.4-1.9,3.8-9.9,6.2-10.4c-0.5,21.7-18.4,62.8-28.9,85
		c25.1-3,42.9-41.3,47-42.2c-0.3,18.8-33.9,42.8-52.6,52.9c-10.5,5.7-40.3,41.4-43.3,47.4c-1.8,3.5,2.1,17.7,5,24
		c19.3,0,49-22.1,59.1-33.8c4.8-5.5,17.1-26.8,18.5-26.7c-1.1,26.3-21.3,41.5-49.1,54.5c-12.1,5.7-31.6,10.6-27.4,19.1
		c0.5,7.8,4.4,31.3,7.9,43.8L1632.6,1092.7L1632.6,1092.7z"/>
	<path fill="#502600" d="M1676.6,1092.7h10.2c0.3-0.8,0.4-1.6,0.5-2.4c0.5-6,26.3-54.6,14.9-54.7c-1.3,1.4-14.2,27.4-14.4,30.3
		C1687.4,1071,1682.9,1082.6,1676.6,1092.7z"/>
	<path fill="#502600" d="M1632.7,1076.1l-3.5-7.4c-9.3,3.9-38.5-6.4-59.9-17.2c-25.4-12.7-37.7-26.2-40.1-51.3
		c-0.1-0.7-2.9-11.8-3.3-12.7c-0.1-0.3-0.2-0.4-0.6-0.5c-5.5,15.1,1.6,41,18,57.2c16,15.8,62.3,34.3,89.7,32.5
		C1633,1076.3,1633.1,1076.4,1632.7,1076.1z"/>
	<path fill="#502600" d="M1592.3,1065.5l-8.2,1.4l1.6-1.9c10.2-12.5,5.6-35.3-2.5-48l-1.3-2.1c-0.8-1.2-10.8-11.1-11-11.4
		c13.2-0.2,20.2,17.1,22.3,25.7c5.4,21.6,2.9,18.8,2.1,29.4C1595.3,1059.7,1592.1,1065.1,1592.3,1065.5z"/>
	<path fill="#8A7313" d="M1577,862.2l-2.2-7.8c-1.9-0.7-19.5-19.3-24.2,3.9C1547.3,874.4,1573.7,868.9,1577,862.2z"/>
	<path fill="#8A7313" d="M1591.4,846.5c-1.9,2.9-11.9,22.2,3.2,13.9C1597.2,859,1607.3,843.4,1591.4,846.5z"/>
	<path fill="#8A7313" d="M1603.7,869.3l3.2,1.7c-1.8-0.6-8.2-2.8-9.4-0.4c-9.5,1.2-11.6,46.4,5.3,33.3l1.1-0.8
		C1609.8,898.6,1615.5,876.6,1603.7,869.3z"/>
	<path fill="#8A7313" d="M1640.8,828.4c-2-4.2-10.2-15.5-16.5-6.3c-8.9,12.9,13,29.3,17.9,22.6
		C1646.5,838.7,1648.3,841,1640.8,828.4z"/>
	<path fill="#8A7313" d="M1667.5,843.5c-5,1.8-30.1,10.4-19.2,17.8C1656.9,867.2,1678,846.3,1667.5,843.5z"/>
	<path fill="#8A7313" d="M1628.7,881.3c-2.7-3.7-14.4-2.4-12.7,11.6c0.8,6.5,8,8.6,11.7,0.2C1628.2,892.5,1628.8,881.5,1628.7,881.3
		z"/>
	<path fill="#8A7313" d="M1647.2,901.4c15,4,31.4-13.2,18.4-17.4c-3-0.9-6.5,0.3-9.8,2.1c-2,1.1-7.7,5.1-9.6,8.8
		C1644.9,897.6,1647,900.1,1647.2,901.4z"/>
	<path fill="#8A7313" d="M1699.5,877.7l2-9.3c0-0.4,2.7-11.1-6.4-6.9c-18.5,8.4-1.3,42.2,3.1,18.7
		C1698.6,878.5,1699.2,879.1,1699.5,877.7z"/>
	<path fill="#8A7313" d="M1715.7,900.1c-12.1-6.8-26.7,4.6-23.6,14.4C1700.5,918.4,1719.2,911.9,1715.7,900.1z"/>
	<path fill="#8A7313" d="M1696.5,923.3h-3.9l-0.5,1.1c-1.4,3.1-4.6,7.2-3.2,10.6c7,1.1,11.7,0.2,14-5.8
		C1706.5,919.8,1700.6,919.2,1696.5,923.3z"/>
	<path fill="#8A7313" d="M1663.1,944.4l-2.5-6.3c-21-4.5-14.7,32.8-5.8,28.1C1662.9,961.9,1665.1,948.9,1663.1,944.4z"/>
	<path fill="#8A7313" d="M1639.3,930l0.3-8.4c-22.4-5.4-37.2,34.6-6,16.2C1637.5,934.1,1637.4,934,1639.3,930z"/>
	<path fill="#8A7313" d="M1574,907.7l-7.7-1.7c-8-5.7-13.3,2.1-12.2,13.3c2.6,26.2,38.5,12.7,23-9.8
		C1576.2,908.2,1576,908.6,1574,907.7z"/>
	<path fill="#8A7313" d="M1581.8,938l-5.2-0.8c-17,10.1,4.5,17.4,10.5,9.5C1591.6,940.8,1588.4,938.9,1581.8,938z"/>
	<path fill="#8A7313" d="M1593.3,961.7l-5.2-7.2c-15.2,0-26.2,31.4-4.2,26C1592.6,978.4,1593.1,967.2,1593.3,961.7z"/>
	<path fill="#8A7313" d="M1559,964.7l-11.9-7.2c-13.7,1-10.2,21.4,0.8,22.8c1.7,0.2,8.6,1.4,9.4-0.8
		C1561.2,978.9,1559,966.2,1559,964.7z"/>
	<path fill="#8A7313" d="M1619.9,987c-12.8-0.9-19.9-3.5-20.6,6.3c-0.2,3.5-1,7.1,0.9,10.1C1616.1,1009.7,1632,996.6,1619.9,987z"/>
	<path fill="#8A7313" d="M1510.5,987.9l-9.9-0.4c-1.7-0.4-1-0.3-2.3-0.5c-7.7,5,2.7,16,13.5,11.1
		C1517.2,995.6,1516.4,989.9,1510.5,987.9z"/>
	<path fill="#8A7313" d="M1546,998.4c-8.1,4.8-11.9,23.8-3.2,24.9C1560.4,1025.5,1557.2,991.7,1546,998.4z"/>
	<path fill="#8A7313" d="M1577.5,1024.1l-4.5,3c-19.9,14.3,9.4,36.9,9.2,6C1582.1,1029.4,1577.6,1024.6,1577.5,1024.1z"/>
	<path fill="#8A7313" d="M1532.6,1026.7l-10.3-4.6c-11.1-3.9-24.2-6.2-17.9,8C1509.4,1041.1,1537.3,1042.4,1532.6,1026.7z"/>
	<path fill="#8A7313" d="M1580.4,1000.6l-3.3-4.1c-2.5-0.8-1.1-2.6-8.4-3.6c-8.7-1.3-6.2,8.6-2.5,11.9c4,3.5,13.2,4.9,13.7-1.7
		C1579.9,1002.6,1580.2,1001,1580.4,1000.6z"/>
	<path fill="#8A7313" d="M1606,1033.9l-0.3,0.8c-11.3-2-27.9,19.8-13.8,19.2C1600.4,1053.6,1615.2,1038.9,1606,1033.9z"/>
	<path fill="#8A7313" d="M1656.9,1011.6c-9.6-1.9-33.1,16.5-21.1,21.8c5.9,2.6,19.2-5.1,21.8-10.7
		C1659.4,1018.9,1662.9,1012.8,1656.9,1011.6z"/>
	<path fill="#8A7313" d="M1688.3,967.3c-2.3,0.2-4.3,2.1-5.8,5.2c-3.1,6.3-9,18.8,1,22.7l0.8,0.3c11.9,4.6,12-13.4,12.6-18.7
		C1697.4,972.6,1698,966.3,1688.3,967.3z"/>
	<path fill="#8A7313" d="M1721.6,967.1c-2.1,1.1-7.5,1-12.6,6.1c-14.6,14.6,16.1,12.6,19-0.4
		C1728.7,969.4,1724.7,965.5,1721.6,967.1z"/>
	<path fill="#8A7313" d="M1684,1029.5l-3.7-4c-7.2-1.8-13.5-2.6-20.6,1c-6.6,3.4-8.3,12.2,4.5,13.9c7.4,0.9,23.7,1.4,22.3-7.8
		C1686.2,1031.3,1685.1,1030.4,1684,1029.5z"/>
	<path fill="#8A7313" d="M1722.6,1021.1l-6-2c-6.1-1.7-20.5,10.8-10.5,14.2c4.3,1.5,13.3,0.5,15.8-4.7
		C1722.7,1026.6,1725.5,1022.4,1722.6,1021.1z"/>
	<path fill="#8A7313" d="M1691.2,1031.3c-5.3,0.2-11.5,31.8,4.4,20.3C1700.5,1048,1695.8,1031.1,1691.2,1031.3z"/>
	<path fill="#8A7313" d="M1674.6,1063.1h-1.5c-3.3-6.6-21.3-10.4-18.7-0.1c0.8,3.3,11.1,14.9,18.6,13
		C1679.2,1074.4,1679.1,1065.7,1674.6,1063.1z"/>
	<path fill="#8A7313" d="M1716.7,1057.3c1.1,4.9,16.6,0.6,17.2-6.5C1734.7,1040.3,1715,1049.9,1716.7,1057.3z"/>
	<path fill="#8A7313" d="M1664.5,1091.5l-5.2-4.9c-2-1.1-4.2-3.5-6.9-3.3c-2.9,0.2-11.4,0.7-5.7,6.1c0.9,0.8,2.8,2.2,5.1,3.4h12.5
		C1664.4,1092.3,1664.5,1091.9,1664.5,1091.5z"/>
	<path id="_x39_" fill="#62676A" d="M595.7,103.5c2.9-0.4,17.2,3.2,19,11.9c0.1,0.5,0.6,1.5,1.6,1.6c4.7-5.1,9.5,1.1,5.9,3.6
		c1.6,4,6.5-5.3,15.4,5.9c0.7,0.8,2.3,2.9,2.4,3.9c0.8,3.6-14.8-7-21.5-4.8c-1.6,0.4-4.5,2.1-4.1,2.5c-1.5-0.3-7.4-1.6-7.8-3.1
		c-0.6-0.2-0.7,0.1-0.8-1.6c0.9-0.2,2.7-0.8,3.6-1.1C610.6,114,591.9,105.4,595.7,103.5z"/>
	<path fill="#5C5E45" d="M1269.9,171.5c0.3,0.3-1-1.2-2.3-1.8c-2.2-0.9-4.5-0.5-5.9,0.7c-2.9,2.6-0.3,4.5,2,4.9s1.6,2.6-1.9,3.3
		c-9.5,2-4.1,2.5-11.7,9.2l-0.2,0.2c-1.2,1.1-2.2,3-3.9,3.7c-4.1,1.7-4.6,4.5,1.9,5.4c2.7,0.4,5.3-0.3,7.9-1.2
		c1.5-0.5,10.3-5.6,11.4-7.2c0.6-0.9,4.6-3.3,6-3.8c2.2-0.7,4-2.3,5,0.1l0.2,0.5c1.5,3.4,0.8,7.3,1.5,8.9c2.7-0.7,5-0.8,5.2-3.4
		c0.1-0.8,5.3-1.1,5.5-3.8c0-0.1,1.1-1.1,1.3-1.5c0.6-1.8,0.8-4.1-1.3-4.4c-2-0.2-4.1,0.6-6-0.3c-0.8-0.2-1.3-1.1-1.5-1.9
		c-0.9-2.9,1.5-6.7,4-8.4c0.2-0.1,0.9-0.7,0.9-0.7c1.2-4.8-1.7-1.5,2.9-4.8l0.1-0.2c0.3-0.5,1.7-3.2,2.6-4.1c1.7-1.7,2-23.6-6.3-8
		c-1.6,3.1-4.2,5.7-5.4,6.3c-2.4,1.2-4.3,4.7-7.1,5.6C1271.5,165.8,1269.9,168.4,1269.9,171.5z"/>
</g>
</svg>
