<?xml version="1.0" encoding="utf-8"?>
<!-- Generator: Adobe Illustrator 21.1.0, SVG Export Plug-In . SVG Version: 6.00 Build 0)  -->
<svg version="1.1" id="bac1" xmlns="http://www.w3.org/2000/svg" xmlns:xlink="http://www.w3.org/1999/xlink" x="0px" y="0px"
	 viewBox="0 0 1920 1080" enable-background="new 0 0 1920 1080" xml:space="preserve">
<g>
	<rect id="_x30_" x="2.1" fill="#F5EFE5" width="1920" height="1059.5"/>
	<polygon id="_x31_" fill="#F7DFCE" points="1922.1,552.6 1690.5,661.9 1422.3,549.2 1249.2,614.8 961.4,707.7 715.1,631.1 
		581,680.5 343.4,575.9 2.1,704.1 2.1,935.7 1922.1,935.7 	"/>
	<polygon id="_x32_" fill="#EDCCB9" points="1922.1,634.4 1684.7,564.5 1438,652.8 1146,724 905.4,612.6 662.8,724.2 119.7,583.8 
		2.1,641.3 2.1,920.5 1922.1,920.5 	"/>
	<polygon id="_x33_" fill="#F3B495" points="2.1,964.8 1922.1,964.8 1922.1,606.6 1732.5,684.1 1641.7,648 1401.9,733.8 
		1220.2,669.8 1135.1,660.7 836.3,715.3 526.8,670.7 155.7,742.5 2.1,684.1 	"/>
	<polygon id="_x34_" fill="#4D6470" points="1904.4,807.5 1904.2,806.8 1897,806.3 1903.8,805.5 1899,790.8 1893.6,790.1 
		1898.8,789.9 1893.2,772.6 1890.2,782 1892.9,782.4 1890.1,782.5 1884.6,799.6 1889.7,800.6 1884.3,800.5 1881.3,809.8 1852,812.7 
		1850.2,807 1846.2,807.2 1850,806.4 1848.1,800.2 1840.3,800.5 1847.8,799.3 1844.8,790.1 1839.9,789.6 1844.6,789.3 1838.8,771.2 
		1835.1,771.2 1838.6,770.6 1836.1,762.7 1830.8,779.1 1833.5,779.5 1830.7,779.6 1825.6,795.4 1830.3,795.9 1825.5,795.8 
		1821.2,809.1 1828.6,810.5 1820.9,810.3 1819,815.9 1709.5,826.7 1706,815.8 1702.5,815.6 1705.8,815.2 1701.9,802.8 1696.5,802.6 
		1701.6,801.9 1696.5,785.9 1689.7,807.1 1692.1,807.7 1689.5,807.7 1685.3,821.1 1693.4,822.3 1684.9,822.1 1682.6,829.4 
		1680,829.7 1679.1,826.9 1672.5,827.1 1678.8,826.1 1675.5,815.8 1673.5,815.8 1675.4,815.3 1670.1,798.9 1666.2,811.2 
		1670.1,811.8 1666,812 1662.9,821.6 1665.5,821.9 1662.8,822.1 1659.7,831.7 1584,839.2 1581.2,830.6 1575.2,830.8 1580.9,829.7 
		1574.7,810.2 1571.5,810.1 1574.6,809.7 1571.1,798.9 1564.8,818.6 1570.7,818.9 1564.5,819.6 1559.2,836.4 1566.8,837.3 
		1558.7,837.8 1557.4,841.8 1555.5,842 1554.4,838.7 1545.9,838.9 1554,837.3 1549.3,822.6 1544,822.7 1549.2,822.3 1543.6,804.8 
		1540.5,804.7 1543.4,804.2 1537.6,786 1534.8,794.8 1538.7,795.5 1534.6,795.5 1528.2,815.5 1533.4,815.8 1527.9,816.4 
		1524.7,826.6 1533,827.9 1524.4,827.5 1523,831.7 1526.8,832.4 1522.8,832.4 1518.6,845.6 1466.2,850.8 1464.9,846.9 1456.7,847.1 
		1464.6,845.9 1460.9,834.5 1458.8,834.5 1460.8,834.1 1456.8,821.6 1454.7,821.6 1456.6,821 1453.7,812 1448.9,827 1453.7,827.5 
		1448.8,827.4 1444.8,840 1450.9,840.9 1444.4,841.2 1440.5,853.3 1434.8,853.9 1431.7,843.9 1428.5,843.6 1431.5,843.3 
		1427.9,832.2 1423.1,832.1 1427.7,831.4 1423.1,817.1 1417.1,836 1419.2,836.6 1416.9,836.6 1413.1,848.6 1420.4,849.7 
		1412.8,849.5 1410.6,856.3 1377.8,859.5 1377,857 1369.4,857.2 1376.6,855.8 1372.4,842.8 1367.8,842.9 1372.3,842.5 1367.4,827 
		1364.6,826.9 1367.2,826.5 1362.1,810.4 1359.6,818.1 1363.1,818.8 1359.4,818.8 1353.8,836.5 1358.4,836.7 1353.5,837.3 
		1350.6,846.3 1358,847.5 1350.4,847.1 1349.2,850.9 1352.5,851.5 1349,851.5 1345.4,862.7 1345.1,862.7 1337.8,862.4 1334.3,851.5 
		1328.2,851.2 1334,850.4 1330.1,838.3 1325.4,838.4 1330,838 1325.4,823.7 1322.7,832.3 1324.5,832.8 1322.5,832.8 1318.7,844.8 
		1320.7,845.1 1318.6,845.1 1315.1,856 1322.6,857.1 1314.8,856.9 1313.4,861.4 1219.6,857.4 1216.3,847.2 1212.9,847.2 
		1216.1,846.7 1215,843.1 1207.8,843.4 1214.7,842.3 1212,833.7 1207.4,833.2 1211.8,833 1206.3,816.1 1202.9,816.1 1206.2,815.5 
		1203.8,808.1 1198.9,823.4 1201.4,823.8 1198.8,823.9 1194.1,838.7 1198.4,839.1 1193.9,839 1190,851.4 1196.9,852.7 1189.6,852.5 
		1188.5,856.1 1028.1,849.3 1025.3,840.8 1016,841 1025,839.7 1020.8,826.7 1018.4,826.7 1020.7,826.2 1016.1,812 1013.7,812 
		1015.9,811.4 1012.7,801 1007.2,818.2 1012.7,818.7 1007.1,818.6 1002.5,832.9 1009.4,834 1002,834.3 997.6,848 988.7,847.6 
		985.4,837.2 972.6,837.5 984.9,835.6 978.5,815.4 974.5,815.4 978.1,814.3 968,782.1 960.3,806.3 968,807.5 959.8,807.8 
		953.8,826.6 958.9,827.1 953.5,827.5 949.9,838.8 947.6,831.6 940.7,831.3 947.2,830.3 942.9,816.7 937.6,816.9 942.7,816.4 
		937.6,800.2 934.5,809.9 936.6,810.5 934.3,810.5 930,824 932.2,824.4 929.8,824.4 925.9,836.7 934.4,838 925.6,837.8 923.3,844.8 
		863.7,842.3 860.9,833.6 858.1,833.6 860.8,833.1 859.8,830.1 853.6,830.4 859.6,829.4 857.3,822.1 853.3,821.6 857,821.4 
		852.4,806.9 849.5,806.9 852.3,806.4 850.2,800.1 846.1,813.3 848.2,813.6 845.9,813.7 841.9,826.3 845.6,826.6 841.8,826.6 
		838.4,837.2 844.3,838.3 838.1,838.1 837.1,841.2 822.3,840.6 818,827.1 810.3,826.8 817.5,825.8 812.7,810.6 806.8,810.8 
		812.6,810.2 806.8,792.2 803.4,803.1 805.7,803.7 803.1,803.7 798.4,818.7 800.8,819.1 798.2,819.1 793.9,832.8 803.3,834.2 
		793.5,834 791.8,839.3 776.5,838.7 774.9,833.6 764.4,832.9 774.3,831.8 767.4,810.2 759.5,809.3 767,808.9 758.9,783.7 
		754.5,797.4 758.4,798 754.3,798.2 746.3,823.1 753.7,824.6 745.9,824.4 741.8,837.2 694.4,835.2 689.4,819.4 685,819.1 
		689.1,818.7 684.2,803.2 677.5,803 683.8,802 677.5,782.2 669.1,808.5 672.1,809.4 668.8,809.4 663.5,826 673.7,827.5 663.1,827.3 
		661,833.8 651.3,833.4 648.7,825.4 646.1,825.4 648.6,825 647.7,822.1 642,822.4 647.5,821.5 645.3,814.7 641.7,814.2 645.1,814.1 
		640.8,800.6 638.1,800.6 640.7,800.2 638.8,794.3 634.9,806.5 636.9,806.8 634.8,806.9 631.1,818.6 634.5,818.9 631,818.8 
		627.8,828.7 633.3,829.8 627.5,829.6 626.7,832.3 431.2,824 430.2,820.8 422.6,821 429.8,819.6 425.7,806.6 421,806.7 425.6,806.2 
		420.6,790.7 417.8,790.6 420.5,790.2 415.3,774.1 412.9,781.9 416.3,782.5 412.7,782.5 407,800.3 411.6,800.5 406.7,801.1 
		403.9,810 411.2,811.2 403.6,810.9 401.6,817 405.4,817.8 401.5,817.6 399.8,822.7 391.2,822.3 390.4,819.7 381.9,819.1 
		389.9,818.2 384.3,800.6 377.9,799.9 383.9,799.6 377.4,779 373.8,790.2 377,790.7 373.6,790.8 368.8,805.9 368.3,804.5 
		359.2,804.8 367.9,803.1 358.6,774 353.7,773.8 358.3,773.1 353.2,757 343.7,786.5 352.5,786.9 343.3,788 335.2,813.2 346.7,814.5 
		334.5,815.4 333.1,819.8 311.8,818.9 329.3,818.9 325.1,805.8 312.1,806.1 324.6,804.2 318.1,783.9 314.1,783.9 317.8,782.8 
		307.5,750.6 299.7,774.9 307.5,776 299.2,776.3 293.2,795.2 298.3,795.8 292.9,796.2 286,817.5 283.9,810.9 280.3,810.9 
		283.7,810.3 282.5,806.5 274.6,806.8 282.2,805.6 279.2,796.2 274.2,795.7 279,795.4 273.1,777 269.3,777 272.9,776.4 270.3,768.3 
		265,785 267.7,785.4 264.8,785.6 260.8,798.1 259.6,794.2 248.2,793.8 258.9,792.2 251.8,769.8 243.1,770 251.6,769.2 243.1,742.6 
		238,758.6 241.4,759.6 237.7,759.6 230.6,781.8 234.2,782.4 230.4,782.4 223.9,802.6 237.8,804.7 223.4,804.4 220,815 215.9,814.8 
		214,808.9 206.1,809.1 213.7,807.9 209.7,795.6 207.3,795.6 209.5,794.9 203.2,775.3 198.5,790.1 203.2,790.8 198.2,791 196.6,796 
		192.2,795.7 196.7,795.2 191.4,778.8 184.3,778.5 191,777.5 184.3,756.4 175.3,784.4 178.5,785.3 175.1,785.3 172.2,794.3 
		172.2,794.2 162,794.7 171.8,793.1 168,781 161.5,780.3 167.7,780 160.1,756.2 155.2,756.2 159.8,755.3 156.5,745 149.6,766.6 
		153.2,767.1 149.4,767.2 142.8,788 148.9,788.6 142.6,788.4 137.1,805.9 146.8,807.8 136.6,807.5 135.3,811.4 83.5,809.2 
		78.7,794.4 71.6,794.1 78.3,793.1 73.9,779.2 68.5,779.3 73.8,778.8 68.5,762.3 65.3,772.3 67.4,772.9 65.1,772.9 60.7,786.7 
		62.9,787.1 60.6,787.1 57.1,797.7 54.4,789 52,789 54.2,788.4 48,769.2 43.4,783.7 48,784.4 43.1,784.5 39.6,795.8 42.6,796.1 
		39.4,796.4 38.5,799.2 37.7,796.7 34.7,796.5 37.5,796.2 34.2,785.8 29.7,785.6 33.9,785 29.7,771.6 24,789.4 26,790 23.8,790 
		20.2,801.2 27.1,802.2 20,802 18.6,806.5 2.1,805.8 2.1,1059.5 1922.1,1059.5 1922.1,805.8 	"/>
	<polygon fill="#4D6470" points="373.2,812.3 370.8,812.2 370.7,811.8 	"/>
	<polygon fill="#4D6470" points="264.5,802.1 262.2,802.1 262.1,801.9 	"/>
	<polygon fill="#4D6470" points="180.3,804.6 175.5,804.5 175.3,803.8 	"/>
	<polygon fill="#4D6470" points="170.5,799.8 170.4,800 169.3,800 	"/>
	<polygon fill="#4D6470" points="65.2,800.9 58.1,800.7 57.8,799.8 	"/>
	<polygon fill="#4D6470" points="56,801.4 55.8,802.1 50.9,802.2 	"/>
	<polygon id="_x35_" fill="#204253" points="1828.8,854 1814.5,809.1 1797.6,807.1 1813.6,806.3 1796.3,752.3 1786.9,781.8 
		1795.3,783.1 1786.4,783.4 1769.4,836.7 1785.2,839.8 1768.5,839.4 1762.1,859.6 1665.2,867.7 1649.2,868.1 1667.3,864.6 
		1656.9,832.1 1645.2,832.4 1656.6,831.3 1644.3,792.6 1637.3,792.4 1643.9,791.4 1631.1,751.2 1624.9,770.5 1633.5,772 1624.4,772 
		1610.2,816.4 1621.7,817 1609.6,818.4 1602.4,840.8 1620.7,843.8 1601.8,842.9 1596.9,858.1 1606.3,860.1 1596.4,859.6 
		1591.9,873.8 1532.4,878.8 1525.3,856.5 1507.9,857 1524.5,853.8 1506.7,798.2 1497.5,797.9 1506.2,796.6 1496.4,765.8 
		1478.4,822.1 1495.1,822.9 1477.5,825 1462.1,873.1 1484,875.6 1460.8,877.2 1458.3,885 1440.1,886.5 1154.1,892.3 1145.8,866.2 
		1136.4,865.5 1145.3,864.5 1134.8,831.6 1120.4,831 1134,829 1120.4,786.6 1102.4,842.9 1108.8,844.7 1101.9,844.7 1090.5,880.2 
		1112.2,883.4 1089.6,882.9 1086.2,893.6 861.7,898.1 854.8,876.6 847.3,876.6 854.4,875.4 851.8,867.4 835.7,868.1 851.3,865.6 
		845.2,846.4 834.8,845.2 844.6,844.8 832.5,807 824.8,807 832.1,805.7 826.8,789.2 815.9,823.5 821.5,824.3 815.5,824.6 805,857.6 
		814.8,858.5 804.8,858.3 795.9,886 811.3,889 795.1,888.6 792.2,897.6 755.7,895.2 744.7,860.7 725.4,860 743.6,857.2 731.5,819.4 
		716.8,819.7 731.1,818.3 716.8,773.3 708.1,800.4 713.9,802.1 707.6,802.1 695.6,839.6 701.7,840.7 695.3,840.7 684.3,874.9 
		707.9,878.4 683.4,877.9 679.4,890.3 434.6,874.4 429.4,857.9 404.8,858.5 428.4,855 416.1,816.4 408.6,816.4 415.5,814.5 
		396,753.3 381.3,799.3 396,801.5 380.4,802.1 372.7,826.3 371.5,822.6 365.2,822.6 371,821 354.6,769.9 342.4,808.4 354.6,810.3 
		341.6,810.7 332.1,840.6 340.1,841.5 331.6,842.1 323.6,867.1 2.1,846.2 2.1,1059.5 1922.1,1059.5 1922.1,846.2 	"/>
	<polygon fill="#204253" points="362.6,857.7 362.6,857.7 362.1,857.8 	"/>
	<polygon id="_x36_" fill="#172D3C" points="1922.1,1046.9 1922.1,905.9 1820,914.5 1813.6,894.5 1794,895.4 1812.7,891.6 
		1803,861.2 1765.2,862.9 1801.6,857 1787.4,812.3 1763.2,809.5 1786.1,808.4 1757.9,720 1739.8,720 1756.9,716.9 1744.6,678.4 
		1719,758.5 1732.1,760.5 1718.2,761 1693.6,838 1716.4,840.2 1693.1,839.7 1672.4,904.5 1708.4,911.5 1670.5,910.4 1665,927.6 
		1333.5,955.5 1323.4,923.9 1269.2,925.1 1322,920.2 1294.1,832.2 1277.5,832.2 1292.7,827.9 1249.6,693.1 1217.2,794.7 
		1249.6,799.5 1215.3,800.8 1190.1,879.7 1211.3,882.1 1188.8,883.7 1164.2,960.5 1071,956.7 1065.2,938.5 1020.6,935.3 
		1062.7,930.5 1033.2,838.2 999.4,834.3 1031.4,832.7 996.9,724.7 978.1,783.7 994.8,786.2 977.1,786.8 943,893.5 974.7,899.7 
		941.3,898.8 924.7,950.8 667,940.4 647.2,878.4 608.7,879.5 645.3,872.3 606,749.2 585.6,748.5 604.9,745.6 583.1,677.5 
		543.3,802.2 580.3,804 541.3,808.5 538.2,818.2 523.7,772.7 490.8,773.3 522.9,770.3 490.8,669.8 470.8,732.6 479.4,734.3 
		470.3,734 446.7,807.9 471,810.5 446,810.3 418.4,896.6 471,904.5 416.3,903.3 407.7,930.1 396,929.6 220.4,937.4 193.9,854.7 
		143.1,852.8 191,845.6 159.2,746 120.4,746.7 158.3,743.1 120.4,624.5 97.6,695.9 112.9,700.3 96.2,700.3 64.6,799.2 80.7,802 
		63.7,802 34.9,892.2 97,901.5 32.4,900.1 17.6,946.5 2.1,947.2 2.1,1046.9 -7.2,1046.9 -7.2,1094.3 1931.6,1094.3 1931.6,1046.9 
		1922.1,1046.9 	"/>
	<polygon fill="#172D3C" points="564.2,895.5 562.9,895.6 562.8,895.4 	"/>
</g>
</svg>
