<?xml version="1.0" encoding="utf-8"?>
<!-- Generator: Adobe Illustrator 24.0.2, SVG Export Plug-In . SVG Version: 6.00 Build 0)  -->
<svg version="1.1" id="bac1" xmlns="http://www.w3.org/2000/svg" xmlns:xlink="http://www.w3.org/1999/xlink" x="0px" y="0px"
	 viewBox="0 0 1920 1080" enable-background="new 0 0 1920 1080" xml:space="preserve">
<rect id="_x30_" x="-2.4" y="-1.2" fill="#4574E5" width="1930.5" height="1081.2"/>
<polygon id="_x31_" fill="#455EC7" points="-2.4,505.3 -2.4,-1.2 1415.6,123.6 1814.1,220.8 563.3,344.5 "/>
<polygon fill="#455EC7" points="1928.1,855.8 1928.1,262.8 1021.5,402.9 42,676.6 866,620.4 "/>
<polygon id="_x32_" fill="#5888E8" points="-2.4,14.3 718.6,21.8 1078.6,74.4 1590.6,48.7 1042.5,134.6 644.9,74.4 -2.4,107.1 "/>
<polygon fill="#5888E8" points="1928.1,74.4 1406,158.6 853.7,194.7 651,134.6 172.8,234.2 984,239.4 1415.2,220.9 1928.1,156.1 "/>
<polygon fill="#637FDB" points="1928.1,272.6 1526.7,332 1036.4,303 265.7,325.1 1076.8,347.2 1589.5,367.2 1928.1,386.5 "/>
<polygon fill="#637FDB" points="-2.4,508.2 829.6,492.1 864.6,464.9 1460.3,434.7 840.2,420.5 793.4,442.5 -2.4,397.7 "/>
<polygon fill="#4867B7" points="-2.4,515.2 214.4,551.4 414.3,515.2 588.8,538.1 414.3,547.1 196.8,592.4 -2.4,566.3 "/>
<polygon fill="#4867B7" points="1928.1,500 1589.4,548.5 1362.4,543 1623.9,604 1928.1,598 "/>
<polygon fill="#3552AF" points="-2.4,602.1 195.8,623.4 450.1,552 700.5,556.1 454.8,600.3 193.5,693.1 -2.4,694.9 "/>
<polygon fill="#4867B7" points="1928.1,398.1 1751.4,400.7 1082,315.1 1757.4,472.6 1928.1,473.8 "/>
<polygon fill="#3552AF" points="1928.1,602.1 1928.1,665.3 755.8,612.1 "/>
<polygon fill="#637FDB" points="-2.4,255.3 -2.4,338.3 492.3,395.2 "/>
<path id="_x33_" fill="#68F6FF" d="M1240.2,128.9c9.6,0,9.6,14.8,0,14.8C1230.7,143.7,1230.7,128.9,1240.2,128.9z"/>
<path fill="#68F6FF" d="M203.8,468.7c8.9,0,8.9,13.8,0,13.8C194.9,482.5,194.9,468.7,203.8,468.7z"/>
<path fill="#68F6FF" d="M1740.4,454.8c4.7,0,4.7,7.3,0,7.3C1735.8,462,1735.8,454.8,1740.4,454.8z"/>
<path fill="#68F6FF" d="M1701.1,161.7c3.9,0,3.9,6.1,0,6.1C1697.2,167.8,1697.2,161.7,1701.1,161.7z"/>
<path fill="#68F6FF" d="M1438.8,98.7c6.5,0,6.5,10.1,0,10.1C1432.3,108.8,1432.3,98.7,1438.8,98.7z"/>
<path fill="#68F6FF" d="M1679.9,376.9c6.5,0,6.5,10.1,0,10.1C1673.4,387,1673.4,376.9,1679.9,376.9z"/>
<path fill="#68F6FF" d="M1456.5,328.8c7.2,0,7.2,11.1,0,11.1C1449.3,339.8,1449.3,328.8,1456.5,328.8z"/>
<path fill="#68F6FF" d="M1647.2,508.7c8.6,0,8.6,13.3,0,13.3C1638.7,522,1638.7,508.7,1647.2,508.7z"/>
<path fill="#68F6FF" d="M1860,569.9c5.7,0,5.7,8.8,0,8.8C1854.4,578.7,1854.4,569.9,1860,569.9z"/>
<path fill="#68F6FF" d="M1826.5,239.3c7.4,0,7.4,11.6,0,11.6C1819.1,250.9,1819.1,239.3,1826.5,239.3z"/>
<path fill="#68F6FF" d="M1685.7,49.3c7.1,0,7.1,11,0,11C1678.7,60.3,1678.7,49.3,1685.7,49.3z"/>
<path fill="#68F6FF" d="M1303.3,50.7c9.8,0,9.8,15.1,0,15.1C1293.5,65.9,1293.5,50.7,1303.3,50.7z"/>
<path fill="#68F6FF" d="M1030.4,56.4c7,0,7,10.9,0,10.9C1023.4,67.3,1023.4,56.4,1030.4,56.4z"/>
<path fill="#68F6FF" d="M819.3,14.8c8.3,0,8.3,12.9,0,12.9C811,27.6,811,14.8,819.3,14.8z"/>
<path fill="#68F6FF" d="M1042.4,263.7c7.3,0,7.3,11.3,0,11.3C1035.1,274.9,1035.1,263.7,1042.4,263.7z"/>
<path fill="#68F6FF" d="M1242.6,218.2c7.7,0,7.7,11.9,0,11.9C1234.9,230.1,1234.9,218.2,1242.6,218.2z"/>
<path fill="#68F6FF" d="M890.5,123.5c5.5,0,5.5,8.5,0,8.5C885,132,885,123.5,890.5,123.5z"/>
<path fill="#68F6FF" d="M597.7,236.3c7,0,7,10.8,0,10.8C590.7,247.1,590.7,236.3,597.7,236.3z"/>
<path fill="#68F6FF" d="M315.5,125.1c6.8,0,6.8,10.6,0,10.6C308.7,135.7,308.7,125.1,315.5,125.1z"/>
<path fill="#68F6FF" d="M62.5,239.6c7.7,0,7.7,12,0,12C54.7,251.6,54.7,239.6,62.5,239.6z"/>
<path fill="#68F6FF" d="M221.4,583.7c4.8,0,4.8,7.4,0,7.4C216.7,591.1,216.7,583.7,221.4,583.7z"/>
<path fill="#68F6FF" d="M63.7,434.6c8.3,0,8.3,12.8,0,12.8C55.4,447.4,55.4,434.6,63.7,434.6z"/>
<path fill="#68F6FF" d="M932.4,262.2c5.1,0,5.1,7.9,0,7.9S927.4,262.2,932.4,262.2z"/>
<path fill="#68F6FF" d="M91.2,52.2c6.9,0,6.9,10.7,0,10.7C84.4,62.9,84.4,52.2,91.2,52.2z"/>
<path fill="#68F6FF" d="M1298.3,304.5c6.4,0,6.4,9.9,0,9.9C1291.9,314.3,1291.9,304.5,1298.3,304.5z"/>
<path fill="#68F6FF" d="M1707.3,591.5c7.6,0,7.6,11.9,0,11.9S1699.6,591.5,1707.3,591.5z"/>
<path fill="#68F6FF" d="M492,76.7c4.3,0,4.3,6.6,0,6.6S487.7,76.7,492,76.7z"/>
<path fill="#68F6FF" d="M475,382.8c8.7,0,8.7,13.5,0,13.5C466.4,396.3,466.4,382.8,475,382.8z"/>
<path fill="#68F6FF" d="M1327.2,423.9c8.8,0,8.8,13.6,0,13.6C1318.4,437.6,1318.4,423.9,1327.2,423.9z"/>
<path fill="#68F6FF" d="M1523.1,435.5c6,0,6,9.3,0,9.3S1517.1,435.5,1523.1,435.5z"/>
<path fill="#68F6FF" d="M1346.6,575.2c8.6,0,8.6,13.3,0,13.3C1338,588.5,1338,575.2,1346.6,575.2z"/>
<path fill="#68F6FF" d="M1024.7,673.8c6.2,0,6.2,9.7,0,9.7C1018.4,683.4,1018.4,673.8,1024.7,673.8z"/>
<path fill="#68F6FF" d="M841.8,595.5c8,0,8,12.4,0,12.4C833.8,608,833.8,595.5,841.8,595.5z"/>
<path fill="#68F6FF" d="M1072.4,576.3c5.5,0,5.5,8.5,0,8.5C1066.9,584.8,1066.9,576.3,1072.4,576.3z"/>
<path fill="#68F6FF" d="M1892.5,429.7c6.8,0,6.8,10.5,0,10.5S1885.7,429.7,1892.5,429.7z"/>
<path fill="#68F6FF" d="M389.1,558.9c8.9,0,8.9,13.8,0,13.8C380.3,572.7,380.3,558.9,389.1,558.9z"/>
<path fill="#68F6FF" d="M335.4,630.7c7.3,0,7.3,11.3,0,11.3S328.1,630.7,335.4,630.7z"/>
<path fill="#68F6FF" d="M779.2,638.7c3.8,0,3.8,5.8,0,5.8C775.4,644.6,775.4,638.7,779.2,638.7z"/>
<path fill="#68F6FF" d="M727.5,294.6c5,0,5,7.8,0,7.8C722.5,302.4,722.5,294.6,727.5,294.6z"/>
<path fill="#68F6FF" d="M709,94.3c7.2,0,7.2,11.1,0,11.1C701.8,105.3,701.8,94.3,709,94.3z"/>
<path fill="#68F6FF" d="M590.2,484.7c7.5,0,7.5,11.7,0,11.7C582.6,496.4,582.6,484.7,590.2,484.7z"/>
<path fill="#68F6FF" d="M363.2,432.1c7.1,0,7.1,11,0,11S356.1,432.1,363.2,432.1z"/>
<path fill="#68F6FF" d="M148.6,348.6c7.2,0,7.2,11.1,0,11.1C141.4,359.7,141.4,348.6,148.6,348.6z"/>
<path fill="#68F6FF" d="M192.3,164.3c7.4,0,7.4,11.5,0,11.5C184.9,175.7,184.9,164.3,192.3,164.3z"/>
<path fill="#68F6FF" d="M252.1,264.8c8.1,0,8.1,12.6,0,12.6C244,277.3,244,264.8,252.1,264.8z"/>
<path fill="#FFFFFF" d="M1883.8,114.6c0,0-1120.5,77.5-1121,77.5c-6.7,0.5-9.8,2.5-9.6,4.6s3.5,3.6,10.2,3.1
	C763.9,199.8,1883.8,114.6,1883.8,114.6z"/>
<path fill="#FFFFFF" d="M1859.8,419.5c0,0-614.2,117.5-614.6,117.6c-5,1-7.2,2.8-6.9,4.4s3,2.4,8,1.4
	C1246.7,542.8,1859.8,419.5,1859.8,419.5z"/>
<circle fill="#FFFFFF" cx="383.3" cy="257.7" r="62.9"/>
<polygon fill="#F1F2F2" points="381.3,305.6 375.7,314 341.7,298.8 329,279.3 326.3,254.4 335.2,274.8 346.7,263.5 357,268.6 
	354.6,289 370,293.1 "/>
<polygon fill="#F1F2F2" points="407,298.9 376.1,289.1 374.1,275.5 366.3,263.2 355,252.5 354.7,239.4 372.7,232 401.7,268.6 "/>
<polygon fill="#F1F2F2" points="351.2,217.9 378.3,202.5 405.3,212.8 398.4,232.9 382.3,220.1 "/>
<polygon fill="#F1F2F2" points="418.9,221.9 404.6,240.4 408.2,266.3 422.4,277.2 435.9,247.7 429.7,226.3 "/>
<polygon id="_x34_" fill="#0C3E87" points="1928.1,867.9 -2.4,867.9 -2.4,626.6 118.8,678.3 271.1,647.7 948.1,712.8 1582.3,624.5 
	1928.1,663.3 "/>
<polygon id="_x35_" fill="#0A3477" points="-2.4,851.5 1928.1,851.5 1928.1,705.5 1500,743.1 1440.8,739 1182.6,725.5 780.5,757.1 
	613.7,751.2 499.3,727.4 -2.4,729.2 "/>
<polygon id="_x36_" fill="#062266" points="1928.1,963.9 -2.4,963.9 -2.4,766.3 267.8,738.6 419.6,779.7 717.3,763.6 801.1,785.9 
	1353.5,761.3 1589.8,765.4 1928.1,692.4 "/>
<polygon fill="#1F3A8A" points="1415.2,745.5 1364.7,741.9 1364.7,744.4 1364.7,746.8 1364.8,823.6 1375.8,826.1 1394.6,830.3 
	1411.9,834.1 "/>
<polygon fill="#04255B" points="1540.2,738.3 1411.7,747.5 1411.7,751 1411.9,834.1 1540.8,828.3 1540.3,756.1 "/>
<polygon fill="#0E0C47" points="1540.2,738.3 1411.7,747.5 1411.7,751 1494.8,751.9 1525.8,755.1 1540.3,756.1 "/>
<polygon fill="#19357C" points="1361.4,740.9 1373.1,709 1386.8,679.9 1390.4,685.3 1405.6,711.1 1411.7,747.5 1370.4,744.6 
	1362.1,744.3 "/>
<polygon fill="#0E0C47" points="1393.7,829.6 1379.6,826.6 1377.6,826.1 1377.6,768.8 1382.4,769.3 1393.7,770.5 "/>
<polygon fill="#0D0B40" points="1382.4,769.3 1377.6,768.8 1377.6,826.1 1379.6,826.6 1378.8,787.9 1378.7,781.2 1380.1,771.4 "/>
<polygon fill="#0E0C47" points="1392.7,726.8 1384,726.2 1381.9,726.1 1381.8,713.1 1386.6,713.2 1392.6,713.1 "/>
<polygon points="1386.6,713.2 1381.8,713.1 1381.9,726.1 1384,726.2 1383.3,715.8 "/>
<polygon fill="#0E0C47" points="1360.1,740.2 1362,744.8 1364.7,746.8 1364.7,744.4 1363.2,740 1373.9,709.4 1389.7,684 
	1385.4,676.3 1369.9,708.4 "/>
<polygon fill="#0E0C47" points="1517.5,677.2 1385.4,676.3 1389,686.7 1402.7,712.5 1409.7,749 1412.8,750.3 1543.3,746.5 
	1545,744.4 1534.5,706.1 1521.4,679.9 "/>
<path fill="#FFFFFF" d="M1463.8,773.2l-25.4,0.7l-0.3,25.3c1.4,0,24.7-0.8,25.4-0.7L1463.8,773.2z"/>
<polygon fill="#CCCCCC" points="1463.8,773.2 1458.2,773.4 1460.7,776.8 1462.3,793.6 1461,798.6 1463.5,798.6 "/>
<polygon fill="#FFFFFF" points="1519.2,770.2 1513,770.3 1493.8,770.9 1493.6,796.3 1515.1,795.6 1518.9,795.5 "/>
<polygon fill="#CCCCCC" points="1519.2,770.2 1513,770.3 1515.9,773.1 1517,786.4 1515.1,795.6 1518.9,795.5 "/>
<polygon fill="#2B242D" points="1394.6,830.3 1375.8,826.1 1375.8,825.5 1376.2,825.2 1394.2,829.1 1394.6,829.5 "/>
<path fill="#0E0C47" d="M1483,668.4v3.7h-1.8V683h7.5v-10.9h-1.8v-3.7c1.5,0,2.5-0.1,2.5-0.4c0-0.3-1.9-0.5-4.3-0.5
	s-4.3,0.2-4.3,0.5C1480.7,668.3,1481.7,668.4,1483,668.4z M1483.5,668.5c0.5,0,1,0,1.6,0c0.5,0,0.9,0,1.4,0v3.6h-2.9L1483.5,668.5
	L1483.5,668.5z"/>
<polygon id="_x37_" fill="#031A49" points="-2.4,963.9 1928.1,963.9 1928.1,804.5 1655.9,784.2 1531.2,843.3 1206.3,804.5 
	1122.6,820.9 613.9,792.3 331.8,847.4 -2.4,798.2 "/>
<polygon id="_x38_" fill="#011333" points="1928.1,1005.3 -2.4,1005.3 -2.4,843.6 335.8,875.8 623.2,825.5 777.2,837.7 943.3,900.1 
	1249.8,848.1 1437.9,827.3 1463.3,824.4 1493.7,821.5 1518.9,820 1593.9,812.4 1766.4,859.5 1928.1,841.1 "/>
<polygon fill="#273967" points="1518.9,795.5 1518.9,818.3 1621.6,869 1575.6,870.1 1493.7,819.6 1493.6,796.3 1515.1,795.6 "/>
<polygon fill="#273967" points="1463.3,798.5 1463.3,821.8 1538.6,872.9 1504.9,874.1 1437.9,824.1 1437.9,799.2 1459.5,798.6 "/>
<polygon id="_x39_" fill="#000A19" points="-2.4,963.9 1928.1,963.9 1928.1,900.5 1714.3,859.5 1393.7,871.7 1187.3,908.5 
	895.6,859.5 749.9,899 555.9,877.8 331.8,930.9 -2.4,884 "/>
<path id="_x31_0" fill="#243493" d="M1911.2,913.3c-14.4,0-26.6,13.1-30.6,31.2c-20.7-13.1-43.7-20.4-68-20.4
	c-8.7,0-17.2,0.9-25.5,2.7c-10.2-27.8-31.2-46.8-55.3-46.8c-25.8,0-47.9,21.7-57.2,52.5c-4.6-2.8-9.5-4.9-14.7-6.1
	c0-0.7,0-1.5,0-2.3c0-24.4-14.3-44.1-32-44.1c-14.5,0-26.8,13.3-30.7,31.6c-10.8-12.7-24.8-20.3-40.1-20.3
	c-24.6,0-45.8,19.7-55.8,48.2c-10-9.1-22-14.4-34.8-14.4c-21.6,0-40.7,14.9-52.1,37.7c-10.2-9.6-22.4-15.2-35.7-15.2
	c-27.5,0-50.8,24.1-59.6,57.8c-2.6,1.2-5.2,2.4-7.8,3.8c-19.3-45.8-55.2-76.5-96.4-76.5c-28.1,0-53.7,14.3-73.3,37.9
	c-7.2-13-15.4-24.8-24.4-35.3c7.9-8,12.9-20.9,12.9-35.5c0-24.4-14.3-44.1-32-44.1c-0.6,0-1.1,0-1.6,0
	c-8.6-32.9-31.5-56.4-58.3-56.4c-34.2,0-62,38.2-62,85.4c0,0.8,0,1.7,0,2.5c-9.2,2.8-18,6.6-26.6,11.5c-6.8-20.3-21.7-34.4-39-34.4
	c-23.4,0-42.4,25.8-42.9,57.8c-3.1-0.5-6.2-0.7-9.4-0.7c-43.5,0-79.5,44-85.8,101.4c-10.1-16-25-26.2-41.6-26.2
	c-30.5,0-55.2,34-55.2,76c0,0.3,0,0.6,0,0.9c-1.4-0.1-2.9-0.1-4.3-0.1c-11.3,0-22.1,2.3-32.4,6.6c-4.6-42-30.9-74.2-62.6-74.2
	c-24.1,0-45.1,18.6-55.8,45.9c-0.2-0.1-0.5-0.2-0.7-0.3c-0.1-48.1-28.4-87-63.3-87c-7.5,0-14.7,1.8-21.4,5.1
	c-5.5-13.2-15.9-22-27.7-22c-15,0-27.7,14.3-31.1,33.6c-4-2-8.2-3.5-12.5-4.4c0-0.6,0-1.3,0-1.9c0-48.2-28.4-87.3-63.4-87.3
	c-14.1,0-27,6.3-37.6,17c-5.7-12.5-15.7-20.8-27.2-20.8c-17.7,0-32,19.8-32,44.1c0,1.9,0.1,3.7,0.3,5.5c-20.8,3-39.8,13.8-55.6,30.3
	c-24.3-19.8-52.7-31.1-82.9-31.1c-24.2,0-47.2,7.3-67.9,20.3v126.7h1930.5V920C1923.2,915.8,1917.4,913.3,1911.2,913.3z"/>
<path id="_x31_1" fill="#314DA8" d="M1922,798.8c-6.3,0-12.2,2.5-17,6.7c-2.7-3.3-6.5-5.4-10.6-5.4c-8.3,0-15.1,8.4-15.1,18.7
	c0,1.7,0.2,3.4,0.5,4.9c-4.7,1-8.8,4.2-11.6,8.6c-10.4-16.6-26.7-27.2-45-27.2c-7.6,0-14.9,1.9-21.6,5.2
	c-2.8-8.7-9.6-14.8-17.6-14.8c-9.1,0-16.7,8-18.6,18.6c-1.7-0.4-3.4-0.6-5.2-0.6c-16.6,0-30,16.7-30,37.2c0,0.2,0,0.3,0,0.5
	c-0.1,0-0.3,0-0.4,0c-8.6,0-15.8,7-18.2,16.7c-4.6-2.4-9.7-3.8-15-3.8c-8.6,0-16.5,3.5-22.9,9.3c-1.5-0.1-3-0.1-4.5-0.1
	c-18.1,0-35,6.8-49,18.5c-2.9-15.8-14.2-27.5-27.8-27.5c-15.7,0-28.5,15.8-28.5,35.3c0,1.2,0.1,2.4,0.2,3.6
	c-0.9-0.1-1.8-0.1-2.7-0.1c-20.5,0-37.9,16.2-44.3,38.8c-4.1-1.8-8.6-2.7-13.2-2.7c-14.4,0-27.1,9.3-34.4,23.3
	c-5.1-5.1-10.9-9.1-17.2-11.8c0.2-1.3,0.3-2.6,0.3-3.9c0-13-8.5-23.5-19-23.5s-19,10.5-19,23.5c0,0.1,0,0.2,0,0.2
	c-4.8-11.1-14.3-18.7-25.2-18.7c-6.9,0-13.3,3.1-18.2,8.2c-3.4-4-8-6.5-13.1-6.5c-8.2,0-15.1,6.4-17.8,15.4
	c-14.2-8.1-29.9-12.7-46.6-12.7c-3.4,0-6.7,0.2-10,0.6c-3.1-28.5-22.7-50.5-46.6-50.5c-21.5,0-39.6,17.9-45.2,42.3
	c-6-4-12.3-7.2-19.1-9.4c2.5-5.2,3.9-11.3,3.9-17.9c0-19.5-12.8-35.3-28.5-35.3c-13.2,0-24.3,11.1-27.5,26.2
	c-1.6-0.6-3.4-0.9-5.2-0.9c-10.5,0-19,10.5-19,23.5c0,2.3,0.3,4.5,0.8,6.6c-11.6-7-24.7-11-38.5-11c-18.9,0-36.4,7.4-50.7,20
	c-4-27-23.2-47.5-46.2-47.5c-25,0-45.5,24.2-46.9,54.7c-6.1-2.8-12.7-4.3-19.6-4.3c-0.7,0-1.3,0-2,0.1c0,0,0,0,0-0.1
	c0-13-8.5-23.5-19-23.5c-8.3,0-15.4,6.7-18,15.9c-4-2.6-8.5-4.1-13.4-4.1c-15.4,0-27.9,15.1-28.5,33.9c-8.1-3-16.6-4.7-25.5-4.7
	c-30.7,0-57.7,19.5-73.4,49c-8.9-8.8-19-16-29.8-21.1c2.7-7.4,4.3-15.6,4.3-24.2c0-32.2-21-58.2-47-58.2c-10.6,0-20.3,4.3-28.2,11.6
	c-5.2-7.2-12.8-11.6-21.2-11.6c-14,0-25.6,12.5-28,28.9c-25.9,3-46.7,27.4-50.9,58.8c-2.1,0.6-4.2,1.3-6.3,2.1
	c-5.5-24.5-23.7-42.5-45.3-42.5c-12,0-23,5.6-31.3,14.7c-4.9-5-11.2-8-18.1-8c-15.7,0-28.5,15.8-28.5,35.3c0,5.1,0.9,9.9,2.4,14.2
	c-21.1,8.3-38.8,26.2-49.6,49.5c-14.7-34.5-44-58-77.7-58c-16.2,0-31.4,5.5-44.5,15c-0.8-4-1.9-7.9-3.4-11.5
	c7.2-3.3,12.3-11.9,12.3-22c0-13-8.5-23.5-19-23.5c-8.6,0-15.9,7.2-18.2,16.9c-3-1.5-6.1-2.6-9.4-3.3c1.6-4.4,2.5-9.3,2.5-14.5
	c0-12.9-5.6-24.2-13.9-30.3c0.9-2.7,1.5-5.6,1.5-8.7c0-12-7.9-21.7-17.6-21.7c-4.8,0-9.1,2.4-12.3,6.3c-4.3-3.4-9.4-5.4-14.9-5.4
	c-6,0-11.6,2.4-16.1,6.4c-8.1-17.3-23.3-29-40.6-29c-23.3,0-42.7,21-46.3,48.6c-3.5-0.5-7-0.8-10.6-0.8c-4.3,0-8.6,0.4-12.8,1.2
	v167.9h1930.5V799.6C1926.2,799.1,1924.1,798.8,1922,798.8z"/>
<path id="_x31_2" fill="#4A5DAF" d="M50.6,874.5c27.8,3.5,47.3,27.7,43.6,54c-0.2,1.3-0.4,2.5-0.7,3.7c4.5,1.7,8.8,3.9,12.7,6.5
	c1.6-2.6,3.7-4.9,6-6.9c-4.2-4.1-6.4-9.9-5.5-16c1.5-10.6,11.8-18.1,23-16.7c11.2,1.4,19.1,11.2,17.6,21.8c-0.3,2.2-1,4.3-2,6.1
	c8,3.4,14.1,10,16.7,17.8c10.2-8.6,22.5-15.3,36.5-19.1c29.7-8.2,60.2-2,83.3,14.3c-0.4-2-0.4-4-0.1-6c1.5-10.6,11.8-18.1,23-16.7
	c7,0.9,12.7,5,15.6,10.6c2.2-0.9,4.4-1.7,6.7-2.4c26.9-7.4,55,7.2,62.9,32.7c4.8,15.5,0.9,31.4-8.9,43.2c3.8,3.5,7.4,7.2,10.5,11.3
	c5.9-1.7,12.1-2.3,18.6-1.8c11.4-16.3,31-26.5,52.4-26.1c-0.5-2.4-0.6-5-0.2-7.6c1.9-12,13.8-20.2,26.4-18.3
	c9.3,1.4,16.5,7.8,18.8,16c4.2-1.1,8.6-1.5,13.2-0.8c4.1,0.6,7.9,2,11.3,3.9c10.5-15.3,29.9-24.2,50.2-21.3
	c27.7,4,46.7,28.6,42.4,54.8c-1.2,7-3.9,13.5-7.8,19.1c10.9,5.9,20.7,13.3,29,21.9c20.7-21.7,52.1-33.3,84.8-28.6
	c9.5,1.4,18.3,4,26.6,7.8c3.1-15.3,18.5-25.7,34.9-23.3c5.2,0.8,9.8,2.7,13.7,5.4c3.9-7.2,12.4-11.5,21.3-10.2
	c11.2,1.6,18.8,11.5,17.1,22.1c0,0,0,0,0,0.1c0.7,0.1,1.4,0.2,2.1,0.3c7.3,1.1,14.2,3.3,20.3,6.5c5.6-24.7,30.6-41.3,57.3-37.4
	c6.7,1,12.9,3.2,18.3,6.3c0.1-2.3,0.3-4.5,0.7-6.8c5.2-31.9,36.6-53.8,70.3-48.8c3.9,0.6,7.6,1.5,11.2,2.7c3.7-3.5,8.8-5.7,14.4-5.7
	c1.9,0,3.8,0.3,5.6,0.7c3.5-12.5,15.5-21.6,29.7-21.6c17,0,30.8,13,30.8,29.2c0,5.4-1.6,10.4-4.2,14.8c7.2,1.8,14.1,4.4,20.6,7.7
	c6-20.2,25.6-34.9,48.8-34.9c25.7,0,47,18.2,50.3,41.7c3.5-0.3,7.1-0.5,10.8-0.5c18,0,35,3.8,50.3,10.5c2.9-7.4,10.4-12.7,19.2-12.7
	c5.5,0,10.4,2,14.1,5.4c5.3-4.2,12.2-6.8,19.7-6.8c11.8,0,21.9,6.2,27.1,15.4c0-0.1,0-0.1,0-0.2c0-10.7,9.2-19.4,20.5-19.4
	c11.3,0,20.5,8.7,20.5,19.4c0,1.1-0.1,2.2-0.3,3.2c2.7,0.9,5.4,2,7.9,3.2c13.3-11.4,31.7-17.3,50.8-14.5c20.4,3,36.9,15.1,45.6,31.4
	c12.1-5.8,27.2-4.1,37.4,5.4c1.3,1.3,2.6,2.6,3.6,4c7.9-4.9,18.6-4.2,25.6,2.3c6.2,5.7,7.7,14.2,4.5,21.3c4.5,1.8,8.8,4,12.9,6.8
	c7.4-6.4,17.3-10.3,28.2-10.3c5.8,0,11.2,1.1,16.2,3.1c2.5-8,10.3-13.8,19.6-13.8c0.2,0,0.3,0,0.4,0c0-0.1,0-0.3,0-0.4
	c0-17,14.5-30.7,32.4-30.7c1.9,0,3.8,0.2,5.6,0.5c2-8.8,10.2-15.3,20-15.3c8.6,0,16,5.1,19,12.2c7.2-2.8,15-4.3,23.3-4.3
	c19.7,0,37.3,8.8,48.6,22.5c3.1-3.7,7.5-6.3,12.5-7.1c-0.4-1.3-0.6-2.7-0.6-4.1c0-8.5,7.3-15.4,16.3-15.4c4.5,0,8.5,1.7,11.5,4.5
	c5.2-3.5,11.5-5.5,18.3-5.5c17.5,0,31.7,13.5,31.7,30c0,2.9-0.4,5.7-1.2,8.3c7.7,1.3,15.2,3.2,22.3,5.8c2.6-7.7,7.2-14.7,13.4-20.2
	v65.2H-2.4V908.6v-6C6.5,883.6,27.8,871.6,50.6,874.5z"/>
</svg>
