<?xml version="1.0" encoding="utf-8"?>
<!-- Generator: Adobe Illustrator 24.0.2, SVG Export Plug-In . SVG Version: 6.00 Build 0)  -->
<svg version="1.1" id="bac2" xmlns="http://www.w3.org/2000/svg" xmlns:xlink="http://www.w3.org/1999/xlink" x="0px" y="0px"
	 viewBox="0 0 1920 1080" enable-background="new 0 0 1920 1080" xml:space="preserve">
<rect id="_x30_" fill="#317FF2" width="1920" height="1080"/>
<polygon id="_x31_" fill="#4E9AF4" points="0,596.9 0,24.6 901.6,159.8 1806.6,61.5 1056.4,369.7 "/>
<polygon fill="#60AAF4" points="350.8,226.4 1198.2,240.9 1920,18.7 1920,484 327.9,453 1289.9,420.5 "/>
<polygon id="_x32_" fill="#4BAAF7" points="0,42.2 717.1,45.6 1075.1,69.8 1584.3,57.9 1039.2,97.4 643.8,69.8 0,84.7 "/>
<polygon fill="#4BAAF7" points="1920,160.7 1520.7,187.9 1033.1,174.6 266.7,184.8 1073.3,194.9 1583.2,204.1 1920,212.9 "/>
<polygon fill="#1B92E2" points="0,240.5 247.3,274 498.4,293.1 747.1,302.5 503,315.2 228.5,317.3 0,279.3 "/>
<polygon fill="#1B92E2" points="1920,249.9 1920,278.9 926.8,277.5 "/>
<polygon fill="#0284CC" points="1920,429.2 1583.1,451.4 1357.4,448.9 1617.4,476.9 1920,474.1 "/>
<polygon fill="#0284CC" points="0,351.2 0,389.2 492,415.4 "/>
<path fill="#AEE6FF" d="M1613.2,224.8c0,0-1267.9,155.3-1269,155.4c-10.3,1.3-15.5,2-16.3-1.1c-0.8-3.2,4.9-3,15.8-4.5
	C344.8,374.5,1613.2,224.8,1613.2,224.8z"/>
<path fill="#FFFFFF" d="M1239.1,97.4c5.7,0,5.7,6.6,0,6.6S1233.4,97.4,1239.1,97.4z"/>
<path fill="#FFFFFF" d="M129.1,279.9c3.4,0,3.4,4,0,4C125.7,283.9,125.7,279.9,129.1,279.9z"/>
<path fill="#FFFFFF" d="M1612,83.4c5.7,0,5.7,6.7,0,6.7C1606.3,90,1606.3,83.4,1612,83.4z"/>
<path fill="#FFFFFF" d="M1190.3,353.7c4.6,0,4.6,5.3,0,5.3S1185.8,353.7,1190.3,353.7z"/>
<path fill="#FFFFFF" d="M917.8,187.3c3.5,0,3.5,4.2,0,4.2S914.3,187.3,917.8,187.3z"/>
<path fill="#FFFFFF" d="M630.9,18.2c5.5,0,5.5,6.5,0,6.5S625.4,18.2,630.9,18.2z"/>
<path fill="#FFFFFF" d="M845.3,93.2c4.6,0,4.6,5.4,0,5.4S840.7,93.2,845.3,93.2z"/>
<path fill="#FFFFFF" d="M320.7,219.4c4.8,0,4.8,5.6,0,5.6S315.9,219.4,320.7,219.4z"/>
<path fill="#FFFFFF" d="M587.9,369c5.3,0,5.3,6.1,0,6.1S582.6,369,587.9,369z"/>
<path fill="#FFFFFF" d="M1444.1,95.5c4.9,0,4.9,5.8,0,5.8C1439.1,101.3,1439.1,95.5,1444.1,95.5z"/>
<path fill="#FFFFFF" d="M125,83.9c4.4,0,4.4,5.1,0,5.1C120.6,89.1,120.6,83.9,125,83.9z"/>
<path fill="#FFFFFF" d="M838.9,260.7c3.4,0,3.4,4,0,4S835.5,260.7,838.9,260.7z"/>
<path fill="#FFFFFF" d="M1287.3,171.8c5.7,0,5.7,6.7,0,6.7S1281.6,171.8,1287.3,171.8z"/>
<path fill="#FFFFFF" d="M1766.8,263.1c5.4,0,5.4,6.3,0,6.3S1761.5,263.1,1766.8,263.1z"/>
<path fill="#FFFFFF" d="M439.8,291c4.4,0,4.4,5.2,0,5.2S435.3,291,439.8,291z"/>
<path id="_x33_" fill="#2A6FA8" d="M1920,302.1c-80.3,6.1-146.9,47.2-172.6,102.8c-4.6-0.3-9.3-0.5-14.1-0.5
	c-44,0-83.6,14.4-110.9,37.2c-18.1-18.8-47.6-31.1-80.8-31.1c-55.1,0-99.8,33.7-99.8,75.2c0,1.5,0.1,2.9,0.2,4.3
	c-23-10.9-50.2-17.3-79.4-17.3c-27.5,0-53.3,5.6-75.4,15.4c-17.8-12.6-41.8-20.3-68.2-20.3c-32.1,0-60.7,11.5-79,29.2h-4.8
	c-22.3-10-48.3-15.7-76.1-15.7c-27.8,0-53.8,5.7-76.1,15.7h-21.3c-27.4-25.3-69-41.5-115.7-41.5c-4,0-8,0.1-11.9,0.4
	c-30.5-20.1-70.4-32.4-114.2-32.4c-42,0-80.5,11.3-110.5,30c-18.2-18.2-47.1-30-79.7-30c-42.6,0-79,20.2-93.3,48.6
	c-16.8-4.2-34.7-6.4-53.3-6.4c-4.2,0-8.4,0.1-12.5,0.4c-26.7-36.5-78.3-61.2-137.5-61.2c-27.3,0-52.9,5.3-75.3,14.5
	c-27.5-46.1-87.5-78.9-158-81.6V820h1920L1920,302.1z"/>
<path fill="#FFFFFF" d="M1098.9,497.1h-3.3c-15.6-9.3-33.8-14.6-53.3-14.6s-37.7,5.3-53.3,14.6h-15c-19.2-23.6-48.4-38.7-81.1-38.7
	c-2.8,0-5.6,0.1-8.4,0.3c-13.7-12-30.1-21-48.2-25.9c25-59.7,83.9-101.6,152.5-101.6c82.1,0,150.2,60,163.2,138.6
	C1130.5,470.5,1111.3,481,1098.9,497.1z"/>
<path id="_x34_" fill="#26639E" d="M1792,461c-25.4-13.3-56.2-21-89.3-21c-79.7,0-145.5,44.7-155.6,102.7c-3.4-0.2-6.9-0.2-10.3-0.2
	c-21.1,0-41.3,2.9-59.9,8.2c-17.5-21.7-49.1-36.1-85.2-36.1c-36.3,0-68.1,14.6-85.5,36.5c-27.2-13.4-59.6-21.1-94.5-21.1
	c-26.9,0-52.3,4.6-75,12.8c-19.1-6.7-40.3-10.4-62.7-10.4c-46.7,0-88.4,16.2-115.7,41.5H937c-22.3-10-48.3-15.7-76.1-15.7
	s-53.8,5.7-76.1,15.7H780c-18.2-17.8-46.8-29.2-79-29.2c-28.4,0-54,8.9-72.2,23.3c-26.5-18.2-61.8-29.3-100.5-29.3
	c-34,0-65.3,8.5-90.3,22.9c-11.9-31.5-50.3-54.6-96-54.6c-17.1,0-33.3,3.3-47.4,9c-12.8-10.1-28.1-18.5-45.2-24.4
	c-11-77.5-97.9-137.7-203.4-137.7c-15.8,0-31.2,1.4-46,3.9v462.1l0,0h1920V414.4C1869.1,416.4,1823.7,434,1792,461z"/>
<path id="_x35_" fill="#215593" d="M1920,256.5c-39.7,15.2-69,43.7-77.6,77.6c-22.5,13.8-36.8,34.8-36.8,58.3
	c0,5.2,0.7,10.4,2.1,15.3c-24.2,10.2-44.6,24.9-59.1,42.7c-2.2-0.1-4.4-0.1-6.7-0.1c-64.2,0-120.8,24.3-154.7,61.3
	c-53.5,0.6-100.1,22.8-125,55.6c-24.7-13.6-55.1-21.7-88.1-21.7c-61.7,0-114.7,28.3-137.4,68.5c-6.8-1.1-13.9-1.7-21.1-1.7
	c-32.6,0-61.5,11.8-79.7,29.9c-27-20.5-64.5-33.2-105.8-33.2c-52,0-97.7,20-124.4,50.4c-27-20-64-32.4-104.8-32.4
	c-31.5,0-60.7,7.4-84.8,19.9c-30.8-36-84.5-59.9-145.7-59.9c-9.9,0-19.7,0.6-29.2,1.8c-30.3-35.1-82.9-58.4-142.6-58.4
	c-2,0-3.9,0-5.8,0.1c-28.5-21.9-68.1-35.4-112-35.4c-12.7,0-25.1,1.1-37,3.3c-15.1-49-73.4-85.6-143.1-85.6c-0.9,0-1.8,0-2.8,0
	c-15-36.6-51.3-66.2-97.9-80.7v487.6l0,0h1920L1920,256.5z"/>
<path id="_x36_" fill="#1D4985" d="M1920,223.6c-40.7,5.8-71.5,32.7-71.5,65c0,0.9,0,1.8,0.1,2.6c-45.6,18.7-76.6,55.2-76.6,97.1
	c0,3.4,0.2,6.8,0.6,10.2c-36.3,11.2-61.9,38.2-61.9,69.6c0,0.1,0,0.2,0,0.3c-45.8,6.8-80.4,37.2-80.4,73.8c0,5.5,0.8,10.8,2.3,16
	c-4.2-0.3-8.5-0.4-12.8-0.4c-35.8,0-68.8,8.8-95.5,23.7c-1.8,0-3.7-0.1-5.5-0.1c-70,0-128.5,37-143.1,86.4
	c-4.8-0.3-9.7-0.5-14.7-0.5c-37.2,0-71.3,10.3-97.4,27.3c-16.5-9.1-36.9-14.5-59-14.5c-34.6,0-65.1,13.3-83,33.4
	c-22.6-10.5-49.1-16.5-77.6-16.5c-39.8,0-75.9,11.7-102.6,30.8c-19.2-6.8-40.6-10.5-63.2-10.5c-7.4,0-14.7,0.4-21.8,1.2
	c-30.9-35.8-84.4-59.4-145.2-59.4c-47.5,0-90.6,14.4-121.9,37.8c-19.3-5.6-40.1-8.6-62-8.6c-2.2,0-4.3,0-6.4,0.1
	c-13.8-29.1-50.6-50-94-50c-28.9,0-54.9,9.3-73.1,24.1c-12.5-5.4-25.9-9.6-40.1-12.5c-4.4-49.9-49.8-91.4-111-105.4
	c-2.3-35.9-27.4-67.3-64.5-86.3c1.4-6.6,2.1-13.5,2.1-20.4c0-31.7-15.3-60.7-40.6-83.1c3-9.2,4.7-18.8,4.7-28.7
	c0-51.5-43.6-95.2-104.4-111.5V820l0,0h1920V223.6z"/>
<rect id="_x3C_패스_x3E_" y="807.5" fill="#20367C" width="1920" height="272.5"/>
<path fill="#304DA0" d="M1463.6,910.4c29.3,0,53.3-2.9,53.3-6.5c0-3.6,24-6.5,53.3-6.5h31.1c29.3,0,53.3-2.9,53.3-6.5
	c0-3.6-18.1-6.5-40.3-6.5c-22.2,0-40.3-2.9-40.3-6.5c0-3.6-24-6.5-53.3-6.5H1354c-29.3,0-53.3-2.9-53.3-6.5s14.1-6.5,31.3-6.5
	s31.3-2.9,31.3-6.5s-14.9-6.5-33.2-6.5s-33.2-2.9-33.2-6.5s6.8-6.5,15.2-6.5s15.2-2.9,15.2-6.5s11.8-6.5,26.2-6.5
	c14.4,0,26.2-2.7,26.2-6.1s-24-6.1-53.3-6.1H632.1c-29.3,0-53.3,2.7-53.3,6.1s-11.8,6.1-26.2,6.1s-26.2,2.9-26.2,6.5
	S593,835.5,593,839c0,3.5,14.9,6.5,33.2,6.5s33.2,2.9,33.2,6.5c0,3.6-111.2,6.5-128.4,6.5c-17.2,0-31.3,2.9-31.3,6.5
	c0,3.6,24,6.5,53.3,6.5h70.7c29.3,0,53.3,2.9,53.3,6.5c0,3.6,18.1,6.5,40.3,6.5s40.3,2.9,40.3,6.5c0,3.6-24,6.5-53.3,6.5H673
	c-29.3,0-53.3,2.9-53.3,6.5c0,3.6-24,6.5-53.3,6.5H354.9c-29.3,0-53.3,2.9-53.3,6.5c0,3.6,24,6.5,53.3,6.5h38.5
	c29.3,0,53.3,2.9,53.3,6.5s24,6.5,53.3,6.5h21.7c29.3,0,53.3,2.9,53.3,6.5s-24,6.5-53.3,6.5H300.1c-29.3,0-53.3,2.9-53.3,6.5
	s-24,6.5-53.3,6.5h-22.6c-29.3,0-53.3,2.9-53.3,6.5s24,6.5,53.3,6.5h507.3c29.3,0,53.3,2.9,53.3,6.5s-13.9,6.5-30.8,6.5
	s-30.8,2.9-30.8,6.5s-24,6.5-53.3,6.5h-282c-29.3,0-53.3,2.9-53.3,6.5c0,3.6,9.1,6.5,20.2,6.5s20.2,2.9,20.2,6.5s24,6.5,53.3,6.5
	h233.9c29.3,0,53.3,2.9,53.3,6.5c0,3.6-24,6.5-53.3,6.5h-0.6c-29.3,0-53.3,2.9-53.3,6.5s-24,6.5-53.3,6.5H299.5
	c-29.3,0-53.3,2.9-53.3,6.5c0,3.6,24,6.5,53.3,6.5H454c29.3,0,53.3,3.2,53.3,7.2s24,7.2,53.3,7.2h862c29.3,0,53.3-3.2,53.3-7.2
	s-24-7.2-53.3-7.2h-59.4c-29.3,0-53.3-2.9-53.3-6.5c0-3.6,24-6.5,53.3-6.5h107.1c29.3,0,53.3-2.9,53.3-6.5s-9.7-6.5-18.1-6.5
	s-15.3-2.9-15.3-6.5c0-3.6-24-6.5-53.3-6.5h-1.1c-29.3,0-53.3-2.9-53.3-6.5c0-3.6-9.1-6.5-20.2-6.5s-20.2-2.9-20.2-6.5
	c0-3.6,24-6.5,53.3-6.5h144.2c29.3,0,53.3-2.9,53.3-6.5c0-3.6,13.9-6.5,30.8-6.5c17,0,30.8-2.9,30.8-6.5s-24-6.5-53.3-6.5H1472
	c-29.3,0-53.3-2.9-53.3-6.5s-24-6.5-53.3-6.5h-168.3c-29.3,0-53.3-2.9-53.3-6.5s24-6.5,53.3-6.5h221.5c29.3,0,53.3-2.9,53.3-6.5
	s-24-6.5-53.3-6.5H1397c-29.3,0-53.3-2.9-53.3-6.5s-24-6.5-53.3-6.5h-38.5c-29.3,0-53.3-2.9-53.3-6.5c0-3.6,24-6.5,53.3-6.5
	L1463.6,910.4L1463.6,910.4z"/>
</svg>
