<?xml version="1.0" encoding="utf-8"?>
<!-- Generator: Adobe Illustrator 21.1.0, SVG Export Plug-In . SVG Version: 6.00 Build 0)  -->
<svg version="1.1" id="Layer_10" xmlns="http://www.w3.org/2000/svg" xmlns:xlink="http://www.w3.org/1999/xlink" x="0px" y="0px"
	 viewBox="0 0 1920 1080" enable-background="new 0 0 1920 1080" xml:space="preserve">
<g>
	<rect x="-0.9" y="-7.4" fill="#D0E2E2" width="1922.4" height="1088.4"/>
	<circle opacity="0.9" fill="#FFFFFF" cx="972.1" cy="569.2" r="248.7"/>
	<polygon fill="#F4ECC1" points="1921.5,407.4 1695.5,457.3 1384.1,404.2 1248,467.5 959.9,557 722.4,489.5 579,530.8 341.1,429.9 
		-0.9,509.2 -0.9,776.9 1921.5,776.9 	"/>
	<polygon fill="#CEC49B" points="1921.5,533.3 1684.1,464.1 1437.1,551.4 1144.7,621.9 877.8,543.1 660.9,622 117.1,483.2 
		-0.9,540.1 -0.9,816.1 1921.5,816.1 	"/>
	<polygon fill="#B2A286" points="-0.9,1011.4 1921.5,1011.4 1921.5,528.1 1731.9,610.9 1641.1,572.3 1401,664 1163.3,570.6 
		1090.8,609 829.9,638.3 524.8,596.6 315.2,672.4 121.2,566.6 -0.9,610.9 	"/>
	
		<linearGradient id="SVGID_1_" gradientUnits="userSpaceOnUse" x1="960.1536" y1="769.8179" x2="960.1536" y2="596.7072" gradientTransform="matrix(1 0 0 1 0.1797 0)">
		<stop  offset="0" style="stop-color:#4D6470"/>
		<stop  offset="1" style="stop-color:#8A8374"/>
	</linearGradient>
	<polygon fill="url(#SVGID_1_)" points="448.1,673.3 179.5,756.1 -0.9,1016.6 1921.5,1016.6 1921.5,630.4 1802.9,590.6 
		1700.7,633.6 1593.6,645.4 1452.5,707.6 1344,683.2 1183.2,742.5 944.5,670.2 720.7,751.7 	"/>
	
		<linearGradient id="SVGID_2_" gradientUnits="userSpaceOnUse" x1="857.8231" y1="901.8022" x2="857.8231" y2="734.4838" gradientTransform="matrix(1 0 0 1 0.1797 0)">
		<stop  offset="0" style="stop-color:#2C5B73"/>
		<stop  offset="1" style="stop-color:#254458"/>
	</linearGradient>
	<polygon fill="url(#SVGID_2_)" points="225.7,1036.3 159,867.4 338.1,741.5 467.8,706.5 574.7,612.3 730.6,719.1 747.3,707.2 
		922.7,735.5 987.5,761.5 1067.4,783.8 1223.2,834.3 1383,862.5 1557,943 1557,1036.3 1399.6,1036.3 	"/>
	<polygon fill="#535B48" points="574.7,612.3 574.7,689.5 733.7,731 899,761.8 1202.3,849.7 1223.2,834.3 922.7,735.5 747.3,707.2 	
		"/>
	<polygon fill="#2B495A" points="858.2,849.1 521.1,797.9 256.6,624.9 206,633.9 133.9,685.5 -0.9,607.8 -0.9,1040.8 1057.4,1040.8 
		1584.8,1040.8 1331.9,962 1174.7,937 	"/>
	<polygon opacity="0.7" fill="#535B48" points="1174.7,932.5 858.2,844.6 521.1,793.4 256.6,620.4 503.4,827 945.1,888.6 	"/>
	<polygon fill="#2F4B4C" points="1317.3,776.3 1474.5,756.7 1695.6,677.4 1921.5,712.4 1921.5,1015 614.5,1015 955.9,893.8 
		1143.6,887.8 	"/>
	<polygon fill="#295163" points="1143.6,887.8 1317.3,776.3 1474.5,756.7 1695.6,677.4 1693.6,709.5 1483,785.5 1344.7,806.9 
		1188.3,888 	"/>
	<polygon opacity="0.11" points="614.5,1015 947.1,924.4 930.4,920.7 955.9,893.8 	"/>
	<path fill="#1B3533" d="M716.1,967.5c128-13.6,249.1-27.8,378-13c122.4,14.1,241.8,39.3,366,32.8c91.2-4.7,363.5-5,461.4,30.3v61.3
		H-0.9V890.3c112.5-9.5,223.1-1.3,334.7,34.6C461.1,965.8,581.9,981.8,716.1,967.5z"/>
	<path fill="#132625" d="M1125.6,989.5c-142.1-16.4-276.5-33.6-419.7-15.7c-135.9,17-268.5,47.4-406.3,39.7
		C198.3,1007.8,96,995.8-0.9,988.9v92.1h1922.4V896.2c-124.9-11.4-247.7-1.6-371.6,41.8C1408.7,987.5,1274.6,1006.7,1125.6,989.5z"
		/>
	<path fill="#1B3533" d="M695.3,939.7c-6.3,2-13.3,3.6-19.3,4c8.7-7.9,15.8-19.7,21.5-32.2c-5.5,1.7-11.5,3.1-16.7,3.4
		c6.9-6.3,12.6-15.3,17.3-25c-4,1.1-8.1,2-11.8,2.2c6.4-5.8,11.6-14.5,15.8-23.6c-3.8,1.1-7.8,2.1-11.3,2.2
		c5.8-5.3,10.4-13.2,14.1-21.6c-3.1,0.9-6.3,1.7-9.2,1.8c5.6-5.1,9.8-13.3,13-21.4c-2.5,0.8-5.4,1.6-7.9,1.7c4.4-4,7.7-10.6,10-16.9
		c-1.9,0.6-4.1,1.2-6,1.3c7.7-7,10.9-25,10.9-25s3.3,15.6,10.9,25c-1.6,0.1-3.5-0.4-5.3-0.9c2.3,5.6,5.4,11.7,9.3,16.5
		c-2,0.1-4.5-0.4-6.8-1.2c3,7.2,7,14.8,11.9,20.9c-2.3,0.1-5-0.4-7.7-1.1c3.4,7.3,7.6,14.7,12.6,20.9c-2.8,0.1-6.2-0.5-9.5-1.4
		c3.9,8,8.5,16,14,22.7c-2.9,0.1-6.2-0.4-9.6-1.2c4.3,8.5,9.3,16.9,15.1,24.1c-4.3,0.2-9.3-0.8-14.2-2.2c5.2,10.9,11.5,21.8,19,31
		c-4.9,0.2-10.8-1-16.5-2.6c5.8,12,12.7,23.9,20.9,34.1c-10.7,0.4-25.4-5.8-34.8-10.5v20.6h-18.2v-21c-9.1,4.3-23.6,10.2-35.2,10.9
		C681.1,966.4,689,953.5,695.3,939.7z"/>
	<path fill="#1B3533" d="M1077.8,951c-5.8,2.1-11.8,3.8-17.3,4.5c9-9.5,15.9-23.1,21.2-37.4c-6,2.3-12.5,4.4-18.3,5.1
		c7-7.3,12.5-17.5,17-28.4c-3.6,1.2-7.3,2.2-10.7,2.6c6.4-6.8,11.5-16.4,15.4-26.6c-3.8,1.5-7.7,2.8-11.3,3.4
		c5.7-6.4,9.9-15.5,13-24.9c-3.1,1.4-6.4,2.6-9.4,3.2c5.3-6.4,8.8-16.1,11-25.5c-2.7,1.4-5.7,2.8-8.4,3.4c3.9-5.1,6.3-12.6,7.7-19.9
		c-1.7,1-3.7,1.9-5.4,2.4c6.6-9.4,5.7-29.7,5.7-29.7s7.3,16.1,17.8,24.4c-2,0.5-4.6,0.4-6.9,0.1c3.7,5.9,8.3,12.2,13.7,16.9
		c-2.2,0.5-5,0.4-7.7,0c4.5,7.6,10.1,15.5,16.6,21.6c-2.7,0.5-6.1,0.3-9.4-0.2c4.7,8,10.3,16,16.7,22.6c-3.4,0.5-7.6,0.1-11.6-0.7
		c5,8.9,10.9,17.6,17.6,24.9c-3.8,0.4-8.3-0.1-12.8-1c5.5,9.2,11.7,18.2,18.8,25.8c-4.7,0.5-10.3-0.2-15.8-1.3
		c6.7,11.7,14.5,23.2,23.5,32.8c-6.5,0.7-14.6-0.6-22.2-2.4c6.7,14.3,14.8,28.6,24.5,40.6c-11.9,0.5-28.2-6.4-38.6-11.6v22.8h-20.2
		v-23.3c-10.1,4.8-26.2,11.4-39,12.1C1062.8,978.3,1071.1,965.1,1077.8,951z"/>
	<path fill="#1B3533" d="M347.2,921.7c-7,2.2-14.7,4-21.4,4.4c9.6-8.8,17.5-21.9,23.8-35.7c-6.1,1.9-12.7,3.5-18.5,3.8
		c7.6-7,14-17,19.2-27.8c-4.4,1.2-9,2.2-13.1,2.4c7.1-6.5,12.9-16,17.5-26.2c-4.2,1.3-8.6,2.3-12.5,2.5c6.4-5.8,11.6-14.7,15.6-23.9
		c-3.4,1-7,1.9-10.2,2c6.2-5.6,10.9-14.8,14.4-23.7c-2.8,0.9-6,1.7-8.7,1.9c11.6-10.7,16.5-38,16.5-38s5,23.7,16.5,38
		c-2.2,0.1-5-0.5-7.5-1.3c3.4,8,7.8,16.4,13.2,23.2c-2.6,0.1-5.6-0.5-8.6-1.3c3.8,8.1,8.4,16.3,14,23.1c-3.2,0.1-6.9-0.5-10.5-1.5
		c4.3,8.9,9.4,17.7,15.5,25.2c-3.2,0.1-6.9-0.4-10.6-1.4c4.8,9.5,10.3,18.7,16.8,26.7c-4.7,0.2-10.3-0.9-15.8-2.4
		c5.8,12.1,12.8,24.2,21.1,34.4c-5.5,0.2-12-1.1-18.3-2.9c6.4,13.3,14.1,26.6,23.2,37.8c-11.9,0.5-28.2-6.4-38.6-11.6v22.8H360
		v-23.3c-10.1,4.8-26.2,11.4-39,12.1C331.5,951.3,340.2,936.9,347.2,921.7z"/>
	<path fill="#1B3533" d="M270.5,905.8c-5.8,2.1-11.8,3.8-17.3,4.5c9-9.5,15.9-23.1,21.2-37.4c-6,2.3-12.5,4.4-18.3,5.1
		c7-7.3,12.5-17.5,17-28.4c-3.6,1.2-7.3,2.2-10.7,2.6c6.4-6.8,11.5-16.4,15.4-26.6c-3.8,1.5-7.8,2.8-11.3,3.4
		c5.7-6.4,9.9-15.5,13-24.9c-3.1,1.4-6.4,2.6-9.4,3.2c5.3-6.4,8.8-16.1,11-25.5c-2.7,1.4-5.7,2.8-8.4,3.4
		c9.6-12.5,9.8-40.2,9.8-40.2s9,22.5,22.8,34.6c-2.2,0.5-5,0.4-7.7,0c4.5,7.6,10.1,15.5,16.6,21.6c-2.7,0.5-6.1,0.3-9.4-0.2
		c4.7,8,10.3,16,16.7,22.6c-3.4,0.5-7.6,0.1-11.6-0.7c5,8.9,10.9,17.6,17.6,24.9c-3.8,0.4-8.3-0.1-12.8-1
		c5.5,9.2,11.7,18.2,18.8,25.8c-4.7,0.5-10.3-0.2-15.8-1.3c6.7,11.7,14.5,23.2,23.5,32.8c-6.5,0.7-14.6-0.6-22.2-2.4
		c6.7,14.3,14.8,28.6,24.5,40.6c-11.9,0.5-28.2-6.4-38.6-11.6v22.8h-20.2v-23.3c-10.1,4.8-26.2,11.4-39,12.1
		C255.5,933.1,263.8,919.9,270.5,905.8z"/>
	<path fill="#1B3533" d="M1203.9,971.4c-4.9,1.5-10.3,2.8-14.9,3.1c6.7-6.1,12.2-15.2,16.6-24.9c-4.3,1.3-8.9,2.4-12.9,2.6
		c5.3-4.9,9.8-11.8,13.4-19.4c-3.1,0.9-6.3,1.5-9.1,1.7c4.9-4.5,9-11.2,12.2-18.3c-2.9,0.9-6,1.6-8.7,1.7
		c4.5-4.1,8.1-10.2,10.9-16.7c-2.4,0.7-4.9,1.3-7.1,1.4c10.9-10,15.5-35.6,15.5-35.6s4.7,22.2,15.5,35.6c-1.8,0.1-3.9-0.3-6-0.9
		c2.6,5.7,5.9,11.4,9.7,16.1c-2.2,0.1-4.8-0.4-7.3-1.1c3,6.2,6.6,12.4,10.8,17.6c-2.2,0.1-4.8-0.3-7.4-0.9c3.3,6.6,7.2,13,11.7,18.6
		c-3.3,0.1-7.2-0.6-11-1.7c4.1,8.5,8.9,16.8,14.7,24c-3.8,0.2-8.4-0.7-12.8-2c4.5,9.3,9.9,18.5,16.2,26.4c-8.3,0.3-19.7-4.5-27-8.1
		v15.9h-14.1v-16.3c-7.1,3.3-18.3,7.9-27.2,8.4C1193,992,1199,982,1203.9,971.4z"/>
	<path fill="#1B3533" d="M1382,962.7c-5.8,2.1-11.8,3.8-17.3,4.5c9-9.5,15.9-23.1,21.2-37.4c-6,2.3-12.5,4.4-18.3,5.1
		c7-7.3,12.5-17.5,17-28.4c-3.6,1.2-7.3,2.2-10.7,2.6c6.4-6.8,11.5-16.4,15.4-26.6c-3.8,1.5-7.7,2.8-11.3,3.4
		c5.7-6.3,9.9-15.5,13-24.9c-3.1,1.4-6.4,2.6-9.4,3.2c13.6-16.3,15-53.6,15-53.6s11,30.7,29,47.5c-2.7,0.5-6.1,0.3-9.4-0.2
		c4.7,8,10.3,16,16.7,22.6c-3.4,0.5-7.6,0.1-11.6-0.7c5,8.9,10.9,17.6,17.6,24.9c-3.8,0.4-8.3-0.1-12.8-1
		c5.5,9.2,11.7,18.2,18.8,25.8c-4.7,0.5-10.3-0.2-15.8-1.3c6.7,11.7,14.5,23.2,23.5,32.8c-6.5,0.7-14.6-0.6-22.2-2.4
		c6.7,14.3,14.8,28.6,24.5,40.6c-11.9,0.5-28.2-6.4-38.6-11.6v22.8h-20.2V987c-10.1,4.8-26.2,11.4-39,12.1
		C1367,990,1375.3,976.9,1382,962.7z"/>
	<path fill="#1B3533" d="M244.3,911.1v16.7h-20.2v-17.2c-9.2,3.6-23,8.3-34.1,8.9c9.6-8.8,17.5-21.9,23.8-35.7
		c-6.1,1.9-12.7,3.5-18.5,3.8c7.6-7,14-17,19.2-27.8c-4.4,1.2-9,2.2-13.1,2.4c7.1-6.5,12.9-16,17.5-26.2c-4.2,1.3-8.6,2.3-12.5,2.5
		c6.4-5.8,11.6-14.7,15.6-23.9c-3.4,1-7,1.9-10.2,2c15.7-14.3,22.2-51.1,22.2-51.1s6.7,31.9,22.2,51.1c-2.6,0.1-5.6-0.4-8.6-1.3
		c3.8,8.1,8.4,16.3,14,23.1c-3.2,0.1-6.9-0.5-10.5-1.5c4.3,8.9,9.4,17.7,15.5,25.2c-3.2,0.1-6.9-0.4-10.6-1.4
		c4.8,9.5,10.3,18.7,16.8,26.7c-4.7,0.2-10.3-0.9-15.8-2.5c5.8,12.1,12.8,24.2,21.1,34.4C267.8,920,253.7,915.1,244.3,911.1z"/>
	<path fill="#1B3533" d="M852.8,958.7v18.3h-20.2v-15.6c-8.8,4.1-21.1,9.1-31.4,10.4c9-9.5,15.9-23.1,21.2-37.4
		c-6,2.3-12.5,4.4-18.3,5.1c7-7.3,12.5-17.5,17-28.3c-3.6,1.2-7.3,2.2-10.7,2.6c6.4-6.8,11.5-16.4,15.4-26.6
		c-3.8,1.5-7.7,2.8-11.3,3.4c5.7-6.3,9.9-15.5,13-24.9c-3.1,1.4-6.4,2.6-9.4,3.2c13.6-16.3,15-53.6,15-53.6s11,30.7,29,47.5
		c-2.7,0.5-6.1,0.3-9.4-0.2c4.7,8,10.3,16,16.7,22.6c-3.4,0.5-7.6,0.1-11.6-0.7c5,8.9,10.9,17.6,17.6,24.9c-3.8,0.4-8.3-0.1-12.8-1
		c5.5,9.2,11.7,18.2,18.8,25.8c-4.7,0.5-10.3-0.2-15.8-1.3c6.7,11.7,14.5,23.2,23.5,32.8C878.1,966.6,862.4,962,852.8,958.7z"/>
	<path fill="#1B3533" d="M631,978.2v15.3H616v-15.7c-8,3.2-21,7.8-31.4,8.4c7.6-7,14-17,19.2-27.8c-4.4,1.2-9,2.2-13.1,2.4
		c7.1-6.5,12.9-16,17.5-26.2c-4.2,1.3-8.6,2.3-12.5,2.5c6.4-5.8,11.6-14.7,15.6-23.9c-3.4,1-7,1.9-10.2,2
		c15.7-14.3,22.2-51.1,22.2-51.1s6.7,31.9,22.2,51.1c-2.6,0.1-5.6-0.4-8.6-1.3c3.8,8.1,8.4,16.3,14,23.1c-3.2,0.1-6.9-0.5-10.5-1.5
		c4.3,8.9,9.4,17.7,15.5,25.2c-3.2,0.1-6.9-0.4-10.6-1.4c4.8,9.5,10.3,18.7,16.8,26.7C652.5,986.6,639.3,981.7,631,978.2z"/>
	<path fill="#1B3533" d="M84.4,896.8V913H69.3v-14.8c-7.8,3.7-20,8.9-29.9,10.2c7-7.3,12.5-17.5,17-28.4c-3.6,1.2-7.3,2.2-10.7,2.6
		c6.4-6.8,11.5-16.4,15.4-26.6c-3.8,1.5-7.7,2.8-11.3,3.4c5.7-6.4,9.9-15.5,13-24.9c-3.1,1.4-6.4,2.6-9.4,3.2
		c13.6-16.3,15-53.6,15-53.6s11,30.7,29,47.5c-2.7,0.5-6.1,0.3-9.4-0.2c4.7,8,10.3,16,16.7,22.6c-3.4,0.5-7.6,0.1-11.6-0.7
		c5,8.9,10.9,17.6,17.6,24.9c-3.8,0.4-8.3-0.1-12.8-1c5.5,9.2,11.7,18.2,18.8,25.8C106.9,904,92.8,899.8,84.4,896.8z"/>
	<path fill="#1B3533" d="M948,938c7-7.5,13.2-16.5,18.4-25.7c-4.3,0.9-8.7,1.4-12.4,1c5.6-6,10.5-13,14.8-20.2
		c-3.5,0.7-7.1,1.1-10,0.8c5.3-5.7,9.9-12.6,13.8-19.5c-3.2,0.6-6.4,0.9-9.1,0.5c5-5.1,9.4-11.4,13.1-17.7c-2.6,0.4-5.2,0.5-7.4,0.2
		c5.1-4.8,9.5-11,13-17c-2.1,0.3-4.3,0.4-6.1,0c4.2-3.7,7.8-8.6,10.7-13.2c-1.8,0.2-3.9,0.3-5.4-0.1c8.2-6.5,14-19.2,14-19.2
		s-0.7,15.9,4.5,23.3c-1.4-0.4-2.9-1.1-4.2-1.9c1.1,5.7,2.9,11.6,6,15.6c-2.1-0.5-4.5-1.6-6.6-2.7c1.8,7.3,4.5,14.9,8.6,20
		c-2.3-0.5-4.9-1.4-7.3-2.5c2.4,7.4,5.8,14.6,10.2,19.5c-2.8-0.4-5.9-1.5-8.9-2.6c3.1,8,7,15.5,12.1,20.8c-2.7-0.3-5.6-1.1-8.4-2
		c3.5,8.5,7.8,16.5,13.3,22.2c-4.5-0.6-9.7-2.2-14.4-4c4.2,11.2,9.6,21.9,16.7,29.4c-4.3-0.6-9-1.9-13.6-3.5
		c5.3,11.1,11.8,21.4,19.5,28.5c-10.1-0.6-22.6-5.7-30.6-9.5v18.3h-15.8v-17.9c-8.2,4.1-21,9.5-30.3,9.1c7.6-9.4,14-20.6,19.2-31.8
		C959.5,937.5,953.1,938.6,948,938z"/>
	<path fill="#1B3533" d="M1519.2,975.4c6.6-9.3,12.1-20,16.5-30.9c-4.6,1.6-9.4,2.8-13.5,2.9c5.3-7.3,9.7-15.8,13.3-24.3
		c-3.7,1.3-7.6,2.2-10.9,2.3c5-7,9.1-15.2,12.4-23.4c-3.4,1.1-6.9,1.9-9.9,1.9c4.8-6.3,8.7-13.8,11.9-21.3c-2.8,0.8-5.7,1.3-8.1,1.2
		c4.9-6,8.8-13.4,11.9-20.5c-2.3,0.6-4.7,1-6.7,0.9c10.5-11.9,15.8-32.3,15.8-32.3s3.2,23.9,12.9,33.6c-2.4-0.2-5.2-1.1-7.6-2
		c3,7.8,7,15.8,12.3,20.7c-2.6-0.2-5.6-0.9-8.4-1.7c3.7,7.8,8.4,15.2,14,20c-3.2-0.1-6.7-0.8-10.1-1.6c4.5,8.3,9.9,16,16.2,21.1
		c-3,0-6.3-0.4-9.5-1c5,8.9,11,17,17.8,22.5c-5.1,0-10.9-1-16.4-2.3c6.2,11.7,13.7,22.7,22.5,29.9c-4.8,0-10.2-0.8-15.4-2
		c7.4,11.4,16,21.8,25.5,28.5c-11.1,0.8-25.7-3.1-34.9-6l2.6,20.1l-17.4,2.3l-2.6-19.7c-8.4,5.6-21.7,13.4-32,14.3
		c7-11.4,12.4-24.7,16.6-37.7C1531.7,973.3,1524.9,975.3,1519.2,975.4z"/>
	<path fill="#1B3533" d="M532.1,978.8v15.6h-20.2v-18.3c-9.6,3.3-25.3,7.9-36.3,6.7c9-9.6,16.8-21.1,23.5-32.8
		c-5.5,1.2-11.1,1.8-15.8,1.3c7.1-7.6,13.4-16.6,18.8-25.8c-4.5,0.9-9,1.4-12.8,1c6.8-7.3,12.6-16,17.6-24.9
		c-4.1,0.8-8.2,1.2-11.6,0.7c6.4-6.5,12-14.5,16.7-22.6c-3.3,0.5-6.7,0.7-9.4,0.2c18-16.9,29-47.5,29-47.5s1.5,37.3,15,53.6
		c-3-0.6-6.3-1.8-9.4-3.2c3.1,9.4,7.3,18.6,13,24.9c-3.6-0.6-7.6-1.9-11.3-3.4c3.9,10.2,8.9,19.8,15.4,26.6
		c-3.4-0.4-7.1-1.4-10.7-2.6c4.4,10.9,10,21,17,28.3c-5.8-0.7-12.3-2.8-18.3-5.1c5.3,14.3,12.3,27.9,21.2,37.4
		C553.2,987.8,540.9,982.9,532.1,978.8z"/>
	
		<linearGradient id="SVGID_3_" gradientUnits="userSpaceOnUse" x1="918.742" y1="1018.6644" x2="918.742" y2="751.3391" gradientTransform="matrix(1 0 0 1 0.1797 0)">
		<stop  offset="0" style="stop-color:#254458"/>
		<stop  offset="1" style="stop-color:#172D3C"/>
	</linearGradient>
	<path fill="url(#SVGID_3_)" d="M926.1,960.8v12.1h-12.3v-13.2c-6.9,2.4-18.4,5.9-26.4,5c5.8-6.2,10.9-13.5,15.4-21.1
		c-3.7,0.8-7.3,1.2-10.4,0.8c5.5-5.9,10.3-13.1,14.4-20.3c-3.3,0.6-6.7,0.9-9.5,0.6c5.2-5.3,9.8-11.9,13.6-18.4
		c-2.7,0.4-5.5,0.6-7.7,0.2c14.7-13.8,23.7-38.8,23.7-38.8s1.2,30.5,12.3,43.8c-2.4-0.5-5.1-1.5-7.6-2.6c2.5,7.7,6,15.2,10.6,20.4
		c-2.9-0.5-6.2-1.5-9.3-2.7c3.2,8.3,7.3,16.2,12.6,21.7c-2.8-0.3-5.8-1.1-8.8-2.1c3.6,8.9,8.2,17.2,13.9,23.2
		C942.4,968.1,932.4,963.9,926.1,960.8z"/>
	<path fill="#132625" d="M1190.8,964.9c7.7,2.4,16,4.4,23.3,4.8c-10.5-9.6-19.1-23.8-25.9-38.9c6.6,2.1,13.8,3.8,20.2,4.1
		c-8.3-7.6-15.2-18.5-20.9-30.2c4.8,1.4,9.8,2.4,14.2,2.7c-7.7-7-14-17.5-19.1-28.5c4.5,1.4,9.4,2.5,13.7,2.7c-7-6.4-12.6-16-17-26
		c3.7,1.1,7.6,2,11.1,2.2c-6.7-6.1-11.9-16.1-15.7-25.8c3.1,1,6.5,1.9,9.5,2c-5.3-4.8-9.3-12.8-12.1-20.4c2.3,0.8,5,1.5,7.3,1.6
		c-9.3-8.5-13.1-30.2-13.1-30.2s-4,18.9-13.1,30.2c1.9,0.1,4.2-0.5,6.4-1.1c-2.8,6.8-6.5,14.1-11.2,19.9c2.5,0.1,5.4-0.5,8.2-1.4
		c-3.7,8.7-8.5,17.8-14.4,25.2c2.8,0.1,6.1-0.5,9.3-1.4c-4.1,8.9-9.2,17.7-15.2,25.2c3.4,0.1,7.5-0.6,11.5-1.7
		c-4.7,9.7-10.3,19.3-16.9,27.5c3.5,0.1,7.5-0.5,11.6-1.5c-5.2,10.3-11.3,20.4-18.3,29.1c5.1,0.2,11.2-1,17.2-2.7
		c-6.3,13.2-14,26.3-22.9,37.4c6,0.2,13.1-1.2,20-3.2c-7,14.5-15.4,28.9-25.3,41.1c12.9,0.5,30.7-7,42.1-12.6v24.9h22v-25.4
		c11,5.2,28.5,12.4,42.5,13.1C1207.9,997.1,1198.4,981.5,1190.8,964.9z"/>
	<path fill="#132625" d="M622.2,967.4c7,2.5,14.3,4.6,20.9,5.5c-10.9-11.5-19.3-28-25.7-45.2c7.2,2.8,15.1,5.3,22.1,6.2
		c-8.4-8.8-15.1-21.1-20.5-34.2c4.4,1.5,8.9,2.6,13,3.1c-7.8-8.2-13.9-19.8-18.6-32.1c4.6,1.8,9.4,3.4,13.7,4.1
		c-6.9-7.7-12-18.7-15.8-30.1c3.7,1.7,7.7,3.2,11.3,3.9c-6.4-7.8-10.6-19.5-13.3-30.8c3.2,1.7,6.9,3.4,10.2,4.1
		c-4.7-6.1-7.6-15.3-9.3-24c2.1,1.2,4.4,2.3,6.5,2.9c-8-11.4-6.9-35.9-6.9-35.9s-8.9,19.5-21.5,29.5c2.4,0.6,5.5,0.5,8.4,0.2
		c-4.4,7.1-10,14.7-16.5,20.4c2.7,0.6,6.1,0.4,9.3,0c-5.4,9.2-12.2,18.7-20,26.1c3.3,0.6,7.4,0.4,11.4-0.2
		c-5.7,9.7-12.4,19.4-20.2,27.2c4.1,0.6,9.1,0.1,14-0.8c-6,10.7-13.1,21.3-21.3,30.1c4.6,0.5,10-0.1,15.4-1.2
		c-6.6,11.1-14.2,22-22.7,31.2c5.6,0.6,12.4-0.2,19.1-1.6c-8.1,14.1-17.5,28-28.3,39.6c7.9,0.9,17.7-0.7,26.8-3
		c-8.1,17.3-17.9,34.5-29.6,49c14.4,0.6,34.1-7.8,46.7-14v27.6h24.4v-28.1c12.2,5.8,31.6,13.7,47.1,14.6
		C640.3,1000.4,630.3,984.5,622.2,967.4z"/>
	<path fill="#132625" d="M1504.7,932c8.5,2.6,17.8,4.9,25.9,5.3c-11.6-10.6-21.1-26.4-28.8-43.1c7.4,2.3,15.4,4.2,22.4,4.6
		c-9.2-8.4-16.9-20.5-23.2-33.5c5.3,1.5,10.9,2.7,15.8,2.9c-8.5-7.8-15.5-19.4-21.1-31.6c5,1.5,10.4,2.8,15.2,3
		c-7.7-7.1-14-17.7-18.9-28.9c4.1,1.2,8.5,2.3,12.3,2.5c-7.4-6.8-13.2-17.8-17.4-28.7c3.4,1.1,7.2,2.1,10.5,2.3
		c-14.1-12.9-20-45.9-20-45.9s-6,28.6-20,45.9c2.7,0.1,6-0.6,9.1-1.6c-4.1,9.7-9.4,19.8-16,28c3.1,0.1,6.7-0.5,10.3-1.5
		c-4.6,9.8-10.2,19.7-16.9,28c3.8,0.2,8.3-0.7,12.7-1.9c-5.2,10.8-11.4,21.4-18.7,30.5c3.9,0.2,8.3-0.5,12.8-1.6
		c-5.7,11.4-12.5,22.6-20.3,32.2c5.7,0.2,12.5-1.1,19-3c-7,14.7-15.5,29.2-25.4,41.5c6.6,0.3,14.5-1.3,22.2-3.5
		c-7.8,16.1-17.1,32.1-28,45.6c14.4,0.6,34.1-7.8,46.7-14V993h24.4v-28.1c12.2,5.8,31.6,13.7,47.1,14.6
		C1523.6,967.8,1513.1,950.4,1504.7,932z"/>
	<path fill="#132625" d="M1662.4,889.8c7,2.5,14.3,4.6,20.9,5.5c-10.9-11.5-19.3-28-25.7-45.2c7.2,2.8,15.1,5.3,22.1,6.2
		c-8.4-8.8-15.1-21.1-20.5-34.2c4.4,1.5,8.9,2.6,13,3.1c-7.8-8.2-13.9-19.8-18.6-32.1c4.6,1.8,9.4,3.4,13.7,4.1
		c-6.9-7.7-12-18.7-15.8-30.1c3.7,1.7,7.7,3.2,11.3,3.9c-6.4-7.8-10.6-19.5-13.3-30.8c3.2,1.7,6.9,3.4,10.2,4.1
		c-11.6-15.1-11.8-48.6-11.8-48.6s-10.9,27.2-27.5,41.8c2.7,0.6,6.1,0.4,9.3,0c-5.4,9.2-12.2,18.7-20,26.1c3.3,0.6,7.4,0.4,11.4-0.2
		c-5.7,9.7-12.4,19.4-20.2,27.2c4.1,0.6,9.1,0.1,14-0.8c-6,10.7-13.1,21.3-21.3,30.1c4.6,0.5,10-0.1,15.4-1.2
		c-6.6,11.1-14.2,22-22.7,31.2c5.6,0.6,12.4-0.2,19.1-1.6c-8.1,14.1-17.5,28-28.3,39.6c7.9,0.9,17.7-0.7,26.8-3
		c-8.1,17.3-17.9,34.5-29.6,49c14.4,0.6,34.1-7.8,46.7-14v27.6h24.4v-28.1c12.2,5.8,31.6,13.7,47.1,14.6
		C1680.5,922.8,1670.5,906.9,1662.4,889.8z"/>
	<path fill="#132625" d="M469.9,992.1c5.9,1.8,12.4,3.4,18,3.7c-8.1-7.4-14.7-18.4-20.1-30.1c5.1,1.6,10.7,2.9,15.6,3.2
		c-6.4-5.9-11.8-14.3-16.2-23.4c3.7,1,7.6,1.9,11,2.1c-5.9-5.4-10.8-13.5-14.7-22.1c3.5,1.1,7.3,1.9,10.6,2.1
		c-5.4-4.9-9.7-12.4-13.2-20.2c2.9,0.9,5.9,1.6,8.6,1.7c-13.2-12.1-18.7-43-18.7-43s-5.7,26.9-18.7,43c2.2,0.1,4.7-0.4,7.2-1.1
		c-3.2,6.9-7.1,13.7-11.8,19.5c2.7,0.1,5.8-0.5,8.9-1.3c-3.6,7.5-7.9,14.9-13,21.3c2.7,0.1,5.8-0.4,9-1.1c-4,8-8.7,15.8-14.1,22.5
		c4,0.2,8.7-0.7,13.3-2.1c-4.9,10.2-10.8,20.4-17.7,29c4.6,0.2,10.1-0.9,15.5-2.5c-5.4,11.2-11.9,22.4-19.6,31.8
		c10,0.4,23.8-5.4,32.6-9.8v19.2h17V1015c8.5,4,22,9.6,32.9,10.2C483.1,1017,475.8,1004.9,469.9,992.1z"/>
	<path fill="#132625" d="M375.3,988.5c7,2.5,14.3,4.6,20.9,5.5c-10.9-11.5-19.3-28-25.7-45.2c7.2,2.8,15.1,5.3,22.1,6.2
		c-8.4-8.8-15.1-21.1-20.5-34.2c4.4,1.5,8.9,2.6,13,3.1c-7.8-8.2-13.9-19.8-18.6-32.1c4.6,1.8,9.4,3.4,13.7,4.1
		c-6.9-7.7-12-18.7-15.8-30.1c3.7,1.7,7.7,3.2,11.3,3.9c-16.4-19.7-18.1-64.8-18.1-64.8s-13.3,37.1-35.1,57.4
		c3.3,0.6,7.4,0.4,11.4-0.2c-5.7,9.7-12.4,19.4-20.2,27.2c4.1,0.6,9.1,0.1,14-0.8c-6,10.7-13.1,21.3-21.3,30.1
		c4.6,0.5,10-0.1,15.4-1.2c-6.6,11.1-14.2,22-22.7,31.2c5.6,0.6,12.4-0.2,19.1-1.6c-8.1,14.1-17.5,28-28.3,39.6
		c7.9,0.9,17.7-0.7,26.8-3c-8.1,17.3-17.9,34.5-29.6,49c14.4,0.6,34.1-7.8,46.7-14v27.6h24.4v-28.1c12.2,5.8,31.6,13.7,47.1,14.6
		C393.4,1021.5,383.4,1005.6,375.3,988.5z"/>
	<path fill="#132625" d="M1682.9,926.6v20.2h24.4v-20.8c11.1,4.3,27.8,10,41.2,10.8c-11.6-10.6-21.1-26.4-28.8-43.1
		c7.4,2.3,15.4,4.2,22.4,4.6c-9.2-8.4-16.9-20.5-23.2-33.5c5.3,1.5,10.9,2.7,15.8,3c-8.5-7.8-15.5-19.4-21.1-31.6
		c5,1.5,10.4,2.7,15.2,3c-7.7-7.1-14-17.7-18.9-28.9c4.1,1.2,8.5,2.3,12.3,2.5c-18.9-17.3-26.8-61.7-26.8-61.7s-8.1,38.5-26.8,61.7
		c3.1,0.1,6.7-0.5,10.3-1.5c-4.6,9.8-10.2,19.7-16.9,28c3.8,0.2,8.3-0.7,12.7-1.9c-5.2,10.8-11.4,21.4-18.7,30.5
		c3.9,0.2,8.3-0.5,12.8-1.6c-5.7,11.4-12.5,22.6-20.3,32.2c5.7,0.2,12.5-1.1,19-3c-7,14.7-15.5,29.2-25.4,41.5
		C1654.5,937.3,1671.5,931.4,1682.9,926.6z"/>
	<path fill="#132625" d="M894,976.7v22.1h24.4v-18.9c10.6,4.9,25.5,10.9,37.9,12.5c-10.9-11.5-19.3-28-25.7-45.2
		c7.2,2.8,15.1,5.3,22.1,6.2c-8.4-8.8-15.1-21.1-20.5-34.2c4.4,1.5,8.9,2.6,13,3.1c-7.8-8.2-13.9-19.8-18.6-32.1
		c4.5,1.8,9.4,3.4,13.7,4.1c-6.9-7.7-12-18.7-15.8-30.1c3.7,1.7,7.7,3.2,11.3,3.9c-16.4-19.7-18.1-64.8-18.1-64.8s-13.3,37-35,57.4
		c3.3,0.6,7.4,0.4,11.4-0.2c-5.7,9.7-12.4,19.4-20.2,27.2c4.1,0.6,9.1,0.1,14-0.8c-6,10.7-13.1,21.3-21.3,30.1
		c4.6,0.5,10-0.1,15.4-1.2c-6.6,11.1-14.2,22-22.7,31.2c5.6,0.6,12.4-0.2,19.1-1.6c-8.1,14.1-17.5,28-28.3,39.6
		C863.5,986.3,882.4,980.7,894,976.7z"/>
	<path fill="#132625" d="M1276,1002.6v18.4h18.2v-18.9c9.7,3.9,25.4,9.4,37.9,10.1c-9.2-8.4-16.9-20.5-23.2-33.5
		c5.3,1.5,10.9,2.7,15.8,3c-8.5-7.8-15.5-19.4-21.1-31.6c5,1.5,10.4,2.7,15.2,3c-7.7-7.1-14-17.7-18.9-28.9
		c4.1,1.2,8.5,2.3,12.3,2.5c-18.9-17.3-26.8-61.7-26.8-61.7s-8.1,38.5-26.8,61.7c3.1,0.1,6.7-0.5,10.3-1.5
		c-4.6,9.8-10.2,19.7-16.9,28c3.8,0.2,8.3-0.7,12.7-1.9c-5.2,10.8-11.4,21.4-18.7,30.5c3.9,0.2,8.3-0.5,12.8-1.6
		c-5.7,11.4-12.5,22.6-20.3,32.2C1250.1,1012.7,1266,1006.8,1276,1002.6z"/>
	<path fill="#132625" d="M1810.5,900.8v19.5h18.2v-17.9c9.4,4.5,24.1,10.8,36.1,12.3c-8.4-8.8-15.1-21.1-20.5-34.2
		c4.4,1.5,8.9,2.6,13,3.1c-7.8-8.2-13.9-19.8-18.6-32.1c4.5,1.8,9.4,3.4,13.7,4.1c-6.9-7.7-12-18.7-15.8-30.1
		c3.7,1.7,7.7,3.2,11.3,3.9c-16.4-19.7-18.1-64.8-18.1-64.8s-13.3,37-35.1,57.4c3.3,0.6,7.4,0.4,11.4-0.2
		c-5.7,9.7-12.4,19.4-20.2,27.2c4.1,0.6,9.1,0.1,14-0.8c-6,10.7-13.1,21.3-21.3,30.1c4.6,0.5,10-0.1,15.4-1.2
		c-6.6,11.1-14.2,22-22.7,31.2C1783.4,909.5,1800.4,904.4,1810.5,900.8z"/>
	<path fill="#132625" d="M1101.3,959.1c-11.4-12.2-21.4-26.8-29.8-41.7c7,1.5,14.2,2.3,20.1,1.7c-9-9.7-17-21.1-23.9-32.8
		c5.7,1.2,11.4,1.8,16.2,1.3c-8.6-9.3-16.1-20.4-22.4-31.7c5.2,1,10.4,1.5,14.8,0.9c-8.2-8.3-15.3-18.5-21.2-28.7
		c4.2,0.6,8.5,0.9,12,0.3c-8.3-7.8-15.4-17.8-21.1-27.5c3.4,0.4,7,0.6,9.8,0c-6.8-6-12.7-13.9-17.4-21.5c3,0.4,6.3,0.5,8.8-0.2
		c-13.3-10.6-22.6-31.1-22.6-31.1s1.1,25.7-7.3,37.8c2.2-0.6,4.7-1.8,6.9-3.1c-1.8,9.2-4.8,18.8-9.7,25.3c3.5-0.8,7.3-2.5,10.7-4.3
		c-2.8,11.9-7.2,24.2-14,32.4c3.8-0.7,8-2.3,11.9-4.1c-4,12-9.3,23.6-16.6,31.7c4.6-0.7,9.6-2.4,14.4-4.3
		c-5,12.9-11.4,25.2-19.6,33.8c4.3-0.5,9-1.8,13.7-3.3c-5.6,13.8-12.7,26.7-21.6,36.1c7.4-0.9,15.7-3.5,23.3-6.5
		c-6.7,18.2-15.6,35.5-27,47.6c7-0.9,14.6-3.1,22-5.8c-8.6,18-19.1,34.7-31.7,46.3c16.3-0.9,36.7-9.3,49.6-15.4v29.6h25.7v-29
		c13.3,6.6,34,15.4,49.1,14.8c-12.3-15.3-22.7-33.4-31.2-51.6C1082.7,958.4,1093.1,960,1101.3,959.1z"/>
	<path fill="#132625" d="M184.6,973.3c-9.4-10.1-17.6-22.1-24.6-34.4c5.8,1.2,11.7,1.9,16.6,1.4c-7.4-8-14-17.4-19.7-27.1
		c4.7,1,9.4,1.5,13.4,1.1c-7.1-7.6-13.2-16.8-18.5-26.1c4.3,0.8,8.6,1.2,12.2,0.7c-6.7-6.8-12.6-15.2-17.5-23.7
		c3.5,0.5,7,0.7,9.9,0.2c-6.8-6.4-12.7-14.7-17.4-22.7c2.8,0.4,5.8,0.5,8.1,0c-14.5-12.7-23.9-36.3-23.9-36.3s-0.1,29.1-10.2,42.2
		c2.8-0.7,6-2.1,8.8-3.6c-2.3,9.8-6,20-11.6,26.7c3.1-0.6,6.6-1.9,9.8-3.4c-3.3,9.9-7.7,19.5-13.7,26.1c3.8-0.6,7.9-1.9,11.9-3.5
		c-4.1,10.7-9.4,20.8-16.1,27.9c3.6-0.4,7.4-1.5,11.3-2.7c-4.6,11.4-10.5,22.1-17.8,29.7c6.1-0.8,12.9-2.9,19.2-5.4
		c-5.6,15-12.9,29.3-22.3,39.3c5.7-0.7,12.1-2.6,18.2-4.7c-7.1,14.8-15.7,28.6-26.1,38.2c13.5-0.8,30.3-7.6,40.9-12.7v24.4h21.2
		v-23.9c11,5.4,28.1,12.7,40.5,12.2c-10.2-12.6-18.7-27.6-25.7-42.6C169.3,972.7,177.8,974,184.6,973.3z"/>
	<path fill="#132625" d="M1361.2,994.6v18.9h24.4v-22.1c11.6,4,30.5,9.6,43.8,8.1c-10.8-11.6-20.3-25.5-28.3-39.6
		c6.7,1.4,13.5,2.2,19.1,1.6c-8.6-9.2-16.1-20-22.7-31.2c5.4,1.1,10.9,1.7,15.4,1.2c-8.2-8.8-15.3-19.4-21.3-30.1
		c4.9,0.9,9.9,1.4,14,0.8c-7.8-7.9-14.5-17.5-20.2-27.2c4,0.6,8.1,0.8,11.4,0.2c-21.7-20.4-35-57.4-35-57.4s-1.8,45-18.1,64.8
		c3.6-0.7,7.6-2.2,11.3-3.9c-3.8,11.4-8.9,22.4-15.8,30.1c4.3-0.7,9.2-2.2,13.7-4.1c-4.7,12.3-10.8,23.9-18.6,32.1
		c4.1-0.5,8.6-1.7,13-3.1c-5.4,13.1-12.1,25.4-20.5,34.2c7-0.9,14.9-3.4,22.1-6.2c-6.4,17.3-14.8,33.8-25.7,45.2
		C1335.6,1005.5,1350.5,999.5,1361.2,994.6z"/>
	<path fill="#132625" d="M805.5,979.3v14.6h14.8v-16c8.3,2.9,22.2,7.1,31.9,6c-7-7.5-13.2-16.4-18.6-25.5c4.4,0.9,8.9,1.4,12.6,1
		c-6.7-7.2-12.5-15.8-17.4-24.6c4,0.7,8.1,1.1,11.5,0.7c-6.3-6.4-11.9-14.3-16.5-22.2c3.3,0.5,6.6,0.7,9.3,0.2
		c-17.7-16.6-28.6-46.9-28.6-46.9s-1.4,36.8-14.8,52.9c2.9-0.6,6.2-1.8,9.2-3.2c-3.1,9.3-7.2,18.3-12.9,24.6
		c3.6-0.6,7.5-1.8,11.2-3.3c-3.9,10-8.8,19.5-15.2,26.2c3.3-0.4,7-1.4,10.6-2.6c-4.4,10.7-9.9,20.7-16.7,28
		C785.8,988.1,797.8,983,805.5,979.3z"/>
</g>
</svg>
