<?xml version="1.0" encoding="utf-8"?>
<!-- Generator: Adobe Illustrator 24.0.2, SVG Export Plug-In . SVG Version: 6.00 Build 0)  -->
<svg version="1.1" id="bac1" xmlns="http://www.w3.org/2000/svg" xmlns:xlink="http://www.w3.org/1999/xlink" x="0px" y="0px"
	 viewBox="0 0 1920 1080" enable-background="new 0 0 1920 1080" xml:space="preserve">
<rect id="_x30_" y="3.8" fill="#FCE3D3" width="1927.4" height="1082.8"/>
<polygon id="_x31_" fill="#D4ACB0" points="636,274.9 636,641.5 0,642.5 0,293.8 104.5,249.6 208.5,282.9 333.6,237.7 423.6,284.3 
	"/>
<polygon fill="#B7959B" points="104.5,249.6 0,293.8 0,319.4 "/>
<polygon fill="#A98E9D" points="423.6,284.3 333.6,237.7 270.7,292.7 0,429 0,642.5 636,641.5 636,274.9 "/>
<polygon fill="#9E7A82" points="333.6,237.7 208.5,282.9 0,426.2 0,429 270.7,292.7 "/>
<polygon fill="#C5A1A9" points="1391.3,608.3 994.7,440.7 859.3,315.8 761.2,281.1 680.3,187.7 562.5,293.6 549.8,281.8 417.2,310 
	368.1,335.7 307.8,357.9 244.5,368.2 189.9,407.9 73.3,466.5 0,536.3 0,657.8 "/>
<polygon fill="#B78F8F" points="680.3,187.7 680.3,264.3 594.6,316.8 568.6,320.8 584.5,308.4 469,319 368.1,335.7 417.2,310 
	549.8,281.8 562.5,293.6 "/>
<polygon id="_x32_" fill="#FEC2BA" points="1381.9,696.1 1383.9,335.7 1262.1,293 1235.8,262.8 1187.9,191.2 1161.8,177.8 
	1018.1,286.5 1002.4,271.9 825.1,313.2 750.8,368.4 660.5,416.8 548.4,423.8 422.7,474.6 331.9,467.1 159.6,570.8 0,625.5 0,696.1 
	"/>
<polygon fill="#EBB4AE" points="1161.8,177.8 1161.8,272.2 1031.8,350.6 1042.8,326.6 940.5,331.9 750.8,368.4 825.1,313.2 
	1002.4,271.9 1018.1,286.5 "/>
<polygon fill="#EBB4AE" points="422.7,474.6 331.9,467.1 159.6,570.8 326,524.2 291.1,545.2 363,521.4 "/>
<polygon id="_x3C_패스_x3E_" fill="#CE989D" points="869.3,397.6 918.1,439 1020.1,425.9 1126.6,464.4 1227.9,378.4 1292.7,361 
	1553.4,138.1 1606.9,150.2 1683,219.4 1825.1,338.9 1825.1,696.1 150.7,696.1 417.8,590.3 583.8,556.9 784.4,430.3 "/>
<polygon fill="#BA8383" points="1553.4,138.1 1438.1,236.7 1292.7,361 1499.3,235.1 1477.9,284.4 1543.9,237 "/>
<polygon fill="#BA8080" points="150.7,696.1 532.6,629.3 504.4,657 634.3,604.3 791.9,508.1 869.3,397.6 784.4,430.3 583.8,556.9 
	417.8,590.3 "/>
<polygon id="_x33_" fill="#FEA79C" points="1393.2,366 1568.2,338.9 1817.8,179.5 1863.1,192.3 1927.4,262.5 1927.4,696.1 
	610.4,696.1 990.6,528.5 1199.7,520.3 "/>
<polygon fill="#DD837F" points="1266.4,467.1 1393.2,366 1568.2,338.9 1436.7,389 1486.9,390.4 1407.3,412 "/>
<polygon fill="#DD837F" points="610.4,696.1 980.8,570.8 962.2,565.7 990.6,528.5 "/>
<polygon fill="#DA8682" points="1222.2,558.7 1545.2,454.5 1837.4,257.2 1927.4,308.6 1927.4,696.1 962.7,696.1 "/>
<polygon fill="#BF6A6A" points="1545.2,454.5 1837.4,257.2 1753,405.6 1737,385.5 1569,487.7 1473.6,513.4 1542,482.1 1233.8,556.5 
	"/>
<rect id="_x34_" y="696.1" fill="#BCA7B3" width="1927.4" height="390.5"/>
<polygon fill="#988B9A" points="57.6,696.1 694.1,1086.6 1927.4,1086.6 1927.4,696.1 "/>
</svg>
