<?xml version="1.0" encoding="utf-8"?>
<!-- Generator: Adobe Illustrator 24.0.2, SVG Export Plug-In . SVG Version: 6.00 Build 0)  -->
<svg version="1.1" id="bac2" xmlns="http://www.w3.org/2000/svg" xmlns:xlink="http://www.w3.org/1999/xlink" x="0px" y="0px"
	 viewBox="0 0 1920 1080" enable-background="new 0 0 1920 1080" xml:space="preserve">
<rect id="_x30_" y="1" fill="#8FD2FC" width="1920" height="1079"/>
<polygon id="_x31_" fill="#9BDAF9" points="1614.7,288.9 721.8,280.6 0,76.7 0,503.5 1758.3,387.4 549.2,385.5 "/>
<polygon fill="#9BDAF9" points="1920,525.9 1920,1 1181.5,139.1 281.3,65.6 742.5,205.2 "/>
<polygon id="_x32_" fill="#ADE3F7" points="-0.7,271.6 328.5,292 549,289.7 295,315.4 -0.7,312.8 "/>
<polygon fill="#B6EAFF" points="1920,20.6 1202.9,23.8 844.9,45.9 335.7,35.1 880.8,71.2 1276.2,45.9 1920,59.6 "/>
<polygon fill="#7DC9EF" points="1920,362.9 1672.7,393.6 1421.6,411.1 1172.9,419.8 1417,431.4 1691.5,433.3 1920,398.4 "/>
<polygon fill="#B6EAFF" points="-0.7,122.7 398.6,147.7 886.3,135.4 1652.7,144.7 846,154.1 336.1,162.4 -0.7,170.6 "/>
<polygon fill="#7DC9EF" points="-0.2,416.5 -0.2,447.4 986.5,445.9 "/>
<polygon fill="#ADE3F7" points="1920,222 1920,256.9 1364.4,251.4 "/>
<path id="_x33_" fill="#D7E7FF" d="M1914,341c-6.3,0-12.1,2.3-16.9,6.3c-2.7-3.1-6.4-5.1-10.6-5.1c-8.3,0-15,7.9-15,17.5
	c0,1.6,0.2,3.2,0.5,4.6c-4.7,1-8.7,3.9-11.5,8.1c-10.4-15.6-26.6-25.6-44.8-25.6c-7.6,0-14.8,1.8-21.4,4.9
	c-2.8-8.1-9.6-13.9-17.5-13.9c-9.1,0-16.6,7.5-18.4,17.5c-1.7-0.3-3.4-0.5-5.1-0.5c-16.5,0-29.9,15.6-29.9,35c0,0.1,0,0.3,0,0.5
	c-0.1,0-0.3,0-0.4,0c-8.5,0-15.7,6.6-18.1,15.7c-4.6-2.3-9.7-3.5-15-3.5c-8.5,0-16.4,3.3-22.8,8.7c-1.5-0.1-3-0.1-4.5-0.1
	c-18,0-34.8,6.4-48.7,17.4c-2.8-14.8-14.1-25.9-27.7-25.9c-15.7,0-28.3,14.9-28.3,33.2c0,1.1,0.1,2.3,0.2,3.4
	c-0.9-0.1-1.8-0.1-2.7-0.1c-20.4,0-37.7,15.2-44.1,36.5c-4.1-1.6-8.5-2.5-13.1-2.5c-14.4,0-27,8.7-34.2,21.9
	c-5.1-4.8-10.8-8.6-17.1-11.1c0.2-1.2,0.3-2.4,0.3-3.7c0-12.2-8.4-22.1-18.9-22.1s-18.9,9.9-18.9,22.1c0,0.1,0,0.1,0,0.2
	c-4.8-10.4-14.2-17.5-25-17.5c-6.9,0-13.2,2.9-18.1,7.7c-3.4-3.8-8-6.1-13-6.1c-8.1,0-15.1,6-17.7,14.5
	c-14.1-7.7-29.8-11.9-46.3-11.9c-3.3,0-6.6,0.2-9.9,0.5c-3.1-26.8-22.6-47.4-46.3-47.4c-21.4,0-39.4,16.8-45,39.8
	c-5.9-3.8-12.3-6.7-18.9-8.8c2.5-4.9,3.9-10.7,3.9-16.8c0-18.3-12.7-33.2-28.4-33.2c-13.1,0-24.2,10.4-27.4,24.6
	c-1.6-0.5-3.3-0.8-5.1-0.8c-10.4,0-18.9,9.9-18.9,22.1c0,2.2,0.3,4.3,0.8,6.2c-11.6-6.6-24.5-10.3-38.3-10.3
	c-18.8,0-36.2,7-50.5,18.8c-4-25.4-23.1-44.7-46-44.7c-24.9,0-45.2,22.8-46.7,51.5c-6.1-2.6-12.7-4-19.5-4c-0.7,0-1.3,0-2,0.1
	c0,0,0,0,0-0.1c0-12.2-8.5-22.1-18.9-22.1c-8.3,0-15.3,6.3-17.9,15c-4-2.5-8.5-3.9-13.3-3.9c-15.3,0-27.7,14.2-28.3,31.9
	c-8-2.8-16.5-4.4-25.3-4.4c-30.5,0-57.4,18.3-73,46.1c-8.9-8.3-18.9-15.1-29.7-19.9c2.7-6.9,4.2-14.6,4.2-22.8
	c0-30.2-20.9-54.7-46.7-54.7c-10.5,0-20.2,4.1-28,10.9c-5.2-6.7-12.7-10.9-21-10.9c-13.9,0-25.5,11.7-27.9,27.1
	c-25.7,2.8-46.5,25.8-50.7,55.2c-2.1,0.6-4.2,1.2-6.2,1.9c-5.5-23-23.6-39.9-45-39.9c-11.9,0-22.8,5.2-31.1,13.9
	c-4.9-4.7-11.2-7.5-18-7.5c-15.7,0-28.4,14.9-28.4,33.2c0,4.8,0.9,9.3,2.4,13.4c-21,7.8-38.5,24.6-49.3,46.6
	c-14.7-32.4-43.8-54.5-77.3-54.5c-16.1,0-31.3,5.1-44.3,14.1c-0.8-3.8-1.9-7.4-3.4-10.8c7.1-3.1,12.3-11.2,12.3-20.7
	c0-12.2-8.4-22.1-18.9-22.1c-8.6,0-15.8,6.7-18.1,15.9c-3-1.4-6.1-2.4-9.3-3.1c1.6-4.2,2.5-8.8,2.5-13.6c0-12.1-5.6-22.7-13.9-28.5
	c0.9-2.5,1.5-5.3,1.5-8.2c0-11.3-7.8-20.4-17.5-20.4c-4.8,0-9.1,2.2-12.2,5.9c-4.3-3.2-9.4-5.1-14.8-5.1c-6,0-11.5,2.2-16,6
	c-8.1-16.3-23.2-27.2-40.4-27.2c-23.2,0-42.4,19.8-46.1,45.7c-3.5-0.5-7-0.8-10.6-0.8c-4.3,0-8.6,0.4-12.7,1.1v265.4h1920V341.7
	C1918.1,341.2,1916,341,1914,341z"/>
<path fill="#E3EEFF" d="M16.9,476.9c14.3,0,26.5,11.7,30.5,27.6c20.6-11.6,43.5-18.1,67.7-18.1c8.6,0,17.1,0.8,25.3,2.4
	c10.2-24.7,31-41.6,55-41.6c25.6,0,47.6,19.2,56.9,46.6c4.6-2.5,9.5-4.3,14.6-5.5c0-0.6,0-1.4,0-2c0-21.6,14.3-39.2,31.9-39.2
	c14.4,0,26.6,11.9,30.5,28c10.8-11.2,24.7-18.1,39.9-18.1c24.4,0,45.5,17.4,55.5,42.8c9.9-8.1,21.9-12.8,34.7-12.8
	c21.5,0,40.5,13.2,51.9,33.4c10.1-8.5,22.3-13.4,35.5-13.4c27.3,0,50.6,21.3,59.3,51.3c2.6,1.1,5.2,2.1,7.8,3.4
	c19.2-40.7,54.9-67.9,95.8-67.9c27.9,0,53.4,12.7,72.9,33.7c7.2-11.6,15.3-22.1,24.3-31.4c-7.8-7.1-12.9-18.6-12.9-31.5
	c0-21.6,14.3-39.2,31.8-39.2c0.5,0,1.1,0,1.6,0c8.6-29.2,31.3-50,58-50c34,0,61.7,33.9,61.7,75.8c0,0.7,0,1.5,0,2.2
	c9.1,2.5,18,5.9,26.4,10.2c6.8-18.1,21.6-30.6,38.8-30.6c23.2,0,42.1,22.9,42.7,51.3c3.1-0.4,6.2-0.6,9.4-0.6
	c43.2,0,79,39.1,85.4,90c10.1-14.2,24.9-23.2,41.4-23.2c30.3,0,54.9,30.3,54.9,67.4c0,0.3,0,0.5,0,0.8c1.4-0.1,2.9-0.1,4.3-0.1
	c11.2,0,22,2.1,32.2,5.9c4.6-37.3,30.7-65.9,62.3-65.9c24,0,44.8,16.5,55.5,40.8c0.2-0.1,0.5-0.1,0.7-0.2
	c0.1-42.7,28.3-77.2,63-77.2c7.5,0,14.6,1.6,21.3,4.5c5.5-11.7,15.8-19.5,27.6-19.5c15,0,27.5,12.7,30.9,29.8c4-1.8,8.1-3.2,12.4-4
	c0-0.5,0-1.2,0-1.7c0-42.8,28.2-77.5,63-77.5c14,0,26.9,5.6,37.3,15.1c5.6-11,15.6-18.4,27-18.4c17.6,0,31.8,17.5,31.8,39.2
	c0,1.7-0.1,3.3-0.3,4.9c20.6,2.6,39.6,12.3,55.3,26.9c24.2-17.5,52.4-27.6,82.5-27.6c24.1,0,46.9,6.4,67.5,18v200.3H0V482.9
	C4.9,479.1,10.7,476.9,16.9,476.9z"/>
<path fill="#F3F8FF" d="M1867.3,398.7c-27.6,4.9-47,39.1-43.3,76.2c0.2,1.7,0.4,3.4,0.7,5.2c-4.5,2.4-8.7,5.5-12.6,9.2
	c-1.6-3.7-3.7-6.9-6-9.8c4.1-5.7,6.4-14,5.5-22.6c-1.5-14.9-11.7-25.5-22.9-23.6c-11.2,2-19,15.7-17.5,30.8c0.3,3.1,1,6,2,8.6
	c-8,4.8-14,14-16.6,25.2c-10.1-12.2-22.4-21.6-36.3-27c-29.5-11.6-59.9-2.9-82.8,20.1c0.4-2.8,0.4-5.6,0.2-8.5
	c-1.5-14.9-11.7-25.5-22.9-23.6c-7,1.3-12.7,7.1-15.6,14.9c-2.2-1.3-4.4-2.4-6.7-3.3c-26.8-10.5-54.8,10.1-62.6,46.2
	c-4.7,21.8-0.9,44.3,8.8,61c-3.8,4.9-7.3,10.2-10.5,16c-5.8-2.3-12.1-3.3-18.5-2.6c-11.3-23-30.9-37.3-52.1-36.8
	c0.5-3.4,0.6-7,0.2-10.7c-1.9-16.9-13.7-28.5-26.3-25.9c-9.3,2-16.4,11-18.7,22.5c-4.1-1.6-8.6-2.1-13.1-1.1
	c-4.1,0.8-7.9,2.8-11.2,5.5c-10.5-21.6-29.7-34.2-49.9-30c-27.5,5.7-46.4,40.3-42.2,77.3c1.1,10,3.8,19.1,7.7,27
	c-10.8,8.3-20.6,18.7-28.9,30.9c-20.6-30.6-51.8-47.1-84.3-40.3c-9.4,2-18.3,5.7-26.4,10.9c-3.1-21.6-18.4-36.2-34.7-32.9
	c-5.1,1-9.8,3.8-13.6,7.7c-3.9-10.1-12.3-16.2-21.2-14.4c-11.1,2.3-18.7,16.3-17,31.3c0,0,0,0,0,0.1c-0.7,0.1-1.4,0.2-2.1,0.3
	c-7.3,1.5-14.1,4.7-20.2,9.2c-5.6-34.8-30.4-58.3-57-52.7c-6.7,1.4-12.8,4.5-18.2,8.8c-0.1-3.2-0.3-6.4-0.7-9.7
	c-5.2-45-36.4-75.8-69.9-68.9c-3.9,0.8-7.6,2.1-11.2,3.8c-3.7-4.9-8.8-8-14.4-8c-1.9,0-3.8,0.3-5.5,1c-3.5-17.6-15.4-30.6-29.6-30.6
	c-16.9,0-30.6,18.4-30.6,41.1c0,7.6,1.5,14.7,4.2,20.8c-7.2,2.5-14,6.3-20.5,10.9c-6-28.5-25.4-49.3-48.5-49.3
	c-25.6,0-46.7,25.6-50,58.8c-3.5-0.5-7.1-0.7-10.7-0.7c-17.9,0-34.8,5.3-50,14.8c-2.9-10.5-10.3-17.9-19.1-17.9
	c-5.5,0-10.4,2.9-14,7.6c-5.3-6-12.1-9.5-19.6-9.5c-11.7,0-21.8,8.8-27,21.7c0-0.1,0-0.2,0-0.2c0-15.2-9.1-27.3-20.4-27.3
	c-11.2,0-20.4,12.3-20.4,27.3c0,1.5,0.1,3.1,0.3,4.6c-2.7,1.3-5.3,2.8-7.9,4.5c-13.2-16.1-31.5-24.4-50.5-20.5
	c-20.3,4.3-36.7,21.4-45.4,44.2c-12-8.3-27.1-5.7-37.2,7.7c-1.4,1.7-2.5,3.7-3.6,5.6c-7.8-7-18.5-5.9-25.5,3.3
	c-6.1,8-7.6,20.1-4.5,30.1c-4.5,2.5-8.8,5.6-12.8,9.7c-7.4-9.1-17.2-14.6-28-14.6c-5.7,0-11.2,1.5-16.1,4.4
	c-2.5-11.3-10.3-19.4-19.5-19.4c-0.1,0-0.3,0-0.5,0c0-0.2,0-0.3,0-0.6c0-23.9-14.4-43.3-32.2-43.3c-1.9,0-3.7,0.2-5.5,0.7
	c-2-12.4-10.1-21.6-19.9-21.6c-8.6,0-15.9,7.1-18.9,17.2c-7.1-3.9-14.9-6.1-23.1-6.1c-19.6,0-37.1,12.4-48.3,31.7
	c-3-5.2-7.4-8.8-12.4-10c0.4-1.8,0.6-3.8,0.6-5.7c0-12.1-7.3-21.8-16.2-21.8c-4.4,0-8.5,2.4-11.4,6.3c-5.1-4.9-11.4-7.8-18.2-7.8
	c-17.4,0-31.5,19-31.5,42.4c0,4,0.4,8,1.2,11.7c-7.7,1.7-15.1,4.6-22.2,8.2c-2.6-10.9-7.2-20.7-13.3-28.6v100.8h1920V446.8v-8.4
	C1911.1,411.5,1890,394.6,1867.3,398.7z"/>
<polygon id="_x34_" fill="#D0EC85" points="0,625.6 253.3,589 491.7,646.5 800.6,604.7 1074.3,709.3 1353.1,571.8 1490.6,565.3 
	1738,630.8 1920,593.5 1920,1080 0,1080 "/>
<polygon fill="#D8EF9C" points="0,697.9 239.5,646 478.6,701.6 637.1,701.6 699.4,625 709.8,621.8 715.7,676.9 699.9,715.2 
	706.2,733.8 747.3,692.9 836.9,625.6 872.8,638.5 947.3,722.1 642.5,849.9 0,835.1 "/>
<polygon id="_x35_" fill="#B3D963" points="609.6,833.4 884.6,678.1 1201.5,633.6 1579.5,650.7 1586.3,1076 609.6,1076 "/>
<polygon fill="#7D9845" points="1184.5,664.3 1137.7,666.5 1239.4,693.6 1276.8,687.8 "/>
<polygon fill="#EA6A5E" points="1138.8,634.2 1120.5,632.9 1120.5,633.8 1120.5,634.7 1120.5,662.7 1124.5,663.5 1131.4,665 
	1137.7,666.5 "/>
<polygon fill="#C9544F" points="1184.3,631.6 1137.6,634.9 1137.6,636.6 1137.7,666.5 1184.5,664.3 1184.4,637.8 "/>
<polygon fill="#A1433F" points="1184.3,631.6 1137.6,634.9 1137.6,636.6 1165.1,636 1176.8,637.8 1184.4,637.8 "/>
<polygon fill="#DD5F5F" points="1119.3,632.5 1123.5,620.9 1128.5,610.3 1129.8,612.2 1135.3,621.7 1137.6,634.9 1122.6,633.9 
	1119.6,633.8 "/>
<polygon fill="#7F5739" points="1131,664.8 1125.9,663.7 1125.2,663.5 1125.2,642.7 1126.9,642.9 1131,643.3 "/>
<polygon fill="#66462E" points="1126.9,642.9 1125.2,642.7 1125.2,663.5 1125.9,663.7 1125.6,649.6 1125.6,647.2 1126.1,643.6 "/>
<polygon fill="#7F5739" points="1130.7,627.4 1127.5,627.2 1126.8,627.1 1126.7,622.4 1128.5,622.4 1130.6,622.4 "/>
<polygon fill="#66462E" points="1128.5,622.4 1126.7,622.4 1126.8,627.1 1127.5,627.2 1127.3,626.7 1127,624 1127.4,622.6 "/>
<polygon fill="#6B462D" points="1118.8,632.3 1119.5,633.9 1120.5,634.7 1120.5,633.8 1119.9,632.2 1123.8,621 1129.6,611.8 
	1128,609 1122.4,620.7 "/>
<polygon fill="#7F5739" points="1176.1,609.3 1128,609 1129.3,612.8 1134.3,622.2 1136.8,635.5 1138,635.9 1185.4,634.6 
	1186.1,633.8 1182.2,619.8 1177.5,610.3 "/>
<polygon fill="#FFFFC7" points="1156.5,644.3 1147.3,644.6 1147.2,653.8 1155.5,653.5 1156.4,653.5 "/>
<polygon fill="#CCCC9F" points="1156.5,644.3 1154.5,644.3 1155.7,645.2 1156,647.2 1156.1,653 1155.5,653.5 1156.4,653.5 "/>
<polygon fill="#FFFFC7" points="1176.7,643.2 1174.4,643.2 1167.4,643.4 1167.3,652.7 1175.2,652.5 1176.6,652.4 "/>
<polygon fill="#CCCC9F" points="1176.7,643.2 1174.4,643.2 1175.5,644.2 1176.2,645.5 1176.2,652 1175.2,652.5 1176.6,652.4 "/>
<rect x="1153" y="606.7" fill="#7F5739" width="3.7" height="5.4"/>
<polygon fill="#6D482F" points="1131.4,665 1124.5,663.5 1124.5,663.3 1124.7,663.2 1131.2,664.6 1131.4,664.8 "/>
<polygon fill="#C0E55C" points="1302.5,732.2 1098.3,694.7 954.5,689.1 882,693.8 828.9,718.7 813.9,727.4 819.7,739.9 865.7,749.3 
	874.2,764.2 730.5,837.8 949,842.5 "/>
<polygon id="_x36_" fill="#9FCF3B" points="0,777.5 90.8,739.1 337.3,717.1 521.5,717.1 862.9,794.3 1131.1,921.1 1475.2,1080 
	0,1080 "/>
<polygon fill="#AAD451" points="18.8,942.8 33,940 22.1,810.4 11.5,774.7 0.7,779.4 7.1,810.4 "/>
<polygon fill="#AAD451" points="46.8,937.4 61.1,934.5 50.5,802.8 38.9,762.7 28.6,767.2 35.5,802.8 "/>
<polygon fill="#AAD451" points="75.7,932.7 90.1,929.8 79.7,795.9 67,750.4 57.3,754.6 64.8,795.8 "/>
<polygon fill="#AAD451" points="105.3,928.5 119.9,925.7 109.6,789.7 96.2,739.4 90.8,739.9 86.7,741.7 94.9,789.5 "/>
<polygon fill="#AAD451" points="135.7,925.1 150.4,922.2 140.3,784 128.1,736.5 118.2,737.4 125.7,783.9 "/>
<polygon fill="#AAD451" points="166.8,922.3 181.6,919.4 171.7,779.1 160.4,733.5 150.5,734.4 157.2,778.8 "/>
<polygon fill="#AAD451" points="198.4,920.1 213.4,917.3 203.6,774.7 193.2,730.5 183.2,731.4 189.2,774.5 "/>
<polygon fill="#AAD451" points="230.6,918.6 245.6,915.8 236.1,771.1 226.2,727.4 216.3,728.3 221.8,770.8 "/>
<polygon fill="#AAD451" points="263.2,917.8 278.4,914.9 269,768 259.6,724.3 249.8,725.2 254.8,767.7 "/>
<polygon fill="#AAD451" points="296.2,917.6 311.5,914.7 302.4,765.7 293.3,721.2 283.6,722.1 288.3,765.3 "/>
<polygon fill="#AAD451" points="329.5,918 345,915.2 336,764 327.2,718 317.7,718.9 322,763.5 "/>
<polygon fill="#AAD451" points="363.1,919.2 378.7,916.3 369.9,762.9 361.6,717.1 352.2,717.1 356,762.4 "/>
<polygon fill="#AAD451" points="396.9,920.9 412.6,918.1 404,762.5 396.4,717.1 386.9,717.1 390.2,762 "/>
<polygon fill="#AAD451" points="430.8,923.3 446.7,920.5 438.3,762.8 431.1,717.1 421.8,717.1 424.6,762.2 "/>
<polygon fill="#AAD451" points="464.8,926.4 480.8,923.6 472.6,763.7 465.9,717.1 456.7,717.1 459,763.1 "/>
<polygon fill="#AAD451" points="498.8,930.2 514.9,927.3 506.9,765.2 500.5,717.1 491.6,717.1 493.4,764.6 "/>
<polygon fill="#AAD451" points="532.8,934.5 549,931.7 541.2,767.5 535.5,720.4 526.4,718.2 527.8,766.8 "/>
<polygon fill="#AAD451" points="566.6,939.8 582.9,937 575.3,770.6 570.8,728.6 561.3,726.4 562,769.8 "/>
<polygon fill="#AAD451" points="600.2,945.8 616.7,942.9 609.3,774.3 605.8,736.8 595.9,734.5 596.1,773.6 "/>
<polygon fill="#AAD451" points="633.8,952.3 650.4,949.5 643.2,778.8 640.5,745 630.4,742.6 630.1,778 "/>
<polygon fill="#AAD451" points="667.2,959.6 684,956.8 676.9,783.8 674.9,753 664.6,750.6 663.9,783 "/>
<polygon fill="#AAD451" points="700.2,967.5 717.1,964.7 710.2,789.6 708.8,761 698.3,758.5 697.4,788.7 "/>
<polygon fill="#AAD451" points="732.8,976.1 749.8,973.2 743.1,796 742.1,768.8 731.6,766.3 730.3,795.1 "/>
<polygon fill="#AAD451" points="764.8,985.3 782,982.5 775.5,803.1 774.9,776.5 764.4,774 762.8,802.1 "/>
<polygon fill="#AAD451" points="796.3,995.2 813.6,992.3 807.3,810.8 807.1,784 796.7,781.6 794.7,809.8 "/>
<polygon fill="#AAD451" points="827.1,1005.8 844.5,1002.9 838.4,819.2 838.7,791.4 828.3,789 826,818.1 "/>
<polygon fill="#AAD451" points="857.3,1017 874.8,1014.1 868.9,828.2 869.6,800.4 862.9,797.1 859.4,796.3 856.5,827.1 "/>
<polygon fill="#AAD451" points="886.6,1028.8 904.2,1026 898.5,837.9 899.5,815 889.1,809.9 886.3,836.8 "/>
<polygon fill="#AAD451" points="915.1,1041.4 932.9,1038.5 927.4,848.3 928.5,829.2 918,824.1 915.2,847.1 "/>
<polygon id="_x37_" fill="#9DCE37" points="1920,653.5 1702.9,676 1514.5,625.6 1249.9,699.1 1030.9,789.8 776.2,954 1102.7,1080 
	1920,1080 "/>
<polygon fill="#ACD555" points="1920,671.2 1834.7,725.2 1749.3,671 1728.5,678.1 1678.4,762.8 1522,681.6 1494.5,715.7 1526,807.3 
	1328,875.3 1327.9,1080 1920,1080 "/>
<g>
	<polygon fill="#F3FF70" points="1347.3,728.2 1346.3,731.2 1343.7,730.4 1344.9,727.8 	"/>
	<polygon fill="#F3FF70" points="1329,726.5 1329,729.9 1324.5,730.4 1326,726 	"/>
	<polygon fill="#F3FF70" points="1352.5,712.1 1351.6,714.8 1349.2,714.1 1350.3,711.7 	"/>
	<polygon fill="#F3FF70" points="1353.4,734 1352.7,737.3 1349.5,737.6 1351.3,735 	"/>
	<polygon fill="#F3FF70" points="1360.8,696 1360.1,699.3 1356.9,699.6 1358.7,697 	"/>
	<polygon fill="#F3FF70" points="1351.3,751.4 1351.3,752.7 1349.6,752.9 1350.2,751.2 	"/>
	<polygon fill="#F3FF70" points="1374.6,719.7 1373.9,722.4 1371.3,722.7 1372.8,720.5 	"/>
	<polygon fill="#F3FF70" points="1388.6,725.3 1387.9,728 1385.3,728.3 1386.8,726.1 	"/>
	<polygon fill="#F3FF70" points="1370.6,743 1370,745.6 1367.4,745.9 1368.9,743.7 	"/>
	<polygon fill="#F3FF70" points="1397,704.6 1396.4,707.2 1393.8,707.5 1395.3,705.4 	"/>
	<polygon fill="#F3FF70" points="1418.5,708.5 1417.9,711.2 1415.3,711.5 1416.7,709.3 	"/>
	<polygon fill="#F3FF70" points="1407.7,674.1 1407.1,676.8 1404.5,677.1 1406,674.9 	"/>
	<polygon fill="#F3FF70" points="1410.5,729 1410.1,731 1408.1,731.2 1409.2,729.6 	"/>
	<polygon fill="#F3FF70" points="1436.1,731.8 1435.6,733.8 1433.6,734.1 1434.7,732.4 	"/>
	<polygon fill="#F3FF70" points="1423.1,696.3 1422.7,698.2 1420.8,698.4 1421.9,696.9 	"/>
	<polygon fill="#F3FF70" points="1427.9,716.8 1427.6,718.5 1425.9,718.7 1426.8,717.3 	"/>
	<polygon fill="#F3FF70" points="1437.2,703.6 1436.8,705.1 1435.4,705.3 1436.2,704 	"/>
	<polygon fill="#F3FF70" points="1359,726.8 1358.5,728.7 1356.7,728.9 1357.7,727.4 	"/>
	<polygon fill="#F3FF70" points="1337.2,709.9 1336.1,713.1 1333.3,712.3 1334.6,709.5 	"/>
	<polygon fill="#F3FF70" points="1348.6,673.8 1348.6,676.6 1344.9,677.1 1346.1,673.4 	"/>
	<g>
		<polygon fill="#F3FF70" points="1374.8,691.4 1374.8,694 1371.5,694.4 1372.6,691.1 		"/>
		<polygon fill="#F3FF70" points="1389.6,673.6 1388.7,677.3 1385.1,677.7 1387.1,674.7 		"/>
		<polygon fill="#F3FF70" points="1362.7,676.5 1361.6,681.3 1356.9,681.8 1359.6,677.9 		"/>
		<polygon fill="#F3FF70" points="1398.3,676.8 1398.3,679.1 1395.3,679.4 1396.3,676.4 		"/>
		<polygon fill="#F3FF70" points="1385.8,679.8 1385.8,682.4 1382.4,682.8 1383.5,679.4 		"/>
		<polygon fill="#F3FF70" points="1398.5,667.4 1398.6,670.1 1395.1,670.5 1396.2,667 		"/>
		<polygon fill="#F3FF70" points="1371.1,692.5 1370.4,695.6 1367.4,695.9 1369.1,693.4 		"/>
		<polygon fill="#F3FF70" points="1384.5,697.2 1384.5,700.1 1380.8,700.5 1382,696.8 		"/>
		<polygon fill="#F3FF70" points="1372.9,681 1373,683.9 1369.2,684.3 1370.4,680.6 		"/>
	</g>
	<polygon fill="#F3FF70" points="1358.8,695.5 1357.9,698.3 1355.4,697.6 1356.5,695.1 	"/>
	<polygon fill="#F3FF70" points="1326.4,721.3 1326.5,722.9 1324.4,723.1 1325.1,721.1 	"/>
	<polygon fill="#F3FF70" points="1305.7,697.1 1305.7,698.6 1303.6,698.9 1304.3,696.8 	"/>
	<polygon fill="#F3FF70" points="1285.1,717.6 1285.1,719.2 1283.1,719.4 1283.7,717.4 	"/>
	<polygon fill="#F3FF70" points="1296.3,731.1 1296.4,732.7 1294.3,732.9 1295,730.9 	"/>
	<polygon fill="#F3FF70" points="1306.8,753.9 1306.8,755.5 1304.8,755.7 1305.5,753.7 	"/>
	<polygon fill="#F3FF70" points="1259,763 1259,764.4 1257.2,764.6 1257.8,762.8 	"/>
	<polygon fill="#F3FF70" points="1274.8,744 1274.8,745.9 1272.4,746.1 1273.2,743.8 	"/>
	<polygon fill="#F3FF70" points="1241.1,709.2 1241.1,710.1 1240,710.3 1240.3,709.1 	"/>
	<polygon fill="#F3FF70" points="1236.8,766 1236.8,767.2 1235.3,767.3 1235.8,765.9 	"/>
	<polygon fill="#F3FF70" points="1245.5,738.2 1245.5,739.7 1243.5,740 1244.2,738 	"/>
	<polygon fill="#F3FF70" points="1322.8,691.4 1322.8,693.6 1320,693.9 1320.9,691.1 	"/>
	<polygon fill="#F3FF70" points="1310,712.7 1310,713.6 1308.8,713.7 1309.2,712.5 	"/>
	<polygon fill="#F3FF70" points="1346.5,695.2 1345.7,697.6 1343.6,697 1344.5,694.9 	"/>
	<polygon fill="#F3FF70" points="1367.4,706.4 1366.3,709.7 1363.4,708.9 1364.7,706 	"/>
	<polygon fill="#F3FF70" points="1335.8,681.6 1335.8,683.7 1333.1,684 1334,681.3 	"/>
</g>
<polygon id="_x38_" fill="#587C1C" points="0,826.3 114.6,843.6 348.5,800.4 552.4,830.6 750.9,908.2 1137,1080 0,1080 "/>
<g>
	<polygon fill="#4E6419" points="787.3,924.5 853.5,953.9 793.3,1034.4 780.1,1080 707.8,1080 743.4,997.3 	"/>
	<polygon fill="#537216" points="593.8,986.3 600.1,968 647,867.6 711.3,892.8 665.7,978.7 653.1,1002.4 635.1,1080 561.3,1080 
		569.8,1055.5 	"/>
	<polygon fill="#537216" points="451.7,954.5 456.8,935.6 496.1,822.3 552.4,830.6 561.7,834.3 522.8,940 512.9,967.1 494.5,1068.5 
		492.2,1080 418.1,1080 432.4,1026.4 	"/>
	<polygon fill="#537216" points="308.8,951.3 312.6,931.7 344.1,801.2 348.5,800.4 408.1,809.3 379.1,930 371.8,960.4 357.4,1067.1 
		356.3,1080 283.6,1080 294.2,1025.9 	"/>
	<polygon fill="#537216" points="165.3,965 167.9,944.7 184.8,830.6 251.2,818.4 234.8,936.7 230.1,970.5 219.9,1080 150.5,1080 
		155.4,1042.2 	"/>
	<polygon fill="#537216" points="31.7,831.1 96.4,840.8 90.5,947.8 83.2,1080 15.4,1080 21.8,983 	"/>
</g>
<polygon id="_x39_" fill="#597D1F" points="1920,728.4 1630,843.6 1338.4,800.4 1187.6,829.2 607.7,1080 1920,1080 "/>
<g>
	<polygon fill="#6A8A35" points="995.6,995.6 1063.4,902.1 1091.9,870.6 1040.6,892.8 981.3,992.7 	"/>
	<polygon fill="#6A8A35" points="1087.4,1020.1 1103.1,1020.3 1170.6,902.8 1228.1,821.5 1195.6,827.7 1145.5,897.1 	"/>
	<polygon fill="#6A8A35" points="1193.6,1046.4 1210.6,1043.9 1277.8,902.5 1337.1,800.6 1306,806.6 1250.2,900.4 	"/>
	<polygon fill="#6A8A35" points="1299.8,1072.4 1318.1,1067.3 1384.9,901.8 1428.7,813.8 1402.5,809.9 1355,903.5 	"/>
	<polygon fill="#6A8A35" points="1524,827.9 1496.5,823.8 1459.7,906.7 1411.1,1080 1429.4,1080 1492.1,901.3 	"/>
	<polygon fill="#6A8A35" points="1622,842.4 1593.1,838.1 1564.4,910.4 1523.1,1080 1543.9,1080 1599.2,901.3 	"/>
	<polygon fill="#6A8A35" points="1742.5,798.9 1705.5,813.6 1669.2,914.9 1633.8,1080 1657.1,1080 1706.3,902.1 	"/>
	<polygon fill="#6A8A35" points="1861.9,751.4 1824,766.5 1773.9,919.4 1743.4,1080 1769.2,1080 1813.5,902.8 	"/>
	<polygon fill="#6A8A35" points="1920,787.1 1878.7,923.8 1852.2,1080 1880.4,1080 1920,906.5 	"/>
</g>
<polygon id="_x31_0" fill="#3E5605" points="1324.6,938.4 983.2,945.1 747.4,824.5 650.4,814.7 528,837.9 377.1,938.8 249.6,1080 
	1873.5,1080 "/>
<g>
	<polygon fill="#F3FF70" points="756.8,916.6 759,904.7 763.7,909.9 760.2,917.1 	"/>
	<polygon fill="#F3FF70" points="738.8,902.7 740.2,896.3 742.4,901.7 740.8,906.9 	"/>
	<polygon fill="#F3FF70" points="772.3,911.8 774,902.3 777.8,906.5 775,912.2 	"/>
	<polygon fill="#F3FF70" points="770.9,1013.8 771.6,1004.2 776,1009.1 773.6,1019.3 	"/>
	<polygon fill="#F3FF70" points="808.8,978.8 809.3,971.5 812.7,975.2 810.9,983 	"/>
	<polygon fill="#F3FF70" points="795,1015.7 795.6,1009 798.6,1012.4 796.9,1019.4 	"/>
	<polygon fill="#F3FF70" points="787.1,1007.3 788.6,1000.8 790.8,1006.3 789.2,1011.5 	"/>
	<polygon fill="#F3FF70" points="787.1,1010.9 788.1,1006.5 789.6,1010.2 788.5,1013.7 	"/>
	<polygon fill="#F3FF70" points="803,1026.3 803.7,1017.9 807.5,1022.2 805.4,1031.2 	"/>
	<polygon fill="#F3FF70" points="800.6,925.8 802.2,917 805.6,920.9 803.1,926.1 	"/>
	<polygon fill="#F3FF70" points="782,1010.9 782.5,1004 785.6,1007.5 783.9,1014.8 	"/>
	<polygon fill="#F3FF70" points="809.3,1017.1 810.9,1008.5 814.2,1012.3 811.8,1017.4 	"/>
	<polygon fill="#F3FF70" points="761.8,922.3 763.8,913.7 766.7,921 764.6,927.8 	"/>
	<polygon fill="#F3FF70" points="901.7,957.9 903.1,954.1 905.3,958 903.9,960.9 	"/>
	<polygon fill="#F3FF70" points="872.9,1037.7 874.5,1033.2 877.3,1037.8 875.5,1041.4 	"/>
	<polygon fill="#F3FF70" points="831.4,964.9 831.9,960.3 835.4,963.3 833.6,968 	"/>
	<polygon fill="#F3FF70" points="833.1,899.3 835,892.5 839.5,896.5 836.3,900.2 	"/>
	<polygon fill="#F3FF70" points="875.3,1040.5 876.5,1035.9 879.6,1038.6 877.5,1041.1 	"/>
	<polygon fill="#F3FF70" points="842.6,1054.5 843,1050.1 846.3,1053 844.7,1057.4 	"/>
	<polygon fill="#F3FF70" points="856.7,952.6 858,948.9 860.3,952.7 858.8,955.6 	"/>
	<polygon fill="#F3FF70" points="908.2,1001 909.8,995.2 913.7,998.6 910.9,1001.7 	"/>
	<polygon fill="#F3FF70" points="892.8,1044.7 893.3,1039.1 897.6,1042.8 895.5,1048.5 	"/>
	<polygon fill="#F3FF70" points="894.8,943.2 896.6,938.2 899.7,943.3 897.7,947.2 	"/>
</g>
<polygon fill="#465D0F" points="311.6,1080 445.8,992.4 515.9,908.7 600.2,979 666.2,905.3 700.4,917.8 702.8,975.6 689.3,1027.2 
	675.4,1080 "/>
<polygon fill="#465D0F" points="949.7,995.7 919.1,940.9 926.1,925.3 988.5,981.8 1195.5,989 1596.8,1080 892,1080 948.3,1025.7 "/>
</svg>
