<?xml version="1.0" encoding="utf-8"?>
<!-- Generator: Adobe Illustrator 21.1.0, SVG Export Plug-In . SVG Version: 6.00 Build 0)  -->
<svg version="1.1" id="bac1" xmlns="http://www.w3.org/2000/svg" xmlns:xlink="http://www.w3.org/1999/xlink" x="0px" y="0px"
	 viewBox="0 0 1920 1080" enable-background="new 0 0 1920 1080" xml:space="preserve">
<g>
	<rect x="2.1" fill="#F5EFE5" width="1920" height="1059.5"/>
	<polygon id="111" fill="#F7DFCE" points="1922.1,552.6 1690.5,661.9 1422.3,549.2 1249.2,614.8 961.4,707.7 715.1,631.1 581,680.5 
		343.4,575.9 2.1,704.1 2.1,935.7 1922.1,935.7 	"/>
	<polygon fill="#EDCCB9" points="1922.1,634.4 1684.7,564.5 1438,652.8 1146,724 905.4,612.6 662.8,724.2 119.7,583.8 2.1,641.3 
		2.1,920.5 1922.1,920.5 	"/>
	<polygon fill="#F3B495" points="2.1,964.8 1922.1,964.8 1922.1,606.6 1732.5,684.1 1641.7,648 1401.9,733.8 1220.2,669.8 
		1135.1,660.7 836.3,715.3 526.8,670.7 155.7,742.5 2.1,684.1 	"/>
	<polygon fill="#4D6470" points="685.1,819 689.2,818.6 684.3,803.1 677.6,802.9 683.9,801.9 677.6,782.1 669.2,808.4 672.2,809.3 
		668.9,809.3 663.6,825.9 673.8,827.4 663.2,827.2 659.8,837.9 695.4,837.9 689.5,819.3 	"/>
	<polygon fill="#4D6470" points="1554.1,837.2 1549.4,822.5 1544.1,822.6 1549.3,822.2 1543.7,804.7 1540.6,804.6 1543.5,804.1 
		1537.7,785.9 1534.9,794.7 1538.8,795.4 1534.7,795.4 1528.3,815.4 1533.5,815.7 1528,816.3 1524.8,826.5 1533.1,827.8 
		1524.5,827.4 1523.1,831.6 1526.9,832.3 1522.9,832.3 1518.4,846.4 1557,846.4 1554.5,838.6 1546,838.8 	"/>
	<polygon fill="#4D6470" points="1428.6,843.5 1431.6,843.2 1428,832.1 1423.2,832 1427.8,831.3 1423.2,817 1417.2,835.9 
		1419.3,836.5 1417,836.5 1413.2,848.5 1420.5,849.6 1412.9,849.4 1410.4,857.1 1436,857.1 1431.8,843.8 	"/>
	<polygon fill="#4D6470" points="137.1,805.9 142.6,788.4 148.9,788.6 142.8,788 149.4,767.2 153.2,767.1 149.6,766.6 156.5,745 
		159.8,755.3 155.2,756.2 160.1,756.2 167.7,780 161.5,780.3 168,781 171.9,793.1 162.1,794.7 172.3,794.2 173.9,799.2 169.4,800 
		174.1,800 179.4,816.7 133.6,816.7 136.6,807.5 146.8,807.8 	"/>
	<polygon fill="#4D6470" points="997,850.2 1002.1,834.2 1009.5,833.9 1002.6,832.8 1007.2,818.5 1012.8,818.6 1007.3,818.1 
		1012.8,800.9 1016,811.3 1013.8,811.9 1016.2,811.9 1020.8,826.1 1018.5,826.6 1020.9,826.6 1025.1,839.6 1016.1,840.9 
		1025.4,840.7 1028.5,850.2 	"/>
	<polygon fill="#4D6470" points="1702.5,815.6 1705.8,815.2 1701.9,802.8 1696.5,802.6 1701.6,801.9 1696.5,785.9 1689.7,807.1 
		1692.1,807.7 1689.5,807.7 1685.3,821.1 1693.4,822.3 1684.9,822.1 1682.2,830.7 1710.8,830.7 1706,815.8 	"/>
	<polygon fill="#4D6470" points="1376.7,855.7 1372.5,842.7 1367.9,842.8 1372.4,842.4 1367.5,826.9 1364.7,826.8 1367.3,826.4 
		1362.2,810.3 1359.7,818 1363.2,818.7 1359.5,818.7 1353.9,836.4 1358.5,836.6 1353.6,837.2 1350.7,846.2 1358.1,847.4 1350.5,847 
		1349.3,850.8 1352.6,851.4 1349.1,851.4 1345.1,863.8 1379.3,863.8 1377.1,856.9 1369.5,857.1 	"/>
	<polygon fill="#4D6470" points="1889.7,800.6 1884.6,799.6 1890.1,782.5 1892.9,782.4 1890.2,782 1893.2,772.6 1898.8,789.9 
		1893.6,790.1 1899,790.8 1903.8,805.5 1897,806.3 1904.2,806.8 1905.7,811.5 1880.8,811.5 1884.3,800.5 	"/>
	<polygon fill="#4D6470" points="1665.5,821.8 1662.9,821.5 1666,811.9 1670.1,811.7 1666.2,811.1 1670.1,798.8 1675.4,815.2 
		1673.5,815.7 1675.5,815.7 1678.8,826 1672.5,827 1679.1,826.8 1681.2,833.5 1659.1,833.5 1662.8,822 	"/>
	<polygon fill="#4D6470" points="1821.2,809.1 1825.5,795.8 1830.3,795.9 1825.6,795.4 1830.7,779.6 1833.5,779.5 1830.8,779.1 
		1836.1,762.7 1838.6,770.6 1835.1,771.2 1838.8,771.2 1844.6,789.3 1839.9,789.6 1844.8,790.1 1847.8,799.3 1840.3,800.5 
		1848.1,800.2 1850,806.4 1846.2,807.2 1850.2,807 1853.5,817.3 1818.6,817.3 1820.9,810.3 1828.6,810.5 	"/>
	<polygon fill="#4D6470" points="1575.2,830.7 1580.9,829.6 1574.7,810.1 1571.5,810 1574.6,809.6 1571.1,798.8 1564.8,818.5 
		1570.7,818.8 1564.5,819.5 1559.2,836.3 1566.8,837.2 1558.7,837.7 1557,843.1 1585.3,843.1 1581.2,830.5 	"/>
	<polygon fill="#4D6470" points="1338.7,864.7 1334.4,851.4 1328.3,851.1 1334.1,850.3 1330.2,838.2 1325.5,838.3 1330.1,837.9 
		1325.5,823.6 1322.8,832.2 1324.6,832.7 1322.6,832.7 1318.8,844.7 1320.8,845 1318.7,845 1315.2,855.9 1322.7,857 1314.9,856.8 
		1312.4,864.7 	"/>
	<polygon fill="#4D6470" points="197.8,802.8 194.7,802.5 198.3,791 203.3,790.8 198.6,790.1 203.3,775.3 209.6,794.9 207.4,795.6 
		209.8,795.6 213.8,807.9 206.2,809.1 214.1,808.9 216.6,816.9 190.1,816.9 194.5,803 	"/>
	<polygon fill="#4D6470" points="298.4,795.8 293.3,795.2 299.3,776.3 307.6,776 299.8,774.9 307.6,750.6 317.9,782.8 314.2,783.9 
		318.2,783.9 324.7,804.2 312.2,806.1 325.2,805.8 329.4,818.9 285.7,818.9 293,796.2 	"/>
	<polygon fill="#4D6470" points="627.9,828.6 631.1,818.7 634.6,818.8 631.2,818.5 634.9,806.8 637,806.7 635,806.4 638.9,794.2 
		640.8,800.1 638.2,800.5 640.9,800.5 645.2,814 641.8,814.1 645.4,814.6 647.6,821.4 642.1,822.3 647.8,822 648.7,824.9 
		646.2,825.3 648.8,825.3 651.9,834.7 626,834.7 627.6,829.5 633.4,829.7 	"/>
	<polygon fill="#4D6470" points="838.4,837.1 841.8,826.5 845.6,826.5 841.9,826.2 845.9,813.6 848.2,813.5 846.1,813.2 850.2,800 
		852.3,806.3 849.5,806.8 852.4,806.8 857,821.3 853.3,821.5 857.3,822 859.6,829.3 853.6,830.3 859.8,830 860.8,833 858.1,833.5 
		860.9,833.5 864.2,843.7 836.3,843.7 838.1,838 844.3,838.2 	"/>
	<polygon fill="#4D6470" points="255.4,815.5 259.7,802 264.5,802.1 259.8,801.6 264.9,785.6 267.8,785.4 265.1,785 270.4,768.3 
		273,776.4 269.4,777 273.2,777 279.1,795.4 274.3,795.7 279.3,796.2 282.3,805.6 274.7,806.8 282.6,806.5 283.8,810.3 280.4,810.9 
		284,810.9 288.2,823.9 252.7,823.9 255,816.7 262.9,816.9 	"/>
	<polygon fill="#4D6470" points="1190.1,851.3 1194,838.9 1198.5,839 1194.2,838.6 1198.9,823.8 1201.5,823.7 1199,823.3 
		1203.9,808 1206.3,815.4 1203,816 1206.4,816 1211.9,832.9 1207.5,833.1 1212.1,833.6 1214.8,842.2 1207.9,843.3 1215.1,843 
		1216.2,846.6 1213,847.1 1216.4,847.1 1220.2,859 1187.6,859 1189.7,852.4 1197,852.6 	"/>
	<polygon fill="#4D6470" points="359.2,804.8 367.9,803.1 358.6,774 353.7,773.8 358.3,773.1 353.2,757 343.7,786.5 352.5,786.9 
		343.3,788 335.2,813.2 346.7,814.5 334.5,815.4 332,823.4 374.4,823.4 368.3,804.5 	"/>
	<polygon fill="#4D6470" points="192.3,795.7 196.8,795.2 191.5,778.8 184.4,778.5 191.1,777.5 184.4,756.4 175.4,784.4 
		178.6,785.3 175.2,785.3 169.5,803 180.3,804.6 169.1,804.4 165.4,815.8 203.3,815.8 197,796 	"/>
	<polygon fill="#4D6470" points="429.8,819.5 425.7,806.5 421,806.6 425.6,806.1 420.6,790.6 417.8,790.5 420.5,790.1 415.3,774 
		412.9,781.8 416.3,782.4 412.7,782.4 407,800.2 411.6,800.4 406.7,801 403.9,809.9 411.2,811.1 403.6,810.8 401.6,816.9 
		405.4,817.7 401.5,817.5 398.2,827.6 432.4,827.6 430.2,820.7 422.6,820.9 	"/>
	<polygon fill="#4D6470" points="952.4,846.7 947.6,831.6 940.7,831.3 947.2,830.3 942.9,816.7 937.6,816.9 942.7,816.4 
		937.6,800.2 934.5,809.9 936.6,810.5 934.3,810.5 930,824 932.2,824.4 929.8,824.4 925.9,836.7 934.4,838 925.6,837.8 922.7,846.7 
			"/>
	<polygon fill="#4D6470" points="823.4,843.8 818.1,827 810.4,826.7 817.6,825.7 812.8,810.5 806.9,810.7 812.7,810.1 806.9,792.1 
		803.5,803 805.8,803.6 803.2,803.6 798.5,818.6 800.9,819 798.3,819 794,832.7 803.4,834.1 793.6,833.9 790.4,843.8 	"/>
	<polygon fill="#4D6470" points="267.6,819.1 259.7,794.2 248.3,793.8 259,792.2 251.9,769.8 243.2,770 251.7,769.2 243.2,742.6 
		238.1,758.6 241.5,759.6 237.8,759.6 230.7,781.8 234.3,782.4 230.5,782.4 224,802.6 237.9,804.7 223.5,804.4 218.8,819.1 	"/>
	<polygon fill="#4D6470" points="753.8,824.5 746.4,823 754.4,798.1 758.5,797.9 754.6,797.3 759,783.6 767.1,808.8 759.6,809.2 
		767.5,810.1 774.4,831.7 764.5,832.8 775,833.5 777.2,840.4 740.9,840.4 746,824.3 	"/>
	<polygon fill="#4D6470" points="373.2,812.3 367.1,811.1 373.6,790.8 377,790.7 373.8,790.2 377.4,779 383.9,799.6 377.9,799.9 
		384.3,800.6 389.9,818.2 381.9,819.1 390.4,819.7 392.2,825.3 362.6,825.3 366.8,812.1 	"/>
	<polygon fill="#4D6470" points="958.9,827.1 953.8,826.6 959.8,807.8 968,807.5 960.3,806.3 968,782.1 978.2,814.2 974.6,815.3 
		978.6,815.3 985,835.5 972.7,837.4 985.5,837.1 989.7,850.2 946.3,850.2 953.5,827.5 	"/>
	<polygon fill="#4D6470" points="42.6,796.1 39.6,795.8 43.1,784.5 48,784.4 43.4,783.7 48,769.2 54.2,788.4 52,789 54.4,789 
		58.2,801.1 50.8,802.2 58.5,802.1 61,809.9 35,809.9 39.4,796.4 	"/>
	<polygon fill="#4D6470" points="83.7,809.9 78.7,794.4 71.6,794.1 78.3,793.1 73.9,779.2 68.5,779.3 73.8,778.8 68.5,762.3 
		65.3,772.3 67.4,772.9 65.1,772.9 60.7,786.7 62.9,787.1 60.6,787.1 56.5,799.6 65.2,800.9 56.2,800.7 53.3,809.9 	"/>
	<polygon fill="#4D6470" points="1440,855.1 1444.5,841.1 1451,840.8 1444.9,839.9 1448.9,827.3 1453.8,827.4 1449,826.9 
		1453.8,811.9 1456.7,820.9 1454.8,821.5 1456.9,821.5 1460.9,834 1458.9,834.4 1461,834.4 1464.7,845.8 1456.8,847 1465,846.8 
		1467.7,855.1 	"/>
	<polygon fill="#4D6470" points="34.7,796.5 37.5,796.2 34.2,785.8 29.7,785.6 33.9,785 29.7,771.6 24,789.4 26,790 23.8,790 
		20.2,801.2 27.1,802.2 20,802 17.7,809.3 41.7,809.3 37.7,796.7 	"/>
	<polygon fill="#4D6470" points="2.1,805.8 1345.2,862.6 1922.1,805.8 1922.1,1059.5 2.1,1059.5 	"/>
	<polygon fill="#204253" points="340.1,841.5 332.1,840.6 341.6,810.7 354.6,810.3 342.4,808.4 354.6,769.9 371,821 365.2,822.6 
		371.5,822.6 381.8,854.9 362.1,857.8 382.6,857.4 389.2,878.2 320.1,878.2 331.6,842.1 	"/>
	<polygon fill="#204253" points="373.5,839.3 369,837.8 380.4,802.1 396,801.5 381.3,799.3 396,753.3 415.5,814.4 408.6,816.3 
		416.1,816.3 428.4,854.9 404.8,858.4 429.4,857.8 437.3,882.7 354.6,882.7 368.4,839.6 	"/>
	<polygon fill="#204253" points="795.9,886 804.8,858.3 814.8,858.5 805,857.6 815.5,824.6 821.5,824.3 815.9,823.5 826.8,789.2 
		832.1,805.7 824.8,807 832.5,807 844.6,844.9 834.8,845.3 845.2,846.5 851.3,865.7 835.7,868.2 851.8,867.5 854.4,875.5 
		847.3,876.7 854.8,876.7 863.3,903.3 790.4,903.3 795.1,888.6 811.3,889 	"/>
	<polygon fill="#204253" points="1507.9,857 1524.5,853.8 1506.7,798.2 1497.5,797.9 1506.2,796.6 1496.4,765.8 1478.4,822.1 
		1495.1,822.9 1477.5,825 1462.1,873.1 1484,875.6 1460.8,877.2 1455.9,892.5 1536.8,892.5 1525.3,856.5 	"/>
	<polygon fill="#204253" points="1136.4,865.5 1145.3,864.5 1134.8,831.6 1120.4,831 1134,829 1120.4,786.6 1102.4,842.9 
		1108.8,844.7 1101.9,844.7 1090.5,880.2 1112.2,883.4 1089.6,882.9 1082.3,905.9 1158.5,905.9 1145.8,866.2 	"/>
	<polygon fill="#204253" points="1667.3,864.6 1656.9,832.1 1645.2,832.4 1656.6,831.3 1644.3,792.6 1637.3,792.4 1643.9,791.4 
		1631.1,751.2 1624.9,770.5 1633.5,772 1624.4,772 1610.2,816.4 1621.7,817 1609.6,818.4 1602.4,840.8 1620.7,843.8 1601.8,842.9 
		1596.9,858.1 1606.3,860.1 1596.4,859.6 1588.4,884.8 1673.7,884.8 1668.2,867.6 1649.2,868.1 	"/>
	<polygon fill="#204253" points="758.1,902.8 744.7,860.7 725.4,860 743.6,857.2 731.5,819.4 716.8,819.7 731.1,818.3 716.8,773.3 
		708.1,800.4 713.9,802.1 707.6,802.1 695.6,839.6 701.7,840.7 695.3,840.7 684.3,874.9 707.9,878.4 683.4,877.9 675.4,902.8 	"/>
	<polygon fill="#204253" points="1785.2,839.8 1769.4,836.7 1786.4,783.4 1795.3,783.1 1786.9,781.8 1796.3,752.3 1813.6,806.3 
		1797.6,807.1 1814.5,809.1 1829.2,855.2 1808.2,857.6 1830.5,859.2 1835.2,873.9 1757.5,873.9 1768.5,839.4 	"/>
	<polygon fill="#204253" points="2.1,1059.5 1922.1,1059.5 1922.1,846.2 1440.1,886.5 815.5,899.1 2.1,846.2 	"/>
	<polygon fill="#172D3C" points="974.8,899.8 943.1,893.6 977.2,786.9 994.9,786.3 978.2,783.8 997,724.8 1031.5,832.8 999.5,834.4 
		1033.3,838.3 1062.8,930.6 1020.7,935.4 1065.3,938.6 1074.7,967.9 919.4,967.9 941.4,898.9 	"/>
	<polygon fill="#172D3C" points="1211.4,882.1 1190.2,879.7 1215.4,800.8 1249.7,799.5 1217.3,794.7 1249.7,693.1 1292.8,827.9 
		1277.6,832.2 1294.2,832.2 1322.1,920.2 1269.3,925.1 1323.5,923.9 1341,978.8 1158.5,978.8 1188.9,883.7 	"/>
	<polygon fill="#172D3C" points="1672.4,904.5 1693.1,839.7 1716.4,840.2 1693.6,838 1718.2,761 1732.1,760.5 1719,758.5 
		1744.6,678.4 1756.9,716.9 1739.8,720 1757.9,720 1786.1,808.4 1763.2,809.5 1787.4,812.3 1801.6,857 1765.2,862.9 1803,861.2 
		1812.7,891.6 1794,895.4 1813.6,894.5 1829.7,944.7 1659.6,944.7 1670.5,910.4 1708.4,911.5 	"/>
	<polygon fill="#172D3C" points="608.8,879.6 645.4,872.4 606,749.2 585.6,748.5 604.9,745.6 583.1,677.5 543.3,802.2 580.3,804 
		541.3,808.5 515.6,890 564.2,895.5 512.6,899.2 493.4,958.3 672.8,958.3 647.3,878.5 	"/>
	<polygon fill="#172D3C" points="229.4,965.6 193.9,854.7 143.1,852.8 191,845.6 159.2,746 120.4,746.7 158.3,743.1 120.4,624.5 
		97.6,695.9 112.9,700.3 96.2,700.3 64.6,799.2 80.7,802 63.7,802 34.9,892.2 97,901.5 32.4,900.1 11.5,965.6 	"/>
	<polygon fill="#172D3C" points="583.1,958.8 523.7,772.7 490.8,773.3 522.9,770.3 490.8,669.8 470.8,732.6 479.4,734.3 470.3,734 
		446.7,807.9 471,810.5 446,810.3 418.4,896.6 471,904.5 416.3,903.3 398.5,958.8 	"/>
	<polygon fill="#172D3C" points="1922.1,905.9 1238.4,963.5 396,929.6 2.1,947.2 2.1,1059.5 1922.1,1059.5 	"/>
	<rect x="-7.2" y="1046.9" fill="#172D3C" width="1938.8" height="47.4"/>
</g>
</svg>
